<svg viewBox="0 0 56.69291339 56.69291339" xmlns="http://www.w3.org/2000/svg"><g fill="#c08602" stroke="#949495" stroke-miterlimit="10"><path d="m8.22129258 38.38866432 1.61655836 6.1854874 34.74351627-11.35918303-1.61655832-6.18548726z"/><path d="m42.41664987 18.53742145 3.44146249 13.16824631 4.01402269-5.90114678-3.44146241-13.16824602z"/><path d="m12.36453706 12.56825769-5.38320409 3.44885908 21.53956201 29.53286696 5.38320397-3.44885901z"/><path d="m41.81113749 38.95560366-11.46027607 7.34223722 6.85272532 1.9940078 11.46027581-7.34223706z"/><path d="m38.201536 8.5297729-4.94356145-4.05397526-21.43133485 29.61149859 4.94356134 4.05397517z"/><path d="m22.20517862 44.68929246-10.52430262-8.63049416.22119448 7.13351137 10.52430238 8.63049396z"/><path d="m50.02643503 31.85425867 2.32791509-5.95435359-34.78485538-11.23195436-2.32791503 5.95435345z"/><path d="m10.69354205 27.8147248 4.95589934-12.67617595-6.71601962 2.41474469-4.95589923 12.67617567z"/><path d="m31.4976256 50.30806843 6.38229211.37398237-.06688807-36.55322815-6.38229196-.37398236z"/><path d="m23.18491825 11.65197965 13.58721685.79618657-4.37192286-5.64111708-13.58721656-.79618655z"/></g><path d="m0 0h56.692913v56.692913h-56.692913z" fill="none"/></svg>