<svg viewBox="0 0 54.47517531 49.47547705" xmlns="http://www.w3.org/2000/svg"><path d="m16.28348568 17.74086604-3.9724563-14.82559624 12.76537937 2.06019753 3.97245621 14.82559591z" fill="#c08602"/><path d="m16.28348568 17.74086604-3.9724563-14.82559624 12.76537937 2.06019753 3.97245621 14.82559591z" fill="none" stroke="#949495" stroke-miterlimit="10"/><path d="m38.19168964 31.73461102 3.9724563 14.82559623-12.76537937-2.06019753-3.97245622-14.82559591z" fill="#c08602"/><path d="m38.19168964 31.73461102 3.9724563 14.82559623-12.76537937-2.06019753-3.97245622-14.82559591z" fill="none" stroke="#949495" stroke-miterlimit="10"/><path d="m38.77410797 18.74964418 14.82557112 3.97255005-8.16687309 10.02504405-14.82557078-3.97254995z" fill="#c08602"/><path d="m38.77410797 18.74964418 14.82557112 3.97255005-8.16687309 10.02504405-14.82557078-3.97254995z" fill="none" stroke="#949495" stroke-miterlimit="10"/><path d="m15.70106734 30.72583287-14.82557111-3.97255004 8.16687308-10.02504406 14.82557079 3.97254996z" fill="#c08602"/><path d="m15.70106734 30.72583287-14.82557111-3.97255004 8.16687308-10.02504406 14.82557079 3.97254996z" fill="none" stroke="#949495" stroke-miterlimit="10"/><path d="m26.65516932 37.72270536-10.85311481 10.85304619-4.59850629-12.08524159 10.85311458-10.85304595z" fill="#c08602"/><path d="m26.65516932 37.72270536-10.85311481 10.85304619-4.59850629-12.08524159 10.85311458-10.85304595z" fill="none" stroke="#949495" stroke-miterlimit="10"/><path d="m27.82000599 11.75277169 10.85311481-10.85304619 4.59850629 12.08524159-10.85311457 10.85304595z" fill="#c08602"/><path d="m27.82000599 11.75277169 10.85311481-10.85304619 4.59850629 12.08524159-10.85311457 10.85304595z" fill="none" stroke="#949495" stroke-miterlimit="10"/></svg>