<svg viewBox="0 0 55.69064425 55.69064425" xmlns="http://www.w3.org/2000/svg"><path d="m37.08522562 16.61457884 17.46891786 4.82487505-8.10340315 5.85997459-17.46891747-4.82487494z" fill="#c08602"/><path d="m37.08522562 16.61457884 17.46891786 4.82487505-8.10340315 5.85997459-17.46891747-4.82487494z" fill="none" stroke="#949495" stroke-miterlimit="10"/><path d="m18.60541863 39.07606541-17.46891785-4.82487504 8.10340314-5.85997459 17.46891747 4.82487493z" fill="#c08602"/><path d="m18.60541863 39.07606541-17.46891785-4.82487504 8.10340314-5.85997459 17.46891747 4.82487493z" fill="none" stroke="#949495" stroke-miterlimit="10"/><path d="m37.08522562 16.61457884 17.46891786 4.82487505-8.10340315 5.85997459-17.46891747-4.82487494z" fill="#c08602"/><path d="m37.08522562 16.61457884 17.46891786 4.82487505-8.10340315 5.85997459-17.46891747-4.82487494z" fill="none" stroke="#949495" stroke-miterlimit="10"/><path d="m39.07606541 37.08522562-4.82487504 17.46891786-5.85997459-8.10340315 4.82487493-17.46891747z" fill="#c08602"/><path d="m39.07606541 37.08522562-4.82487504 17.46891786-5.85997459-8.10340315 4.82487493-17.46891747z" fill="none" stroke="#949495" stroke-miterlimit="10"/><path d="m16.61457884 18.60541863 4.82487505-17.46891785 5.85997459 8.10340314-4.82487494 17.46891747z" fill="#c08602"/><path d="m16.61457884 18.60541863 4.82487505-17.46891785 5.85997459 8.10340314-4.82487494 17.46891747z" fill="none" stroke="#949495" stroke-miterlimit="10"/><path d="m39.07606541 37.08522562-4.82487504 17.46891786-5.85997459-8.10340315 4.82487493-17.46891747z" fill="#c08602"/><path d="m39.07606541 37.08522562-4.82487504 17.46891786-5.85997459-8.10340315 4.82487493-17.46891747z" fill="none" stroke="#949495" stroke-miterlimit="10"/><path d="m18.60541863 39.07606541-17.46891785-4.82487504 8.10340314-5.85997459 17.46891747 4.82487493z" fill="#c08602"/><path d="m18.60541863 39.07606541-17.46891785-4.82487504 8.10340314-5.85997459 17.46891747 4.82487493z" fill="none" stroke="#949495" stroke-miterlimit="10"/><path d="m37.08522562 16.61457884 17.46891786 4.82487505-8.10340315 5.85997459-17.46891747-4.82487494z" fill="#c08602"/><path d="m37.08522562 16.61457884 17.46891786 4.82487505-8.10340315 5.85997459-17.46891747-4.82487494z" fill="none" stroke="#949495" stroke-miterlimit="10"/><path d="m18.60541863 39.07606541-17.46891785-4.82487504 8.10340314-5.85997459 17.46891747 4.82487493z" fill="#c08602"/><path d="m18.60541863 39.07606541-17.46891785-4.82487504 8.10340314-5.85997459 17.46891747 4.82487493z" fill="none" stroke="#949495" stroke-miterlimit="10"/><path d="m16.61457884 18.60541863 4.82487505-17.46891785 5.85997459 8.10340314-4.82487494 17.46891747z" fill="#c08602"/><path d="m16.61457884 18.60541863 4.82487505-17.46891785 5.85997459 8.10340314-4.82487494 17.46891747z" fill="none" stroke="#949495" stroke-miterlimit="10"/><path d="m39.07606541 37.08522562-4.82487504 17.46891786-5.85997459-8.10340315 4.82487493-17.46891747z" fill="#c08602"/><path d="m39.07606541 37.08522562-4.82487504 17.46891786-5.85997459-8.10340315 4.82487493-17.46891747z" fill="none" stroke="#949495" stroke-miterlimit="10"/><path d="m16.61457884 18.60541863 4.82487505-17.46891785 5.85997459 8.10340314-4.82487494 17.46891747z" fill="#c08602"/><path d="m16.61457884 18.60541863 4.82487505-17.46891785 5.85997459 8.10340314-4.82487494 17.46891747z" fill="none" stroke="#949495" stroke-miterlimit="10"/><path d="m37.08522562 16.61457884 17.46891786 4.82487505-8.10340315 5.85997459-17.46891747-4.82487494z" fill="#c08602"/><path d="m37.08522562 16.61457884 17.46891786 4.82487505-8.10340315 5.85997459-17.46891747-4.82487494z" fill="none" stroke="#949495" stroke-miterlimit="10"/><path d="m18.60541863 39.07606541-17.46891785-4.82487504 8.10340314-5.85997459 17.46891747 4.82487493z" fill="#c08602"/><path d="m18.60541863 39.07606541-17.46891785-4.82487504 8.10340314-5.85997459 17.46891747 4.82487493z" fill="none" stroke="#949495" stroke-miterlimit="10"/><path d="m37.08522562 16.61457884 17.46891786 4.82487505-8.10340315 5.85997459-17.46891747-4.82487494z" fill="#c08602"/><path d="m37.08522562 16.61457884 17.46891786 4.82487505-8.10340315 5.85997459-17.46891747-4.82487494z" fill="none" stroke="#949495" stroke-miterlimit="10"/></svg>