<svg viewBox="0 0 56.69291339 42.71655119" xmlns="http://www.w3.org/2000/svg"><g stroke-linejoin="round" stroke-width=".25"><path d="m22.59716496 26.93616616c-3.59526335-6.41527666-9.74066083-4.5156056-17.33211808-11.97412392-2.77563165-2.72702732-2.72924454-6.70369403-2.72924454-6.70369403s-2.26547711 8.5833627 1.6602507 12.45188025c3.96296038 3.90521017 10.3487438 1.70450631 12.7285887 6.08758348.43517732.8014878.91054514 2.14384569.41506268 2.62873028-1.51596729 1.48354339-12.45188025-5.11910633-12.45188025-5.11910633-.98024705.7915541-.72468831 3.52791638.69177113 5.11910633 3.13514029 3.52188054 11.0129391.37248692 11.76010913 2.35202183.47054157 1.24664245-1.93695915 3.8739183-1.93695915 3.8739183.50046143.81622108 3.69436518-.24482269 5.534169-1.1068338 1.47455992-.69088393 3.74536037-2.02632333 2.7670845-1.93695915-3.36782933.30764668.09163337-3.53401526-1.1068338-5.67252323z" fill="#f5a123" stroke="#f5ea3e" stroke-linecap="square"/><path d="m28.57609349 32.91633822c-6.9387543 3.78549435-8.63308451 5.89739126-8.63308451 5.89739126.41996407 1.00150948 8.63308451-.52421213 8.63308451-.52421213.23653007.67697482-3.39095356 3.01422457-3.39095356 3.01422457.16310847.39910768 3.24342921-.74555561 3.39095356-.39315909.11797294.28180377-1.62365989 1.54141481-1.62365989 1.54141481.07854843.20062284.83618544.10046171 1.62365989-.05966035" fill="#c8930f" stroke="#c8a916" stroke-linecap="square"/><path d="m28.57609349 2.08811726c-.70528027.55548218-5.07018203 4.11296452-5.45619991 10.28079325-.4519371 7.22110833 4.94774401 11.66487606 5.45619991 12.06875424" fill="#f49b23" stroke="#f9f3a2"/><path d="m17.6374656 16.28766861c-1.68045746.58053458-5.81562613-4.6845641-4.90220852-6.05566863.60925697-.91453752 3.96369001-.84576765 5.33475576 1.44182575 1.06644938 1.77934839.55606637 4.27231573-.43254724 4.61384288z" fill="#f5ad16" stroke="#f1eb3f" stroke-linecap="square"/><path d="m34.33646932 26.963928c3.59526335-6.41527666 9.74066083-4.5156056 17.33211808-11.97412392 2.77563165-2.72702732 2.72924454-6.70369403 2.72924454-6.70369403s2.26547711 8.5833627-1.6602507 12.45188025c-3.96296038 3.90521017-10.3487438 1.70450631-12.7285887 6.08758348-.43517732.8014878-.91054514 2.14384569-.41506268 2.62873028 1.51596729 1.48354339 12.45188025-5.11910633 12.45188025-5.11910633.98024705.7915541.72468831 3.52791638-.69177113 5.11910633-3.13514029 3.52188054-11.0129391.37248692-11.76010913 2.35202183-.47054157 1.24664245 1.93695915 3.8739183 1.93695915 3.8739183-.50046143.81622108-3.69436518-.24482269-5.534169-1.1068338-1.47455992-.69088393-3.74536037-2.02632333-2.7670845-1.93695915 3.36782933.30764668-.09163337-3.53401526 1.1068338-5.67252323z" fill="#f5a123" stroke="#f5ea3e"/><path d="m28.35754079 32.94410005c6.9387543 3.78549435 8.63308451 5.89739126 8.63308451 5.89739126-.41996407 1.00150948-8.63308451-.52421213-8.63308451-.52421213-.23653007.67697482 3.39095356 3.01422457 3.39095356 3.01422457-.16310847.39910768-3.24342921-.74555561-3.39095356-.39315909-.11797294.28180377 1.62365989 1.54141481 1.62365989 1.54141481-.07854843.20062284-.83618544.10046171-1.62365989-.05966035" fill="#c8930f" stroke="#c8a916"/><path d="m28.35754079 2.11587909c.70528027.55548218 5.07018203 4.11296452 5.45619991 10.28079325.4519371 7.22110833-4.94774401 11.66487606-5.45619991 12.06875424" fill="#f49b23" stroke="#f9f3a2"/><path d="m39.29616868 16.31543044c1.68045746.58053458 5.81562613-4.6845641 4.90220852-6.05566863-.60925697-.91453752-3.96369001-.84576765-5.33475576 1.44182575-1.06644938 1.77934839-.55606637 4.27231573.43254724 4.61384288z" fill="#f5ad16" stroke="#f1eb3f"/></g></svg>