<svg viewBox="0 0 56.69291339 36.79015336" xmlns="http://www.w3.org/2000/svg"><g stroke-linecap="square" stroke-linejoin="round" stroke-width=".25"><path d="m33.90151516 21.12189463c3.34038081-5.40823603 9.05010658-3.8067666 16.10337519-10.09448102 2.57885606-2.29895112 2.53575753-5.65137898 2.53575753-5.65137898s2.10486841 7.23598591-1.54254891 10.49724136c-3.68201033 3.29218824-9.61508013 1.43694075-11.82620834 5.13198262-.40432586.67567393-.84599297 1.80731466-.38563723 2.21608429 1.40849433 1.25066357 11.56911686-4.31553256 11.56911686-4.31553256.91075343.66729958.67331227 2.9741203-.64272871 4.31553256-2.9128777 2.96903193-10.23218798.31401564-10.92638814 1.98281226-.437183 1.05095025 1.7996404 3.26580842 1.7996404 3.26580842-.46498173.68809445-3.43245691-.20639155-5.14182971-.93308812-1.37002249-.58243215-3.47983685-1.70824042-2.57091486-1.63290421 3.12907049.25935372-.08513712-2.9792618 1.02836594-4.78207662z" fill="#e0e1e1" stroke="#c1c2c2"/><path d="m28.34645669 26.16332678c6.44683836 3.19126486 8.02105076 4.97164591 8.02105076 4.97164591-.39019115.84429713-8.02105076-.44192372-8.02105076-.44192372-.21976151.57070642 3.15055535 2.54106546 3.15055535 2.54106546-.15154506.33645759-3.01348959-.62852172-3.15055535-.33144279-.10960937.23756751 1.50855217 1.2994506 1.50855217 1.2994506-.07297982.16912999-.77690492.08469169-1.50855217-.05029514" fill="#e4e4e5" stroke="#c5c6c6"/><path d="m28.34645669.17437815c.65528014.46828514 4.71073662 3.46733027 5.06938817 8.66696161.41989748 6.08757196-4.59697873 9.83377747-5.06938817 10.17425671" fill="#e6e6e6" stroke="#cdcece"/><path d="m38.50960167 12.14494924c1.56132313.48940493 5.40333323-3.94920278 4.55467143-5.10507762-.56606432-.77097763-3.68268824-.71300293-4.95655367 1.21549457-.99084453 1.50003446-.51664461 3.60166726.40188224 3.88958305z" fill="#e8e8e8" stroke="#c3c4c4"/><path d="m27.57264477 10.05705807.68762192 5.39641082.82228665-5.38087819 5.94743945-.62391394-5.93032079-.74610201-.68762192-5.39641082-.82228664 5.38087819-5.94743945.62391394z" fill="#c5b5d8" stroke="#fff"/><path d="m47.47557432 31.55102551s-16.19807053 6.20439911-16.57528114 4.94554901c0 0 3.07940865.34890366 8.28430176-4.77618027.68086433-.67042542 5.70694033-2.53898838 6.46804237-3.51142883 4.89316333-6.25186864 8.15210772-4.11931229 8.3861866-3.7976532.23654652.32505035-.37440586 1.62454605-6.56324959 7.13971329z" fill="#e8e8e8" stroke="#c3c4c4"/><path d="m22.79139823 21.12189463c-3.34038081-5.40823603-9.05010658-3.8067666-16.10337519-10.09448102-2.57885606-2.29895112-2.53575753-5.65137898-2.53575753-5.65137898s-2.10486841 7.23598591 1.54254891 10.49724136c3.68201033 3.29218824 9.61508013 1.43694075 11.82620834 5.13198262.40432586.67567393.84599297 1.80731466.38563723 2.21608429-1.40849433 1.25066357-11.56911686-4.31553256-11.56911686-4.31553256-.91075343.66729958-.67331227 2.9741203.64272871 4.31553256 2.9128777 2.96903193 10.23218798.31401564 10.92638814 1.98281226.437183 1.05095025-1.7996404 3.26580842-1.7996404 3.26580842.46498173.68809445 3.43245691-.20639155 5.14182971-.93308812 1.37002249-.58243215 3.47983685-1.70824042 2.57091486-1.63290421-3.12907049.25935372.08513712-2.9792618-1.02836594-4.78207662z" fill="#e0e1e1" stroke="#c1c2c2"/><path d="m28.34645669 26.16332678c-6.44683836 3.19126486-8.02105076 4.97164591-8.02105076 4.97164591.39019115.84429713 8.02105076-.44192372 8.02105076-.44192372.21976151.57070642-3.15055535 2.54106546-3.15055535 2.54106546.15154506.33645759 3.01348959-.62852172 3.15055535-.33144279.10960937.23756751-1.50855217 1.2994506-1.50855217 1.2994506.07297982.16912999.77690492.08469169 1.50855217-.05029514" fill="#e4e4e5" stroke="#c5c6c6"/><path d="m28.34645669.17437815c-.65528014.46828514-4.71073662 3.46733027-5.06938817 8.66696161-.41989748 6.08757196 4.59697873 9.83377747 5.06938817 10.17425671" fill="#e6e6e6" stroke="#cdcece"/><path d="m18.18331171 12.14494924c-1.56132313.48940493-5.40333323-3.94920278-4.55467143-5.10507762.56606432-.77097763 3.68268824-.71300293 4.95655367 1.21549457.99084453 1.50003446.51664461 3.60166726-.40188224 3.88958305z" fill="#e8e8e8" stroke="#c3c4c4"/><path d="m29.12026861 10.05705807-.68762192 5.39641082-.82228664-5.38087819-5.94743945-.62391394 5.93032078-.74610201.68762192-5.39641082.82228665 5.38087819 5.94743944.62391394z" fill="#c5b5d8" stroke="#fff"/><path d="m9.21733907 31.55102551s16.19807053 6.20439911 16.57528114 4.94554901c0 0-3.07940865.34890366-8.28430176-4.77618027-.68086433-.67042542-5.70694033-2.53898838-6.46804237-3.51142883-4.89316333-6.25186864-8.15210772-4.11931229-8.3861866-3.7976532-.23654652.32505035.37440586 1.62454605 6.56324959 7.13971329z" fill="#e8e8e8" stroke="#c3c4c4"/></g></svg>