<svg enable-background="new 0 0 800 238.1" viewBox="0 0 800 238.1" xmlns="http://www.w3.org/2000/svg"><path d="m753 6h-706c-4.5 0-8.7 1.1-12.5 3-5.2 2.1-9.3 6.3-11.4 11.4-2 3.7-3.1 8-3.1 12.5v135c0 14.9 12.1 27 27 27h408.5c16.2 17.7 27.1 29.6 27.9 30.5 3.7 4.2 9.2 6.7 14.8 6.7 9.1 0 18.7-7 18.7-19.9v-17.2h236.1c14.9 0 27-12.1 27-27v-135c0-14.9-12.1-27-27-27z"/><path d="m748.5 17.1h-705.9c-6.3 0-11.5 5.1-11.5 11.5v135c0 6.3 5.1 11.5 11.5 11.5h415.3c15.6 17 31.8 34.7 32.7 35.8 1.7 2 6.2 2.6 6.2-3v-32.9h251.6c6.3 0 11.5-5.1 11.5-11.5v-135c.1-6.3-5-11.4-11.4-11.4z" fill="#fff"/></svg>