<svg enable-background="new 0 0 800 411.2" viewBox="0 0 800 411.2" xmlns="http://www.w3.org/2000/svg"><path d="m442.4 334.6c-19.2 0-33.4-9.5-41.1-20.2-9.9-13.7-10.9-30.8-2.5-42.6 2.4-3.4 6.1-5.5 10.2-5.9l64.4-5.6c1-.1 2-.1 2.9.1 11.8 1.5 20.4 11.3 21.6 24.5 1.4 16.8-9.2 38.6-36 46.7-7 2.1-13.5 3-19.5 3zm-20.9-41.6c.4 1.6 1.2 3.3 2.5 5 2.2 3 10.8 12.5 29.8 6.8 9.7-2.9 13.6-8.6 15-11.7.8-1.7 1.1-3.2 1.2-4.3z"/><path d="m486.5 372.7c-9.3 0-17.7-4.1-23.1-11.4-4.9-6.5-6.3-15.8-3.7-24.3 2.5-8.2 8.2-14.5 15.8-17.2 3.3-1.2 6.8-1.8 10.2-1.8 12.6 0 22.2 8 27 15.5 3.6 5.6 4.5 12.7 2.4 19.4-2.3 7.6-8.1 13.9-15.7 17.2-4.2 1.7-8.5 2.6-12.9 2.6z"/><path d="m517.2 301c-21.2 0-43-.3-64.1-.6-20.7-.3-42.1-.6-62.5-.6-4.9 0-9.9 0-14.7.1-19.2.2-34.6.2-48.4.2-55.7 0-119.5-1.1-169.7-9.5-52.1-8.7-86.8-24.2-109.2-48.7-22.7-24.8-31.7-57.9-27.7-101.2 5-53.9 41.6-91.2 108.7-110.9 55.1-16.2 121.7-18.4 179.5-18.4 11.3 0 22.1.1 32.5.2 9.3.1 18 .1 26.2.1 10.8 0 19.1-.1 26-.4 17.3-.7 34.4-1 51-1 103 0 238.9 13.4 301 77.4 23.6 24.3 35.1 54.1 34.2 88.4-1.5 51.3-30.5 86.9-86.4 105.8-50.2 16.8-117.3 19.1-176.4 19.1z"/><g fill="#fff"><path d="m394.3 25.3c-95.2 3.7-346.3-23.3-359.4 116.7s122.3 145.7 340.8 143.8c170.9-1.5 386.4 25.2 390.3-110.2 3.7-131.6-197.2-157.1-371.7-150.3z"/><path d="m410.2 279.9c-11.2 15.9 8.8 50 47.6 38.3 30.8-9.3 31.7-42 16.8-43.9z"/><path d="m480.2 333c-7.9 2.8-9.8 14.4-5.6 20s11.9 7.4 19.3 4.2 10.2-11.2 7-16.1c-3.2-5-10.9-11.6-20.7-8.1z"/></g><path d="m522.4 400.9c-5.3 0-10.6-1.5-15.5-4.5-7.5-4.5-11.2-12.9-9.8-22s7.5-16.2 15.6-18.1c2.8-.7 5.6-1 8.3-1 9.6 0 18 4.4 22.3 11.8 3.9 6.6 4 14.6.3 21.3-4.3 7.9-12.2 12.5-21.2 12.5z"/><path d="m515.9 370c-4.8 1.2-7.7 10.8-1.8 14.5 6 3.6 13.7 3.6 17.2-2.7 3.5-6.4-2.8-14.8-15.4-11.8z" fill="#fff"/></svg>