<svg enable-background="new 0 0 800 520.5" viewBox="0 0 800 520.5" xmlns="http://www.w3.org/2000/svg"><path d="m136.1 499.4c-13.2-4.4-20.8-16-19.7-30.1 1.2-15.3 13.2-33.6 29.2-36.2 11.2-1.9 15-6.4 15.2-7.8 0-.6-1.6-3.3-7.5-5.3-14.8-5.1-30-10.3-35.7-24-4.4-10.8-1.5-23.1 5.4-38.9-3.4-.7-7.2-1.3-10.5-1.9-20.6-3.4-48.8-8.2-69.6-25.2-15.6-12.8-23.7-30.5-22.9-49.9.8-19.5 10.8-39.1 24.9-48.9 20-13.8 26.4-26.6 5.9-58.4-13.1-20.3-12.8-50.7.8-75.6 13.4-24.6 37.1-38.8 64.8-38.8 3.9 0 7.9.3 12 .8 6.9.9 13.3 1.4 19.1 1.4 23.6 0 34.9-7.3 48.1-15.9 11.2-7.2 23.8-15.4 43.3-17.6 2.7-.3 5.5-.5 8.2-.5 19.6 0 34 8.1 45.5 14.6 7.1 4 13.2 7.4 17.7 7.4 1.6 0 4.1-.4 8.1-3.5 27.2-21.3 53.1-32.1 77-32.1 14.8 0 28.7 4.1 41.1 12.3 11.9 7.8 28 16.8 46.2 16.8 11.5 0 22.9-3.4 35.1-10.3 15.9-9.1 34.2-13.8 53-13.8 29.2 0 55.8 11.8 66.2 29.3 8.8 14.8 23.6 18.5 40.7 22.6 17.7 4.4 37.8 9.3 47.8 29.5 7.1 14.4 8.2 26.8 9.2 36.8 1.2 13.4 1.6 17 12.4 21.3 18.7 7.5 30.2 22.8 32.5 43 2.6 23.3-8.1 50.2-24.4 61.4-1.7 1.2-3.4 2.3-5.1 3.4-16.1 10.9-25.8 17.4-28 38.6-3.4 33-26.2 56.9-54.1 56.9-2.1 0-4.3-.1-6.4-.4-5.4-.7-9.5-1.1-13.2-1.1-10.6 0-22.8 2.5-40.2 20.2-13.8 14.1-34.2 22.2-56 22.2-18.9 0-36.3-6.1-46.6-16.2-9.5-9.4-20.3-14.2-32.1-14.2-14.2 0-25.5 6.9-28.2 10.4-8.7 11.6-30.6 31.2-57.4 31.2-6.8 0-13.4-1.3-19.7-3.8-12.8-5.2-20.1-13.8-25.5-20-5-5.9-6.4-7-8.2-7-.8 0-1.9.2-3 .5-2.8.7-3.4 1.3-6.2 8-4 9.6-10.8 25.6-39.1 27-1 0-1.9.1-2.8.1-22.8 0-35.4-13.1-44.6-22.6-7-7.3-10.5-10.4-14.9-10.4-.5 0-.9 0-1.4.1-1.1.1-3.1 1.3-3.9 3.3-1.4 3.7 1.1 9.7 6.8 16.1 9.4 10.7 11.5 24.2 5.7 37.2-8.3 18.5-31.6 32.5-54.1 32.5-1 0-2 0-2.9-.1-1.2-.1-2.4-.1-3.6-.1-10 0-15.4 2.5-17.1 4.8-.3.4-1.3 1.7-.3 4.7l7.3 24.3z"/><path d="m52.4 242c-17.7 12.2-32.2 52.3-1.1 77.8 33.5 27.5 95.1 19 87.8 33.9-18.8 38.4-12 43.3 18.5 53.8 24.6 8.5 21.4 33.2-9.8 38.5-14.4 2.4-28.9 33.8-7.5 41-4.3-14.4 6-27.9 34.3-26.3s59.5-26.8 40.9-47.8c-20.3-22.9-6.9-39.7 5.4-41.2 25.9-3.1 29.5 34.4 64.7 32.8s20.5-28.6 42.6-34.5c22-5.9 22 17.8 45.1 27.1 26.5 10.7 52.8-11.2 61.7-23.1s48.2-29.4 80 2.4c15.8 15.7 59.3 19.3 83.9-5.9s43-25.9 64.6-23 42.6-14.9 45.7-44.8 19.7-38.4 38.7-51.5 33.3-65.8-5.6-81.4c-30.1-12.1-13.2-33.7-28.4-64.5s-65.7-13.8-88-51.3c-12.7-21.3-61.9-33.4-101.5-10.8-39.5 22.6-70.1 9.3-94.9-6.9-27.5-18-62.8-12.3-102.9 19.2-27.6 21.7-44.2-20-86.2-15.3-42 4.8-44.9 41.4-113.8 32-62.3-8.5-85.7 61-64.8 93.4 24.7 38.4 15.8 59-9.4 76.4z" fill="#fff"/></svg>