<svg enable-background="new 0 0 800 481.263" viewBox="0 0 800 481.263" xmlns="http://www.w3.org/2000/svg"><path d="m740.36 184.611c0 37.186 3.575 68.201 34.199 92.461-31.867 2.331-46.168 29.357 0 66.843 0 0-69.174-27.203-87.051-21.763-24.851 7.563 63.837 147.079 63.837 147.079s-124.208-127.648-167.061-127.648h-382.591c-42.854 0-101.727 17.876-101.727 17.876s27.203-27.98 8.55-34.199c-24.644-8.214-88.516 15.546-88.516 15.546 37.036-31.423 34.109-59.848 0-62.179 30.623-24.26 33.643-63.918 33.643-101.103s-3.02-60.398-33.643-84.659c11.334.181 55.094-13.214 0-64.957 0 0 65.224 23.37 90.848 19.1 18.654-3.109-10.104-34.976-10.104-34.976s58.095 14.768 100.95 14.768h391.165c42.854 0 103.199-14.768 103.199-14.768s-36.509 28.19-11.658 35.753c24.85 7.563 95.6-24.095 95.6-24.095-46.168 37.485-34.976 66.843-5.441 66.843-30.623 24.26-34.199 56.893-34.199 94.078z"/><path d="m733.82 184.671c0 37.186-1.162 65.074 29.461 89.335-21.145-2.364-46.168 23.02 0 60.506 0 0-60.214-25.931-85.065-18.368-24.851 7.564 57.299 132.707 57.299 132.707s-99.803-114.34-142.657-114.34h-303.203-87.961c-42.854 0-89.679 15.876-89.679 15.876s29.173-26.681 4.322-34.244-85.065 18.368-85.065 18.368c46.168-37.485 21.144-62.87 0-60.506 30.623-24.26 29.461-52.149 29.461-89.335 0-37.185 1.162-65.074-29.461-89.334 21.144 2.364 46.168-23.02 0-60.506 0 0 60.214 25.931 85.065 18.368s-4.322-34.245-4.322-34.245 46.825 15.875 89.679 15.875h87.961 303.204c42.854 0 89.679-15.875 89.679-15.875s-29.173 26.681-4.322 34.244 85.065-18.368 85.065-18.368c-46.168 37.485-21.145 62.87 0 60.506-30.624 24.262-29.461 52.151-29.461 89.336z" fill="#fff"/></svg>