<svg enable-background="new 0 0 800 797" viewBox="0 0 800 797" xmlns="http://www.w3.org/2000/svg"><ellipse cx="398.1" cy="399" fill="#fff" rx="313.7" ry="314.2"/><path d="m622.7 680.6c1.2-.9-10.6-16-19.9-28.5-3.2-4.3-5.4-7.9-7.3-11 .6.6 1.1 1.2 1.7 1.9 10.3 11.5 22.7 26.1 23.8 25.1.8-.7-4.8-8-11.4-16.5 3 2.5 6.3 5.6 10.2 9.8 11.8 12.7 26 28.8 27.4 27.6s-12.5-17.6-23.3-31.2c-1.8-2.2-3.3-4.2-4.6-6.1 6.1 6.4 11 11.3 11.7 10.8 1-.9-9.9-13.6-19.3-24.9 1 .9 2 1.9 3.1 3 11.1 11.2 24.3 25.5 25.5 24.5 1-1-9.4-12.8-18.9-23.9.9.9 1.9 1.8 2.9 2.8 11.5 11.3 25.3 25.7 26.5 24.6s-12.3-15.8-22.9-27.9c-2.4-2.7-4.3-5.1-5.9-7.4 11.2 10.8 23.6 23.1 24.6 22.1s-9.7-12.5-19.8-23.4c1.1 1 2.3 2 3.5 3.1 12.6 11.7 27.7 26.5 29 25.3 1.2-1.3-13.7-16.4-25.4-28.9-1.8-1.9-3.4-3.7-4.7-5.4 12.4 11.2 26.9 24.8 28 23.6 1.2-1.2-13.8-15.9-25.6-28.1 3 2 6.3 4.4 10.3 7.9 11.5 9.9 25.4 22.6 26.5 21.5s-12.6-14-23.3-24.8c-2.5-2.6-4.6-4.8-6.3-6.9.8.6 1.6 1.3 2.4 1.9 13 10.8 28.5 24.5 29.6 23.2s-14.2-15.3-26.3-27c-1.3-1.3-2.5-2.5-3.6-3.7 1.6 1.1 3.2 2.4 5 3.8 12.2 9.8 26.8 22.3 27.9 21.1 1-1.2-13.4-13.9-24.8-24.6l-.5-.5c11.9 9.3 26.2 21.1 27.2 20s-12.5-12.7-23.5-22.7c1.7 1.1 3.5 2.4 5.4 3.8 12 9.1 26.5 20.7 27.4 19.5s-13.2-13-24.4-22.9c.3.2.6.4.9.7 14.1 10.3 31.1 23.6 32.2 22.1 1.1-1.4-15.6-15-28.9-26.4-3.4-2.9-6.1-5.5-8.4-7.9 9.6 6.9 18.3 13.1 19 12.2s-7.2-7.4-16.1-14.6c1.3.8 2.7 1.8 4.2 2.8 14.3 9.9 31.7 22.6 32.8 21.1 1-1.4-16.1-14.4-29.7-25.3-3.7-2.9-6.5-5.6-9-7.9l.3.2c14.1 9.3 31.2 21.3 32.1 19.9 1-1.4-15.9-13.6-29.3-24-1.3-1-2.5-2-3.6-2.9 2.2 1.2 4.7 2.6 7.4 4.4 14.1 9 31.2 20.5 32.2 19.2.9-1.3-15.5-12.9-28.8-22.8.4.2.7.4 1.1.7 13.9 8.5 30.6 19.5 31.5 18.1s-15.7-12.6-28.9-22.2c-3.2-2.3-5.8-4.4-8.1-6.4.9.5 1.9 1.1 2.9 1.7 13.8 8.2 30.7 18.7 31.5 17.4.8-1.2-13.1-10.4-25.6-19 1.8.9 3.7 1.9 5.8 3.1 14.6 8.3 32.2 19 33.1 17.5.9-1.4-16.6-12.4-30.4-21.8-2.5-1.7-4.6-3.2-6.5-4.7 2.4 1.1 5 2.3 8 3.9 13.9 7.6 30.9 17.4 31.7 16s-16-11.5-29.3-20.1c-1.8-1.2-3.4-2.3-4.9-3.3 2.5 1.1 5.3 2.4 8.5 4 14.9 7.7 33.1 17.8 33.9 16.3.9-1.5-17.1-11.9-31.4-20.8-2.8-1.7-5.2-3.4-7.3-4.9 2.3 1 4.9 2.1 7.8 3.5 14.5 7.2 32.2 16.5 33 15.1.8-1.5-16.7-11.2-30.6-19.4-1.6-1-3.1-1.9-4.4-2.8 2.2.9 4.5 1.9 7.2 3.1 15.3 7.2 34 16.7 34.8 15.2.8-1.6-17.7-11.4-32.4-19.8-3.9-2.2-7.1-4.3-9.8-6.2.9.4 1.9.8 3 1.3 14.5 6.5 32.3 15.1 33 13.7s-16.8-10.3-30.8-18c-1.6-.9-3.1-1.7-4.5-2.6 14.5 6.4 29.9 13.4 30.5 12 .7-1.5-17.2-10.3-32.2-18.1 3.3 1 7.1 2.3 11.5 4.1 15.8 6.5 35 15 35.7 13.4s-18.4-10.5-33.6-18.1c-2.7-1.3-5-2.6-7.1-3.8 15.2 6 31.7 12.9 32.4 11.5.5-1.2-11.3-6.8-24-12.8.9.3 1.8.6 2.8 1 15.8 5.9 35 13.7 35.6 12.1s-18.4-9.7-33.7-16.8c-2.4-1.1-4.5-2.1-6.4-3.2 2 .6 4.3 1.3 6.7 2.1 15.9 5.6 35.2 13 35.9 11.4.5-1.3-12.1-6.7-25.2-12.3 15.8 5.4 33.7 11.8 34.3 10.2s-17.9-8.9-33.5-15.5c15.1 4.9 32.1 10.7 32.6 9.2.6-1.6-18.5-8.7-33.8-15-3.8-1.5-6.9-3-9.6-4.4 15.6 4.7 34.4 10.9 34.9 9.4.5-1.6-18.6-8.3-34-14.2-.8-.3-1.5-.6-2.3-.9 1.8.4 3.8.9 5.9 1.5 16.3 4.6 36.3 10.9 36.9 9.2.5-1.6-19.3-8.3-35.2-14.1-1-.4-2-.8-2.9-1.1 13.9 3.8 28.4 7.9 28.8 6.6.4-1.5-18.2-7.4-33.2-12.6-3.2-1.1-5.9-2.2-8.2-3.2 2 .4 4.2.8 6.6 1.4 14.7 3.6 32.7 8.6 33.1 7.2s-17.5-6.7-31.9-11.4c-1.8-.6-3.4-1.2-4.9-1.7.7.2 1.5.3 2.3.5 15.8 3.7 35.3 8.7 35.7 7.2.4-1.3-12.9-5.2-26.3-9.3 2.3.3 4.7.8 7.4 1.4 16.8 3.6 37.4 8.6 37.8 6.9s-20.1-7.1-36.6-11.9c-3-.9-5.5-1.7-7.9-2.6 12.8 2.6 24.9 5.1 25.2 3.9s-11.2-4.3-23.6-7.6c4.2.2 9 .6 15.4 1.7 16.2 2.8 36 6.9 36.4 5.3.4-1.7-19.4-6.1-35.2-10.2-6.4-1.7-11.1-3.4-15-5 14.1 2.3 29.8 5.1 30.1 3.8.3-1.4-18-5.2-32.6-8.7-.9-.2-1.7-.4-2.6-.6 2.9.1 6.2.4 10.1 1 15.4 2.2 34.4 5.4 34.7 3.8.3-1.5-18.6-5.1-33.8-8.4-3-.6-5.5-1.3-7.8-2 2.8.1 6 .3 9.7.8 16.1 1.9 35.9 4.9 36.2 3.3s-19.4-4.9-35.4-8.1c-5-1-8.9-2.1-12.3-3.1.9.1 1.8.2 2.8.3 15.6 1.6 34.9 4.1 35.1 2.6s-19-4.4-34.5-7.1c-1.9-.3-3.7-.7-5.3-1.1 3.3 0 7 0 11.6.4 16.1 1.3 35.9 3.5 36.1 1.9s-18.8-4.1-34.5-6.6c2.6 0 5.4 0 8.8.2 14.9 1 33.3 2.7 33.5 1.2s-18.2-3.6-33-5.7c-4.3-.6-7.8-1.4-10.9-2.1 14.4.8 29.5 1.8 29.6.5.1-1.5-19.4-3.4-35.1-5.4-2.4-.3-4.6-.6-6.6-1 1.4 0 2.9 0 4.5.1 15.2.5 33.9 1.7 34 .2.1-1.4-16.9-2.8-31.6-4.4 3.4-.3 7.3-.5 12.2-.5 15.6.2 34.9 1.1 35-.5s-19.2-2.8-34.7-4.2c-4.1-.4-7.5-.9-10.5-1.5 2-.1 4.2-.2 6.7-.2 15.5 0 34.6.5 34.6-1.1 0-1.5-19.1-2.4-34.5-3.6-3.8-.3-6.9-.7-9.7-1.1 1.4-.1 2.9-.1 4.6-.2 15.5-.3 34.6-.1 34.7-1.6 0-1.5-19.1-2.1-34.6-2.9-3.1-.2-5.8-.4-8.3-.8 2.7-.3 5.8-.6 9.5-.7 15.5-.6 34.7-.7 34.7-2.3h-43.4c-1-.1 3.2-.1 2.1-.1s-2.1 0-3.1.1h-52.2c0 1.1 21.4 1.4 36.9 2.1 3.1.2 5.8.4 8.3.7-2.7.3-5.8.6-9.4.7-15.5.5-36.9.3-37 1.4 0 1.1 21.4 1.8 36.8 2.8 3.8.3 6.9.6 9.7 1.1-1.4.1-2.9.1-4.6.1-15.5.2-36.9-.3-36.9.8s21.4 2.2 36.8 3.5c4 .3 7.3.8 10.2 1.3-2.1.1-4.4.2-6.9.2-15.6-.1-37.2-1-37.3.2-.1 1.1 20.8 2.5 36.2 4.1-3.3.3-7 .5-11.7.3-15.2-.4-36.1-1.6-36.2-.6-.1 1.1 20.8 2.8 35.9 4.6 1.9.2 3.7.5 5.3.8-1.8 0-3.8 0-5.9-.1-15.8-.6-37.7-2.3-37.8-1.2s21.7 3.3 37.5 5.4c4.7.6 8.5 1.4 11.7 2.2-13.1-.9-26.7-1.9-26.8-1-.1 1 16.5 3.1 30.6 5.1-2.9.1-6.2 0-10.1-.3-16.1-1.2-38.3-3.6-38.4-2.4-.1 1.1 22 4.1 37.9 6.8 2.3.4 4.4.8 6.3 1.2-3.1 0-6.6-.1-10.8-.5-15.7-1.4-37.2-4.2-37.3-3.1s21.3 4.4 36.8 7.3c4.7.9 8.4 1.9 11.6 2.8-1.3-.1-2.6-.2-4.1-.4-16.1-1.8-38.3-5-38.5-3.9s21.9 4.9 37.7 8.3c3.5.7 6.5 1.5 9.1 2.3-2.5-.1-5.3-.4-8.4-.8-15.5-2-36.7-5.5-36.9-4.4s20.9 5.2 36.1 8.7c1.3.3 2.6.6 3.8.9-2.7-.2-5.7-.4-9.3-1-14.9-2.2-35.4-6-35.6-4.9s20.2 5.3 34.9 8.9c5.9 1.4 10.1 3 13.7 4.4l-.6-.1c-16.2-2.7-38.4-7.2-38.7-6-.2 1 14.4 4.5 28.4 8.1-4.1-.2-8.7-.7-14.9-1.8-15.7-2.9-37.1-7.7-37.4-6.7-.2 1 21.1 6.4 36.4 10.8 2.4.7 4.6 1.4 6.6 2.1-15.7-3.3-33.5-7.4-33.7-6.4s17.8 6 33.4 10.6c-2-.3-4.1-.7-6.4-1.2-15.9-3.5-37.6-9.1-37.9-8s21.3 7.2 36.8 12.2c2.4.8 4.5 1.5 6.5 2.3-14.7-3.5-34.3-8.9-34.6-7.9s19.7 7 34 11.9c2.6.9 4.9 1.8 6.9 2.6-2.4-.4-5-1-8-1.8-15.3-3.9-36.3-10.1-36.6-9s20.5 7.7 35.4 13.1c.4.2.9.3 1.3.5-16-4.4-35.8-10.4-36.1-9.4-.4 1.1 21.8 8.6 37.7 14.6 1.2.5 2.3.9 3.4 1.3-1.5-.4-3.2-.8-4.9-1.3-15.8-4.6-37.4-11.6-37.7-10.5-.4 1.1 21 8.7 36.3 14.8 3.7 1.5 6.8 2.9 9.5 4.3-15.7-4.8-36.9-12.2-37.3-11-.3 1.1 18.2 8.1 33 14.2-16.3-5.3-37.4-13-37.9-11.8-.4 1 15.2 7.3 29.6 13.4-15.4-5.3-34-12.3-34.4-11.3-.4 1.1 21.1 9.9 36.4 16.8 2.4 1.1 4.5 2.1 6.4 3.1-2-.6-4.2-1.3-6.6-2.2-15.8-5.7-37.3-14.3-37.8-13.2-.3.8 11.4 6.1 23.6 11.7-1.1-.4-2.2-.8-3.4-1.3-16.3-6.2-38.6-15.5-39.1-14.5s21.5 10.9 37.2 18.6c2.8 1.4 5.3 2.7 7.5 4-14.9-6.1-32-13.4-32.4-12.5-.5 1 18.9 10.2 33.8 17.8-3.4-1-7.2-2.4-11.7-4.3-15.9-6.7-37.6-16.7-38-15.7s20.9 11.6 36.1 19.7c2.1 1.1 4.1 2.2 5.8 3.3-12.7-5.7-25.7-11.8-26.1-11-.5 1 19.1 11 33 18.8 3.3 1.9 6.1 3.6 8.4 5.2-1.6-.7-3.4-1.4-5.3-2.3-15.4-7.1-36.4-17.6-36.9-16.5-.6 1.1 20.1 12.2 34.8 20.7 2.2 1.3 4.1 2.5 5.9 3.6-1.8-.7-3.7-1.6-5.7-2.6-14.6-7-34.3-17.4-34.9-16.4s18.9 11.9 32.7 20.3c2.4 1.4 4.4 2.8 6.2 4.1-2.7-1.1-5.6-2.4-8.9-4.1-15-7.6-35.4-18.8-36-17.7-.6 1 19.4 12.8 33.6 21.8 2.5 1.6 4.6 3 6.5 4.4-2.1-.9-4.3-2-6.8-3.3-14-7.4-33-18.3-33.6-17.3s18.1 12.4 31.4 21.2c1.8 1.2 3.5 2.4 5 3.5-2.8-1.2-5.9-2.7-9.4-4.7-14.7-8.1-34.5-20-35.1-19-.6.9 17.1 12.3 30.7 21.6-1.6-.8-3.2-1.7-5-2.7-13.9-8-32.8-19.8-33.4-18.8-.6.9 18 13.1 31.1 22.4 3.2 2.2 5.7 4.3 7.9 6.1-1-.6-2.1-1.2-3.3-1.9-13.9-8.3-32.8-20.5-33.4-19.6s16.7 12.8 29.6 22.3c-.6-.4-1.2-.7-1.8-1.1-14.2-8.8-33.4-21.7-34.1-20.7-.7.9 18.2 14.3 31.5 24.4 1.2.9 2.3 1.8 3.3 2.6-2.3-1.3-4.8-2.8-7.7-4.6-14.2-9.2-33.3-22.5-34-21.6s18.2 14.7 31.4 25.2c3.5 2.7 6.2 5.2 8.6 7.4-.5-.3-1-.6-1.5-1-14.4-9.7-33.9-23.8-34.6-22.8-.6.8 13.5 11.8 26.1 21.9-.6-.4-1.3-.9-1.9-1.3-12.7-8.8-29.8-21.6-30.4-20.7-.7.8 16.1 14 27.9 23.9 2.8 2.3 5 4.4 6.9 6.3-13.4-9.7-28.7-21.4-29.4-20.5-.8 1 17.9 16.2 31.1 27.7 1 .9 2 1.8 2.9 2.6-11.5-8.6-24.7-19-25.3-18.2-.7.9 14.2 13.4 25.2 23.3-1.7-1.1-3.5-2.4-5.5-4-12-9.2-28.2-22.5-28.9-21.7s15 14.4 26 24.7l-.6-.5c-12.3-9.6-28.8-23.6-29.5-22.7s15.4 15.2 26.7 26c.6.6 1.1 1.1 1.7 1.6-2.1-1.4-4.3-3.1-6.7-5.1-13-10.6-30.5-25.9-31.3-25s16.3 16.6 28.3 28.5c3.2 3.1 5.6 5.9 7.7 8.4-11.5-9.7-26.2-23-26.9-22.2-.7.7 11.1 12.1 21.1 22.2-3.4-2.3-7.2-5.1-11.7-9.1-12.8-11.2-29.9-27.3-30.7-26.5s15.9 17.4 27.6 29.8c1.8 1.9 3.3 3.6 4.7 5.2-12.6-11.5-29-27.3-29.8-26.5s13.7 15.8 25.1 28.1c-.8-.7-1.6-1.5-2.5-2.3-11.9-11.1-27.7-27-28.5-26.2s14.6 17 25.4 29.2c2.4 2.7 4.4 5.1 6 7.4-11.2-10.9-24.6-24.7-25.4-24s12 14.8 22.2 26.6c-.8-.8-1.6-1.6-2.5-2.4-11.2-11.1-26.1-27-26.8-26.2-.8.7 12.9 16.1 22.9 28.1-.8-.8-1.7-1.7-2.6-2.5-10.7-10.9-24.8-26.5-25.6-25.8s13 16.6 22.6 28.5c1.2 1.4 2.2 2.8 3.1 4.1-10-10.7-19.8-21.5-20.5-20.8-.8.7 10 13.8 19.8 26.1-2.6-2.2-5.4-4.9-8.7-8.6-10.4-11.4-24.3-27.6-25.1-26.9s12.6 17.2 22 29.6c3.2 4.3 5.5 7.8 7.3 10.9-.6-.7-1.2-1.3-1.8-2-10.3-11.6-23.9-28.2-24.7-27.5l34.4 43c-.3-.4.9 1.1 1.5 1.9-.4-.5-.8-1-1.1-1.5z"/><path d="m598.2 650.1.3.4c.1.1 0-.1-.3-.4z"/><path d="m318 750.4c1.5.3 5.9-18.3 9.9-33.3 1.4-5.2 2.8-9.2 4.1-12.6-.1.8-.3 1.7-.4 2.5-2.6 15.2-6.3 34-4.9 34.3 1 .2 3.3-8.7 5.8-19.1-.1 3.9-.4 8.4-1.3 14.1-2.6 17.2-6.4 38.3-4.6 38.6s6-20.7 9.9-37.7c.6-2.8 1.3-5.2 1.9-7.4-1.2 8.8-2 15.7-1.1 15.9 1.4.2 4.5-16.3 7.5-30.7-.1 1.4-.3 2.8-.4 4.3-1.9 15.7-4.8 34.9-3.3 35.2 1.4.2 4.1-15.2 6.9-29.6-.1 1.3-.2 2.6-.4 4-1.7 16-4.4 35.8-2.7 36 1.6.2 4.7-19.5 7.6-35.4.6-3.5 1.4-6.5 2.1-9.2-1.5 15.5-3.4 32.9-1.9 33 1.4.2 3.7-15.4 6-30.1-.1 1.5-.1 3-.3 4.7-1.3 17.1-3.4 38.2-1.7 38.4s4.3-20.8 6.8-37.8c.4-2.6.8-4.9 1.3-7.1-1 16.7-2.6 36.5-1 36.6 1.7.1 3.8-20.7 6.1-37.6.3 3.6.5 7.7.3 13-.6 15.2-1.8 33.9-.3 34.1 1.5.1 3.1-18.6 4.9-33.7.4-3.6.9-6.6 1.5-9.2v3.1c-.4 16.8-1.4 37.6.3 37.7s3.1-20.6 4.7-37.3c.2-1.8.4-3.5.6-5.1.1 1.9.2 4 .2 6.3-.1 15.6-.7 34.9.9 34.9s2.5-19.2 3.8-34.8c0-.2 0-.5.1-.7.2 15.1-.2 33.6 1.3 33.7 1.5 0 2.2-17.7 3.1-32.6.2 2 .3 4.2.4 6.6.4 15 .3 33.6 1.9 33.6 1.5 0 1.9-18.3 2.7-33.3 0 .4 0 .7.1 1.1.7 17.5 1 39.1 2.8 39 1.8 0 2-21.6 2.6-39.1.2-4.5.5-8.2.9-11.5.6 11.8 1.1 22.5 2.2 22.4 1.1 0 1.3-10.2 1.4-21.8.2 1.6.3 3.2.4 5 1.2 17.4 2.1 38.8 3.9 38.8s1.3-21.5 1.4-38.9c0-4.7.3-8.6.6-11.9v.3c1.5 16.8 2.7 37.7 4.4 37.6s.8-21 .5-37.9c0-1.7 0-3.2 0-4.7.4 2.5.9 5.3 1.2 8.5 1.8 16.6 3.4 37.2 5 37.1s.4-20.2-.1-36.8c.1.4.1.8.2 1.3 2 16.1 3.9 36.1 5.5 36s.1-20.1-.7-36.3c-.2-4-.2-7.3-.1-10.3.2 1.1.3 2.2.5 3.4 2.2 15.9 4.4 35.7 6 35.5 1.4-.2 0-16.8-1.1-31.9.4 2 .8 4.1 1.2 6.4 2.6 16.5 5.2 37 6.9 36.8s-.6-20.7-1.9-37.4c-.2-3-.4-5.6-.4-8 .7 2.5 1.3 5.4 1.9 8.7 2.8 15.6 5.6 35 7.2 34.8s-.9-19.6-2.5-35.4c-.2-2.1-.3-4.1-.4-5.9.7 2.7 1.5 5.7 2.2 9.2 3.2 16.5 6.7 37 8.3 36.7 1.7-.3-1.3-20.8-3.3-37.5-.4-3.3-.6-6.2-.7-8.8.7 2.4 1.4 5.1 2.1 8.3 3.4 15.8 7.1 35.4 8.7 35.1s-1.7-20-3.9-36c-.3-1.9-.4-3.6-.6-5.2.7 2.3 1.4 4.7 2 7.6 3.9 16.5 8.1 37 9.8 36.7s-2.1-20.9-4.7-37.7c-.7-4.5-1-8.2-1.2-11.5.3 1 .5 2 .8 3.1 3.9 15.4 8.3 34.6 9.8 34.3 1.6-.4-2.4-19.6-5.2-35.4-.3-1.8-.6-3.5-.8-5.1 4 15.4 8.2 31.7 9.6 31.4 1.6-.4-2.7-19.8-5.9-36.4 1.3 3.2 2.6 7 4 11.6 4.8 16.4 10.1 36.8 11.8 36.4s-3.3-20.8-6.8-37.6c-.6-2.9-1.1-5.6-1.4-8 4.8 15.7 9.7 32.8 11.2 32.4 1.3-.4-1.7-13.1-5-26.8.3.9.6 1.8.9 2.8 5.2 16 11.1 35.8 12.8 35.4 1.6-.5-3.9-20.5-7.9-36.8-.6-2.5-1.1-4.8-1.5-6.9.8 2 1.7 4.1 2.5 6.6 5.5 15.9 11.8 35.7 13.4 35.2 1.3-.4-2.3-13.6-6-27.3 5.7 15.7 11.7 33.7 13.3 33.1s-4.2-19.6-8.8-35.9c5.6 14.8 11.6 31.7 13.1 31.2 1.6-.5-4.7-19.9-9.4-35.7-1.1-3.9-1.9-7.2-2.5-10.2 6.1 15.2 12.9 33.7 14.5 33.2s-5.1-19.7-10.1-35.4c-.2-.8-.5-1.6-.7-2.3.8 1.7 1.6 3.5 2.5 5.5 6.6 15.6 14.1 35.1 15.8 34.5 1.6-.6-5.6-20.3-11-36.4-.3-1-.7-2-1-3 5.7 13.2 11.5 27.1 12.8 26.6 1.4-.6-5.6-18.8-10.8-33.8-1.1-3.2-2-5.9-2.6-8.4 1 1.8 1.9 3.8 3 6 6.3 13.8 13.6 30.9 15 30.4s-5.6-17.8-10.9-32c-.6-1.7-1.2-3.4-1.7-4.9.3.7.7 1.4 1 2.1 7 14.7 15.1 33 16.6 32.3 1.2-.5-4-13.4-9.2-26.4 1.1 2 2.3 4.2 3.6 6.7 7.7 15.3 16.6 34.6 18.2 33.8 1.6-.7-7-20.1-13.4-36-1.2-2.8-2.1-5.4-2.9-7.7 5.9 11.7 11.5 22.7 12.7 22.2 1.1-.5-3.7-11.4-8.8-23.1 2.5 3.4 5.2 7.4 8.3 13.1 7.8 14.4 17 32.4 18.5 31.7 1.5-.8-7.3-19-14-34-2.7-6.1-4.3-10.8-5.5-14.9 7 12.5 14.6 26.5 15.8 25.9 1.3-.7-7.1-17.3-13.6-30.9-.4-.8-.7-1.6-1.1-2.4 1.7 2.4 3.5 5.1 5.5 8.5 7.9 13.4 17.3 30.2 18.7 29.5 1.2-.3-7.8-17.3-14.7-31.3-1.3-2.7-2.4-5.2-3.3-7.4 1.7 2.3 3.5 4.9 5.4 8.1 8.5 13.8 18.6 31.1 20 30.3s-8.3-18.3-15.7-32.7c-2.3-4.5-3.9-8.3-5.2-11.6.5.8 1 1.5 1.5 2.3 8.5 13.2 18.5 29.8 19.9 29.1 1.3-.8-8.4-17.6-15.9-31.4-.9-1.7-1.7-3.3-2.5-4.8 2.1 2.5 4.4 5.5 6.9 9.3 9 13.4 19.6 30.3 21 29.4 1.3-.9-8.5-17.2-16.4-31.1 1.6 2 3.4 4.2 5.3 7 8.5 12.3 18.6 27.7 19.9 26.9s-8.5-16.4-16.1-29.3c-2.2-3.8-3.8-7-5.1-9.8 8.4 11.8 17 24.2 18.1 23.5 1.3-.8-9.4-17.2-17.7-30.8-1.3-2.1-2.4-4-3.3-5.8.9 1.1 1.8 2.3 2.8 3.6 9.1 12.2 19.8 27.5 21 26.7 1.1-.8-8.4-15-16.3-27.5 2.4 2.5 5 5.4 8 9.3 9.6 12.4 20.9 28 22.2 27 1.3-.9-9.8-16.7-18.4-29.8-2.3-3.4-4-6.4-5.4-9.1 1.4 1.5 2.8 3.2 4.3 5.1 9.7 12.1 21.3 27.3 22.5 26.4 1.3-.9-10-16.4-18.8-29.2-2.1-3.1-3.8-5.8-5.2-8.3 1 1.1 1.9 2.2 3 3.5 9.9 11.9 21.7 27 22.9 26 1.2-.9-10.3-16.2-19.3-28.8-1.8-2.6-3.3-4.8-4.6-6.9 2 1.9 4.1 4.2 6.5 6.9 10.1 11.7 22.2 26.6 23.4 25.6l-27.1-33.9c-.6-.8 2 2.4 1.4 1.6-.7-.8-1.3-1.6-2-2.4l-32.6-40.7c-.9.7 12.3 17.6 21.4 30.1 1.8 2.5 3.3 4.8 4.6 6.9-2-1.9-4.1-4.2-6.4-6.9-10-11.8-23.3-28.6-24.2-27.9s12 17.8 20.9 30.5c2.2 3.1 3.8 5.8 5.2 8.3-.9-1.1-1.9-2.2-3-3.5-9.8-12-22.8-29-23.7-28.3-.9.6 11.6 18 20.2 30.9 2.2 3.3 3.9 6.2 5.3 8.8-1.4-1.6-2.9-3.3-4.5-5.3-9.7-12.3-22.5-29.7-23.4-29-.9.6 11 17.8 19.4 30.9-2.3-2.4-4.7-5.2-7.6-8.9-9.2-12.1-21.3-29.2-22.1-28.6-.9.6 10.8 18 18.8 31 1 1.6 1.9 3.2 2.7 4.6-1.2-1.4-2.4-3-3.6-4.7-9.4-12.8-21.8-30.9-22.7-30.3s11 19 19.1 32.6c2.4 4.1 4.2 7.5 5.6 10.5-7.5-10.8-15.2-22.1-15.9-21.6-.9.5 7.9 14.8 15.1 27.1-1.9-2.2-3.9-4.9-6.1-8.1-9.1-13.3-21.1-32.1-22.1-31.5s10.5 19.8 18.3 33.9c1.1 2 2.1 3.9 2.9 5.7-2-2.4-4.1-5.2-6.4-8.8-8.6-13.1-19.9-31.7-20.9-31.2-.9.5 9.9 19.4 17.2 33.3 2.2 4.2 3.8 7.7 5 10.8-.7-1.1-1.5-2.2-2.2-3.4-8.7-13.7-20-33.1-21-32.5s9.8 20.2 17.1 34.7c1.6 3.2 2.9 6 3.9 8.6-1.5-2-3-4.3-4.6-7-8.1-13.3-18.5-32.1-19.5-31.6s9 19.6 15.8 33.6c.6 1.2 1.1 2.4 1.6 3.5-1.6-2.2-3.2-4.8-5-7.9-7.6-13-17.4-31.4-18.4-30.9s8.4 19.1 14.7 32.8c2.5 5.5 4 9.8 5.1 13.5l-.3-.5c-8-14.3-18.3-34.5-19.4-33.9-.9.5 5.5 14.1 11.4 27.3-2.3-3.3-4.9-7.2-7.8-12.7-7.5-14.1-17.1-33.9-18.1-33.4-1 .4 8.2 20.4 14.3 35.1 1 2.3 1.8 4.5 2.5 6.4-7.2-14.4-15.1-30.9-16-30.4-1 .4 6.4 17.7 12.5 32.7-1-1.7-2-3.6-3-5.7-7.2-14.6-16.3-35.1-17.3-34.6s7.7 21.2 13.5 36.4c.9 2.4 1.6 4.5 2.3 6.5-6.4-13.7-14.5-32.4-15.5-32s6.8 19.8 11.9 34c.9 2.6 1.7 4.9 2.3 7-1.2-2.1-2.4-4.6-3.6-7.4-6.5-14.4-14.8-34.7-15.8-34.3s6.7 20.9 11.9 35.9c.1.4.3.9.4 1.3-6.5-15.2-14.1-34.5-15.2-34-1.1.4 6.9 22.5 12.1 38.6.4 1.2.7 2.4 1.1 3.5-.7-1.4-1.3-3-2.1-4.7-6.3-15.2-14.2-36.5-15.3-36.1s6.3 21.8 11.1 37.6c1.2 3.9 2 7.1 2.6 10.1-6-15.3-13.5-36.4-14.6-36.1-1.1.4 5 19.3 9.4 34.7-6-16-13.2-37.3-14.3-36.9-1 .3 3.8 16.5 8 31.5-5.4-15.3-11.5-34.2-12.6-33.9s5.4 22.6 9.5 38.9c.6 2.5 1.1 4.8 1.6 7-.8-2-1.6-4.1-2.4-6.6-5.4-15.9-12.1-38.1-13.2-37.8-.9.2 2.3 12.6 5.5 25.7-.4-1.1-.8-2.3-1.2-3.5-5.3-16.6-11.9-39.8-13-39.5s4.9 23.7 8.6 40.7c.7 3.1 1.2 5.9 1.6 8.4-4.6-15.4-9.4-33.4-10.5-33.2-1.1.3 3.8 21.1 7.2 37.5-1.3-3.3-2.6-7.1-4-11.8-4.7-16.6-10.4-39.8-11.5-39.6-1.1.3 4 23.6 7.1 40.6.4 2.4.8 4.6 1 6.6-3.4-13.5-6.8-27.4-7.7-27.2-1.1.3 3.3 21.9 5.9 37.6.6 3.8 1 7 1.2 9.9-.5-1.7-1-3.5-1.5-5.5-4.1-16.5-8.9-39.4-10.1-39.2s3 23.3 5.4 40.1c.4 2.5.6 4.8.8 6.8-.5-1.8-1-3.8-1.6-6.1-3.6-15.8-7.8-37.7-8.9-37.5s2.5 22.3 4.5 38.3c.3 2.7.6 5.2.7 7.4-.8-2.7-1.6-5.8-2.4-9.5-3.4-16.4-7.3-39.3-8.5-39.1s2.1 23.2 3.9 39.9c.3 2.9.5 5.5.6 7.9-.6-2.2-1.1-4.6-1.6-7.4-2.9-15.6-6.2-37.3-7.3-37.1-1.1.1 1.6 21.9 3 37.7.2 2.2.3 4.2.4 6.1-.8-2.9-1.5-6.3-2.2-10.3-2.8-16.5-5.8-39.4-7-39.3-1.1.1 1.1 21.1 2.3 37.5-.3-1.7-.7-3.6-1-5.6-2.4-15.9-4.9-38-6-37.8-1.1.1.9 22.2 1.8 38.3.2 3.9.2 7.1.1 10-.2-1.2-.4-2.4-.6-3.8-2.1-16.1-4.3-38.5-5.5-38.4-1.1.1.4 20.9 1 37-.1-.7-.2-1.3-.3-2.1-2-16.6-3.9-39.6-5-39.5s.2 23.1.5 39.9v4.3c-.5-2.6-.9-5.5-1.2-8.8-1.7-16.8-3.2-40.1-4.3-40-1.1 0-.2 23.3-.2 40.2 0 4.4-.2 8.1-.5 11.3-.1-.6-.1-1.2-.2-1.8-1.4-17.4-2.5-41.4-3.7-41.3-1 0-.8 18-.9 34.1-.1-.8-.1-1.5-.2-2.3-1-15.4-1.7-36.7-2.7-36.7-1.1 0-.9 21.3-1.4 36.8-.1 3.6-.3 6.7-.6 9.4-.7-16.5-1.1-35.7-2.2-35.7-1.2 0-1.5 24.1-2.3 41.5-.1 1.4-.2 2.7-.2 3.9-.4-14.3-.5-31.2-1.5-31.2-1.1 0-1.6 19.4-2.5 34.2-.2-2-.3-4.3-.3-6.8-.3-15.1 0-36.1-1.1-36.1s-1.9 20.7-3.1 35.8c0-.2 0-.5 0-.7-.1-15.6.5-37.2-.6-37.2s-2.3 21.5-3.7 37.1c-.1.8-.2 1.6-.2 2.3-.2-2.5-.2-5.3-.2-8.4.2-16.8 1.2-40.1.1-40.2-1.2-.1-2.8 23.1-4.6 39.8-.5 4.4-1.1 8.1-1.7 11.3.4-15.1 1.6-34.8.6-34.8-1-.1-2.6 16.2-4.2 30.4-.3-4.1-.5-8.7-.2-14.8.8-17 2.7-40.4 1.6-40.5s-3.7 23.3-6.1 40.2c-.4 2.5-.8 4.8-1.2 6.9 1.1-17 3.3-39.7 2.2-39.9-1.1-.1-3.8 20.6-6.3 37.1.1-1.1.1-2.2.2-3.4 1.3-16.2 3.8-38.5 2.7-38.6s-4.2 22.1-7 38.1c-.6 3.6-1.3 6.6-2 9.3 1.6-15.6 4-34.7 2.9-34.8s-4.1 18.6-7 33.9c.1-1.1.2-2.3.3-3.5 1.7-15.7 4.9-37.2 3.8-37.4s-4.6 20.1-7.7 35.4c.1-1.1.3-2.3.4-3.6 1.9-15.1 5.3-36 4.2-36.1-1-.2-4.9 20.5-8.2 35.4-.4 1.8-.8 3.5-1.2 5 2.2-14.5 4.5-28.8 3.5-29s-4.6 16.4-8.1 31.8c.2-3.4.5-7.3 1.3-12.2 2.4-15.3 6.5-36.2 5.5-36.4s-5.6 20.6-9.5 35.6c-1.3 5.2-2.7 9.1-4 12.5.1-.9.3-1.8.4-2.7 2.7-15.3 7.2-36.2 6.1-36.5l-12.2 53.7c.1-.5-.4 1.4-.6 2.3.2-.6.3-1.2.5-1.8z"/><path d="m326.7 712.2-.1.5c-.1.2 0-.1.1-.5z"/><path d="m73.7 555.4c.7 1.4 18-6.8 32.3-13 5-2.2 8.9-3.5 12.4-4.6-.7.4-1.5.8-2.2 1.3-13.5 7.5-30.5 16.2-29.8 17.5.5.9 8.8-2.9 18.6-7.4-3.2 2.3-6.9 4.9-11.8 7.8-15.1 8.7-33.9 18.9-33.1 20.5s19.9-8.2 35.6-15.7c2.5-1.2 4.9-2.2 7-3.1-7.6 4.5-13.6 8.2-13.1 9 .7 1.2 15.5-6.6 28.7-13.3-1.1.8-2.3 1.5-3.7 2.3-13.6 8.3-30.4 18-29.6 19.3.7 1.2 14.5-6.3 27.5-13.1-1.1.7-2.2 1.5-3.4 2.2-13.6 8.7-30.7 18.9-29.9 20.3s18.1-8.5 32.3-16.1c3.2-1.7 6-3 8.5-4.1-13 8.5-27.9 17.8-27.1 19.1.8 1.2 14.4-6.7 27.3-14-1.2.9-2.5 1.8-3.8 2.7-14.2 9.7-32 21.1-31.1 22.6s19-9.6 33.8-18.2c2.3-1.3 4.4-2.4 6.3-3.4-13.7 9.6-30.2 20.7-29.3 22 .9 1.4 18.6-9.9 33.1-18.6-2.6 2.4-5.7 5.2-10 8.3-12.2 9-27.7 19.8-26.8 21 .9 1.3 16.5-9.1 29.4-17.2 3.1-1.9 5.7-3.4 8.2-4.6-.8.6-1.6 1.2-2.4 1.9-13.4 10.2-30.2 22.3-29.3 23.7 1 1.4 18.1-10.4 32.2-19.6 1.5-1 3-1.9 4.4-2.7-1.4 1.3-3.1 2.6-4.9 4.1-12.3 9.7-27.7 21.2-26.8 22.5s16.6-9.9 29.5-18.7l.6-.4c-11.7 9.5-26.5 20.8-25.5 22 .9 1.2 15.2-9.4 27.5-17.9-1.5 1.4-3.1 2.8-4.9 4.4-11.5 9.7-26 21.2-25.1 22.4s15.6-9.9 27.8-18.6c-.3.2-.6.5-.8.7-13.2 11.4-29.9 25.1-28.8 26.5s18.1-11.9 32.1-22.3c3.6-2.6 6.7-4.7 9.5-6.4-8.9 7.8-16.9 14.9-16.2 15.8.7.8 8.8-5.4 17.9-12.5-1.1 1.1-2.3 2.3-3.6 3.5-12.8 11.8-29 25.9-27.9 27.2 1.2 1.3 17.6-12.4 31.3-23.2 3.7-2.9 6.9-5.1 9.7-7l-.2.2c-12.2 11.7-27.7 25.6-26.6 26.9s16.8-12.4 29.9-23.1c1.3-1.1 2.5-2 3.7-2.9-1.7 1.9-3.6 4-5.9 6.3-11.9 11.8-27 25.8-25.8 27.1 1.1 1.2 16.1-12.3 28.7-23-.3.3-.6.6-.9.9-11.4 11.6-25.8 25.5-24.7 26.7s15.8-12.5 28-23.2c3-2.6 5.6-4.7 8-6.5-.7.8-1.5 1.6-2.3 2.5-11.1 11.7-25.1 25.7-24 26.8 1 1 13.1-10.4 24.2-20.7-1.3 1.5-2.7 3.2-4.3 5-11.3 12.3-25.7 27.1-24.5 28.3s15.9-13.4 28.1-24.8c2.2-2 4.1-3.8 6-5.3-1.6 2.1-3.4 4.4-5.6 6.9-10.5 11.9-23.9 26.2-22.7 27.3s14.8-13 26.2-24c1.5-1.5 3-2.8 4.3-4-1.6 2.2-3.5 4.7-5.8 7.4-10.9 12.8-24.8 28.2-23.5 29.4 1.2 1.2 15.4-14 27.3-25.9 2.3-2.4 4.5-4.3 6.4-6-1.5 2.1-3.1 4.3-5.2 6.8-10.2 12.5-23.3 27.6-22.1 28.7s14.6-13.8 25.8-25.5c1.3-1.4 2.5-2.6 3.7-3.7-1.3 1.9-2.9 4-4.6 6.3-10.5 13.3-23.9 29.4-22.6 30.6 1.3 1.1 15.1-14.7 26.5-27.2 3.1-3.3 5.8-5.9 8.2-8.1-.6.8-1.2 1.7-1.9 2.6-9.7 12.7-22 28.1-20.7 29.1s13.9-14.1 24.5-26.1c1.2-1.4 2.4-2.6 3.5-3.8-9.5 12.7-19.7 26.1-18.5 27 1.3 1 13.8-14.4 24.8-27.3-1.7 3-3.8 6.4-6.6 10.3-9.8 13.9-22.5 30.8-21.1 31.9s14.3-15.5 25.2-28.7c1.9-2.3 3.7-4.3 5.3-6.1-9.3 13.5-19.7 28-18.4 28.9 1.1.8 9.2-9.5 17.9-20.6-.5.8-1 1.6-1.6 2.5-9.2 14-21.2 31-19.8 32s13.6-15.8 23.9-29c1.6-2.1 3.1-3.9 4.5-5.5-1 1.9-2.2 3.9-3.6 6-9 14.2-20.6 31.4-19.2 32.4 1.1.8 9.2-10.3 17.6-21.7-8.8 14.2-19.1 30.1-17.7 31.1 1.5.9 12.7-15.5 22.6-29.2-8.1 13.6-17.6 28.8-16.3 29.6 1.4.9 12.7-16.1 22.2-29.6 2.3-3.3 4.5-6 6.4-8.3-8.1 14.2-18.4 31.1-17 32s12.3-16.2 21.5-29.9c.5-.7.9-1.4 1.4-2-.8 1.7-1.7 3.5-2.8 5.4-8.2 14.9-18.8 32.9-17.3 33.8s12.4-17 21.7-31.2c.6-.9 1.2-1.8 1.8-2.6-6.8 12.7-14.1 25.8-12.9 26.5 1.3.8 11.3-16.1 19.7-29.5 1.8-2.8 3.4-5.2 5-7.3-.8 1.9-1.8 3.9-2.9 6.1-6.9 13.5-15.8 29.9-14.5 30.6s10.5-15.5 18.3-28.4c1-1.6 1.9-3 2.8-4.4-.3.7-.7 1.4-1 2.1-7.2 14.6-16.5 32.4-15.1 33.1 1.2.6 8-11.4 15-23.6-.8 2.1-1.8 4.4-3 6.9-7.3 15.5-16.8 34.5-15.2 35.3s11.4-17.9 19.9-32.9c1.5-2.7 2.9-5 4.3-7.1-5.5 11.9-10.6 23.1-9.5 23.7 1.1.5 6.7-9.9 12.7-21.2-1.1 4-2.6 8.7-5.1 14.6-6.4 15.1-14.9 33.5-13.3 34.2 1.5.7 10.4-17.5 17.9-32.1 3.1-5.9 5.8-10 8.3-13.6-5.4 13.3-11.7 27.9-10.5 28.5 1.3.6 9.1-16.3 15.8-29.8.4-.8.8-1.6 1.2-2.3-.8 2.8-1.8 5.9-3.2 9.6-5.6 14.6-13 32.3-11.6 33 1.4.6 9.2-17 15.8-31.1 1.3-2.7 2.5-5.1 3.7-7.2-.7 2.7-1.7 5.8-2.9 9.3-5.5 15.2-12.9 33.9-11.3 34.5 1.5.6 9.2-17.9 15.9-32.7 2.1-4.6 4-8.2 5.8-11.3-.3.9-.6 1.7-.9 2.7-5.1 14.9-11.9 33.1-10.4 33.6 1.4.6 8.5-17.5 14.7-31.9.8-1.8 1.5-3.4 2.2-4.9-.7 3.2-1.6 6.9-3 11.2-4.9 15.4-11.5 34.2-10 34.7s8.2-17.4 14.2-32.2c-.5 2.5-1.2 5.3-2.2 8.5-4.3 14.3-10.1 31.8-8.7 32.3s7.6-16.9 13-30.8c1.6-4.1 3.1-7.3 4.5-10.1-4 13.9-8.4 28.4-7.1 28.8 1.5.5 7.7-18.1 13.1-33 .8-2.3 1.7-4.3 2.5-6.2-.3 1.4-.7 2.8-1.1 4.4-3.9 14.7-9.2 32.7-7.8 33.1 1.3.4 6.6-15.9 11.4-29.9-.5 3.4-1.1 7.2-2.3 12-3.7 15.2-8.9 33.8-7.4 34.2s7-18.1 11.9-32.9c1.3-3.9 2.5-7.1 3.7-9.8-.3 2-.8 4.2-1.3 6.5-3.4 15.1-8.2 33.6-6.7 34.1 1.5.4 6.6-18 11.2-32.8 1.1-3.6 2.2-6.6 3.3-9.2-.2 1.4-.5 2.9-.9 4.5-3.2 15.2-7.6 33.8-6.1 34.1s6.3-18.2 10.6-33.1c.9-3 1.7-5.6 2.6-7.9-.3 2.7-.7 5.8-1.4 9.4-2.9 15.2-7 34-5.5 34.3l9.7-42.3c.3-1-.6 3.1-.4 2s.4-2.1.6-3l11.6-50.9c-1.1-.2-6.1 20.6-10.3 35.5-.8 3-1.7 5.6-2.5 7.9.3-2.7.7-5.8 1.4-9.3 3-15.2 7.9-36.1 6.8-36.3s-6.5 20.5-10.9 35.4c-1.1 3.6-2.2 6.6-3.2 9.3.2-1.4.5-2.9.9-4.5 3.3-15.2 8.5-35.9 7.5-36.2-1.1-.3-6.9 20.3-11.6 35-1.2 3.8-2.4 6.9-3.6 9.6.3-2.1.8-4.3 1.4-6.8 3.6-15.2 9.3-36 8.2-36.4-1.1-.3-7.1 19.7-12.1 34.4.5-3.2 1.1-7 2.3-11.5 3.8-14.7 9.7-34.8 8.6-35.1-1-.3-7.4 19.7-12.5 34-.6 1.8-1.3 3.5-1.9 5 .4-1.8.9-3.7 1.4-5.8 4.2-15.3 10.7-36.2 9.7-36.6s-8.1 20.4-13.7 35.2c-1.7 4.4-3.3 7.9-4.8 10.9 3.8-12.6 7.9-25.6 7-25.9-1-.3-6.7 15.4-11.9 28.7.6-2.9 1.4-6 2.5-9.8 4.7-15.4 12.1-36.5 11-36.8-1.1-.4-8.9 20.5-15.1 35.4-.9 2.2-1.8 4.1-2.6 5.8.7-3 1.6-6.4 2.9-10.5 4.9-14.9 12.4-35.3 11.4-35.7s-9 19.8-15.4 34.2c-1.9 4.4-3.7 7.8-5.4 10.7.4-1.2.8-2.5 1.3-3.9 5.4-15.3 13.5-36.2 12.4-36.6s-9.8 20.2-16.6 35c-1.5 3.3-2.9 6-4.3 8.4.7-2.4 1.5-5 2.6-8 5.4-14.6 13.6-34.5 12.6-34.9-1-.5-9.7 19.2-16.5 33.2-.6 1.2-1.2 2.4-1.8 3.5.8-2.6 1.7-5.5 3-8.8 5.5-14 13.8-33.1 12.8-33.6-1-.4-9.7 18.5-16.5 31.9-2.7 5.4-5.2 9.2-7.4 12.4l.2-.5c6.2-15.2 15.6-35.8 14.5-36.3-.9-.4-7.7 13.1-14.4 25.9 1.1-3.9 2.6-8.3 5.1-14.1 6.4-14.6 15.9-34.4 15-34.9s-11 19.1-18.7 33c-1.2 2.2-2.4 4.2-3.5 5.9 6.8-14.6 14.8-31 13.9-31.5-1-.5-9.9 16-17.9 30.1.8-1.8 1.6-3.8 2.6-5.9 7-14.7 17.3-34.6 16.4-35.1-1-.5-11.8 19.2-20.2 33.1-1.3 2.2-2.5 4.1-3.7 5.8 6.7-13.5 16.4-31.5 15.5-32s-11.3 17.6-19.3 30.5c-1.5 2.3-2.8 4.4-4.1 6.2 1-2.2 2.1-4.7 3.5-7.4 7.3-14.1 18-33.1 17.1-33.7-1-.5-12.2 18.2-20.7 31.6-.3.4-.5.8-.8 1.2 7.9-14.6 18.2-32.5 17.3-33-1-.6-13.3 19.4-22.8 33.5-.7 1-1.4 2-2.1 3 .7-1.4 1.5-2.9 2.4-4.5 8-14.4 19.8-33.8 18.8-34.4s-13.2 18.5-22.6 32c-2.3 3.3-4.4 6-6.3 8.3 8.3-14.2 20.2-33.2 19.2-33.9-.9-.6-12 15.9-21.3 29 8.8-14.7 21-33.5 20-34.2-.9-.6-10.5 13.2-19.7 25.8 8.7-13.8 19.6-30.3 18.7-31-1-.7-14.4 18.3-24.6 31.6-1.6 2.1-3.1 3.9-4.5 5.5 1-1.9 2.2-3.8 3.6-6 9.1-14.1 22.4-33.2 21.4-33.9-.7-.5-8.5 9.7-16.7 20.3.6-1 1.3-2 2-3.1 9.7-14.5 23.8-34.1 22.8-34.7-.9-.7-15.5 18.6-26.5 32.1-2 2.5-3.8 4.6-5.6 6.4 9.3-13.2 20.3-28.2 19.4-28.8-.9-.7-14.1 16.1-24.9 28.9 1.8-3.1 3.9-6.5 6.8-10.5 10.1-14 24.7-32.9 23.8-33.6s-16 17.8-27.3 30.8c-1.6 1.8-3.1 3.5-4.5 4.9 8.4-11.1 17.2-22.4 16.5-22.9-.9-.7-15.1 16.1-25.8 28-2.6 2.8-4.8 5.1-6.9 7 1-1.5 2.1-3 3.4-4.6 10.4-13.5 25.3-31.5 24.4-32.3s-16.3 16.8-28 29.2c-1.7 1.8-3.3 3.4-4.9 4.9 1.1-1.6 2.4-3.2 3.8-5 10.1-12.6 24.7-29.6 23.8-30.3-.9-.8-15.9 15.8-27.2 27.4-1.9 2-3.7 3.7-5.4 5.2 1.6-2.3 3.6-4.9 5.9-7.8 10.7-12.9 26.2-30.2 25.3-31.1-.9-.8-16.8 16.1-28.7 27.9-2.1 2.1-4 3.8-5.8 5.4 1.4-1.8 2.9-3.8 4.8-5.9 10.4-12 25.3-28.1 24.5-28.9s-16.1 14.9-27.6 25.8c-1.6 1.5-3.1 2.9-4.5 4.1 1.8-2.4 4-5.1 6.7-8.1 11.2-12.4 27.2-29.1 26.3-29.9-.8-.8-15.8 14-27.9 25.2 1.1-1.4 2.4-2.8 3.8-4.3 11-11.8 26.6-27.5 25.9-28.3-.8-.8-16.8 14.6-28.8 25.3-2.9 2.6-5.4 4.6-7.8 6.4.8-.9 1.7-1.8 2.6-2.8 11.3-11.7 27.4-27.4 26.6-28.2s-16.2 13.3-28.3 23.9c.5-.5.9-1 1.4-1.5 11.8-11.9 28.6-27.7 27.8-28.5s-18 14.6-30.8 25.3c-1.1 1-2.2 1.8-3.3 2.7 1.8-2 3.8-4.1 6.2-6.5 12.1-11.8 29.4-27.5 28.7-28.3-.7-.9-18.4 14.4-31.6 25-3.4 2.8-6.4 4.9-9.1 6.7.4-.4.8-.8 1.3-1.2 12.7-11.9 30.8-27.7 30-28.7-.7-.8-14.6 10.6-27.3 20.5.6-.5 1.1-1 1.7-1.6 11.4-10.4 27.7-24.2 27-25s-17.2 12.6-29.6 21.8c-2.9 2.2-5.4 3.9-7.7 5.3 12.5-10.9 27.3-23.2 26.6-24-.8-1-19.8 13.8-34 24.1-1.1.8-2.2 1.5-3.2 2.2 10.9-9.2 24.1-19.8 23.4-20.6-.7-.9-16.2 10.8-28.4 19.4 1.5-1.4 3.1-2.9 5.1-4.5 11.6-9.7 28.2-22.5 27.5-23.3-.7-.9-17.4 11.4-29.9 19.9l.6-.5c12.2-9.8 29.4-22.8 28.8-23.7s-18.2 11.6-31.3 20.2c-.7.4-1.3.8-1.9 1.2 1.9-1.7 4-3.5 6.5-5.4 13.3-10.3 32.1-24 31.4-24.9-.7-1-19.8 12.2-34.1 21.2-3.8 2.4-7 4.2-9.9 5.7 12-9 28.2-20.3 27.6-21.2-.6-.8-14.3 8.1-26.4 15.6 3-2.8 6.6-5.8 11.5-9.4 13.8-10 33.4-23.1 32.7-24-.6-1-20.5 11.6-35.2 20.2-2.2 1.3-4.2 2.4-6.1 3.4 14-9.7 33.1-22.1 32.5-23.1-.6-.9-18.5 9.9-33.1 18.2.9-.6 1.8-1.3 2.8-1.9 13.5-9.1 32.5-20.9 31.9-21.9s-19.9 10.4-34.1 18.2c-3.2 1.7-6 3.1-8.5 4.2 13.2-8.5 29.6-18.5 29.1-19.4s-17.1 8.3-30.9 15.6c.9-.6 1.9-1.2 2.9-1.9 13.3-8.4 32.2-19.3 31.6-20.3-.5-.9-18.6 9-32.6 16 1-.6 2-1.2 3.1-1.9 13-7.9 31.4-18.3 30.9-19.2s-19.1 8.9-32.8 15.6c-1.7.8-3.2 1.5-4.7 2.1 12.7-7.3 25.4-14.4 24.9-15.3s-15.7 6.6-29.9 13.4c2.8-2 6-4.2 10.3-6.6 13.5-7.6 32.4-17.5 31.9-18.4s-19.7 8.5-33.8 14.8c-4.9 2.2-8.8 3.6-12.3 4.7.8-.4 1.6-.9 2.4-1.3 13.6-7.4 32.8-16.9 32.3-17.9l-49.6 23.9c.5-.2-1.3.6-2.2 1 .6-.3 1.1-.5 1.7-.8z"/><path d="m109 538.3-.4.2c-.3.2 0 0 .4-.2z"/><path d="m73.6 242.7c-.6 1.4 16.5 9.9 30.3 17.1 4.8 2.5 8.3 4.8 11.4 6.8-.8-.3-1.6-.6-2.4-1-14.3-5.9-31.7-13.7-32.3-12.4-.4.9 7.7 5.1 17.4 9.9-3.8-1-8.1-2.3-13.5-4.4-16.2-6.3-35.9-14.7-36.7-13.1-.7 1.7 18.8 10.4 34.5 18 2.5 1.2 4.8 2.4 6.8 3.5-8.3-3.1-14.9-5.5-15.2-4.6-.5 1.3 14.9 8 28.3 14.2-1.3-.4-2.7-.9-4.1-1.4-14.8-5.3-32.9-12.4-33.5-11-.5 1.3 14 7.4 27.4 13.3-1.2-.4-2.5-.8-3.9-1.3-15.3-5.2-33.9-12.2-34.5-10.7s17.9 8.9 32.7 15.2c3.3 1.4 6.1 2.8 8.5 4.1-14.8-4.9-31.3-10.7-31.8-9.3-.5 1.3 14.2 7 28 12.6-1.4-.4-2.9-.8-4.5-1.3-16.4-5-36.5-11.8-37-10.2-.6 1.6 19.4 8.8 35.4 15.1 2.4 1 4.6 1.9 6.6 2.8-16.1-4.7-35-10.7-35.5-9.2-.5 1.6 19.3 8.3 35.2 14.3-3.5-.5-7.6-1.3-12.7-2.6-14.7-3.9-32.7-9.3-33.2-7.8-.4 1.5 17.5 7.2 31.8 12.3 3.4 1.2 6.2 2.4 8.7 3.5-1-.2-2-.5-3-.7-16.3-4.1-36.3-9.7-36.8-8.1s19.4 7.6 35.4 12.9c1.7.6 3.3 1.1 4.8 1.7-1.9-.3-4-.7-6.2-1.3-15.2-3.5-33.9-8.4-34.3-6.9s18.1 6.7 33 11.4c.2.1.5.1.7.2-14.8-3.2-32.8-7.6-33.2-6.2-.3 1.4 16.8 6 31.1 10.3-2-.3-4.1-.6-6.5-1.1-14.7-2.9-32.8-7.1-33.2-5.6-.3 1.5 17.5 6 31.9 10-.4-.1-.7-.1-1.1-.2-17.2-3.2-38.3-7.7-38.7-5.9s20.6 6.7 37.5 11.2c4.3 1.1 7.9 2.3 10.9 3.4-11.7-2.1-22.2-3.9-22.4-2.8s9.7 3.5 20.9 6.2c-1.6-.2-3.2-.4-5-.7-17.2-2.6-38.3-6.5-38.6-4.7-.3 1.7 20.7 6 37.7 9.9 4.6 1.1 8.3 2.2 11.5 3.2h-.3c-16.7-2.3-37.3-5.6-37.6-4s20.2 5.4 36.8 8.8c1.6.3 3.1.7 4.6 1-2.6-.1-5.4-.3-8.6-.7-16.6-1.9-37-4.9-37.3-3.2-.2 1.6 19.6 4.9 35.9 8-.4 0-.8-.1-1.3-.1-16.2-1.6-36.1-4.2-36.3-2.6s19.6 4.5 35.6 7.4c3.9.7 7.2 1.5 10.1 2.2-1.1-.1-2.2-.2-3.4-.2-16-1.3-35.8-3.5-36-2-.2 1.4 16.3 3.7 31.3 6-2 0-4.2-.1-6.6-.3-16.7-1.1-37.3-3.1-37.5-1.4s20.4 4 36.9 6.4c2.9.4 5.5.9 7.9 1.4-2.6.1-5.5.1-8.9-.1-15.8-.7-35.4-2.2-35.5-.6s19.4 3.4 35.1 5.4c2.1.3 4 .6 5.8.9-2.8.1-5.8.2-9.4.1-16.8-.5-37.5-1.7-37.7 0-.1 1.7 20.6 3.3 37.3 5 3.3.3 6.1.8 8.7 1.2-2.5.2-5.3.3-8.6.2-16.2-.1-36.2-.9-36.2.7s19.9 2.8 36 4.2c1.9.2 3.6.4 5.2.6-2.3.2-4.9.3-7.8.3-17 .1-37.9-.3-37.9 1.5 0 1.7 20.9 2.6 37.8 3.7 4.5.3 8.2.8 11.5 1.3-1 0-2.1.1-3.2.1-15.9.4-35.6.4-35.7 2 0 1.6 19.6 2 35.6 2.8 1.9.1 3.6.2 5.2.4-15.9.5-32.8.9-32.7 2.4 0 1.6 19.9 1.8 36.8 2.3-3.4.5-7.4 1-12.2 1.3-17 1-38.1 1.7-38 3.4 0 1.7 21.1 1.5 38.2 1.7 3 0 5.7.2 8.1.4-16.3 1.1-34.2 2.1-34.1 3.7 0 1.3 13.1 1.2 27.2 1.1-.9.1-1.9.2-2.9.3-16.7 1.5-37.5 2.8-37.4 4.5s20.8.8 37.7.6c2.6 0 5 0 7.1.1-2.1.4-4.4.7-7 1-16.7 1.8-37.4 3.5-37.3 5.2.1 1.4 13.8.8 28 .2-16.6 2-35.5 3.9-35.3 5.6.1 1.7 20 .3 36.9-.5-15.7 2.1-33.5 4.2-33.4 5.8.2 1.7 20.5-.1 37-1.1 4.1-.2 7.5-.3 10.5-.2-16.1 2.5-35.7 5-35.5 6.6s20.4-.6 36.8-1.9c.8-.1 1.7-.1 2.4-.2-1.8.4-3.8.8-5.9 1.2-16.7 2.9-37.4 5.9-37.2 7.6s21-.9 37.9-2.5c1.1-.1 2.1-.2 3.1-.3-14.2 2.6-29 5.1-28.8 6.5.2 1.5 19.6-1.2 35.4-2.9 3.3-.4 6.2-.6 8.8-.7-2 .5-4.1 1-6.5 1.5-14.8 3.1-33.2 6.3-32.9 7.8.3 1.4 18.7-1.5 33.7-3.4 1.8-.2 3.6-.4 5.2-.6-.7.2-1.5.3-2.3.5-15.9 3.5-35.6 7.3-35.3 8.9.2 1.3 13.9-.9 27.7-3-2.2.7-4.6 1.3-7.3 2-16.7 4-37.4 8.4-37.1 10.1s21.2-2.3 38.1-5c3-.5 5.7-.8 8.2-1.1-12.7 3.1-24.7 6.1-24.4 7.3s12-1 24.5-3.3c-3.9 1.6-8.4 3.4-14.6 5.1-15.8 4.4-35.4 9.3-35.1 10.9.4 1.7 20.1-2.8 36.2-6 6.5-1.3 11.5-1.7 15.7-2-13.8 4-29.2 8.3-28.8 9.6.4 1.4 18.5-3.1 33.2-6.3.9-.2 1.7-.4 2.6-.5-2.7 1.1-5.7 2.3-9.5 3.5-14.8 4.7-33.3 10-32.9 11.5s19-3.4 34.2-7c3-.7 5.6-1.2 7.9-1.6-2.6 1.1-5.6 2.3-9.1 3.5-15.4 5.2-34.5 11.1-34.1 12.6.4 1.6 19.7-3.9 35.4-7.9 4.9-1.3 8.9-2 12.4-2.5-.8.3-1.7.6-2.6 1-14.8 5.3-33.2 11.3-32.8 12.8.5 1.5 19-4.2 34.2-8.4 1.9-.5 3.6-1 5.3-1.3-2.9 1.5-6.4 3-10.6 4.6-15.1 5.8-34 12.4-33.5 13.9s18.7-4.4 34-9c-2.3 1.1-4.9 2.4-8 3.6-13.9 5.6-31.2 11.9-30.7 13.4.5 1.4 17.9-4.6 32.2-9 4.2-1.3 7.6-2.1 10.7-2.8-13.3 5.5-27.4 11.1-26.9 12.4.6 1.4 19-5.3 34-10.3 2.3-.8 4.4-1.4 6.4-1.9-1.3.6-2.6 1.2-4.1 1.9-13.9 6.1-31.3 13.1-30.7 14.5.5 1.3 16.5-4.8 30.4-9.7-2.9 1.7-6.4 3.6-10.8 5.7-14.2 6.5-32 14.1-31.4 15.6s18.5-5.7 33.1-11.2c3.9-1.4 7.1-2.4 10.1-3.2-1.8 1-3.7 2-5.9 3.1-13.9 6.7-31.4 14.6-30.8 16s18.2-6.1 32.7-11.7c3.5-1.4 6.5-2.4 9.2-3.2-1.3.7-2.6 1.4-4.1 2.1-13.8 7-31.2 15.1-30.5 16.5.6 1.4 18.1-6.4 32.4-12.3 2.9-1.2 5.4-2.1 7.8-2.9-2.3 1.5-5 3.1-8.2 4.8-13.7 7.2-30.9 15.7-30.3 17.1l39.1-18.8c.9-.4-2.8 1.5-1.8 1s1.9-.9 2.8-1.4l47-22.6c-.4-1-19.9 8-34.1 14.1-2.9 1.2-5.4 2.2-7.8 3 2.3-1.5 5-3 8.2-4.7 13.8-7.1 33.1-16.3 32.7-17.3-.5-1-20 7.7-34.4 13.5-3.5 1.4-6.5 2.4-9.2 3.2 1.2-.7 2.6-1.4 4-2.1 13.9-6.9 33.4-15.7 32.9-16.7s-20.2 7.3-34.7 12.8c-3.7 1.4-6.9 2.4-9.8 3.2 1.8-1 3.9-2.1 6.2-3.2 14.1-6.7 34-15.2 33.6-16.3-.4-1-19.8 6.7-34.4 12 2.8-1.7 6.2-3.5 10.4-5.4 13.9-6.2 33.3-14.2 32.9-15.2s-20 6.5-34.4 11.4c-1.8.6-3.5 1.2-5.1 1.6 1.6-.8 3.4-1.6 5.4-2.5 14.6-6.3 35-14.2 34.6-15.2s-21 6.4-36.1 11.3c-4.5 1.5-8.3 2.4-11.5 3.1 12.2-4.9 25-9.8 24.7-10.7-.3-1-16.2 4.4-29.8 8.6 2.6-1.3 5.6-2.7 9.2-4.1 15-5.9 36.1-13.3 35.7-14.4s-21.6 5.8-37.1 10.2c-2.2.6-4.3 1.2-6.2 1.6 2.8-1.4 6-2.8 10-4.2 14.7-5.5 35.3-12.3 35-13.3s-21.2 5.3-36.3 9.3c-4.6 1.2-8.4 1.9-11.7 2.4 1.2-.5 2.5-.9 3.8-1.4 15.3-5.4 36.7-12 36.4-13.1s-21.9 5-37.6 8.8c-3.5.9-6.5 1.4-9.2 1.9 2.3-1 4.9-1.9 7.9-2.9 14.8-4.9 35.5-10.9 35.2-11.9-.3-1.1-21.1 4.4-36.3 7.8-1.3.3-2.6.6-3.8.8 2.5-1 5.3-2.1 8.8-3.1 14.4-4.4 34.5-9.9 34.2-10.9-.2-1-20.5 3.9-35.2 7-5.9 1.2-10.4 1.7-14.3 2l.5-.2c15.8-4.6 37.7-10.1 37.5-11.3-.2-1-15 2.1-29.2 4.9 3.7-1.5 8.1-3.2 14.2-4.8 15.4-4.1 36.8-9 36.6-10.1-.2-1-21.8 3.4-37.5 6-2.5.4-4.8.7-6.8 1 15.6-3.8 33.4-7.7 33.2-8.8s-18.6 2.3-34.7 4.8c1.9-.6 4-1.1 6.3-1.6 15.8-3.7 37.9-8 37.7-9.1s-22.3 2.7-38.4 4.9c-2.5.3-4.8.6-6.8.7 14.7-3.2 34.8-6.8 34.6-7.8s-20.8 2.2-35.9 4c-2.7.3-5.2.5-7.4.6 2.3-.6 5-1.3 8-1.9 15.5-3.1 37.1-6.6 37-7.7s-21.8 1.9-37.6 3.5c-.5 0-.9.1-1.4.1 16.3-2.9 36.8-6 36.6-7.1-.1-1.2-23.4 1.6-40.3 3.1-1.3.1-2.5.2-3.6.3 1.6-.3 3.2-.6 5-.9 16.2-2.7 38.7-5.6 38.6-6.8-.1-1.1-22.7 1.2-39.2 2.4-4 .3-7.4.3-10.4.3 16.3-2.4 38.5-5 38.4-6.1s-19.8.5-35.9 1.4c17-2.3 39.3-4.5 39.3-5.7-.1-1-16.8 0-32.5.7 16.2-1.8 35.9-3.6 35.8-4.7-.1-1.2-23.3.2-40.1.5-2.6.1-5 0-7.1 0 2.1-.3 4.4-.6 6.9-.9 16.7-1.7 39.9-3.2 39.8-4.4-.1-.9-12.8-.6-26.3-.4 1.2-.1 2.4-.2 3.6-.4 17.4-1.5 41.5-2.7 41.5-3.9s-24.1-.5-41.6-.7c-3.2 0-6-.2-8.5-.3 16.1-1 34.7-1.8 34.6-2.8 0-1.1-21.4-1-38.2-1.4 3.5-.5 7.5-1 12.4-1.2 17.2-.9 41.1-1.2 41.1-2.4-.1-1.1-23.9-1.4-41.1-2.1-2.4-.1-4.6-.3-6.7-.5 13.9-.3 28.3-.5 28.3-1.5 0-1.1-22-1.7-37.9-2.6-3.8-.2-7-.6-9.9-1 1.8-.1 3.7-.2 5.7-.2 17-.3 40.4.1 40.4-1.1s-23.4-2.2-40.3-3.6c-2.5-.2-4.8-.5-6.9-.7 1.9-.1 4-.2 6.3-.2 16.2 0 38.5.8 38.5-.4s-22.2-2.5-38.3-4.1c-2.7-.3-5.2-.6-7.4-1 2.9-.2 6.1-.3 9.8-.2 16.8.3 40 1.5 40.1.3s-23.1-3-39.8-5c-2.9-.3-5.5-.7-7.8-1.2 2.3-.1 4.8-.1 7.6 0 15.9.6 37.7 2.2 37.8 1 .1-1.1-21.7-3.3-37.5-5.4-2.2-.3-4.2-.6-6-1 3-.1 6.5-.1 10.5.1 16.7.9 39.7 3 39.8 1.9s-20.7-3.6-37-6c1.8 0 3.7.1 5.7.3 16 1.2 38.1 3.5 38.3 2.4.1-1.1-21.9-4-37.7-6.7-3.8-.6-7-1.3-9.8-2.1 1.2.1 2.5.2 3.8.3 16.2 1.5 38.5 4.2 38.6 3.1s-20.5-4.3-36.3-7.2c.7.1 1.4.1 2.1.2 16.6 1.7 39.5 5 39.6 3.8.2-1.1-22.6-4.9-38.9-8.2-1.5-.3-2.8-.6-4.1-.9 2.6.1 5.6.4 8.9.8 16.8 2.1 39.8 5.8 40 4.6.2-1.1-22.7-5.4-39.2-9-4.3-1-7.9-2-10.9-3 .6.1 1.2.2 1.7.2 17.2 2.4 40.9 6.7 41.1 5.5.2-1-17.4-4.8-33.1-8.4.7.1 1.5.2 2.3.3 15.2 2.4 36.1 6.5 36.4 5.5.2-1-20.6-5.6-35.5-9.4-3.5-.9-6.4-1.8-9-2.7 16.3 3 35.1 6.8 35.4 5.7.3-1.2-23.2-6.8-40-11.5-1.3-.4-2.6-.8-3.7-1.1 14.1 2.8 30.5 6.4 30.7 5.4.2-1.1-18.6-5.9-32.9-10 2 .3 4.2.7 6.7 1.2 14.8 3 35.2 8 35.4 6.9.3-1.1-19.7-6.5-34.2-10.9.2.1.5.1.7.2 15.3 3.4 36.1 8.7 36.5 7.7.3-1.1-20.4-7-35.3-11.8-.8-.3-1.5-.5-2.2-.7 2.5.4 5.2.9 8.3 1.7 16.4 3.9 38.8 10.1 39.1 9s-21.9-7.9-37.8-13.4c-4.2-1.4-7.7-2.9-10.6-4.2 14.6 3.8 33.5 9.3 33.8 8.3s-15.2-6.1-28.7-10.9c4 .6 8.7 1.5 14.5 3.1 16.4 4.6 38.8 11.7 39.2 10.6s-21.9-8.7-37.8-14.8c-2.4-.9-4.5-1.8-6.5-2.7 16.4 4.9 37.9 12.1 38.3 11s-19.3-8.3-34.9-14.5c1 .3 2.1.6 3.3 1 15.5 4.9 36.6 12.3 37 11.3s-20.5-9-35.5-15.3c-3.3-1.4-6.2-2.7-8.6-4 14.9 5 32.9 11.6 33.3 10.6s-17.2-8.1-31.5-14.3c1.1.4 2.2.7 3.3 1.1 14.9 5.2 35.2 13.1 35.6 12 .4-1-18.6-9-32.9-15.5 1.1.4 2.2.8 3.4 1.2 14.3 5.2 33.9 13.2 34.2 12.2.4-1-18.9-9.4-32.7-15.9-1.7-.8-3.2-1.6-4.6-2.3 13.6 5.4 27.1 10.8 27.5 9.9.4-1-15-8.1-29.1-15 3.3.9 7 2.1 11.6 4 14.3 5.8 33.8 14.4 34.3 13.5.4-1-18.9-10.1-32.6-17.2-4.8-2.5-8.3-4.7-11.3-6.7.8.3 1.7.7 2.5 1 14.3 6 33.7 15.1 34.1 14.1l-49.6-23.9c.5.2-1.3-.6-2.2-1.1.6.3 1.1.6 1.6.8z"/><path d="m109 259.7-.4-.2c-.3-.2 0 0 .4.2z"/><path d="m317.9 47.6c-1.5.3 2.6 19.1 5.5 34.3 1 5.3 1.4 9.5 1.7 13.1-.2-.8-.5-1.6-.7-2.5-4.3-14.9-9-33.3-10.5-33-1 .2.8 9.2 3.1 19.7-1.6-3.6-3.3-7.8-4.9-13.3-5.1-16.6-10.9-37.3-12.6-36.8-1.8.5 3.6 21.3 7.4 38.2.6 2.8 1.1 5.2 1.5 7.5-2.7-8.4-5-15-5.9-14.8-1.3.4 3 16.6 6.5 30.9-.5-1.3-1-2.6-1.5-4.1-5.1-14.9-10.8-33.5-12.3-33.1-1.3.4 2.9 15.5 6.6 29.7-.5-1.2-.9-2.5-1.4-3.8-5.4-15.2-11.6-34.2-13.2-33.7-1.5.5 4.3 19.6 8.5 35.2 1 3.5 1.6 6.5 2.1 9.2-5.4-14.6-11.2-31.1-12.6-30.6-1.3.5 3.4 15.5 7.6 29.7-.6-1.4-1.2-2.8-1.8-4.4-6.3-16-13.5-35.9-15.1-35.3s5.2 20.6 10.2 37c.8 2.5 1.4 4.8 1.9 6.9-6.3-15.5-13.5-34.1-15-33.5-1.6.6 5.5 20.3 10.9 36.5-1.8-3.1-3.8-6.7-5.9-11.5-6.1-13.9-13.1-31.3-14.5-30.8-1.4.6 5.2 18.1 10.2 32.5 1.2 3.4 2 6.3 2.7 9-.4-.9-.9-1.8-1.3-2.8-7-15.3-15.1-34.4-16.7-33.8s6.2 19.9 12 35.7c.6 1.7 1.2 3.3 1.7 4.9-.9-1.7-1.9-3.6-2.9-5.7-6.7-14.1-14.6-31.7-16-31-1.4.6 6.1 18.4 11.7 33 .1.2.2.5.3.7-6.7-13.5-14.5-30.4-15.8-29.7-1.3.6 5.8 16.9 11.4 30.7-1-1.7-2.1-3.6-3.2-5.8-6.9-13.4-14.9-30.1-16.3-29.5s6.2 17.3 12 31.2c-.2-.3-.4-.6-.5-1-8.2-15.4-17.9-34.8-19.5-33.9-1.5.8 7.7 20.2 14.8 36.2 1.8 4.1 3.1 7.6 4.2 10.7-5.7-10.4-10.8-19.7-11.8-19.2s3.3 9.8 8.2 20.2c-.8-1.3-1.7-2.8-2.6-4.3-8.7-15.1-18.8-34-20.4-33.2s8.2 19.9 15.7 35.6c2 4.2 3.5 7.8 4.7 11l-.2-.3c-8.7-14.5-18.9-32.7-20.3-31.9s8.4 19.2 16.1 34.3c.7 1.5 1.4 2.9 2 4.2-1.5-2.1-3.1-4.4-4.8-7.2-8.8-14.2-19.3-32-20.7-31.2s8.4 18.4 16.2 33c-.2-.4-.5-.7-.7-1.1-8.8-13.7-19.2-30.8-20.6-30s8.7 18.1 16.5 32.4c1.9 3.5 3.3 6.5 4.5 9.2-.6-.9-1.3-1.8-1.9-2.8-8.9-13.3-19.5-30.1-20.9-29.3-1.2.8 7.3 15.1 14.9 28.2-1.2-1.6-2.5-3.3-3.9-5.3-9.5-13.7-20.9-31-22.3-30.1s9.6 18.4 18.1 32.8c1.5 2.6 2.7 4.9 3.8 7-1.7-2-3.5-4.3-5.5-7-9.3-12.9-20.3-29-21.7-28.2-1.3.9 9.4 17.2 17.7 30.8 1.1 1.8 2.1 3.5 3 5.1-1.8-2.1-3.8-4.4-5.9-7.3-10.1-13.4-22.1-30.3-23.5-29.4-1.4 1 10.3 18.1 19.3 32.3 1.8 2.8 3.2 5.3 4.5 7.6-1.7-1.9-3.5-4-5.5-6.5-10-12.7-21.8-28.8-23.2-27.8-1.3 1 10.2 17.2 19.2 30.7 1 1.6 2 3 2.8 4.4-1.6-1.7-3.3-3.7-5.1-5.9-11-12.9-23.8-29.5-25.2-28.5-1.4 1.1 11.1 17.9 20.7 31.9 2.6 3.7 4.5 6.9 6.1 9.8-.7-.8-1.4-1.6-2.1-2.4-10.3-12.2-22.5-27.6-23.8-26.6s10.7 16.6 20.1 29.5c1.1 1.5 2.1 2.9 2.9 4.3-10.3-12.1-21.2-25-22.3-24.1-1.3 1 11 16.6 21.2 30.1-2.6-2.3-5.4-5.1-8.7-8.7-11.5-12.7-25.1-28.7-26.4-27.5-1.3 1.1 12.1 17.4 22.5 30.9 1.8 2.4 3.4 4.5 4.8 6.5-11.1-12-23-25.3-24.2-24.3-1 .9 7.3 11.1 16.2 21.9-.7-.7-1.3-1.4-2.1-2.1-11.7-12.1-25.6-27.4-26.9-26.3s12.4 16.7 23.1 29.7c1.7 2 3.1 3.9 4.4 5.6-1.6-1.4-3.3-3-5.1-4.8-11.9-11.9-26.1-27-27.4-25.8-1 1 8 11.3 17.4 22-11.9-11.7-25.2-25.2-26.4-24.1-1.3 1.2 12.3 15.8 23.5 28.5-11.5-10.9-24.2-23.5-25.4-22.4-1.2 1.2 12.9 15.9 24 28.1 2.7 3 4.9 5.7 6.7 8.1-12-11-26.3-24.8-27.4-23.6s13.2 15.6 24.5 27.5c.6.6 1.1 1.2 1.7 1.8-1.5-1.2-3-2.5-4.6-3.9-12.7-11.2-28-25.5-29.2-24.3s13.8 15.8 25.7 28c.8.8 1.5 1.6 2.2 2.3-10.9-9.4-22.1-19.4-23.1-18.4-1.1 1.1 13.2 14.5 24.4 25.7 2.4 2.4 4.3 4.5 6 6.4-1.6-1.2-3.4-2.6-5.3-4.1-11.6-9.6-25.7-21.9-26.6-20.8-1 1.1 12.8 13.7 23.8 24.2 1.3 1.3 2.6 2.5 3.7 3.7-.6-.5-1.2-1-1.8-1.5-12.7-10.2-28-23.2-29-22-.9 1 9.4 10.3 19.7 19.8-1.9-1.3-3.9-2.7-6.1-4.5-13.6-10.5-29.9-24-31.1-22.6-1.1 1.3 15 15.1 27.7 26.6 2.3 2.1 4.2 4 6 5.7-10.4-7.9-20.2-15.4-21-14.5-.7.9 8.3 8.7 18 17.1-3.7-2-7.9-4.4-13.1-8.2-13.3-9.6-29.4-21.9-30.4-20.5-1 1.3 14.8 14 27.3 24.5 5.1 4.3 8.5 7.9 11.4 11-11.7-8.2-24.7-17.6-25.5-16.5-.9 1.2 13.9 12.5 25.6 22 .7.6 1.4 1.1 2 1.7-2.5-1.4-5.4-3.1-8.6-5.2-12.9-8.7-28.6-19.8-29.5-18.5s14.6 12.7 26.8 22.3c2.4 1.9 4.4 3.6 6.2 5.2-2.5-1.3-5.3-2.9-8.4-4.9-13.7-8.8-30.2-20-31.1-18.7s15.4 12.9 28.3 22.7c4.1 3.1 7.1 5.7 9.7 8.2-.8-.5-1.6-.9-2.4-1.4-13.4-8.3-29.6-18.9-30.5-17.6-.8 1.3 15.2 12.2 28 21.4 1.6 1.1 3 2.2 4.3 3.3-3-1.4-6.3-3.1-10.3-5.4-13.9-8.2-30.8-18.8-31.6-17.4-.9 1.3 15.1 11.8 28.2 20.9-2.3-1.1-4.9-2.4-7.8-4-13-7.4-28.8-16.9-29.6-15.6s14.8 11.1 27.1 19.5c3.6 2.5 6.4 4.6 8.8 6.6-12.6-7-25.8-14.5-26.4-13.3-.8 1.3 16 11.5 29.3 20.1 2.1 1.3 3.9 2.6 5.5 3.8-1.3-.6-2.6-1.3-4-2-13.4-7.1-29.8-16.3-30.5-15-.7 1.2 14 9.9 26.6 17.7-3.2-1.2-6.8-2.7-11.2-4.9-14-7-31-16.2-31.7-14.8-.8 1.4 16 10.8 29.4 18.9 3.5 2.1 6.4 4.1 8.8 5.9-1.9-.8-3.9-1.6-6.1-2.7-14-6.7-31-15.5-31.7-14.1s16.1 10.5 29.6 18.2c3.3 1.9 5.9 3.6 8.3 5.2-1.3-.5-2.7-1.1-4.2-1.8-14.1-6.5-31.3-14.9-31.9-13.6-.7 1.4 16.3 10.1 29.9 17.6 2.7 1.5 5.1 2.9 7.1 4.3-2.6-.9-5.5-2-8.8-3.4-14.2-6.2-31.6-14.4-32.3-13l39.1 18.8c.9.5-2.9-1.3-1.9-.8s1.9.9 2.8 1.3l47 22.6c.5-1-18.7-10.5-32.3-17.9-2.8-1.5-5.1-2.9-7.2-4.2 2.6.9 5.5 2 8.8 3.5 14.2 6.3 33.4 15.7 33.9 14.8.5-1-18.5-10.9-32-18.5-3.3-1.9-6-3.6-8.3-5.2 1.3.6 2.7 1.2 4.2 1.8 14 6.6 33.1 16.3 33.6 15.3s-18.3-11.2-31.7-19.1c-3.5-2-6.2-3.9-8.6-5.6 1.9.8 4 1.7 6.3 2.9 14 6.9 33.1 17.1 33.7 16.1s-17.6-11.3-30.8-19.4c3.1 1.2 6.5 2.7 10.7 4.8 13.5 6.9 31.8 17.2 32.4 16.2.5-.9-17.5-11.6-30.3-19.8-1.6-1-3.1-2-4.4-3 1.6.8 3.4 1.7 5.3 2.7 14 7.5 32.9 18.5 33.5 17.5.5-1-18.1-12.4-31.4-21.2-4-2.6-7-4.9-9.6-7.1 11.4 6.5 23.2 13.4 23.7 12.6.5-.9-13.5-9.9-25.3-17.9 2.7 1.2 5.6 2.7 9 4.7 14 8.1 32.9 19.9 33.5 18.9s-18-13.2-31.2-22.6c-1.9-1.4-3.6-2.6-5.1-3.9 2.8 1.3 5.9 3 9.6 5.1 13.5 8.1 31.7 19.9 32.2 19 .6-.9-17.3-13.2-29.9-22.6-3.8-2.8-6.7-5.3-9.2-7.6 1.1.6 2.3 1.4 3.5 2.1 13.8 8.6 32.3 21.2 33 20.2.7-.9-17.6-14-30.4-23.9-2.8-2.2-5.2-4.2-7.2-6 2.2 1.2 4.6 2.6 7.2 4.4 13 8.5 30.6 20.9 31.3 20 .6-.9-16.6-13.8-28.8-23.5-1.1-.9-2.1-1.7-3-2.5 2.4 1.3 4.9 2.9 7.9 4.9 12.5 8.5 29.2 20.7 29.9 19.9s-15.8-13.5-27.4-23.2c-4.7-3.9-7.8-7.1-10.5-9.9l.5.3c13.4 9.4 31.4 23.1 32.2 22.2.6-.8-11-10.4-22.1-19.7 3.6 2 7.6 4.4 12.6 8.1 12.8 9.4 30.1 23.1 30.7 22.3.7-.9-16.3-14.9-28.2-25.5-1.9-1.7-3.5-3.2-5-4.7 12.7 9.8 27 21.3 27.7 20.5s-13.4-13.1-25.4-24c1.6 1.1 3.3 2.4 5.2 3.9 12.8 10.1 29.9 24.5 30.7 23.7.7-.8-16.1-15.7-27.9-26.9-1.8-1.7-3.4-3.3-4.8-4.9 11.7 9.5 27.1 22.9 27.8 22.1s-14.7-14.9-25.5-25.5c-2-1.9-3.7-3.7-5.1-5.4 2 1.4 4.1 3.1 6.5 5.1 12.1 10.2 28.4 24.9 29.1 24.1.8-.8-15.1-15.9-26.2-27.2-.3-.3-.6-.7-1-1 12.5 10.9 27.7 24.9 28.5 24.1.8-.9-15.9-17.2-27.6-29.5-.9-.9-1.7-1.8-2.5-2.7 1.2 1 2.5 2.1 3.9 3.3 12.3 11 28.6 26.7 29.4 25.8.8-.8-15.2-17-26.3-29.1-2.7-3-4.9-5.6-6.7-8 12.1 11.2 28 27 28.9 26.2.8-.8-12.8-15.2-23.6-27.1 12.4 11.8 28.1 27.9 29 27 .8-.7-10.6-13.2-20.9-24.9 11.6 11.5 25.3 25.8 26.1 25 .9-.8-14.7-18.1-25.5-31-1.7-2-3.1-3.9-4.4-5.6 1.6 1.4 3.3 3 5.1 4.9 11.8 12 27.5 29.1 28.4 28.3.7-.6-7.6-10.4-16.1-20.7l2.6 2.6c12 12.6 28.1 30.7 28.9 29.9.9-.8-14.7-19.2-25.5-32.9-2-2.5-3.6-4.8-5.1-6.9 10.8 11.9 23 25.9 23.8 25.2.9-.7-12.6-17.4-22.8-30.7 2.6 2.4 5.5 5.2 8.7 8.9 11.5 12.9 26.7 31.3 27.6 30.6s-13.8-19.5-24-33.4c-1.4-2-2.7-3.8-3.8-5.5 9 10.6 18.1 21.7 18.8 21.2.9-.7-12.4-18.2-21.7-31.3-2.2-3.1-3.9-5.9-5.4-8.3 1.2 1.3 2.4 2.7 3.8 4.3 10.8 13 25.2 31.6 26.1 30.8 1-.7-12.8-19.6-22.4-33.7-1.4-2.1-2.6-4-3.7-5.8 1.3 1.4 2.6 3 4 4.8 10.1 12.6 23.5 30.6 24.4 29.9 1-.7-11.9-18.9-20.7-32.5-1.5-2.3-2.8-4.4-3.9-6.4 1.9 2.1 4 4.6 6.3 7.5 10.3 13.3 23.8 32.2 24.7 31.5 1-.7-12-19.9-20.9-34.2-1.6-2.5-2.9-4.7-4-6.8 1.5 1.7 3 3.7 4.7 5.9 9.4 12.7 21.9 30.8 22.8 30.2 1-.6-11-19-19.1-32.6-1.1-1.9-2.1-3.6-3-5.3 2 2.3 4.1 5 6.5 8.3 9.7 13.6 22.4 32.9 23.4 32.3.9-.6-10.1-18.5-18.4-32.7 1.1 1.4 2.2 2.9 3.4 4.7 9.1 13.3 21 32 21.9 31.4s-10.5-19.6-18.4-33.7c-1.9-3.4-3.3-6.3-4.5-9 .7 1 1.4 2 2.1 3.1 9 13.6 20.7 32.7 21.7 32.2s-9.5-18.7-17-32.8c.4.6.7 1.1 1.1 1.7 9 14.1 20.8 34 21.7 33.4 1-.6-10.2-20.7-17.9-35.6-.7-1.3-1.3-2.6-1.9-3.8 1.5 2.1 3.2 4.6 4.9 7.4 8.8 14.4 20.3 34.7 21.3 34.1s-10-21.2-17.4-36.3c-1.9-4-3.4-7.3-4.5-10.4.3.5.6 1 .9 1.5 8.8 15 20.3 36.1 21.4 35.6.9-.5-7.1-16.5-14-31.1.4.7.8 1.3 1.2 2 7.6 13.4 17.5 32.3 18.4 31.8s-8.5-19.6-14.8-33.7c-1.5-3.3-2.6-6.2-3.5-8.7 7.8 14.6 16.6 31.7 17.6 31.2 1.1-.6-9.1-22.4-16-38.4-.5-1.3-1-2.5-1.5-3.6 6.6 12.7 14 27.9 15 27.4 1-.4-7-18.2-12.6-31.9 1 1.8 2.1 3.7 3.3 5.9 6.9 13.5 15.7 32.5 16.7 32s-7.3-19.5-12.8-33.6l.3.7c6.9 14 15.7 33.7 16.7 33.2s-7.3-20.4-12.8-35c-.3-.7-.5-1.5-.8-2.2 1.2 2.2 2.5 4.7 3.9 7.5 7.2 15.2 16.3 36.6 17.4 36.2s-7.5-22-13.1-37.9c-1.5-4.2-2.5-7.8-3.3-10.9 6.1 13.8 13.6 32 14.6 31.6.9-.4-4.7-15.7-9.4-29.2 2 3.5 4.2 7.7 6.6 13.3 6.7 15.7 15.1 37.6 16.1 37.2 1.1-.4-6.8-22.5-11.9-38.8-.8-2.4-1.4-4.7-1.9-6.7 6.4 15.8 14.2 37.2 15.3 36.8s-5.5-20.2-10.4-36.2c.4 1 .8 2.1 1.3 3.2 5.9 15.1 13.2 36.3 14.3 36 1-.4-5.8-21.7-10.2-37.4-1-3.5-1.7-6.5-2.2-9.3 5.3 14.7 11.4 33 12.4 32.6s-4.4-18.5-8.4-33.6c.4 1 .8 2.1 1.2 3.3 5.2 14.9 11.7 35.7 12.8 35.4 1-.3-4.6-20.1-8.4-35.3.4 1.1.8 2.2 1.2 3.4 4.8 14.5 10.8 34.7 11.8 34.4s-4.5-20.6-7.9-35.5c-.4-1.8-.8-3.5-1.1-5 4.3 14 8.4 27.9 9.4 27.6s-3-16.8-6.4-32.2c1.3 3.1 2.7 6.8 4.1 11.5 4.4 14.8 9.8 35.5 10.8 35.3s-3.9-21-6.9-36.2c-1-5.3-1.5-9.4-1.8-13 .2.8.5 1.7.8 2.6 4.2 14.9 9.2 35.8 10.3 35.5l-12.2-53.7c.1.5-.3-1.4-.5-2.4.1.6.2 1.2.4 1.8z"/><path d="m326.7 85.8-.1-.5c-.1-.2 0 .1.1.5z"/><path d="m622.6 117.3c-1.2-.9-13.3 13.9-23.4 25.6-3.5 4.1-6.5 7-9.2 9.5.5-.7 1-1.4 1.5-2.1 9-12.6 20.5-27.8 19.3-28.7-.8-.6-6.7 6.4-13.5 14.7 1.8-3.5 4.1-7.4 7.3-12.1 9.8-14.4 22.5-31.7 21-32.8s-14.4 16-25.3 29.6c-1.8 2.2-3.4 4.1-5 5.8 4.9-7.4 8.6-13.3 7.9-13.8-1.1-.8-11.1 12.7-20.1 24.3.7-1.2 1.5-2.4 2.3-3.7 8.5-13.3 19.5-29.3 18.3-30.2-1.1-.8-10.4 11.9-19.1 23.6.6-1.1 1.3-2.3 2.1-3.5 8.5-13.7 19.6-30.3 18.2-31.3-1.4-.9-12.7 15.5-22.3 28.5-2.1 2.9-4.1 5.3-5.9 7.4 8.1-13.3 17.4-28.1 16.2-28.9s-10 12.2-18.6 24.5c.7-1.3 1.5-2.7 2.3-4.1 8.6-14.8 19.8-32.9 18.3-33.8s-12.9 16.9-22.6 31c-1.5 2.2-2.9 4.1-4.2 5.8 8.2-14.6 18.3-31.7 16.9-32.6-1.5-.8-12.5 17-21.9 31.2 1.3-3.3 2.9-7.1 5.4-11.8 7.1-13.4 16.4-29.7 15.1-30.5s-10.9 15.4-19.1 28.2c-1.9 3-3.7 5.5-5.4 7.7.4-.9.9-1.8 1.4-2.8 7.7-15 17.6-33.2 16.2-34.1-1.5-.8-11.8 17.2-20.5 31.5-1 1.6-1.9 3-2.8 4.3.8-1.8 1.6-3.7 2.6-5.8 6.9-14 15.8-31.1 14.4-31.8s-10.7 16.2-18.6 29.7l-.4.6c6.4-13.7 14.8-30.2 13.5-30.9s-9.7 15-17 28c.7-1.9 1.5-3.9 2.5-6.1 6.2-13.7 14.3-30.4 13-31.1-1.4-.7-9.7 15.7-16.9 28.8.1-.3.3-.7.4-1 7-16 16.1-35.6 14.5-36.4s-11.2 18.6-19.4 34c-2.1 3.9-4 7.1-5.8 9.9 4.6-10.9 8.7-20.7 7.7-21.2-1-.4-5.6 8.7-10.7 19 .5-1.5 1.1-3 1.8-4.7 6.5-16.2 15-35.9 13.4-36.6s-10.5 18.8-18.1 34.5c-2.1 4.2-4 7.6-5.7 10.5l.1-.3c6-15.8 13.9-35.2 12.4-35.8s-9.8 18.5-16.9 33.9c-.7 1.5-1.4 2.9-2 4.2.7-2.5 1.5-5.2 2.6-8.2 5.6-15.7 13.1-35 11.5-35.6-1.5-.6-9.2 18-15.9 33.2.1-.4.3-.8.4-1.2 5.2-15.4 12.2-34.2 10.7-34.8s-8.8 18.1-15.2 33c-1.6 3.7-3 6.7-4.4 9.3.3-1 .6-2.1 1-3.2 4.9-15.3 11.5-34.1 10-34.6-1.4-.5-7.3 15.1-12.9 29.2.5-1.9 1-4 1.7-6.3 4.8-16 11.3-35.6 9.7-36.2-1.6-.5-8.5 18.9-14.5 34.5-1.1 2.8-2.1 5.2-3.1 7.3.5-2.6 1.2-5.4 2.1-8.7 4.3-15.3 10.1-34 8.6-34.5s-7.7 18.1-13.1 33c-.7 2-1.4 3.8-2.1 5.5.5-2.7 1.1-5.7 2-9.2 4.2-16.3 10-36.2 8.4-36.7-1.7-.5-7.8 19.3-13.3 35.3-1.1 3.1-2.1 5.8-3.1 8.2.4-2.5.9-5.3 1.7-8.4 3.8-15.7 9-35 7.4-35.5-1.6-.4-7.2 18.7-12.1 34.1-.6 1.8-1.1 3.4-1.7 4.9.4-2.3.8-4.9 1.4-7.7 3.7-16.6 8.7-36.9 7.1-37.4-1.7-.5-7.2 19.8-12.1 36-1.3 4.3-2.6 7.9-3.9 10.9.2-1 .4-2.1.6-3.2 3.1-15.6 7.6-34.8 6-35.2s-6.3 18.7-10.7 34.1c-.5 1.8-1 3.4-1.5 5 3-15.6 6.4-32.1 4.9-32.4-1.6-.4-6.2 19-10.4 35.3.2-3.5.6-7.4 1.4-12.2 2.8-16.8 6.8-37.5 5.1-37.9-1.7-.3-6.1 20.3-10.2 36.9-.7 2.9-1.4 5.5-2.2 7.8 2.5-16.2 5.5-33.8 3.9-34.1-1.3-.2-4.1 12.6-7.1 26.3.1-.9.2-1.9.4-2.9 2.2-16.7 5.5-37.1 3.8-37.4s-5.4 20.1-8.8 36.5c-.5 2.5-1.1 4.8-1.7 6.9.1-2.1.3-4.5.6-7 1.9-16.7 4.8-37.3 3.1-37.6-1.4-.2-3.8 13.4-6.4 27.3 1.7-16.6 4-35.4 2.3-35.7-1.7-.2-4.7 19.5-7.6 36.1 1.4-15.8 3.3-33.6 1.7-33.8-1.7-.2-4.4 20-7 36.3-.7 4-1.4 7.3-2.1 10.3 1.1-16.3 3-36 1.4-36.2s-3.9 20-6.3 36.3c-.1.8-.2 1.6-.4 2.4 0-1.9.1-3.9.2-6.1.9-16.1 2.6-37 .9-37.1s-3.8 20.7-5.9 37.6c-.2 1.1-.3 2.1-.4 3.1.6-14.4 1.4-29.4 0-29.5-1.6-.1-3.2 19.4-4.9 35.1-.4 3.3-.8 6.2-1.3 8.7-.1-2-.1-4.3-.1-6.7.3-15.1 1.2-33.8-.3-33.9s-2.7 18.5-4.1 33.6c-.2 1.9-.4 3.6-.6 5.2 0-.8 0-1.5 0-2.4.1-16.2.7-36.3-.9-36.3-1.3 0-2.2 13.8-3.2 27.8-.2-2.3-.3-4.8-.3-7.5-.2-17.2.1-38.3-1.7-38.4-1.7 0-2.5 21.1-3.5 38.2-.2 3.1-.5 5.8-.8 8.2-.3-13.1-.5-25.5-1.7-25.5s-1.7 11.9-2.2 24.6c-.7-4.2-1.4-9-1.8-15.4-.8-16.4-1.2-36.6-2.9-36.6s-1.7 20.3-2.2 36.7c-.2 6.7-.9 11.6-1.5 15.8-.9-14.3-1.6-30.2-2.9-30.2-1.5 0-1.1 18.6-1.2 33.7 0 .9 0 1.8-.1 2.6-.5-2.9-1-6.1-1.3-10-1.3-15.5-2.4-34.7-3.9-34.7-1.6.1-.9 19.2-.8 34.8 0 3-.1 5.7-.2 8.1-.5-2.8-1-5.9-1.4-9.6-1.7-16.1-3.1-36.1-4.8-36-1.6.1-.5 20.1-.1 36.3.1 5.1-.1 9.2-.3 12.7-.1-.9-.2-1.8-.4-2.8-1.9-15.6-3.7-34.9-5.2-34.8s-.1 19.5.6 35.2c.1 2 .1 3.7.1 5.4-.8-3.2-1.5-6.9-2.2-11.4-2.2-16-4.5-35.8-6.1-35.7-1.6.2.2 19.2 1.2 35.2-.6-2.5-1.2-5.3-1.7-8.6-2.3-14.7-4.7-33-6.2-32.8s.5 18.5 1.7 33.4c.3 4.4.4 7.9.3 11.1-2.4-14.2-4.7-29.2-6.1-29-1.5.2.9 19.6 2.5 35.4.2 2.4.4 4.6.5 6.7-.3-1.4-.6-2.8-.9-4.4-2.8-14.9-5.8-33.4-7.3-33.3-1.4.2 1 17.2 2.7 31.8-1.1-3.2-2.1-7-3.1-11.8-3.2-15.3-6.6-34.3-8.2-34s1.5 19.3 3.5 34.8c.5 4.1.8 7.5.9 10.5-.6-1.9-1.1-4.1-1.7-6.5-3.5-15.1-7.2-33.9-8.7-33.6s1.9 19.1 4.2 34.4c.6 3.7.9 6.9 1 9.7-.4-1.4-.8-2.8-1.2-4.4-3.7-15.1-7.8-33.8-9.3-33.5s2.2 19.1 4.8 34.4c.5 3.1.9 5.8 1.1 8.2-.9-2.6-1.9-5.5-2.8-9-4-15-8.4-33.6-9.9-33.3l9.6 42.4c.2 1-.8-3.1-.6-2s.5 2.1.8 3l11.6 50.9c1.1-.2-3.4-21.2-6.1-36.5-.6-3.1-.9-5.8-1.2-8.2.9 2.6 1.8 5.5 2.7 9 3.9 15 8.5 35.9 9.6 35.7 1.1-.3-3-21.2-5.5-36.5-.6-3.7-.9-6.9-1.1-9.7.4 1.4.8 2.8 1.1 4.4 3.6 15.1 7.9 36.1 9 35.9s-2.6-21.3-4.8-36.6c-.6-4-.8-7.3-.9-10.2.6 2 1.2 4.2 1.7 6.7 3.4 15.3 7.3 36.5 8.4 36.3s-2.1-20.8-4-36.3c1 3.1 2 6.7 2.9 11.3 3 14.9 6.4 35.6 7.4 35.4 1-.1-1.8-20.9-3.4-36-.2-1.9-.3-3.7-.4-5.3.4 1.8.8 3.7 1.2 5.8 2.9 15.6 6.1 37.3 7.2 37.2s-1.6-21.9-3-37.7c-.4-4.7-.5-8.6-.4-11.9 2 13 4 26.5 4.9 26.4 1-.1-.6-16.8-1.7-31 .7 2.8 1.4 6.1 1.9 9.9 2.4 16 5 38.1 6.1 38s-.8-22.3-1.7-38.4c-.1-2.3-.2-4.5-.2-6.4.7 3 1.4 6.5 1.9 10.7 2 15.6 4.1 37.2 5.2 37.1s-.4-21.7-1-37.5c-.2-4.8 0-8.6.2-12 .2 1.3.4 2.6.5 4.1 1.8 16.1 3.5 38.5 4.7 38.4s0-22.5-.2-38.7c-.1-3.6 0-6.7.2-9.4.4 2.4.8 5.2 1.1 8.4 1.5 15.5 2.7 37 3.8 37s.4-21.5.5-37.1c0-1.4 0-2.7.1-3.9.4 2.7.8 5.7 1.1 9.3 1.1 15 2 35.8 3.1 35.8s.7-20.8 1-35.9c.1-6 .6-10.5 1.3-14.4v.6c1 16.4 1.5 39 2.7 39 1 0 1.2-15.1 1.6-29.6.7 4 1.3 8.6 1.5 14.9.6 15.9.7 37.9 1.7 38 1.1 0 1.5-22 2.4-37.9.1-2.5.3-4.8.6-6.9.2 16.1.2 34.3 1.2 34.4 1.1 0 1.9-18.7 3-34.9.1 2 .2 4.1.2 6.5.1 16.3-.5 38.7.6 38.7s2.3-22.4 3.7-38.6c.2-2.5.5-4.8.8-6.8-.1 15-1 35.4 0 35.5 1.1.1 2.5-20.8 4-35.8.3-2.7.6-5.2 1-7.3.1 2.4.2 5.1.1 8.2-.4 15.8-1.7 37.7-.6 37.8s3-21.7 4.9-37.4c.1-.5.1-.9.2-1.4-.7 16.5-2.2 37.2-1.1 37.3 1.2.1 3.6-23.2 5.9-40.1.2-1.3.4-2.5.5-3.6 0 1.6-.1 3.3-.2 5.1-.9 16.4-3 39-1.9 39.1 1.1.2 3.8-22.4 6.3-38.6.6-4 1.3-7.3 2-10.2-1.2 16.4-3.6 38.7-2.5 38.8s3.9-19.5 6.5-35.3c-1.5 17.1-4.3 39.4-3.1 39.5 1 .1 3.7-16.5 6.5-31.9-1.8 16.2-4.4 35.8-3.3 36 1.2.2 5-22.7 8.3-39.2.5-2.6 1.1-4.9 1.6-6.9-.1 2.1-.3 4.4-.6 7-2 16.7-5.6 39.6-4.5 39.8.9.2 3.4-12.4 6.2-25.6-.1 1.2-.3 2.4-.5 3.6-2.4 17.3-6.5 41-5.4 41.2s5.8-23.4 9.9-40.4c.7-3.1 1.5-5.8 2.2-8.2-2.6 15.9-5.9 34.2-4.9 34.3 1.1.2 5.7-20.6 9.8-36.9-.3 3.5-.7 7.5-1.6 12.4-3 17-7.9 40.4-6.8 40.6 1.1.3 6.6-23 11.2-39.6.6-2.3 1.3-4.5 1.9-6.4-2.8 13.6-5.8 27.7-4.9 27.9 1.1.3 6.5-21.1 11-36.4 1.1-3.7 2.1-6.7 3.2-9.4-.3 1.7-.6 3.6-1 5.6-3.5 16.6-9.1 39.3-7.9 39.7 1.2.3 7.4-22.3 12.5-38.4.8-2.4 1.5-4.6 2.2-6.5-.3 1.9-.7 3.9-1.2 6.1-3.6 15.8-9.3 37.4-8.2 37.7s7.4-21.1 12.6-36.5c.9-2.6 1.7-4.9 2.6-7-.5 2.8-1.1 6-2 9.6-4 16.3-10.5 38.6-9.3 39 1.1.3 8.1-21.8 13.8-37.7 1-2.8 1.9-5.2 2.9-7.4-.4 2.2-1 4.7-1.7 7.4-4.1 15.3-10.6 36.3-9.5 36.7s8.1-20.4 13.6-35.2c.8-2.1 1.5-3.9 2.3-5.6-.6 3-1.4 6.3-2.5 10.2-4.7 16.1-11.9 38-10.8 38.4s8.2-19.4 14.2-34.8c-.4 1.7-1 3.5-1.6 5.5-4.7 15.4-12 36.3-11 36.7s8.8-20.5 15-35.3c1.5-3.6 2.9-6.5 4.2-9.1-.4 1.2-.7 2.4-1.1 3.6-5.1 15.5-12.8 36.5-11.7 37 1 .4 8.7-19 15.1-33.7-.2.6-.4 1.3-.7 2-5.4 15.8-13.7 37.4-12.7 37.8 1.1.4 9.9-20.9 16.8-36.1.6-1.4 1.2-2.6 1.8-3.8-.7 2.5-1.6 5.3-2.8 8.5-5.8 15.9-14.6 37.5-13.5 37.9s10.4-20.9 17.6-36.2c1.9-4 3.7-7.2 5.3-10-.2.5-.4 1.1-.6 1.6-6.3 16.2-15.7 38.4-14.6 38.9 1 .4 8.6-15.8 15.7-30.3-.3.7-.6 1.4-.9 2.2-5.8 14.3-14.5 33.8-13.5 34.2s10.1-18.8 17.2-32.5c1.7-3.2 3.2-5.9 4.7-8.2-6.5 15.2-14.5 32.7-13.5 33.1 1.1.5 11.8-21 20.2-36.4.7-1.2 1.3-2.3 1.9-3.4-5.9 13.1-13.1 28.3-12.2 28.8 1 .5 9.9-16.7 17.2-29.7-.7 1.9-1.6 4-2.6 6.2-6.3 13.8-15.7 32.5-14.7 33s10.8-17.8 18.4-30.9l-.3.7c-6.7 14.1-16.7 33.2-15.7 33.7s11.5-18.4 19.5-31.7c.4-.7.8-1.3 1.2-2-1 2.3-2.1 4.9-3.5 7.7-7.5 15.1-18.6 35.5-17.6 36.1s12.6-19.6 21.5-33.8c2.4-3.8 4.5-6.8 6.5-9.4-7 13.4-16.7 30.6-15.7 31.1.9.5 9.4-13.5 17.1-25.5-1.5 3.8-3.4 8.1-6.3 13.4-8.1 14.9-20.1 35.2-19.1 35.7 1 .6 13.4-19.3 22.9-33.4 1.4-2.1 2.8-4 4.1-5.7-8.4 14.8-20.3 34.3-19.3 34.9.9.6 12.4-16.9 21.9-30.7-.5.9-1.1 1.9-1.7 3-8.2 14-20.2 32.9-19.3 33.5s13.4-18 22.9-31.2c2.1-2.9 4.1-5.4 5.9-7.5-8.2 13.3-18.7 29.4-17.8 30s11.8-14.9 21-27.4c-.6 1-1.2 1.9-1.8 3-8.4 13.3-20.7 31.4-19.8 32s12.9-16.1 22.4-28.5c-.6 1-1.2 2-1.9 3.1-8.3 12.8-20.4 30-19.6 30.7.9.6 13.4-16.3 22.9-28.3 1.2-1.4 2.2-2.8 3.3-4-8.3 12.1-16.6 24-15.8 24.5.9.6 11.3-12.8 21.2-25-1.6 3-3.7 6.4-6.5 10.4-8.9 12.7-21.7 29.8-20.8 30.4.8.7 14.1-16.1 24-27.9 3.5-4.1 6.4-7.1 9.1-9.5-.5.7-1 1.5-1.6 2.2-9.1 12.6-22.3 29.5-21.4 30.1l34.4-43c-.3.4.9-1.1 1.5-1.9-.4.5-.8.9-1.2 1.4z"/><path d="m598.2 147.9.3-.4c.1-.1-.1.1-.3.4z"/><path d="m758.1 398.9c0-1.5-19.2-1.7-34.7-2.3-5.4-.2-9.6-.7-13.2-1.2.8-.1 1.7-.1 2.6-.2 15.4-.8 34.5-1.4 34.5-2.8 0-1-9.2-1.3-20-1.4 3.9-.7 8.3-1.4 14-1.9 17.3-1.3 38.8-2.3 38.7-4.1s-21.5-1.3-38.9-1.3c-2.8 0-5.3-.1-7.7-.3 8.8-.8 15.8-1.5 15.7-2.4-.1-1.4-16.9-.8-31.6-.5 1.3-.2 2.8-.4 4.3-.5 15.7-1.6 35.1-3 35-4.6-.1-1.4-15.8-.7-30.5-.2 1.3-.2 2.6-.4 4-.5 16-1.9 35.9-3.6 35.8-5.3-.1-1.6-20-.2-36.1.4-3.6.1-6.7.1-9.4 0 15.4-2 32.8-3.9 32.7-5.4-.1-1.4-15.8-.2-30.6.8 1.5-.3 3-.5 4.6-.8 17-2.5 38-5.1 37.8-6.8s-21.3.4-38.4 1.7c-2.6.2-5 .3-7.2.3 16.5-2.7 36.2-5.5 36-7.1-.2-1.7-21 .8-37.9 2.4 3.4-1.1 7.4-2.2 12.6-3.1 15-2.8 33.5-5.7 33.3-7.2s-18.8 1-33.9 2.7c-3.6.4-6.6.6-9.4.6l3-.6c16.5-3.4 36.9-6.9 36.6-8.6s-20.8 1.5-37.5 3.7c-1.8.2-3.5.4-5.1.5 1.9-.5 3.9-1 6.2-1.5 15.2-3.4 34.2-7 33.9-8.6-.3-1.5-19.3 1.7-34.7 4-.2 0-.5.1-.7.1 14.7-3.5 32.9-7.3 32.6-8.7s-17.7 1.8-32.4 4.1c1.9-.6 4-1.2 6.4-1.8 14.6-3.7 32.7-7.8 32.3-9.2-.3-1.5-18.3 2.2-33.1 4.7.4-.1.7-.2 1.1-.3 16.9-4.5 37.8-9.6 37.4-11.3-.4-1.8-21.5 2.8-38.6 6.1-4.4.8-8.1 1.3-11.4 1.6 11.4-3.2 21.7-6.1 21.4-7.2-.2-1.1-10.2 1-21.5 3.4 1.5-.5 3.1-1 4.8-1.5 16.7-5 37.4-10.7 36.9-12.4s-21.3 3.5-38.3 7.3c-4.6 1-8.4 1.6-11.8 2.1l.3-.1c16.1-5.2 36.1-11 35.6-12.6s-20.6 3.9-37 7.9c-1.6.4-3.1.7-4.6 1 2.4-1 5-2 8.1-3.1 15.8-5.4 35.5-11.6 35.1-13.2-.5-1.6-19.8 4-35.8 8.3.4-.1.8-.3 1.2-.4 15.3-5.5 34.3-11.8 33.8-13.3s-19.7 4.4-35.3 8.7c-3.8 1.1-7.1 1.8-10 2.3 1-.4 2-.8 3.1-1.2 15-5.7 33.8-12.3 33.3-13.7s-16.3 3.7-30.8 8.1c1.8-.8 3.8-1.7 6-2.6 15.5-6.2 34.9-13.3 34.4-14.9s-20.1 5.2-36 10.2c-2.8.9-5.4 1.6-7.7 2.2 2.3-1.2 4.9-2.5 8.1-3.8 14.6-6.2 32.8-13.3 32.3-14.8-.6-1.5-19 5.3-34 10.3-2 .7-3.9 1.2-5.6 1.7 2.4-1.3 5.2-2.7 8.4-4.1 15.4-6.8 34.6-14.7 33.9-16.3-.6-1.6-20 5.9-35.8 11.6-3.1 1.1-5.9 2-8.4 2.7 2.2-1.2 4.7-2.5 7.6-3.9 14.7-6.9 33-14.8 32.4-16.3-.7-1.5-19.1 6.1-34.3 11.8-1.8.7-3.4 1.2-4.9 1.7 2-1.2 4.3-2.4 6.9-3.7 15.2-7.5 34.3-16.2 33.6-17.7-.7-1.6-19.9 6.7-35.7 13-4.2 1.7-7.8 2.9-10.9 3.8.9-.5 1.9-1 2.9-1.5 14.2-7.3 32-15.8 31.3-17.2-.7-1.5-18.6 6.7-33.3 12.9-1.7.7-3.3 1.3-4.8 1.9 14.1-7.4 29.1-15 28.4-16.4-.7-1.5-18.7 7-34.2 13.9 2.8-2 6.2-4.1 10.4-6.5 14.9-8.3 33.6-18 32.8-19.6-.8-1.5-19.6 7.8-35.1 15-2.7 1.3-5.2 2.3-7.4 3.2 14.2-8.1 29.9-16.8 29.2-18.2-.6-1.2-12.4 4.6-25 10.8.8-.5 1.6-1 2.5-1.5 14.4-8.7 32.5-18.8 31.6-20.3-.8-1.5-19.1 8.3-34.1 15.9-2.3 1.2-4.5 2.2-6.4 3 1.7-1.2 3.7-2.5 5.9-3.9 14.3-8.9 32.2-19.4 31.3-20.9-.7-1.2-12.8 5.3-25.3 12 14-9 30.3-18.9 29.4-20.4s-18.1 8.4-33 16.5c13.2-8.8 28.4-18.3 27.5-19.7s-18.4 9-32.8 17.1c-3.5 2-6.6 3.5-9.4 4.7 13.4-9.3 30-20.1 29.1-21.4-.9-1.4-18.1 9.4-32.3 17.7-.7.4-1.4.8-2.1 1.2 1.5-1.2 3.1-2.4 4.8-3.6 13.8-9.9 31.2-21.6 30.2-23-.9-1.4-18.5 9.9-33 18.7-.9.6-1.8 1.1-2.7 1.6 11.6-8.5 23.9-17.2 23.1-18.3-.9-1.3-17.2 9.6-30.6 18-2.8 1.8-5.4 3.2-7.6 4.4 1.5-1.3 3.2-2.7 5.2-4.2 12-9.2 27.1-20.1 26.3-21.3s-16.2 9.5-28.8 17.7c-1.6 1-3 1.9-4.4 2.7.6-.5 1.2-1 1.8-1.5 12.8-10.1 28.9-22.1 27.9-23.4-.8-1.1-12.1 6.8-23.7 14.8 1.7-1.6 3.6-3.2 5.7-5 13.3-10.9 30-23.8 29-25.2-1.1-1.4-18.1 11.2-32.2 21.1-2.5 1.8-4.8 3.2-6.9 4.5 10.1-8.3 19.6-16.3 18.8-17.2-.7-.9-10.3 6.1-20.6 13.7 2.8-3.1 6.1-6.7 10.9-10.9 12.3-10.8 27.9-23.7 26.9-25.1-1.1-1.3-16.9 11.3-30 21.1-5.3 4-9.6 6.5-13.3 8.7 10.6-9.6 22.7-20.1 21.8-21.1-1-1.1-15.3 10.8-27.2 20.1-.7.6-1.4 1.1-2.1 1.6 1.9-2.2 4.2-4.6 7-7.2 11.3-10.7 25.7-23.5 24.7-24.7s-15.6 11.3-27.7 21.1c-2.4 1.9-4.5 3.5-6.5 4.9 1.9-2.1 4-4.5 6.7-7.1 11.6-11.4 26.3-25 25.2-26.2s-16.1 12.1-28.5 22.6c-3.9 3.3-7.2 5.7-10.2 7.7.6-.6 1.3-1.3 1.9-2 11-11.2 25-24.6 24-25.7-1.1-1.1-15.3 12.1-27.1 22.4-1.5 1.3-2.9 2.4-4.2 3.5 2-2.6 4.4-5.5 7.6-8.8 11.1-11.7 25.2-25.8 24.1-27-1.1-1.1-14.9 12.1-26.7 22.8 1.6-2 3.4-4.2 5.7-6.7 10.1-11 22.9-24.3 21.8-25.3-1.1-1.1-14.2 11.9-25.1 22.1-3.2 3-6 5.2-8.5 7.1 9.7-10.7 19.9-21.9 18.9-22.8-1.1-1.1-14.8 13-26.2 24-1.8 1.7-3.4 3.2-4.9 4.5.9-1.1 1.8-2.3 2.9-3.5 9.9-11.5 22.5-25.4 21.5-26.4s-12.8 11.4-23.2 21.9c1.9-2.9 4.2-6.1 7.3-9.8 10-12 22.7-26.5 21.5-27.6-1.2-1-14.2 13.2-25.1 24.5-2.9 3-5.4 5.3-7.7 7.2 1.2-1.6 2.5-3.4 4-5.3 9.7-12.1 22-26.7 20.8-27.7s-13.8 13.4-24.3 24.7c-2.6 2.8-4.9 5-7 6.9.8-1.2 1.7-2.4 2.7-3.7 9.5-12.3 21.6-27.1 20.4-28.1-1.1-1-13.5 13.6-23.9 25.2-2.1 2.3-4 4.3-5.8 6 1.4-2.3 3.2-4.9 5.3-7.8 9.2-12.5 21.1-27.5 19.9-28.5l-27.2 33.9c-.7.7 1.9-2.5 1.2-1.7s-1.3 1.7-1.9 2.5l-32.6 40.7c.9.7 14.5-15.9 24.7-27.5 2.1-2.4 4-4.3 5.7-6-1.4 2.3-3.2 4.9-5.4 7.8-9.3 12.4-22.8 29-22 29.7s14.7-15.6 25.2-27c2.5-2.8 4.8-5 6.9-6.9-.8 1.2-1.7 2.4-2.7 3.6-9.5 12.2-23.3 28.6-22.5 29.3s15-15.3 25.7-26.5c2.8-2.9 5.2-5.2 7.4-7.1-1.2 1.7-2.6 3.5-4.2 5.5-9.8 12.1-24 28.4-23.2 29.2.8.7 15-14.6 25.9-25.8-1.8 2.7-4 5.8-7.1 9.4-9.8 11.6-23.9 27.2-23.1 27.9s15.2-14.5 26-25.1c1.4-1.3 2.7-2.6 3.9-3.7-1.1 1.4-2.4 2.9-3.8 4.6-10.4 12-25.4 28-24.6 28.7.8.8 16.1-14.9 27.6-25.8 3.4-3.3 6.4-5.7 9.1-7.8-8.9 9.7-18.2 19.6-17.6 20.3.7.7 12.7-11 23.2-20.7-1.8 2.3-3.9 4.9-6.6 7.7-11 11.8-26.7 27.7-26 28.5.8.8 16.9-14.6 29-25.3 1.7-1.6 3.4-2.9 4.9-4.1-1.9 2.4-4.2 5.1-7.2 8.2-10.9 11.3-26.5 26.4-25.8 27.2.8.8 16.7-13.9 28.7-24.1 3.6-3.1 6.7-5.4 9.5-7.3-.9.9-1.8 1.9-2.8 2.9-11.5 11.5-27.8 26.7-27 27.6s17.5-14 30.1-24.3c2.8-2.3 5.2-4.1 7.5-5.7-1.7 1.9-3.6 3.9-5.9 6.1-11.2 10.8-27.2 25.2-26.5 26 .7.9 17.1-13.1 29.3-22.8 1.1-.9 2.1-1.6 3.1-2.4-1.8 2-3.9 4.2-6.5 6.6-11 10.3-26.8 23.9-26.1 24.7s16.8-12.4 28.8-21.6c4.8-3.7 8.7-6.1 12.1-8l-.4.4c-12.2 11-29.6 25.5-28.9 26.4.6.8 12.6-8.4 24.1-17.1-2.7 3-6 6.4-10.7 10.5-12.1 10.4-29.2 24.1-28.6 25 .7.8 18.2-12.5 31.2-21.7 2.1-1.5 4-2.7 5.7-3.8-12.4 10.2-26.8 21.5-26.1 22.3s15.9-10.2 29.2-19.5c-1.5 1.3-3.1 2.7-5 4.2-12.7 10.2-30.6 23.7-30 24.6s18.9-12.1 32.5-21.1c2.1-1.4 4-2.6 5.8-3.6-11.9 9.3-28.4 21.3-27.8 22.1.6.9 17.8-11 30.6-19.2 2.3-1.5 4.4-2.7 6.4-3.8-1.8 1.6-3.9 3.3-6.4 5.2-12.6 9.5-30.6 22.1-29.9 23 .6.9 18.9-11.2 32.4-19.5.4-.2.8-.5 1.2-.7-13.4 9.7-30.5 21.4-29.9 22.4s20.4-11.7 34.9-20.3c1.1-.6 2.1-1.2 3.2-1.8-1.3 1-2.6 2-4.1 3-13.4 9.5-32.4 21.9-31.8 22.9s19.9-11 34.2-19.1c3.5-2 6.5-3.5 9.3-4.8-13.6 9.3-32.5 21.2-31.9 22.2.6.9 17.7-9.1 31.7-16.9-14.3 9.4-33.5 21.2-32.9 22.2.5.9 15.2-7.3 28.9-14.8-13.8 8.7-30.8 18.9-30.2 19.8.6 1 20.9-10.3 35.9-17.9 2.3-1.2 4.5-2.2 6.4-3.1-1.7 1.2-3.7 2.5-5.9 3.8-14.3 8.8-34.5 20.2-33.9 21.3.4.8 11.9-5.1 23.9-11.1-1 .6-2 1.2-3.1 1.9-15 8.9-36.2 20.5-35.7 21.5s21.9-10 37.7-17.5c2.9-1.4 5.4-2.5 7.8-3.4-14 7.9-30.4 16.6-30 17.6.5 1 19.7-8.4 35-15.3-2.9 2-6.3 4.1-10.6 6.5-15.2 8.3-36.5 18.9-36 20 .5 1 22.1-9.1 38-15.9 2.2-1 4.3-1.8 6.2-2.5-12.4 6.3-25.2 12.7-24.9 13.6.5 1 20.5-8 35.3-14.1 3.5-1.4 6.6-2.5 9.3-3.3-1.5.9-3.2 1.8-5.1 2.7-15.2 7.6-36.4 17.4-35.9 18.5s22-8.1 37.9-14.2c2.4-.9 4.5-1.7 6.5-2.3-1.7.9-3.5 1.9-5.6 2.9-14.6 7-35 16-34.5 17 .4 1.1 21.1-7.3 36.3-12.9 2.6-.9 4.9-1.7 7.1-2.3-2.5 1.4-5.4 2.9-8.8 4.5-15.3 7-36.7 15.9-36.3 17s22.1-7.2 38-12.7c2.8-1 5.3-1.7 7.6-2.3-2 1-4.3 2.1-6.8 3.3-14.5 6.3-34.9 14.4-34.5 15.4.4 1.1 21-6.4 36.1-11.3 2.1-.7 4-1.2 5.8-1.7-2.7 1.4-5.8 2.9-9.5 4.4-15.5 6.4-37.1 14.4-36.8 15.6.4 1.1 20.3-5.7 36-10.5-1.6.7-3.4 1.5-5.3 2.2-15 5.9-35.9 13.3-35.6 14.3.4 1 21.5-5.8 36.9-10.3 3.7-1.1 6.9-1.8 9.8-2.4-1.1.4-2.3.9-3.5 1.4-15.2 5.7-36.5 12.8-36.1 13.8s20.4-5 35.9-9.2c-.6.2-1.3.5-1.9.7-15.8 5.6-37.8 12.6-37.5 13.7s22.5-5.3 38.7-9.4c1.5-.4 2.8-.7 4.1-1-2.4 1-5.2 2.1-8.4 3.1-16 5.4-38.4 12-38.1 13.1s22.8-5 39.3-8.8c4.3-1 7.9-1.6 11.2-2.1-.5.2-1.1.4-1.7.5-16.6 5.2-39.8 11.6-39.4 12.8.3 1 17.7-3.2 33.5-6.6-.7.2-1.5.5-2.2.7-14.8 4.4-35.4 9.8-35.2 10.8s21-3.8 36.1-6.8c3.5-.7 6.6-1.1 9.3-1.4-16 4.4-34.6 9-34.4 10.1.3 1.2 23.9-3.9 41.1-6.9 1.4-.2 2.6-.4 3.9-.6-13.9 3.6-30.3 7.4-30 8.4.2 1.1 19.3-2.7 34-5.1-1.9.6-4.1 1.2-6.5 1.8-14.7 3.7-35.2 8-35 9.1s20.6-2.7 35.5-4.9c-.2.1-.5.1-.7.2-15.2 3.6-36.4 7.7-36.2 8.8s21.5-2.5 36.9-4.6c.8-.1 1.5-.2 2.3-.3-2.4.7-5.1 1.4-8.2 2.1-16.4 3.5-39.3 7.6-39.1 8.8.2 1.1 23.2-2.3 39.9-4.3 4.4-.5 8.1-.7 11.4-.8-14.8 2.9-34.3 6-34.1 7.1.1 1 16.3-1.1 30.6-2.6-3.9 1.2-8.4 2.4-14.4 3.5-16.8 3-40.1 6.2-39.9 7.4.1 1.1 23.5-1.6 40.5-2.9 2.5-.2 4.9-.3 7-.4-16.8 2.7-39.4 5.5-39.3 6.7.1 1.1 21-.9 37.7-2-1.1.2-2.2.3-3.4.5-16 2.3-38.4 4.7-38.3 5.8s22.4-.7 38.6-1.5c3.6-.2 6.7-.2 9.5-.1-15.6 1.9-34.7 3.7-34.6 4.8s19-.1 34.6-.7c-1.1.1-2.3.3-3.5.4-15.7 1.8-37.4 3.4-37.3 4.5s20.7 0 36.3-.3c-1.1.1-2.3.3-3.6.4-15.2 1.5-36.2 2.8-36.1 3.8 0 1.1 21.1.3 36.3.2 1.8 0 3.5 0 5.1.1-14.6 1.1-29.1 2-29.1 3 0 1.1 17 .8 32.7.9-3.4.6-7.2 1.1-12.2 1.5-15.4 1-36.8 1.7-36.7 2.7 0 1.1 21.4.9 36.8 1.4 5.4.1 9.5.6 13.1 1.1-.9.1-1.8.1-2.7.2-15.5.7-36.9 1-36.9 2.1h55 2.4c-.6 0-1.2 0-1.8 0z"/><path d="m718.9 399h.5c.2 0-.1 0-.5 0z"/></svg>