<svg enable-background="new 0 0 800 443.5" viewBox="0 0 800 443.5" xmlns="http://www.w3.org/2000/svg"><path d="m422.9 432.4c-2.3 0-4.5-.7-6.3-2.1-19.8-14.3-34.5-33.6-44.7-50.6-9.3 10.3-21.2 16.2-34.2 16.8-.6 0-1.3 0-1.9 0-19.9 0-35.4-12.2-45.4-26.3-5.5 4.4-12.3 7-19.6 7-4.3 0-8.5-.9-12.4-2.5-2.6 8.3-6.7 16.1-12.1 22.5-10.6 12.7-25.3 19.7-41.4 19.7-1 0-1.9 0-2.9-.1-13.9-.7-28.1-7.1-39-17.4-5.6-5.3-9.9-11.3-13-17.7-5.4 3.1-11.7 4.8-18.6 4.8-14 0-28.1-7.1-36-18.1-3.1-4.3-5.1-9-6.1-13.8-2.8.5-5.7.8-8.6.8-21.9 0-43.6-14.7-54-36.6-8.1-17-8.7-37.2-1.5-53.9 4-9.3 10.2-17 18.1-22.5-5.4-8.9-6.9-19.8-3.6-30.7 3.5-11.7 11.7-20.8 22-25.3-3.4-8.2-3.8-17.7-.9-27 4.3-13.5 14.8-23.4 27.5-26.3-1.8-9.1-1.2-18.7 1.7-27.9 4.9-15.4 16-28.5 30.6-35.9 8.3-4.2 17.1-6.4 26.1-6.4 12.4 0 24.4 4.2 34.4 11.8 6.8-8.1 16.9-13.1 27.8-13.1 3 0 6 .4 8.9 1.1 7.7-20.8 26.1-35.9 47.8-37.7 1.5-.1 3.1-.2 4.6-.2 17.7 0 34.5 8.9 45.6 23.4 6.5-5.8 14.8-9.2 23.9-9.2 6.9 0 13.4 1.9 19 5.5 9.2-18.4 26.9-33.3 50.2-33.3h1.2c14.1.3 27 6.1 37.3 16.6 5.2 5.2 9.4 11.5 12.6 18.3 4.3-2.2 9.2-3.3 14.2-3.3 7.4 0 14.4 2.5 20.1 7 11.1-17.2 29.3-28.1 48.7-28.1 2.4 0 4.9.2 7.3.5 15.9 2.1 29.6 11.1 38.6 25.1 3.8 6 6.7 12.7 8.4 19.8 5.1-2.5 10.7-3.9 16.3-3.9 2.6 0 5.2.3 7.7.9 10.1 2 18.7 8.8 23.7 17.9 9.6-6.6 21.1-10.2 32.9-10.2 11.5 0 22.6 3.4 32.3 9.8 12.3 8.2 21.4 20.4 25.4 34.6 2.7 9.6 3 19.4.8 28.5 12.4 3.8 22.2 14.1 25.9 27.9 2.7 10.1 1.6 20-2.7 28.2 9.8 5.7 17 16 19 28.7 2.2 13.7-2.1 26.5-11 35 7.6 9.2 12.2 21.1 12.4 33.2.4 16.8-6.7 34-19.5 47.1-12.4 12.7-28.5 19.9-44.3 19.9-7.5 0-14.7-1.6-21.5-4.8-7.2 11-20 18.2-34.4 18.2-4.9 0-9.6-.9-14-2.5-10.3 17.9-29.4 29.6-50 29.6-2 0-4-.1-5.9-.3-19.6-2.1-36.4-14.9-45-33.1-5.4 3.1-11.5 4.8-17.8 4.8-8.7 0-16.8-3.2-23.1-8.7-10.3 14.4-26.2 25.8-45.4 25.8-.5 0-1 0-1.5 0-10.6-.3-20.3-4.2-28.6-11.2-1.2 26.7 2.3 32.2 2.5 32.5 2.5 3.2 3 7.7 1.2 11.4-1.9 3.6-5.7 6-9.8 6z"/><path d="m769.4 298c-.3-14.1-7.5-27.4-19.3-35 30-9.8 21.3-58-10.4-56.3 26-14.9 11.3-57.1-18.4-52.6 13-22 3.7-50-16.9-63.6-21.4-14.1-49.7-9.1-64.9 11.4.1-12.6-7.9-24.8-20.6-27.7-12.6-2.9-24.7 4.7-30.7 15.6 3-25.7-12.1-53.5-39.4-57.2-25-3.4-45.9 15.1-52.6 38.1-5.9-19.7-30.4-24-41.3-5.8-4-22.3-21.3-42.5-45.1-43.1-24.4-.6-42.6 19.8-46.9 42.6-11.5-21.4-40.3-19.1-48.1 3.9-7.6-20-26.6-34.6-48.5-32.8-22.3 1.9-38.9 20.8-41.5 42.4-15.1-12-36.3-4.3-41.2 14.1-14.6-18-37.7-23.9-58.5-13.4-23.6 12-34.8 40.9-22.1 64.8-29.8-7.2-46.3 33.7-22 50.7-29-4.6-45.2 34.8-20.4 51.2-28.8 9.3-36.5 43.5-24.4 68.8 11.2 23.5 40 39.8 64.5 24.9-10.9 32.2 41.2 52.7 54.6 21.3.5 23.9 23.6 44.7 47.2 45.9 28.8 1.5 48.1-24.5 48.4-51.4 10.9 17.2 34.4 15.3 40.5-4.7 7.5 18.3 24.6 36.6 45.9 35.7 16.3-.7 28.6-12.4 35.6-26.4 9.1 18.3 25.4 44.6 49.9 62.3.2.1.3-.1.2-.2-7.4-9.5-5.1-43.7-2.3-68.2 6.8 15.4 19.4 29.2 37.1 29.8 21.1.7 38.3-16.8 45.5-35.3 7.8 22.3 35 24.6 47 4.4 3.3 21.3 19.1 39.8 41.2 42.2 22.6 2.4 43.3-12.5 49.9-33.9 16 14.7 44.4 5.6 48.3-16 33.7 27.5 80.7-7.9 79.7-46.5z" fill="#fff"/></svg>