<svg viewBox="0 0 43.3902629 51.11412039" xmlns="http://www.w3.org/2000/svg"><g stroke-miterlimit="10"><g stroke-width=".5"><path d="m18.34367597 17.32656692h-10.20562278l5.10276045 9.4434237z" fill="#9cd4ce" stroke="#68c6dc"/><path d="m.72300907 30.79784252 19.12313797 19.09930368-8.91751519-19.09930368z" fill="#9cd4ce" stroke="#68c6dc"/><path d="m10.92863185 28.02001362-5.10276045-9.4434237-5.10286233 9.4434237z" fill="#9cd4ce" stroke="#68c6dc"/><path d="m34.37809496 17.32656692h-10.20562278l5.10286233 9.4434237z" fill="#9cd4ce" stroke="#68c6dc"/><path d="m26.23716789 27.32615367-5.10286232-9.44342371-5.10286233 9.44342371z" fill="#9cd4ce" stroke="#68c6dc"/><path d="m42.75584861 27.32615367-5.10286232-9.44342371-5.10276045 9.44342371z" fill="#9cd4ce" stroke="#68c6dc"/><path d="m32.55022584 30.79784252-10.26494278 19.09930368 20.47056555-19.09930368z" fill="#9cd4ce" stroke="#68c6dc"/><path d="m13.24086458 30.79784252 7.17280158 17.32121155-1.54077437-17.32121155z" fill="#9cd4ce" stroke="#68c6dc"/><path d="m28.74582507 30.79784252-7.17280158 17.32121155 1.54077437-17.32121155z" fill="#9cd4ce" stroke="#68c6dc"/><path d="m22.6280289 30.07272332 8.3656535 1.42314912-8.3656535 1.42314911-1.60269513 7.4284698-1.60269513-7.4284698-8.3656535-1.42314911 8.3656535-1.42314912 1.60269513-7.42846979z" fill="#f4eb05" stroke="#949495"/><path d="m26.23434228 5.99096469c-2.34210205-1.12374618-4.16741943-2.6532294-5.43280029-4.39107057-1.26538086 1.73784118-3.09075928 3.2673244-5.43286133 4.39107057-4.43554688 2.12821742-9.65460205 2.31139137-14.01300049.86136057l6.54602051 7.84089478h25.79956055l6.54602051-7.84084662c-4.35839844 1.44998264-9.57745361 1.26680869-14.01293945-.86140872z" fill="#ecefa3" stroke="#8d8d8d"/><path d="m7.930096 15.961331h26.190476" fill="#ecefa3" stroke="#8d8d8d"/><ellipse cx="20.797037" cy=".762127" fill="#ecefa3" rx=".649134" ry=".512127" stroke="#8d8d8d"/><ellipse cx=".899134" cy="6.422903" fill="#ecefa3" rx=".649134" ry=".512127" stroke="#8d8d8d"/><ellipse cx="41.151533" cy="6.422903" fill="#ecefa3" rx=".649134" ry=".512127" stroke="#8d8d8d"/><path d="m21.39404659 5.95542171 3.09292874.46748115-3.09292874.46748115-.59254449 2.44013051-.59254448-2.44013051-3.09292875-.46748115 3.09292875-.46748115.59254448-2.44013051z" fill="#ecefa3" stroke="#949495"/></g><path d="m15.44462992 8.37123857 1.67139895.25262383-1.67139895.25262383-.32020726 1.31863096-.32020726-1.31863096-1.67139896-.25262383 1.67139896-.25262383.32020726-1.31863095z" fill="#ecefa3" stroke="#949495" stroke-width=".25"/><path d="m26.32279545 8.37123857 1.67139895.25262383-1.67139895.25262383-.32020726 1.31863096-.32020726-1.31863096-1.67139895-.25262383 1.67139895-.25262383.32020726-1.31863095z" fill="#ecefa3" stroke="#949495" stroke-width=".25"/><path d="m11.73813182 10.64915024 1.67139896.25262383-1.67139896.25262383-.32020725 1.31863095-.32020726-1.31863095-1.67139896-.25262383 1.67139896-.25262383.32020726-1.31863095z" fill="#ecefa3" stroke="#949495" stroke-width=".25"/><path d="m30.30600788 10.64915024 1.67139895.25262383-1.67139895.25262383-.32020726 1.31863095-.32020726-1.31863095-1.67139896-.25262383 1.67139896-.25262383.32020726-1.31863095z" fill="#ecefa3" stroke="#949495" stroke-width=".25"/></g></svg>