<svg viewBox="0 0 56.69291338 56.69291339" xmlns="http://www.w3.org/2000/svg"><path d="m27.83173687 4.92172572 3.16091999 10.48957207-3.16091999 2.38235404-3.08616842-2.20166251" fill="#abdad6" stroke="#231815" stroke-miterlimit="10"/><path d="m27.83173687 17.79365183 1.88101335.72488628-1.88101335 1.25252059" fill="#abdad6" stroke="#231815" stroke-miterlimit="10"/><path d="m27.83173687 17.79365183-1.88101335.72488628 1.88101335 1.25252059 1.88101335-1.25252059z" fill="#abdad6" stroke="#231815" stroke-miterlimit="10"/><path d="m27.83173687 17.79365183-3.08616842-2.2016625z" fill="#abdad6" stroke="#231815" stroke-miterlimit="10"/><path d="m25.95072352 18.51853811 1.88101335 1.25252059 1.88101335-1.25252059-1.88101335-.72488628z" fill="#abdad6" stroke="#231815" stroke-miterlimit="10"/><path d="m27.83173687 4.92172572-3.08616842 10.6702636 3.08616842 2.067286 3.16091999-2.24797753-3.16091999-10.48957207-3.08616842 10.6702636 3.08616842-10.6702636-3.08616842 10.6702636" fill="#abdad6" stroke="#231815" stroke-miterlimit="10"/><path d="m27.83173687 4.92172572 3.16091999 10.48957207-3.16091999 2.38235404-3.08616842-2.20166251" fill="none" stroke="#efefef" stroke-width=".25"/><path d="m27.83173687 17.79365183 1.88101335.72488628-1.88101335 1.25252059" fill="none" stroke="#efefef" stroke-width=".25"/><path d="m27.83173687 17.79365183-1.88101335.72488628 1.88101335 1.25252059 1.88101335-1.25252059z" fill="none" stroke="#efefef" stroke-width=".25"/><path d="m27.83173687 17.79365183-3.08616842-2.2016625z" fill="none" stroke="#efefef" stroke-width=".25"/><path d="m25.95072352 18.51853811 1.88101335 1.25252059 1.88101335-1.25252059-1.88101335-.72488628z" fill="none" stroke="#efefef" stroke-width=".25"/><path d="m27.83173687 4.92172572-3.08616842 10.6702636 3.08616842 2.067286 3.16091999-2.24797753-3.16091999-10.48957207-3.08616842 10.6702636 3.08616842-10.6702636-3.08616842 10.6702636" fill="none" stroke="#efefef" stroke-width=".25"/><path d="m41.2682816 28.06421067-10.66469588-2.50734903-.48271912-3.92861403 3.44977987-1.571869" fill="#abdad6" stroke="#231815" stroke-miterlimit="10"/><path d="m30.1208666 21.62824762-1.56827661 1.2665622-.14420797-2.25526564" fill="#abdad6" stroke="#231815" stroke-miterlimit="10"/><path d="m30.1208666 21.62824761.31273674-1.99144849-2.02522132 1.00274506.14420797 2.25526564z" fill="#abdad6" stroke="#231815" stroke-miterlimit="10"/><path d="m30.1208666 21.62824761 3.44977987-1.571869z" fill="#abdad6" stroke="#231815" stroke-miterlimit="10"/><path d="m30.43360334 19.63679912-2.02522132 1.00274506.14420797 2.25526564 1.56827661-1.26656221z" fill="#abdad6" stroke="#231815" stroke-miterlimit="10"/><path d="m41.2682816 28.06421067-7.69763513-8.00783206-3.3334064 1.63905725.36634565 3.86142578 10.66469588 2.50734903-7.69763513-8.00783206 7.69763513 8.00783206-7.69763513-8.00783206" fill="#abdad6" stroke="#231815" stroke-miterlimit="10"/><path d="m41.2682816 28.06421067-10.66469588-2.50734903-.48271912-3.92861403 3.44977987-1.571869" fill="none" stroke="#efefef" stroke-width=".25"/><path d="m30.1208666 21.62824762-1.56827661 1.2665622-.14420797-2.25526564" fill="none" stroke="#efefef" stroke-width=".25"/><path d="m30.1208666 21.62824761.31273674-1.99144849-2.02522132 1.00274506.14420797 2.25526564z" fill="none" stroke="#efefef" stroke-width=".25"/><path d="m30.1208666 21.62824761 3.44977987-1.571869z" fill="none" stroke="#efefef" stroke-width=".25"/><path d="m30.43360334 19.63679912-2.02522132 1.00274506.14420797 2.25526564 1.56827661-1.26656221z" fill="none" stroke="#efefef" stroke-width=".25"/><path d="m41.2682816 28.06421067-7.69763513-8.00783206-3.3334064 1.63905725.36634565 3.86142578 10.66469588 2.50734903-7.69763513-8.00783206 7.69763513 8.00783206-7.69763513-8.00783206" fill="none" stroke="#efefef" stroke-width=".25"/><path d="m14.50802937 28.12935727 7.50377589-7.98222304 3.64363911 1.54625999-.36361145 3.7735315" fill="#abdad6" stroke="#231815" stroke-miterlimit="10"/><path d="m25.65544437 21.69339422-.31273674-1.99144849 2.02522132 1.00274505" fill="#abdad6" stroke="#231815" stroke-miterlimit="10"/><path d="m25.65544437 21.69339422 1.56827661 1.2665622.14420797-2.25526564-2.02522132-1.00274505z" fill="#abdad6" stroke="#231815" stroke-miterlimit="10"/><path d="m25.65544437 21.69339422-.36361145 3.77353151z" fill="#abdad6" stroke="#231815" stroke-miterlimit="10"/><path d="m27.22372098 22.95995642.14420797-2.25526564-2.02522132-1.00274505.31273674 1.99144849z" fill="#abdad6" stroke="#231815" stroke-miterlimit="10"/><path d="m14.50802937 28.12935727 10.78380355-2.66243155.24723799-3.70634325-3.52726565-1.61344824-7.50377589 7.98222304 10.78380355-2.66243155-10.78380355 2.66243155 10.78380355-2.66243155" fill="#abdad6" stroke="#231815" stroke-miterlimit="10"/><path d="m14.50802937 28.12935727 7.50377589-7.98222304 3.64363911 1.54625999-.36361145 3.7735315" fill="none" stroke="#efefef" stroke-width=".25"/><path d="m25.65544437 21.69339422-.31273674-1.99144849 2.02522132 1.00274505" fill="none" stroke="#efefef" stroke-width=".25"/><path d="m25.65544437 21.69339422 1.56827661 1.2665622.14420797-2.25526564-2.02522132-1.00274505z" fill="none" stroke="#efefef" stroke-width=".25"/><path d="m25.65544437 21.69339422-.36361145 3.77353151z" fill="none" stroke="#efefef" stroke-width=".25"/><path d="m27.22372098 22.95995642.14420797-2.25526564-2.02522132-1.00274505.31273674 1.99144849z" fill="none" stroke="#efefef" stroke-width=".25"/><path d="m14.50802937 28.12935727 10.78380355-2.66243155.24723799-3.70634325-3.52726565-1.61344824-7.50377589 7.98222304 10.78380355-2.66243155-10.78380355 2.66243155 10.78380355-2.66243155" fill="none" stroke="#efefef" stroke-width=".25"/><path d="m27.83173687 4.92172572 3.16091999 10.48957207-3.16091999 2.38235404-3.08616842-2.20166251" fill="#abdad6" stroke="#231815" stroke-miterlimit="10"/><path d="m27.83173687 17.79365183 1.88101335.72488628-1.88101335 1.25252059" fill="#abdad6" stroke="#231815" stroke-miterlimit="10"/><path d="m27.83173687 17.79365183-1.88101335.72488628 1.88101335 1.25252059 1.88101335-1.25252059z" fill="#abdad6" stroke="#231815" stroke-miterlimit="10"/><path d="m27.83173687 17.79365183-3.08616842-2.2016625z" fill="#abdad6" stroke="#231815" stroke-miterlimit="10"/><path d="m25.95072352 18.51853811 1.88101335 1.25252059 1.88101335-1.25252059-1.88101335-.72488628z" fill="#abdad6" stroke="#231815" stroke-miterlimit="10"/><path d="m27.83173687 4.92172572-3.08616842 10.6702636 3.08616842 2.067286 3.16091999-2.24797753-3.16091999-10.48957207-3.08616842 10.6702636 3.08616842-10.6702636-3.08616842 10.6702636" fill="#abdad6" stroke="#231815" stroke-miterlimit="10"/><path d="m27.83173687 4.92172572 3.16091999 10.48957207-3.16091999 2.38235404-3.08616842-2.20166251" fill="none" stroke="#efefef" stroke-width=".25"/><path d="m27.83173687 17.79365183 1.88101335.72488628-1.88101335 1.25252059" fill="none" stroke="#efefef" stroke-width=".25"/><path d="m27.83173687 17.79365183-1.88101335.72488628 1.88101335 1.25252059 1.88101335-1.25252059z" fill="none" stroke="#efefef" stroke-width=".25"/><path d="m27.83173687 17.79365183-3.08616842-2.2016625z" fill="none" stroke="#efefef" stroke-width=".25"/><path d="m25.95072352 18.51853811 1.88101335 1.25252059 1.88101335-1.25252059-1.88101335-.72488628z" fill="none" stroke="#efefef" stroke-width=".25"/><path d="m27.83173687 4.92172572-3.08616842 10.6702636 3.08616842 2.067286 3.16091999-2.24797753-3.16091999-10.48957207-3.08616842 10.6702636 3.08616842-10.6702636-3.08616842 10.6702636" fill="none" stroke="#efefef" stroke-width=".25"/><path d="m51.99201051 28.95933009-10.48957207 3.16091998-2.38235404-3.16091999 2.20166251-3.08616842" fill="#abdad6" stroke="#231815" stroke-miterlimit="10"/><path d="m39.1200844 28.95933009-.72488628 1.88101334-1.25252059-1.88101334" fill="#abdad6" stroke="#231815" stroke-miterlimit="10"/><path d="m39.1200844 28.95933008-.72488628-1.88101335-1.25252059 1.88101335 1.25252059 1.88101335z" fill="#abdad6" stroke="#231815" stroke-miterlimit="10"/><path d="m39.1200844 28.95933008 2.2016625-3.08616842z" fill="#abdad6" stroke="#231815" stroke-miterlimit="10"/><path d="m38.39519812 27.07831673-1.25252059 1.88101335 1.25252059 1.88101335.72488628-1.88101335z" fill="#abdad6" stroke="#231815" stroke-miterlimit="10"/><path d="m51.99201051 28.95933008-10.6702636-3.08616842-2.067286 3.08616842 2.24797753 3.16091999 10.48957207-3.16091999-10.6702636-3.08616842 10.6702636 3.08616842-10.6702636-3.08616842" fill="#abdad6" stroke="#231815" stroke-miterlimit="10"/><path d="m51.99201051 28.95933009-10.48957207 3.16091998-2.38235404-3.16091999 2.20166251-3.08616842" fill="none" stroke="#efefef" stroke-width=".25"/><path d="m39.1200844 28.95933009-.72488628 1.88101334-1.25252059-1.88101334" fill="none" stroke="#efefef" stroke-width=".25"/><path d="m39.1200844 28.95933008-.72488628-1.88101335-1.25252059 1.88101335 1.25252059 1.88101335z" fill="none" stroke="#efefef" stroke-width=".25"/><path d="m39.1200844 28.95933008 2.2016625-3.08616842z" fill="none" stroke="#efefef" stroke-width=".25"/><path d="m38.39519812 27.07831673-1.25252059 1.88101335 1.25252059 1.88101335.72488628-1.88101335z" fill="none" stroke="#efefef" stroke-width=".25"/><path d="m51.99201051 28.95933008-10.6702636-3.08616842-2.067286 3.08616842 2.24797753 3.16091999 10.48957207-3.16091999-10.6702636-3.08616842 10.6702636 3.08616842-10.6702636-3.08616842" fill="none" stroke="#efefef" stroke-width=".25"/><path d="m28.84952556 42.39587481 2.50734903-10.66469587 3.92861403-.48271913 1.571869 3.44977987" fill="#abdad6" stroke="#231815" stroke-miterlimit="10"/><path d="m35.28548862 31.24845981-1.26656221-1.56827661 2.25526564-.14420797" fill="#abdad6" stroke="#231815" stroke-miterlimit="10"/><path d="m35.28548862 31.24845981 1.99144849.31273674-1.00274506-2.02522132-2.25526564.14420797z" fill="#abdad6" stroke="#231815" stroke-miterlimit="10"/><path d="m35.28548862 31.24845981 1.571869 3.44977987z" fill="#abdad6" stroke="#231815" stroke-miterlimit="10"/><path d="m37.27693711 31.56119655-1.00274506-2.02522132-2.25526564.14420797 1.26656221 1.56827661z" fill="#abdad6" stroke="#231815" stroke-miterlimit="10"/><path d="m28.84952557 42.39587482 8.00783205-7.69763514-1.63905725-3.3334064-3.86142578.36634566-2.50734902 10.66469588 8.00783205-7.69763514-8.00783205 7.69763514 8.00783205-7.69763514" fill="#abdad6" stroke="#231815" stroke-miterlimit="10"/><path d="m28.84952556 42.39587481 2.50734903-10.66469587 3.92861403-.48271913 1.571869 3.44977987" fill="none" stroke="#efefef" stroke-width=".25"/><path d="m35.28548862 31.24845981-1.26656221-1.56827661 2.25526564-.14420797" fill="none" stroke="#efefef" stroke-width=".25"/><path d="m35.28548862 31.24845981 1.99144849.31273674-1.00274506-2.02522132-2.25526564.14420797z" fill="none" stroke="#efefef" stroke-width=".25"/><path d="m35.28548862 31.24845981 1.571869 3.44977987z" fill="none" stroke="#efefef" stroke-width=".25"/><path d="m37.27693711 31.56119655-1.00274506-2.02522132-2.25526564.14420797 1.26656221 1.56827661z" fill="none" stroke="#efefef" stroke-width=".25"/><path d="m28.84952557 42.39587482 8.00783205-7.69763514-1.63905725-3.3334064-3.86142578.36634566-2.50734902 10.66469588 8.00783205-7.69763514-8.00783205 7.69763514 8.00783205-7.69763514" fill="none" stroke="#efefef" stroke-width=".25"/><path d="m28.78437896 15.63562258 7.98222304 7.5037759-1.54625999 3.6436391-3.7735315-.36361144" fill="#abdad6" stroke="#231815" stroke-miterlimit="10"/><path d="m35.22034201 26.78303758 1.99144849-.31273673-1.00274505 2.02522132" fill="#abdad6" stroke="#231815" stroke-miterlimit="10"/><path d="m35.22034201 26.78303758-1.2665622 1.56827662 2.25526564.14420797 1.00274505-2.02522132z" fill="#abdad6" stroke="#231815" stroke-miterlimit="10"/><path d="m35.22034201 26.78303758-3.77353151-.36361145z" fill="#abdad6" stroke="#231815" stroke-miterlimit="10"/><path d="m33.95377981 28.3513142 2.25526564.14420797 1.00274505-2.02522132-1.99144849.31273673z" fill="#abdad6" stroke="#231815" stroke-miterlimit="10"/><path d="m28.78437896 15.63562258 2.66243155 10.78380356 3.70634325.24723798 1.61344824-3.52726564-7.98222304-7.5037759 2.66243155 10.78380356-2.66243155-10.78380356 2.66243155 10.78380356" fill="#abdad6" stroke="#231815" stroke-miterlimit="10"/><path d="m28.78437896 15.63562258 7.98222304 7.5037759-1.54625999 3.6436391-3.7735315-.36361144" fill="none" stroke="#efefef" stroke-width=".25"/><path d="m35.22034201 26.78303758 1.99144849-.31273673-1.00274505 2.02522132" fill="none" stroke="#efefef" stroke-width=".25"/><path d="m35.22034201 26.78303758-1.2665622 1.56827662 2.25526564.14420797 1.00274505-2.02522132z" fill="none" stroke="#efefef" stroke-width=".25"/><path d="m35.22034201 26.78303758-3.77353151-.36361145z" fill="none" stroke="#efefef" stroke-width=".25"/><path d="m33.95377981 28.3513142 2.25526564.14420797 1.00274505-2.02522132-1.99144849.31273673z" fill="none" stroke="#efefef" stroke-width=".25"/><path d="m28.78437896 15.63562258 2.66243155 10.78380356 3.70634325.24723798 1.61344824-3.52726564-7.98222304-7.5037759 2.66243155 10.78380356-2.66243155-10.78380356 2.66243155 10.78380356" fill="none" stroke="#efefef" stroke-width=".25"/><path d="m51.99201051 28.95933009-10.48957207 3.16091998-2.38235404-3.16091999 2.20166251-3.08616842" fill="#abdad6" stroke="#231815" stroke-miterlimit="10"/><path d="m39.1200844 28.95933009-.72488628 1.88101334-1.25252059-1.88101334" fill="#abdad6" stroke="#231815" stroke-miterlimit="10"/><path d="m39.1200844 28.95933008-.72488628-1.88101335-1.25252059 1.88101335 1.25252059 1.88101335z" fill="#abdad6" stroke="#231815" stroke-miterlimit="10"/><path d="m39.1200844 28.95933008 2.2016625-3.08616842z" fill="#abdad6" stroke="#231815" stroke-miterlimit="10"/><path d="m38.39519812 27.07831673-1.25252059 1.88101335 1.25252059 1.88101335.72488628-1.88101335z" fill="#abdad6" stroke="#231815" stroke-miterlimit="10"/><path d="m51.99201051 28.95933008-10.6702636-3.08616842-2.067286 3.08616842 2.24797753 3.16091999 10.48957207-3.16091999-10.6702636-3.08616842 10.6702636 3.08616842-10.6702636-3.08616842" fill="#abdad6" stroke="#231815" stroke-miterlimit="10"/><path d="m51.99201051 28.95933009-10.48957207 3.16091998-2.38235404-3.16091999 2.20166251-3.08616842" fill="none" stroke="#efefef" stroke-width=".25"/><path d="m39.1200844 28.95933009-.72488628 1.88101334-1.25252059-1.88101334" fill="none" stroke="#efefef" stroke-width=".25"/><path d="m39.1200844 28.95933008-.72488628-1.88101335-1.25252059 1.88101335 1.25252059 1.88101335z" fill="none" stroke="#efefef" stroke-width=".25"/><path d="m39.1200844 28.95933008 2.2016625-3.08616842z" fill="none" stroke="#efefef" stroke-width=".25"/><path d="m38.39519812 27.07831673-1.25252059 1.88101335 1.25252059 1.88101335.72488628-1.88101335z" fill="none" stroke="#efefef" stroke-width=".25"/><path d="m51.99201051 28.95933008-10.6702636-3.08616842-2.067286 3.08616842 2.24797753 3.16091999 10.48957207-3.16091999-10.6702636-3.08616842 10.6702636 3.08616842-10.6702636-3.08616842" fill="none" stroke="#efefef" stroke-width=".25"/><path d="m27.95440615 53.11960372-3.16091999-10.48957207 3.16091999-2.38235403 3.08616842 2.2016625" fill="#abdad6" stroke="#231815" stroke-miterlimit="10"/><path d="m27.95440615 40.24767762-1.88101335-.72488629 1.88101335-1.25252058" fill="#abdad6" stroke="#231815" stroke-miterlimit="10"/><path d="m27.95440615 40.24767762 1.88101335-.72488629-1.88101335-1.25252058-1.88101335 1.25252058z" fill="#abdad6" stroke="#231815" stroke-miterlimit="10"/><path d="m27.95440615 40.24767762 3.08616842 2.2016625z" fill="#abdad6" stroke="#231815" stroke-miterlimit="10"/><path d="m29.8354195 39.52279133-1.88101335-1.25252058-1.88101335 1.25252058 1.88101335.72488629z" fill="#abdad6" stroke="#231815" stroke-miterlimit="10"/><path d="m27.95440615 53.11960372 3.08616842-10.6702636-3.08616842-2.067286-3.16091999 2.24797753 3.16091999 10.48957207 3.08616842-10.6702636-3.08616842 10.6702636 3.08616842-10.6702636" fill="#abdad6" stroke="#231815" stroke-miterlimit="10"/><path d="m27.95440615 53.11960372-3.16091999-10.48957207 3.16091999-2.38235403 3.08616842 2.2016625" fill="none" stroke="#efefef" stroke-width=".25"/><path d="m27.95440615 40.24767762-1.88101335-.72488629 1.88101335-1.25252058" fill="none" stroke="#efefef" stroke-width=".25"/><path d="m27.95440615 40.24767762 1.88101335-.72488629-1.88101335-1.25252058-1.88101335 1.25252058z" fill="none" stroke="#efefef" stroke-width=".25"/><path d="m27.95440615 40.24767762 3.08616842 2.2016625z" fill="none" stroke="#efefef" stroke-width=".25"/><path d="m29.8354195 39.52279133-1.88101335-1.25252058-1.88101335 1.25252058 1.88101335.72488629z" fill="none" stroke="#efefef" stroke-width=".25"/><path d="m27.95440615 53.11960372 3.08616842-10.6702636-3.08616842-2.067286-3.16091999 2.24797753 3.16091999 10.48957207 3.08616842-10.6702636-3.08616842 10.6702636 3.08616842-10.6702636" fill="none" stroke="#efefef" stroke-width=".25"/><path d="m14.51786142 29.97711878 10.66469587 2.50734903.48271913 3.92861402-3.44977987 1.571869" fill="#abdad6" stroke="#231815" stroke-miterlimit="10"/><path d="m25.66527642 36.41308183 1.56827661-1.2665622.14420797 2.25526563" fill="#abdad6" stroke="#231815" stroke-miterlimit="10"/><path d="m25.66527642 36.41308183-.31273674 1.99144849 2.02522132-1.00274505-.14420797-2.25526564z" fill="#abdad6" stroke="#231815" stroke-miterlimit="10"/><path d="m25.66527642 36.41308183-3.44977987 1.571869z" fill="#abdad6" stroke="#231815" stroke-miterlimit="10"/><path d="m25.35253968 38.40453032 2.02522132-1.00274505-.14420797-2.25526564-1.56827661 1.2665622z" fill="#abdad6" stroke="#231815" stroke-miterlimit="10"/><path d="m14.51786142 29.97711878 7.69763513 8.00783205 3.3334064-1.63905725-.36634566-3.86142577-10.66469587-2.50734903 7.69763513 8.00783205-7.69763513-8.00783205 7.69763513 8.00783205" fill="#abdad6" stroke="#231815" stroke-miterlimit="10"/><path d="m14.51786142 29.97711878 10.66469587 2.50734903.48271913 3.92861402-3.44977987 1.571869" fill="none" stroke="#efefef" stroke-width=".25"/><path d="m25.66527642 36.41308183 1.56827661-1.2665622.14420797 2.25526563" fill="none" stroke="#efefef" stroke-width=".25"/><path d="m25.66527642 36.41308183-.31273674 1.99144849 2.02522132-1.00274505-.14420797-2.25526564z" fill="none" stroke="#efefef" stroke-width=".25"/><path d="m25.66527642 36.41308183-3.44977987 1.571869z" fill="none" stroke="#efefef" stroke-width=".25"/><path d="m25.35253968 38.40453032 2.02522132-1.00274505-.14420797-2.25526564-1.56827661 1.2665622z" fill="none" stroke="#efefef" stroke-width=".25"/><path d="m14.51786142 29.97711878 7.69763513 8.00783205 3.3334064-1.63905725-.36634566-3.86142577-10.66469587-2.50734903 7.69763513 8.00783205-7.69763513-8.00783205 7.69763513 8.00783205" fill="none" stroke="#efefef" stroke-width=".25"/><path d="m41.27811365 29.91197217-7.5037759 7.98222304-3.6436391-1.54625999.36361145-3.7735315" fill="#abdad6" stroke="#231815" stroke-miterlimit="10"/><path d="m30.13069865 36.34793523.31273673 1.99144849-2.02522132-1.00274506" fill="#abdad6" stroke="#231815" stroke-miterlimit="10"/><path d="m30.13069865 36.34793522-1.56827662-1.2665622-.14420797 2.25526564 2.02522132 1.00274506z" fill="#abdad6" stroke="#231815" stroke-miterlimit="10"/><path d="m30.13069865 36.34793522.36361145-3.77353151z" fill="#abdad6" stroke="#231815" stroke-miterlimit="10"/><path d="m28.56242203 35.08137302-.14420797 2.25526564 2.02522132 1.00274506-.31273673-1.9914485z" fill="#abdad6" stroke="#231815" stroke-miterlimit="10"/><path d="m41.27811365 29.91197217-10.78380355 2.66243155-.24723799 3.70634325 3.52726564 1.61344824 7.5037759-7.98222304-10.78380355 2.66243155 10.78380355-2.66243155-10.78380355 2.66243155" fill="#abdad6" stroke="#231815" stroke-miterlimit="10"/><path d="m41.27811365 29.91197217-7.5037759 7.98222304-3.6436391-1.54625999.36361145-3.7735315" fill="none" stroke="#efefef" stroke-width=".25"/><path d="m30.13069865 36.34793523.31273673 1.99144849-2.02522132-1.00274506" fill="none" stroke="#efefef" stroke-width=".25"/><path d="m30.13069865 36.34793522-1.56827662-1.2665622-.14420797 2.25526564 2.02522132 1.00274506z" fill="none" stroke="#efefef" stroke-width=".25"/><path d="m30.13069865 36.34793522.36361145-3.77353151z" fill="none" stroke="#efefef" stroke-width=".25"/><path d="m28.56242203 35.08137302-.14420797 2.25526564 2.02522132 1.00274506-.31273673-1.9914485z" fill="none" stroke="#efefef" stroke-width=".25"/><path d="m41.27811365 29.91197217-10.78380355 2.66243155-.24723799 3.70634325 3.52726564 1.61344824 7.5037759-7.98222304-10.78380355 2.66243155 10.78380355-2.66243155-10.78380355 2.66243155" fill="none" stroke="#efefef" stroke-width=".25"/><path d="m27.95440615 53.11960372-3.16091999-10.48957207 3.16091999-2.38235403 3.08616842 2.2016625" fill="#abdad6" stroke="#231815" stroke-miterlimit="10"/><path d="m27.95440615 40.24767762-1.88101335-.72488629 1.88101335-1.25252058" fill="#abdad6" stroke="#231815" stroke-miterlimit="10"/><path d="m27.95440615 40.24767762 1.88101335-.72488629-1.88101335-1.25252058-1.88101335 1.25252058z" fill="#abdad6" stroke="#231815" stroke-miterlimit="10"/><path d="m27.95440615 40.24767762 3.08616842 2.2016625z" fill="#abdad6" stroke="#231815" stroke-miterlimit="10"/><path d="m29.8354195 39.52279133-1.88101335-1.25252058-1.88101335 1.25252058 1.88101335.72488629z" fill="#abdad6" stroke="#231815" stroke-miterlimit="10"/><path d="m27.95440615 53.11960372 3.08616842-10.6702636-3.08616842-2.067286-3.16091999 2.24797753 3.16091999 10.48957207 3.08616842-10.6702636-3.08616842 10.6702636 3.08616842-10.6702636" fill="#abdad6" stroke="#231815" stroke-miterlimit="10"/><path d="m27.95440615 53.11960372-3.16091999-10.48957207 3.16091999-2.38235403 3.08616842 2.2016625" fill="none" stroke="#efefef" stroke-width=".25"/><path d="m27.95440615 40.24767762-1.88101335-.72488629 1.88101335-1.25252058" fill="none" stroke="#efefef" stroke-width=".25"/><path d="m27.95440615 40.24767762 1.88101335-.72488629-1.88101335-1.25252058-1.88101335 1.25252058z" fill="none" stroke="#efefef" stroke-width=".25"/><path d="m27.95440615 40.24767762 3.08616842 2.2016625z" fill="none" stroke="#efefef" stroke-width=".25"/><path d="m29.8354195 39.52279133-1.88101335-1.25252058-1.88101335 1.25252058 1.88101335.72488629z" fill="none" stroke="#efefef" stroke-width=".25"/><path d="m27.95440615 53.11960372 3.08616842-10.6702636-3.08616842-2.067286-3.16091999 2.24797753 3.16091999 10.48957207 3.08616842-10.6702636-3.08616842 10.6702636 3.08616842-10.6702636" fill="none" stroke="#efefef" stroke-width=".25"/><path d="m3.79413251 29.08199936 10.48957207-3.16091999 2.38235403 3.16091999-2.2016625 3.08616842" fill="#abdad6" stroke="#231815" stroke-miterlimit="10"/><path d="m16.66605861 29.08199936.72488629-1.88101335 1.25252058 1.88101335" fill="#abdad6" stroke="#231815" stroke-miterlimit="10"/><path d="m16.66605861 29.08199936.72488629 1.88101335 1.25252058-1.88101335-1.25252058-1.88101335z" fill="#abdad6" stroke="#231815" stroke-miterlimit="10"/><path d="m16.66605861 29.08199936-2.2016625 3.08616842z" fill="#abdad6" stroke="#231815" stroke-miterlimit="10"/><path d="m17.3909449 30.96301271 1.25252058-1.88101335-1.25252058-1.88101335-.72488629 1.88101335z" fill="#abdad6" stroke="#231815" stroke-miterlimit="10"/><path d="m3.79413251 29.08199936 10.6702636 3.08616842 2.067286-3.08616842-2.24797753-3.16091999-10.48957207 3.16091999 10.6702636 3.08616842-10.6702636-3.08616842 10.6702636 3.08616842" fill="#abdad6" stroke="#231815" stroke-miterlimit="10"/><path d="m3.79413251 29.08199936 10.48957207-3.16091999 2.38235403 3.16091999-2.2016625 3.08616842" fill="none" stroke="#efefef" stroke-width=".25"/><path d="m16.66605861 29.08199936.72488629-1.88101335 1.25252058 1.88101335" fill="none" stroke="#efefef" stroke-width=".25"/><path d="m16.66605861 29.08199936.72488629 1.88101335 1.25252058-1.88101335-1.25252058-1.88101335z" fill="none" stroke="#efefef" stroke-width=".25"/><path d="m16.66605861 29.08199936-2.2016625 3.08616842z" fill="none" stroke="#efefef" stroke-width=".25"/><path d="m17.3909449 30.96301271 1.25252058-1.88101335-1.25252058-1.88101335-.72488629 1.88101335z" fill="none" stroke="#efefef" stroke-width=".25"/><path d="m3.79413251 29.08199936 10.6702636 3.08616842 2.067286-3.08616842-2.24797753-3.16091999-10.48957207 3.16091999 10.6702636 3.08616842-10.6702636-3.08616842 10.6702636 3.08616842" fill="none" stroke="#efefef" stroke-width=".25"/><path d="m26.93661745 15.64545463-2.50734903 10.66469588-3.92861402.48271912-1.571869-3.44977987" fill="#abdad6" stroke="#231815" stroke-miterlimit="10"/><path d="m20.5006544 26.79286963 1.2665622 1.56827661-2.25526563.14420798" fill="#abdad6" stroke="#231815" stroke-miterlimit="10"/><path d="m20.5006544 26.79286963-1.99144849-.31273674 1.00274505 2.02522132 2.25526564-.14420797z" fill="#abdad6" stroke="#231815" stroke-miterlimit="10"/><path d="m20.5006544 26.79286963-1.571869-3.44977987z" fill="#abdad6" stroke="#231815" stroke-miterlimit="10"/><path d="m18.50920591 26.48013289 1.00274505 2.02522132 2.25526564-.14420797-1.2665622-1.56827661z" fill="#abdad6" stroke="#231815" stroke-miterlimit="10"/><path d="m26.93661745 15.64545463-8.00783205 7.69763513 1.63905725 3.33340641 3.86142577-.36634566 2.50734903-10.66469588-8.00783205 7.69763513 8.00783205-7.69763513-8.00783205 7.69763513" fill="#abdad6" stroke="#231815" stroke-miterlimit="10"/><path d="m26.93661745 15.64545463-2.50734903 10.66469588-3.92861402.48271912-1.571869-3.44977987" fill="none" stroke="#efefef" stroke-width=".25"/><path d="m20.5006544 26.79286963 1.2665622 1.56827661-2.25526563.14420798" fill="none" stroke="#efefef" stroke-width=".25"/><path d="m20.5006544 26.79286963-1.99144849-.31273674 1.00274505 2.02522132 2.25526564-.14420797z" fill="none" stroke="#efefef" stroke-width=".25"/><path d="m20.5006544 26.79286963-1.571869-3.44977987z" fill="none" stroke="#efefef" stroke-width=".25"/><path d="m18.50920591 26.48013289 1.00274505 2.02522132 2.25526564-.14420797-1.2665622-1.56827661z" fill="none" stroke="#efefef" stroke-width=".25"/><path d="m26.93661745 15.64545463-8.00783205 7.69763513 1.63905725 3.33340641 3.86142577-.36634566 2.50734903-10.66469588-8.00783205 7.69763513 8.00783205-7.69763513-8.00783205 7.69763513" fill="none" stroke="#efefef" stroke-width=".25"/><path d="m27.00176406 42.40570686-7.98222304-7.50377589 1.54625999-3.64363911 3.7735315.36361145" fill="#abdad6" stroke="#231815" stroke-miterlimit="10"/><path d="m20.565801 31.25829186-1.99144848.31273674 1.00274505-2.02522132" fill="#abdad6" stroke="#231815" stroke-miterlimit="10"/><path d="m20.56580101 31.25829186 1.2665622-1.56827661-2.25526564-.14420797-1.00274505 2.02522132z" fill="#abdad6" stroke="#231815" stroke-miterlimit="10"/><path d="m20.56580101 31.25829186 3.77353151.36361145z" fill="#abdad6" stroke="#231815" stroke-miterlimit="10"/><path d="m21.83236321 29.69001525-2.25526564-.14420797-1.00274505 2.02522132 1.99144849-.31273674z" fill="#abdad6" stroke="#231815" stroke-miterlimit="10"/><path d="m27.00176406 42.40570686-2.66243155-10.78380355-3.70634325-.24723798-1.61344824 3.52726564 7.98222304 7.50377589-2.66243155-10.78380355 2.66243155 10.78380355-2.66243155-10.78380355" fill="#abdad6" stroke="#231815" stroke-miterlimit="10"/><path d="m27.00176406 42.40570686-7.98222304-7.50377589 1.54625999-3.64363911 3.7735315.36361145" fill="none" stroke="#efefef" stroke-width=".25"/><path d="m20.565801 31.25829186-1.99144848.31273674 1.00274505-2.02522132" fill="none" stroke="#efefef" stroke-width=".25"/><path d="m20.56580101 31.25829186 1.2665622-1.56827661-2.25526564-.14420797-1.00274505 2.02522132z" fill="none" stroke="#efefef" stroke-width=".25"/><path d="m20.56580101 31.25829186 3.77353151.36361145z" fill="none" stroke="#efefef" stroke-width=".25"/><path d="m21.83236321 29.69001525-2.25526564-.14420797-1.00274505 2.02522132 1.99144849-.31273674z" fill="none" stroke="#efefef" stroke-width=".25"/><path d="m27.00176406 42.40570686-2.66243155-10.78380355-3.70634325-.24723798-1.61344824 3.52726564 7.98222304 7.50377589-2.66243155-10.78380355 2.66243155 10.78380355-2.66243155-10.78380355" fill="none" stroke="#efefef" stroke-width=".25"/><path d="m3.79413251 29.08199936 10.48957207-3.16091999 2.38235403 3.16091999-2.2016625 3.08616842" fill="#abdad6" stroke="#231815" stroke-miterlimit="10"/><path d="m16.66605861 29.08199936.72488629-1.88101335 1.25252058 1.88101335" fill="#abdad6" stroke="#231815" stroke-miterlimit="10"/><path d="m16.66605861 29.08199936.72488629 1.88101335 1.25252058-1.88101335-1.25252058-1.88101335z" fill="#abdad6" stroke="#231815" stroke-miterlimit="10"/><path d="m16.66605861 29.08199936-2.2016625 3.08616842z" fill="#abdad6" stroke="#231815" stroke-miterlimit="10"/><path d="m17.3909449 30.96301271 1.25252058-1.88101335-1.25252058-1.88101335-.72488629 1.88101335z" fill="#abdad6" stroke="#231815" stroke-miterlimit="10"/><path d="m3.79413251 29.08199936 10.6702636 3.08616842 2.067286-3.08616842-2.24797753-3.16091999-10.48957207 3.16091999 10.6702636 3.08616842-10.6702636-3.08616842 10.6702636 3.08616842" fill="#abdad6" stroke="#231815" stroke-miterlimit="10"/><path d="m3.79413251 29.08199936 10.48957207-3.16091999 2.38235403 3.16091999-2.2016625 3.08616842" fill="none" stroke="#efefef" stroke-width=".25"/><path d="m16.66605861 29.08199936.72488629-1.88101335 1.25252058 1.88101335" fill="none" stroke="#efefef" stroke-width=".25"/><path d="m16.66605861 29.08199936.72488629 1.88101335 1.25252058-1.88101335-1.25252058-1.88101335z" fill="none" stroke="#efefef" stroke-width=".25"/><path d="m16.66605861 29.08199936-2.2016625 3.08616842z" fill="none" stroke="#efefef" stroke-width=".25"/><path d="m17.3909449 30.96301271 1.25252058-1.88101335-1.25252058-1.88101335-.72488629 1.88101335z" fill="none" stroke="#efefef" stroke-width=".25"/><path d="m3.79413251 29.08199936 10.6702636 3.08616842 2.067286-3.08616842-2.24797753-3.16091999-10.48957207 3.16091999 10.6702636 3.08616842-10.6702636-3.08616842 10.6702636 3.08616842" fill="none" stroke="#efefef" stroke-width=".25"/><path d="m27.83173687 4.92172572 3.16091999 10.48957207-3.16091999 2.38235404-3.08616842-2.20166251" fill="#abdad6" stroke="#231815" stroke-miterlimit="10"/><path d="m27.83173687 17.79365183 1.88101335.72488628-1.88101335 1.25252059" fill="#abdad6" stroke="#231815" stroke-miterlimit="10"/><path d="m27.83173687 17.79365183-1.88101335.72488628 1.88101335 1.25252059 1.88101335-1.25252059z" fill="#abdad6" stroke="#231815" stroke-miterlimit="10"/><path d="m27.83173687 17.79365183-3.08616842-2.2016625z" fill="#abdad6" stroke="#231815" stroke-miterlimit="10"/><path d="m25.95072352 18.51853811 1.88101335 1.25252059 1.88101335-1.25252059-1.88101335-.72488628z" fill="#abdad6" stroke="#231815" stroke-miterlimit="10"/><path d="m27.83173687 4.92172572-3.08616842 10.6702636 3.08616842 2.067286 3.16091999-2.24797753-3.16091999-10.48957207-3.08616842 10.6702636 3.08616842-10.6702636-3.08616842 10.6702636" fill="#abdad6" stroke="#231815" stroke-miterlimit="10"/><path d="m27.83173687 4.92172572 3.16091999 10.48957207-3.16091999 2.38235404-3.08616842-2.20166251" fill="none" stroke="#efefef" stroke-width=".25"/><path d="m27.83173687 17.79365183 1.88101335.72488628-1.88101335 1.25252059" fill="none" stroke="#efefef" stroke-width=".25"/><path d="m27.83173687 17.79365183-1.88101335.72488628 1.88101335 1.25252059 1.88101335-1.25252059z" fill="none" stroke="#efefef" stroke-width=".25"/><path d="m27.83173687 17.79365183-3.08616842-2.2016625z" fill="none" stroke="#efefef" stroke-width=".25"/><path d="m25.95072352 18.51853811 1.88101335 1.25252059 1.88101335-1.25252059-1.88101335-.72488628z" fill="none" stroke="#efefef" stroke-width=".25"/><path d="m27.83173687 4.92172572-3.08616842 10.6702636 3.08616842 2.067286 3.16091999-2.24797753-3.16091999-10.48957207-3.08616842 10.6702636 3.08616842-10.6702636-3.08616842 10.6702636" fill="none" stroke="#efefef" stroke-width=".25"/><path d="m41.2682816 28.06421067-10.66469588-2.50734903-.48271912-3.92861403 3.44977987-1.571869" fill="#abdad6" stroke="#231815" stroke-miterlimit="10"/><path d="m30.1208666 21.62824762-1.56827661 1.2665622-.14420797-2.25526564" fill="#abdad6" stroke="#231815" stroke-miterlimit="10"/><path d="m30.1208666 21.62824761.31273674-1.99144849-2.02522132 1.00274506.14420797 2.25526564z" fill="#abdad6" stroke="#231815" stroke-miterlimit="10"/><path d="m30.1208666 21.62824761 3.44977987-1.571869z" fill="#abdad6" stroke="#231815" stroke-miterlimit="10"/><path d="m30.43360334 19.63679912-2.02522132 1.00274506.14420797 2.25526564 1.56827661-1.26656221z" fill="#abdad6" stroke="#231815" stroke-miterlimit="10"/><path d="m41.2682816 28.06421067-7.69763513-8.00783206-3.3334064 1.63905725.36634565 3.86142578 10.66469588 2.50734903-7.69763513-8.00783206 7.69763513 8.00783206-7.69763513-8.00783206" fill="#abdad6" stroke="#231815" stroke-miterlimit="10"/><path d="m41.2682816 28.06421067-10.66469588-2.50734903-.48271912-3.92861403 3.44977987-1.571869" fill="none" stroke="#efefef" stroke-width=".25"/><path d="m30.1208666 21.62824762-1.56827661 1.2665622-.14420797-2.25526564" fill="none" stroke="#efefef" stroke-width=".25"/><path d="m30.1208666 21.62824761.31273674-1.99144849-2.02522132 1.00274506.14420797 2.25526564z" fill="none" stroke="#efefef" stroke-width=".25"/><path d="m30.1208666 21.62824761 3.44977987-1.571869z" fill="none" stroke="#efefef" stroke-width=".25"/><path d="m30.43360334 19.63679912-2.02522132 1.00274506.14420797 2.25526564 1.56827661-1.26656221z" fill="none" stroke="#efefef" stroke-width=".25"/><path d="m41.2682816 28.06421067-7.69763513-8.00783206-3.3334064 1.63905725.36634565 3.86142578 10.66469588 2.50734903-7.69763513-8.00783206 7.69763513 8.00783206-7.69763513-8.00783206" fill="none" stroke="#efefef" stroke-width=".25"/><path d="m14.50802937 28.12935727 7.50377589-7.98222304 3.64363911 1.54625999-.36361145 3.7735315" fill="#abdad6" stroke="#231815" stroke-miterlimit="10"/><path d="m25.65544437 21.69339422-.31273674-1.99144849 2.02522132 1.00274505" fill="#abdad6" stroke="#231815" stroke-miterlimit="10"/><path d="m25.65544437 21.69339422 1.56827661 1.2665622.14420797-2.25526564-2.02522132-1.00274505z" fill="#abdad6" stroke="#231815" stroke-miterlimit="10"/><path d="m25.65544437 21.69339422-.36361145 3.77353151z" fill="#abdad6" stroke="#231815" stroke-miterlimit="10"/><path d="m27.22372098 22.95995642.14420797-2.25526564-2.02522132-1.00274505.31273674 1.99144849z" fill="#abdad6" stroke="#231815" stroke-miterlimit="10"/><path d="m14.50802937 28.12935727 10.78380355-2.66243155.24723799-3.70634325-3.52726565-1.61344824-7.50377589 7.98222304 10.78380355-2.66243155-10.78380355 2.66243155 10.78380355-2.66243155" fill="#abdad6" stroke="#231815" stroke-miterlimit="10"/><path d="m14.50802937 28.12935727 7.50377589-7.98222304 3.64363911 1.54625999-.36361145 3.7735315" fill="none" stroke="#efefef" stroke-width=".25"/><path d="m25.65544437 21.69339422-.31273674-1.99144849 2.02522132 1.00274505" fill="none" stroke="#efefef" stroke-width=".25"/><path d="m25.65544437 21.69339422 1.56827661 1.2665622.14420797-2.25526564-2.02522132-1.00274505z" fill="none" stroke="#efefef" stroke-width=".25"/><path d="m25.65544437 21.69339422-.36361145 3.77353151z" fill="none" stroke="#efefef" stroke-width=".25"/><path d="m27.22372098 22.95995642.14420797-2.25526564-2.02522132-1.00274505.31273674 1.99144849z" fill="none" stroke="#efefef" stroke-width=".25"/><path d="m14.50802937 28.12935727 10.78380355-2.66243155.24723799-3.70634325-3.52726565-1.61344824-7.50377589 7.98222304 10.78380355-2.66243155-10.78380355 2.66243155 10.78380355-2.66243155" fill="none" stroke="#efefef" stroke-width=".25"/><path d="m27.83173687 4.92172572 3.16091999 10.48957207-3.16091999 2.38235404-3.08616842-2.20166251" fill="#abdad6" stroke="#231815" stroke-miterlimit="10"/><path d="m27.83173687 17.79365183 1.88101335.72488628-1.88101335 1.25252059" fill="#abdad6" stroke="#231815" stroke-miterlimit="10"/><path d="m27.83173687 17.79365183-1.88101335.72488628 1.88101335 1.25252059 1.88101335-1.25252059z" fill="#abdad6" stroke="#231815" stroke-miterlimit="10"/><path d="m27.83173687 17.79365183-3.08616842-2.2016625z" fill="#abdad6" stroke="#231815" stroke-miterlimit="10"/><path d="m25.95072352 18.51853811 1.88101335 1.25252059 1.88101335-1.25252059-1.88101335-.72488628z" fill="#abdad6" stroke="#231815" stroke-miterlimit="10"/><path d="m27.83173687 4.92172572-3.08616842 10.6702636 3.08616842 2.067286 3.16091999-2.24797753-3.16091999-10.48957207-3.08616842 10.6702636 3.08616842-10.6702636-3.08616842 10.6702636" fill="#abdad6" stroke="#231815" stroke-miterlimit="10"/><g fill="none"><path d="m27.83173687 4.92172572 3.16091999 10.48957207-3.16091999 2.38235404-3.08616842-2.20166251" stroke="#efefef" stroke-width=".25"/><path d="m27.83173687 17.79365183 1.88101335.72488628-1.88101335 1.25252059" stroke="#efefef" stroke-width=".25"/><path d="m27.83173687 17.79365183-1.88101335.72488628 1.88101335 1.25252059 1.88101335-1.25252059z" stroke="#efefef" stroke-width=".25"/><path d="m27.83173687 17.79365183-3.08616842-2.2016625z" stroke="#efefef" stroke-width=".25"/><path d="m25.95072352 18.51853811 1.88101335 1.25252059 1.88101335-1.25252059-1.88101335-.72488628z" stroke="#efefef" stroke-width=".25"/><path d="m27.83173687 4.92172572-3.08616842 10.6702636 3.08616842 2.067286 3.16091999-2.24797753-3.16091999-10.48957207-3.08616842 10.6702636 3.08616842-10.6702636-3.08616842 10.6702636" stroke="#efefef" stroke-width=".25"/><path d="m0 0h56.692913v56.692913h-56.692913z"/></g></svg>