<svg viewBox="0 0 56.69291338 56.69291339" xmlns="http://www.w3.org/2000/svg"><path d="m28.00874789 16.01837292 2.80990992-10.53068583-2.80990993-2.39169164-2.74345928 2.2102919" fill="#abdad6" stroke="#231815" stroke-miterlimit="10"/><path d="m28.00874789 3.09599545 1.67213283-.72772747-1.67213283-1.25742982" fill="#abdad6" stroke="#231815" stroke-miterlimit="10"/><path d="m28.00874788 3.09599545-1.67213283-.72772747 1.67213283-1.25742982 1.67213284 1.25742982z" fill="#abdad6" stroke="#231815" stroke-miterlimit="10"/><path d="m28.00874788 3.09599545-2.74345929 2.21029189z" fill="#abdad6" stroke="#231815" stroke-miterlimit="10"/><path d="m26.33661505 2.36826798 1.67213283-1.25742982 1.67213284 1.25742982-1.67213284.72772747z" fill="#abdad6" stroke="#231815" stroke-miterlimit="10"/><path d="m28.00874788 16.01837292-2.74345928-10.71208557 2.74345928-2.07538871 2.80990993 2.25678845-2.80990993 10.53068583-2.74345928-10.71208557 2.74345928 10.71208557-2.74345928-10.71208557" fill="#abdad6" stroke="#231815" stroke-miterlimit="10"/><path d="m28.00874789 16.01837292 2.80990992-10.53068583-2.80990993-2.39169164-2.74345928 2.2102919" fill="none" stroke="#efefef" stroke-width=".25"/><path d="m28.00874789 3.09599545 1.67213283-.72772747-1.67213283-1.25742982" fill="none" stroke="#efefef" stroke-width=".25"/><path d="m28.00874788 3.09599545-1.67213283-.72772747 1.67213283-1.25742982 1.67213284 1.25742982z" fill="none" stroke="#efefef" stroke-width=".25"/><path d="m28.00874788 3.09599545-2.74345929 2.21029189z" fill="none" stroke="#efefef" stroke-width=".25"/><path d="m26.33661505 2.36826798 1.67213283-1.25742982 1.67213284 1.25742982-1.67213284.72772747z" fill="none" stroke="#efefef" stroke-width=".25"/><path d="m28.00874788 16.01837292-2.74345928-10.71208557 2.74345928-2.07538871 2.80990993 2.25678845-2.80990993 10.53068583-2.74345928-10.71208557 2.74345928 10.71208557-2.74345928-10.71208557" fill="none" stroke="#efefef" stroke-width=".25"/><path d="m29.77050769 18.95437834 7.71488648 7.69879629 3.47622069-1.23760755-.54243929-3.48105139" fill="#abdad6" stroke="#231815" stroke-miterlimit="10"/><path d="m40.96161485 25.41556708-.20583593 1.81197324 1.92503258-.8193946" fill="#abdad6" stroke="#231815" stroke-miterlimit="10"/><path d="m40.96161486 25.41556708 1.46629689-1.08424578.25289975 2.07682442-1.92503258.8193946z" fill="#abdad6" stroke="#231815" stroke-miterlimit="10"/><path d="m40.96161486 25.41556708-.54243929-3.48105138z" fill="#abdad6" stroke="#231815" stroke-miterlimit="10"/><path d="m42.42791175 24.3313213.25289975 2.07682442-1.92503258.8193946.20583594-1.81197324z" fill="#abdad6" stroke="#231815" stroke-miterlimit="10"/><path d="m29.77050769 18.95437834 10.64866788 2.98013735.4256097 3.41359979-3.3593911 1.30505915-7.71488648-7.69879629 10.64866788 2.98013735-10.64866788-2.98013735 10.64866788 2.98013735" fill="#abdad6" stroke="#231815" stroke-miterlimit="10"/><path d="m29.77050769 18.95437834 7.71488648 7.69879629 3.47622069-1.23760755-.54243929-3.48105139" fill="none" stroke="#efefef" stroke-width=".25"/><path d="m40.96161485 25.41556708-.20583593 1.81197324 1.92503258-.8193946" fill="none" stroke="#efefef" stroke-width=".25"/><path d="m40.96161486 25.41556708 1.46629689-1.08424578.25289975 2.07682442-1.92503258.8193946z" fill="none" stroke="#efefef" stroke-width=".25"/><path d="m40.96161486 25.41556708-.54243929-3.48105138z" fill="none" stroke="#efefef" stroke-width=".25"/><path d="m42.42791175 24.3313213.25289975 2.07682442-1.92503258.8193946.20583594-1.81197324z" fill="none" stroke="#efefef" stroke-width=".25"/><path d="m29.77050769 18.95437834 10.64866788 2.98013735.4256097 3.41359979-3.3593911 1.30505915-7.71488648-7.69879629 10.64866788 2.98013735-10.64866788-2.98013735 10.64866788 2.98013735" fill="none" stroke="#efefef" stroke-width=".25"/><path d="m26.3469725 19.01210438-10.5247964 2.83188953-.66631076 3.6292992 3.28589857 1.27075949" fill="#abdad6" stroke="#231815" stroke-miterlimit="10"/><path d="m15.15586534 25.47329311-1.46629689-1.08424577-.25289976 2.07682442" fill="#abdad6" stroke="#231815" stroke-miterlimit="10"/><path d="m15.15586534 25.47329311.20583594 1.81197325-1.92503259-.8193946.25289976-2.07682442z" fill="#abdad6" stroke="#231815" stroke-miterlimit="10"/><path d="m15.15586534 25.47329311 3.28589857 1.27075949z" fill="#abdad6" stroke="#231815" stroke-miterlimit="10"/><path d="m15.36170128 27.28526636-1.92503259-.8193946.25289976-2.07682442 1.46629689 1.08424577z" fill="#abdad6" stroke="#231815" stroke-miterlimit="10"/><path d="m26.3469725 19.01210438-7.90520859 7.73194822-3.16906898-1.33821108.54948117-3.56184761 10.5247964-2.83188953-7.90520859 7.73194822 7.90520859-7.73194822-7.90520859 7.73194822" fill="#abdad6" stroke="#231815" stroke-miterlimit="10"/><path d="m26.3469725 19.01210438-10.5247964 2.83188953-.66631076 3.6292992 3.28589857 1.27075949" fill="none" stroke="#efefef" stroke-width=".25"/><path d="m15.15586534 25.47329311-1.46629689-1.08424577-.25289976 2.07682442" fill="none" stroke="#efefef" stroke-width=".25"/><path d="m15.15586534 25.47329311.20583594 1.81197325-1.92503259-.8193946.25289976-2.07682442z" fill="none" stroke="#efefef" stroke-width=".25"/><path d="m15.15586534 25.47329311 3.28589857 1.27075949z" fill="none" stroke="#efefef" stroke-width=".25"/><path d="m15.36170128 27.28526636-1.92503259-.8193946.25289976-2.07682442 1.46629689 1.08424577z" fill="none" stroke="#efefef" stroke-width=".25"/><path d="m26.3469725 19.01210438-7.90520859 7.73194822-3.16906898-1.33821108.54948117-3.56184761 10.5247964-2.83188953-7.90520859 7.73194822 7.90520859-7.73194822-7.90520859 7.73194822" fill="none" stroke="#efefef" stroke-width=".25"/><path d="m28.00874789 16.01837292 2.80990992-10.53068583-2.80990993-2.39169164-2.74345928 2.2102919" fill="#abdad6" stroke="#231815" stroke-miterlimit="10"/><path d="m28.00874789 3.09599545 1.67213283-.72772747-1.67213283-1.25742982" fill="#abdad6" stroke="#231815" stroke-miterlimit="10"/><path d="m28.00874788 3.09599545-1.67213283-.72772747 1.67213283-1.25742982 1.67213284 1.25742982z" fill="#abdad6" stroke="#231815" stroke-miterlimit="10"/><path d="m28.00874788 3.09599545-2.74345929 2.21029189z" fill="#abdad6" stroke="#231815" stroke-miterlimit="10"/><path d="m26.33661505 2.36826798 1.67213283-1.25742982 1.67213284 1.25742982-1.67213284.72772747z" fill="#abdad6" stroke="#231815" stroke-miterlimit="10"/><path d="m28.00874788 16.01837292-2.74345928-10.71208557 2.74345928-2.07538871 2.80990993 2.25678845-2.80990993 10.53068583-2.74345928-10.71208557 2.74345928 10.71208557-2.74345928-10.71208557" fill="#abdad6" stroke="#231815" stroke-miterlimit="10"/><path d="m28.00874789 16.01837292 2.80990992-10.53068583-2.80990993-2.39169164-2.74345928 2.2102919" fill="none" stroke="#efefef" stroke-width=".25"/><path d="m28.00874789 3.09599545 1.67213283-.72772747-1.67213283-1.25742982" fill="none" stroke="#efefef" stroke-width=".25"/><path d="m28.00874788 3.09599545-1.67213283-.72772747 1.67213283-1.25742982 1.67213284 1.25742982z" fill="none" stroke="#efefef" stroke-width=".25"/><path d="m28.00874788 3.09599545-2.74345929 2.21029189z" fill="none" stroke="#efefef" stroke-width=".25"/><path d="m26.33661505 2.36826798 1.67213283-1.25742982 1.67213284 1.25742982-1.67213284.72772747z" fill="none" stroke="#efefef" stroke-width=".25"/><path d="m28.00874788 16.01837292-2.74345928-10.71208557 2.74345928-2.07538871 2.80990993 2.25678845-2.80990993 10.53068583-2.74345928-10.71208557 2.74345928 10.71208557-2.74345928-10.71208557" fill="none" stroke="#efefef" stroke-width=".25"/><path d="m38.48060219 22.00657478 10.52479641-2.83188953.66631075-3.6292992-3.28589857-1.27075949" fill="#abdad6" stroke="#231815" stroke-miterlimit="10"/><path d="m49.67170935 15.54538605 1.4662969 1.08424578.25289975-2.07682443" fill="#abdad6" stroke="#231815" stroke-miterlimit="10"/><path d="m49.67170935 15.54538605-.20583594-1.81197325 1.92503259.8193946-.25289975 2.07682443z" fill="#abdad6" stroke="#231815" stroke-miterlimit="10"/><path d="m49.67170935 15.54538605-3.28589857-1.27075949z" fill="#abdad6" stroke="#231815" stroke-miterlimit="10"/><path d="m49.46587341 13.7334128 1.92503259.8193946-.25289975 2.07682443-1.4662969-1.08424578z" fill="#abdad6" stroke="#231815" stroke-miterlimit="10"/><path d="m38.48060219 22.00657478 7.90520859-7.73194822 3.16906898 1.33821108-.54948116 3.56184761-10.52479641 2.83188953 7.90520859-7.73194822-7.90520859 7.73194822 7.90520859-7.73194822" fill="#abdad6" stroke="#231815" stroke-miterlimit="10"/><path d="m38.48060219 22.00657478 10.52479641-2.83188953.66631075-3.6292992-3.28589857-1.27075949" fill="none" stroke="#efefef" stroke-width=".25"/><path d="m49.67170935 15.54538605 1.4662969 1.08424578.25289975-2.07682443" fill="none" stroke="#efefef" stroke-width=".25"/><path d="m49.67170935 15.54538605-.20583594-1.81197325 1.92503259.8193946-.25289975 2.07682443z" fill="none" stroke="#efefef" stroke-width=".25"/><path d="m49.67170935 15.54538605-3.28589857-1.27075949z" fill="none" stroke="#efefef" stroke-width=".25"/><path d="m49.46587341 13.7334128 1.92503259.8193946-.25289975 2.07682443-1.4662969-1.08424578z" fill="none" stroke="#efefef" stroke-width=".25"/><path d="m38.48060219 22.00657478 7.90520859-7.73194822 3.16906898 1.33821108-.54948116 3.56184761-10.52479641 2.83188953 7.90520859-7.73194822-7.90520859 7.73194822 7.90520859-7.73194822" fill="none" stroke="#efefef" stroke-width=".25"/><path d="m36.81882681 25.00030625-2.80990993 10.53068582 2.80990993 2.39169164 2.74345929-2.21029189" fill="#abdad6" stroke="#231815" stroke-miterlimit="10"/><path d="m36.81882681 37.92268371-1.67213283.72772747 1.67213283 1.25742983" fill="#abdad6" stroke="#231815" stroke-miterlimit="10"/><path d="m36.81882681 37.92268371 1.67213283.72772747-1.67213283 1.25742983-1.67213283-1.25742983z" fill="#abdad6" stroke="#231815" stroke-miterlimit="10"/><path d="m36.81882681 37.92268371 2.74345929-2.21029189z" fill="#abdad6" stroke="#231815" stroke-miterlimit="10"/><path d="m38.49095964 38.65041118-1.67213283 1.25742983-1.67213283-1.25742983 1.67213283-.72772747z" fill="#abdad6" stroke="#231815" stroke-miterlimit="10"/><path d="m36.81882681 25.00030625 2.74345929 10.71208557-2.74345929 2.0753887-2.80990993-2.25678845 2.80990993-10.53068582 2.74345929 10.71208557-2.74345929-10.71208557 2.74345929 10.71208557" fill="#abdad6" stroke="#231815" stroke-miterlimit="10"/><path d="m36.81882681 25.00030625-2.80990993 10.53068582 2.80990993 2.39169164 2.74345929-2.21029189" fill="none" stroke="#efefef" stroke-width=".25"/><path d="m36.81882681 37.92268371-1.67213283.72772747 1.67213283 1.25742983" fill="none" stroke="#efefef" stroke-width=".25"/><path d="m36.81882681 37.92268371 1.67213283.72772747-1.67213283 1.25742983-1.67213283-1.25742983z" fill="none" stroke="#efefef" stroke-width=".25"/><path d="m36.81882681 37.92268371 2.74345929-2.21029189z" fill="none" stroke="#efefef" stroke-width=".25"/><path d="m38.49095964 38.65041118-1.67213283 1.25742983-1.67213283-1.25742983 1.67213283-.72772747z" fill="none" stroke="#efefef" stroke-width=".25"/><path d="m36.81882681 25.00030625 2.74345929 10.71208557-2.74345929 2.0753887-2.80990993-2.25678845 2.80990993-10.53068582 2.74345929 10.71208557-2.74345929-10.71208557 2.74345929 10.71208557" fill="none" stroke="#efefef" stroke-width=".25"/><path d="m35.057067 22.06430082-7.71488648-7.69879629-3.47622068 1.23760756.54243929 3.48105138" fill="#abdad6" stroke="#231815" stroke-miterlimit="10"/><path d="m23.86595984 15.60311209.20583594-1.81197325-1.92503259.8193946" fill="#abdad6" stroke="#231815" stroke-miterlimit="10"/><path d="m23.86595984 15.60311209-1.46629689 1.08424577-.25289976-2.07682442 1.92503259-.8193946z" fill="#abdad6" stroke="#231815" stroke-miterlimit="10"/><path d="m23.86595984 15.60311209.54243929 3.48105138z" fill="#abdad6" stroke="#231815" stroke-miterlimit="10"/><path d="m22.39966295 16.68735786-.25289976-2.07682442 1.92503259-.8193946-.20583594 1.81197325z" fill="#abdad6" stroke="#231815" stroke-miterlimit="10"/><path d="m35.057067 22.06430082-10.64866787-2.98013735-.4256097-3.41359979 3.35939109-1.30505915 7.71488648 7.69879629-10.64866787-2.98013735 10.64866787 2.98013735-10.64866787-2.98013735" fill="#abdad6" stroke="#231815" stroke-miterlimit="10"/><path d="m35.057067 22.06430082-7.71488648-7.69879629-3.47622068 1.23760756.54243929 3.48105138" fill="none" stroke="#efefef" stroke-width=".25"/><path d="m23.86595984 15.60311209.20583594-1.81197325-1.92503259.8193946" fill="none" stroke="#efefef" stroke-width=".25"/><path d="m23.86595984 15.60311209-1.46629689 1.08424577-.25289976-2.07682442 1.92503259-.8193946z" fill="none" stroke="#efefef" stroke-width=".25"/><path d="m23.86595984 15.60311209.54243929 3.48105138z" fill="none" stroke="#efefef" stroke-width=".25"/><path d="m22.39966295 16.68735786-.25289976-2.07682442 1.92503259-.8193946-.20583594 1.81197325z" fill="none" stroke="#efefef" stroke-width=".25"/><path d="m35.057067 22.06430082-10.64866787-2.98013735-.4256097-3.41359979 3.35939109-1.30505915 7.71488648 7.69879629-10.64866787-2.98013735 10.64866787 2.98013735-10.64866787-2.98013735" fill="none" stroke="#efefef" stroke-width=".25"/><path d="m38.48060219 22.00657478 10.52479641-2.83188953.66631075-3.6292992-3.28589857-1.27075949" fill="#abdad6" stroke="#231815" stroke-miterlimit="10"/><path d="m49.67170935 15.54538605 1.4662969 1.08424578.25289975-2.07682443" fill="#abdad6" stroke="#231815" stroke-miterlimit="10"/><path d="m49.67170935 15.54538605-.20583594-1.81197325 1.92503259.8193946-.25289975 2.07682443z" fill="#abdad6" stroke="#231815" stroke-miterlimit="10"/><path d="m49.67170935 15.54538605-3.28589857-1.27075949z" fill="#abdad6" stroke="#231815" stroke-miterlimit="10"/><path d="m49.46587341 13.7334128 1.92503259.8193946-.25289975 2.07682443-1.4662969-1.08424578z" fill="#abdad6" stroke="#231815" stroke-miterlimit="10"/><path d="m38.48060219 22.00657478 7.90520859-7.73194822 3.16906898 1.33821108-.54948116 3.56184761-10.52479641 2.83188953 7.90520859-7.73194822-7.90520859 7.73194822 7.90520859-7.73194822" fill="#abdad6" stroke="#231815" stroke-miterlimit="10"/><path d="m38.48060219 22.00657478 10.52479641-2.83188953.66631075-3.6292992-3.28589857-1.27075949" fill="none" stroke="#efefef" stroke-width=".25"/><path d="m49.67170935 15.54538605 1.4662969 1.08424578.25289975-2.07682443" fill="none" stroke="#efefef" stroke-width=".25"/><path d="m49.67170935 15.54538605-.20583594-1.81197325 1.92503259.8193946-.25289975 2.07682443z" fill="none" stroke="#efefef" stroke-width=".25"/><path d="m49.67170935 15.54538605-3.28589857-1.27075949z" fill="none" stroke="#efefef" stroke-width=".25"/><path d="m49.46587341 13.7334128 1.92503259.8193946-.25289975 2.07682443-1.4662969-1.08424578z" fill="none" stroke="#efefef" stroke-width=".25"/><path d="m38.48060219 22.00657478 7.90520859-7.73194822 3.16906898 1.33821108-.54948116 3.56184761-10.52479641 2.83188953 7.90520859-7.73194822-7.90520859 7.73194822 7.90520859-7.73194822" fill="none" stroke="#efefef" stroke-width=".25"/><path d="m38.53059441 34.06956757 7.71488647 7.69879629 3.47622069-1.23760756-.54243929-3.48105138" fill="#abdad6" stroke="#231815" stroke-miterlimit="10"/><path d="m49.72170157 40.5307563-.20583594 1.81197325 1.92503258-.8193946" fill="#abdad6" stroke="#231815" stroke-miterlimit="10"/><path d="m49.72170157 40.5307563 1.46629689-1.08424577.25289976 2.07682442-1.92503259.8193946z" fill="#abdad6" stroke="#231815" stroke-miterlimit="10"/><path d="m49.72170157 40.5307563-.54243929-3.48105138z" fill="#abdad6" stroke="#231815" stroke-miterlimit="10"/><path d="m51.18799846 39.44651053.25289976 2.07682442-1.92503259.8193946.20583594-1.81197325z" fill="#abdad6" stroke="#231815" stroke-miterlimit="10"/><path d="m38.53059441 34.06956757 10.64866787 2.98013735.4256097 3.41359979-3.3593911 1.30505915-7.71488647-7.69879629 10.64866787 2.98013735-10.64866787-2.98013735 10.64866787 2.98013735" fill="#abdad6" stroke="#231815" stroke-miterlimit="10"/><path d="m38.53059441 34.06956757 7.71488647 7.69879629 3.47622069-1.23760756-.54243929-3.48105138" fill="none" stroke="#efefef" stroke-width=".25"/><path d="m49.72170157 40.5307563-.20583594 1.81197325 1.92503258-.8193946" fill="none" stroke="#efefef" stroke-width=".25"/><path d="m49.72170157 40.5307563 1.46629689-1.08424577.25289976 2.07682442-1.92503259.8193946z" fill="none" stroke="#efefef" stroke-width=".25"/><path d="m49.72170157 40.5307563-.54243929-3.48105138z" fill="none" stroke="#efefef" stroke-width=".25"/><path d="m51.18799846 39.44651053.25289976 2.07682442-1.92503259.8193946.20583594-1.81197325z" fill="none" stroke="#efefef" stroke-width=".25"/><path d="m38.53059441 34.06956757 10.64866787 2.98013735.4256097 3.41359979-3.3593911 1.30505915-7.71488647-7.69879629 10.64866787 2.98013735-10.64866787-2.98013735 10.64866787 2.98013735" fill="none" stroke="#efefef" stroke-width=".25"/><path d="m35.10705922 34.12729361-10.52479641 2.83188953-.66631076 3.6292992 3.28589858 1.27075949" fill="#abdad6" stroke="#231815" stroke-miterlimit="10"/><path d="m23.91595205 40.58848234-1.46629689-1.08424578-.25289975 2.07682443" fill="#abdad6" stroke="#231815" stroke-miterlimit="10"/><path d="m23.91595205 40.58848234.20583594 1.81197325-1.92503258-.8193946.25289975-2.07682443z" fill="#abdad6" stroke="#231815" stroke-miterlimit="10"/><path d="m23.91595205 40.58848234 3.28589857 1.27075949z" fill="#abdad6" stroke="#231815" stroke-miterlimit="10"/><path d="m24.12178799 42.40045559-1.92503258-.8193946.25289975-2.07682443 1.46629689 1.08424578z" fill="#abdad6" stroke="#231815" stroke-miterlimit="10"/><path d="m35.10705922 34.12729361-7.90520859 7.73194822-3.16906899-1.33821108.54948117-3.56184761 10.52479641-2.83188953-7.90520859 7.73194822 7.90520859-7.73194822-7.90520859 7.73194822" fill="#abdad6" stroke="#231815" stroke-miterlimit="10"/><path d="m35.10705922 34.12729361-10.52479641 2.83188953-.66631076 3.6292992 3.28589858 1.27075949" fill="none" stroke="#efefef" stroke-width=".25"/><path d="m23.91595205 40.58848234-1.46629689-1.08424578-.25289975 2.07682443" fill="none" stroke="#efefef" stroke-width=".25"/><path d="m23.91595205 40.58848234.20583594 1.81197325-1.92503258-.8193946.25289975-2.07682443z" fill="none" stroke="#efefef" stroke-width=".25"/><path d="m23.91595205 40.58848234 3.28589857 1.27075949z" fill="none" stroke="#efefef" stroke-width=".25"/><path d="m24.12178799 42.40045559-1.92503258-.8193946.25289975-2.07682443 1.46629689 1.08424578z" fill="none" stroke="#efefef" stroke-width=".25"/><path d="m35.10705922 34.12729361-7.90520859 7.73194822-3.16906899-1.33821108.54948117-3.56184761 10.52479641-2.83188953-7.90520859 7.73194822 7.90520859-7.73194822-7.90520859 7.73194822" fill="none" stroke="#efefef" stroke-width=".25"/><path d="m36.7688346 31.13356214 2.80990992-10.53068582-2.80990992-2.39169164-2.74345929 2.21029189" fill="#abdad6" stroke="#231815" stroke-miterlimit="10"/><path d="m36.7688346 18.21118468 1.67213283-.72772747-1.67213283-1.25742983" fill="#abdad6" stroke="#231815" stroke-miterlimit="10"/><path d="m36.7688346 18.21118468-1.67213283-.72772747 1.67213283-1.25742983 1.67213283 1.25742983z" fill="#abdad6" stroke="#231815" stroke-miterlimit="10"/><path d="m36.7688346 18.21118468-2.74345929 2.21029189z" fill="#abdad6" stroke="#231815" stroke-miterlimit="10"/><path d="m35.09670177 17.48345721 1.67213283-1.25742983 1.67213283 1.25742983-1.67213283.72772747z" fill="#abdad6" stroke="#231815" stroke-miterlimit="10"/><path d="m36.7688346 31.13356214-2.74345929-10.71208557 2.74345929-2.0753887 2.80990992 2.25678845-2.80990992 10.53068582-2.74345929-10.71208557 2.74345929 10.71208557-2.74345929-10.71208557" fill="#abdad6" stroke="#231815" stroke-miterlimit="10"/><path d="m36.7688346 31.13356214 2.80990992-10.53068582-2.80990992-2.39169164-2.74345929 2.21029189" fill="none" stroke="#efefef" stroke-width=".25"/><path d="m36.7688346 18.21118468 1.67213283-.72772747-1.67213283-1.25742983" fill="none" stroke="#efefef" stroke-width=".25"/><path d="m36.7688346 18.21118468-1.67213283-.72772747 1.67213283-1.25742983 1.67213283 1.25742983z" fill="none" stroke="#efefef" stroke-width=".25"/><path d="m36.7688346 18.21118468-2.74345929 2.21029189z" fill="none" stroke="#efefef" stroke-width=".25"/><path d="m35.09670177 17.48345721 1.67213283-1.25742983 1.67213283 1.25742983-1.67213283.72772747z" fill="none" stroke="#efefef" stroke-width=".25"/><path d="m36.7688346 31.13356214-2.74345929-10.71208557 2.74345929-2.0753887 2.80990992 2.25678845-2.80990992 10.53068582-2.74345929-10.71208557 2.74345929 10.71208557-2.74345929-10.71208557" fill="none" stroke="#efefef" stroke-width=".25"/><path d="m38.53059441 34.06956757 7.71488647 7.69879629 3.47622069-1.23760756-.54243929-3.48105138" fill="#abdad6" stroke="#231815" stroke-miterlimit="10"/><path d="m49.72170157 40.5307563-.20583594 1.81197325 1.92503258-.8193946" fill="#abdad6" stroke="#231815" stroke-miterlimit="10"/><path d="m49.72170157 40.5307563 1.46629689-1.08424577.25289976 2.07682442-1.92503259.8193946z" fill="#abdad6" stroke="#231815" stroke-miterlimit="10"/><path d="m49.72170157 40.5307563-.54243929-3.48105138z" fill="#abdad6" stroke="#231815" stroke-miterlimit="10"/><path d="m51.18799846 39.44651053.25289976 2.07682442-1.92503259.8193946.20583594-1.81197325z" fill="#abdad6" stroke="#231815" stroke-miterlimit="10"/><path d="m38.53059441 34.06956757 10.64866787 2.98013735.4256097 3.41359979-3.3593911 1.30505915-7.71488647-7.69879629 10.64866787 2.98013735-10.64866787-2.98013735 10.64866787 2.98013735" fill="#abdad6" stroke="#231815" stroke-miterlimit="10"/><path d="m38.53059441 34.06956757 7.71488647 7.69879629 3.47622069-1.23760756-.54243929-3.48105138" fill="none" stroke="#efefef" stroke-width=".25"/><path d="m49.72170157 40.5307563-.20583594 1.81197325 1.92503258-.8193946" fill="none" stroke="#efefef" stroke-width=".25"/><path d="m49.72170157 40.5307563 1.46629689-1.08424577.25289976 2.07682442-1.92503259.8193946z" fill="none" stroke="#efefef" stroke-width=".25"/><path d="m49.72170157 40.5307563-.54243929-3.48105138z" fill="none" stroke="#efefef" stroke-width=".25"/><path d="m51.18799846 39.44651053.25289976 2.07682442-1.92503259.8193946.20583594-1.81197325z" fill="none" stroke="#efefef" stroke-width=".25"/><path d="m38.53059441 34.06956757 10.64866787 2.98013735.4256097 3.41359979-3.3593911 1.30505915-7.71488647-7.69879629 10.64866787 2.98013735-10.64866787-2.98013735 10.64866787 2.98013735" fill="none" stroke="#efefef" stroke-width=".25"/><path d="m28.10873231 40.14435849-2.80990992 10.53068582 2.80990992 2.39169165 2.74345929-2.2102919" fill="#abdad6" stroke="#231815" stroke-miterlimit="10"/><path d="m28.10873231 53.06673596-1.67213283.72772747 1.67213283 1.25742982" fill="#abdad6" stroke="#231815" stroke-miterlimit="10"/><path d="m28.10873231 53.06673596 1.67213283.72772747-1.67213283 1.25742982-1.67213283-1.25742982z" fill="#abdad6" stroke="#231815" stroke-miterlimit="10"/><path d="m28.10873231 53.06673596 2.74345929-2.21029189z" fill="#abdad6" stroke="#231815" stroke-miterlimit="10"/><path d="m29.78086514 53.79446343-1.67213283 1.25742982-1.67213283-1.25742982 1.67213283-.72772747z" fill="#abdad6" stroke="#231815" stroke-miterlimit="10"/><path d="m28.10873231 40.14435849 2.74345929 10.71208557-2.74345929 2.07538871-2.80990992-2.25678846 2.80990992-10.53068582 2.74345929 10.71208557-2.74345929-10.71208557 2.74345929 10.71208557" fill="#abdad6" stroke="#231815" stroke-miterlimit="10"/><path d="m28.10873231 40.14435849-2.80990992 10.53068582 2.80990992 2.39169165 2.74345929-2.2102919" fill="none" stroke="#efefef" stroke-width=".25"/><path d="m28.10873231 53.06673596-1.67213283.72772747 1.67213283 1.25742982" fill="none" stroke="#efefef" stroke-width=".25"/><path d="m28.10873231 53.06673596 1.67213283.72772747-1.67213283 1.25742982-1.67213283-1.25742982z" fill="none" stroke="#efefef" stroke-width=".25"/><path d="m28.10873231 53.06673596 2.74345929-2.21029189z" fill="none" stroke="#efefef" stroke-width=".25"/><path d="m29.78086514 53.79446343-1.67213283 1.25742982-1.67213283-1.25742982 1.67213283-.72772747z" fill="none" stroke="#efefef" stroke-width=".25"/><path d="m28.10873231 40.14435849 2.74345929 10.71208557-2.74345929 2.07538871-2.80990992-2.25678846 2.80990992-10.53068582 2.74345929 10.71208557-2.74345929-10.71208557 2.74345929 10.71208557" fill="none" stroke="#efefef" stroke-width=".25"/><path d="m26.3469725 37.20835306-7.71488647-7.69879628-3.47622069 1.23760755.54243929 3.48105139" fill="#abdad6" stroke="#231815" stroke-miterlimit="10"/><path d="m15.15586534 30.74716433.20583594-1.81197324-1.92503258.8193946" fill="#abdad6" stroke="#231815" stroke-miterlimit="10"/><path d="m15.15586534 30.74716433-1.46629689 1.08424578-.25289976-2.07682442 1.92503259-.8193946z" fill="#abdad6" stroke="#231815" stroke-miterlimit="10"/><path d="m15.15586534 30.74716433.54243929 3.48105138z" fill="#abdad6" stroke="#231815" stroke-miterlimit="10"/><path d="m13.68956845 31.83141011-.25289976-2.07682442 1.92503259-.8193946-.20583594 1.81197324z" fill="#abdad6" stroke="#231815" stroke-miterlimit="10"/><path d="m26.3469725 37.20835307-10.64866787-2.98013735-.4256097-3.41359979 3.3593911-1.30505915 7.71488647 7.69879629-10.64866787-2.98013735 10.64866787 2.98013735-10.64866787-2.98013735" fill="#abdad6" stroke="#231815" stroke-miterlimit="10"/><path d="m26.3469725 37.20835306-7.71488647-7.69879628-3.47622069 1.23760755.54243929 3.48105139" fill="none" stroke="#efefef" stroke-width=".25"/><path d="m15.15586534 30.74716433.20583594-1.81197324-1.92503258.8193946" fill="none" stroke="#efefef" stroke-width=".25"/><path d="m15.15586534 30.74716433-1.46629689 1.08424578-.25289976-2.07682442 1.92503259-.8193946z" fill="none" stroke="#efefef" stroke-width=".25"/><path d="m15.15586534 30.74716433.54243929 3.48105138z" fill="none" stroke="#efefef" stroke-width=".25"/><path d="m13.68956845 31.83141011-.25289976-2.07682442 1.92503259-.8193946-.20583594 1.81197324z" fill="none" stroke="#efefef" stroke-width=".25"/><path d="m26.3469725 37.20835307-10.64866787-2.98013735-.4256097-3.41359979 3.3593911-1.30505915 7.71488647 7.69879629-10.64866787-2.98013735 10.64866787 2.98013735-10.64866787-2.98013735" fill="none" stroke="#efefef" stroke-width=".25"/><path d="m29.77050769 37.15062703 10.52479641-2.83188953.66631076-3.6292992-3.28589858-1.27075949" fill="#abdad6" stroke="#231815" stroke-miterlimit="10"/><path d="m40.96161486 30.6894383 1.46629689 1.08424577.25289975-2.07682442" fill="#abdad6" stroke="#231815" stroke-miterlimit="10"/><path d="m40.96161486 30.6894383-.20583594-1.81197325 1.92503258.8193946-.25289975 2.07682442z" fill="#abdad6" stroke="#231815" stroke-miterlimit="10"/><path d="m40.96161486 30.6894383-3.28589857-1.27075949z" fill="#abdad6" stroke="#231815" stroke-miterlimit="10"/><path d="m40.75577892 28.87746505 1.92503258.8193946-.25289975 2.07682442-1.46629689-1.08424577z" fill="#abdad6" stroke="#231815" stroke-miterlimit="10"/><path d="m29.77050769 37.15062703 7.90520859-7.73194822 3.16906899 1.33821108-.54948117 3.56184761-10.52479641 2.83188953 7.90520859-7.73194822-7.90520859 7.73194822 7.90520859-7.73194822" fill="#abdad6" stroke="#231815" stroke-miterlimit="10"/><path d="m29.77050769 37.15062703 10.52479641-2.83188953.66631076-3.6292992-3.28589858-1.27075949" fill="none" stroke="#efefef" stroke-width=".25"/><path d="m40.96161486 30.6894383 1.46629689 1.08424577.25289975-2.07682442" fill="none" stroke="#efefef" stroke-width=".25"/><path d="m40.96161486 30.6894383-.20583594-1.81197325 1.92503258.8193946-.25289975 2.07682442z" fill="none" stroke="#efefef" stroke-width=".25"/><path d="m40.96161486 30.6894383-3.28589857-1.27075949z" fill="none" stroke="#efefef" stroke-width=".25"/><path d="m40.75577892 28.87746505 1.92503258.8193946-.25289975 2.07682442-1.46629689-1.08424577z" fill="none" stroke="#efefef" stroke-width=".25"/><path d="m29.77050769 37.15062703 7.90520859-7.73194822 3.16906899 1.33821108-.54948117 3.56184761-10.52479641 2.83188953 7.90520859-7.73194822-7.90520859 7.73194822 7.90520859-7.73194822" fill="none" stroke="#efefef" stroke-width=".25"/><path d="m28.10873231 40.14435849-2.80990992 10.53068582 2.80990992 2.39169165 2.74345929-2.2102919" fill="#abdad6" stroke="#231815" stroke-miterlimit="10"/><path d="m28.10873231 53.06673596-1.67213283.72772747 1.67213283 1.25742982" fill="#abdad6" stroke="#231815" stroke-miterlimit="10"/><path d="m28.10873231 53.06673596 1.67213283.72772747-1.67213283 1.25742982-1.67213283-1.25742982z" fill="#abdad6" stroke="#231815" stroke-miterlimit="10"/><path d="m28.10873231 53.06673596 2.74345929-2.21029189z" fill="#abdad6" stroke="#231815" stroke-miterlimit="10"/><path d="m29.78086514 53.79446343-1.67213283 1.25742982-1.67213283-1.25742982 1.67213283-.72772747z" fill="#abdad6" stroke="#231815" stroke-miterlimit="10"/><path d="m28.10873231 40.14435849 2.74345929 10.71208557-2.74345929 2.07538871-2.80990992-2.25678846 2.80990992-10.53068582 2.74345929 10.71208557-2.74345929-10.71208557 2.74345929 10.71208557" fill="#abdad6" stroke="#231815" stroke-miterlimit="10"/><path d="m28.10873231 40.14435849-2.80990992 10.53068582 2.80990992 2.39169165 2.74345929-2.2102919" fill="none" stroke="#efefef" stroke-width=".25"/><path d="m28.10873231 53.06673596-1.67213283.72772747 1.67213283 1.25742982" fill="none" stroke="#efefef" stroke-width=".25"/><path d="m28.10873231 53.06673596 1.67213283.72772747-1.67213283 1.25742982-1.67213283-1.25742982z" fill="none" stroke="#efefef" stroke-width=".25"/><path d="m28.10873231 53.06673596 2.74345929-2.21029189z" fill="none" stroke="#efefef" stroke-width=".25"/><path d="m29.78086514 53.79446343-1.67213283 1.25742982-1.67213283-1.25742982 1.67213283-.72772747z" fill="none" stroke="#efefef" stroke-width=".25"/><path d="m28.10873231 40.14435849 2.74345929 10.71208557-2.74345929 2.07538871-2.80990992-2.25678846 2.80990992-10.53068582 2.74345929 10.71208557-2.74345929-10.71208557 2.74345929 10.71208557" fill="none" stroke="#efefef" stroke-width=".25"/><path d="m17.636878 34.15615663-10.5247964 2.83188953-.66631076 3.6292992 3.28589858 1.27075949" fill="#abdad6" stroke="#231815" stroke-miterlimit="10"/><path d="m6.44577084 40.61734536-1.46629689-1.08424578-.25289975 2.07682442" fill="#abdad6" stroke="#231815" stroke-miterlimit="10"/><path d="m6.44577084 40.61734536.20583594 1.81197324-1.92503258-.81939459.25289975-2.07682443z" fill="#abdad6" stroke="#231815" stroke-miterlimit="10"/><path d="m6.44577084 40.61734536 3.28589857 1.27075949z" fill="#abdad6" stroke="#231815" stroke-miterlimit="10"/><path d="m6.65160678 42.4293186-1.92503258-.81939459.25289975-2.07682443 1.46629689 1.08424578z" fill="#abdad6" stroke="#231815" stroke-miterlimit="10"/><path d="m17.63687801 34.15615663-7.90520859 7.73194822-3.16906899-1.33821109.54948117-3.5618476 10.52479641-2.83188953-7.90520859 7.73194822 7.90520859-7.73194822-7.90520859 7.73194822" fill="#abdad6" stroke="#231815" stroke-miterlimit="10"/><path d="m17.636878 34.15615663-10.5247964 2.83188953-.66631076 3.6292992 3.28589858 1.27075949" fill="none" stroke="#efefef" stroke-width=".25"/><path d="m6.44577084 40.61734536-1.46629689-1.08424578-.25289975 2.07682442" fill="none" stroke="#efefef" stroke-width=".25"/><path d="m6.44577084 40.61734536.20583594 1.81197324-1.92503258-.81939459.25289975-2.07682443z" fill="none" stroke="#efefef" stroke-width=".25"/><path d="m6.44577084 40.61734536 3.28589857 1.27075949z" fill="none" stroke="#efefef" stroke-width=".25"/><path d="m6.65160678 42.4293186-1.92503258-.81939459.25289975-2.07682443 1.46629689 1.08424578z" fill="none" stroke="#efefef" stroke-width=".25"/><path d="m17.63687801 34.15615663-7.90520859 7.73194822-3.16906899-1.33821109.54948117-3.5618476 10.52479641-2.83188953-7.90520859 7.73194822 7.90520859-7.73194822-7.90520859 7.73194822" fill="none" stroke="#efefef" stroke-width=".25"/><path d="m19.29865339 31.16242516 2.80990992-10.53068582-2.80990992-2.39169164-2.74345929 2.21029189" fill="#abdad6" stroke="#231815" stroke-miterlimit="10"/><path d="m19.29865339 18.2400477 1.67213283-.72772747-1.67213283-1.25742983" fill="#abdad6" stroke="#231815" stroke-miterlimit="10"/><path d="m19.29865339 18.2400477-1.67213284-.72772747 1.67213284-1.25742983 1.67213283 1.25742983z" fill="#abdad6" stroke="#231815" stroke-miterlimit="10"/><path d="m19.29865339 18.2400477-2.74345929 2.21029189z" fill="#abdad6" stroke="#231815" stroke-miterlimit="10"/><path d="m17.62652055 17.51232023 1.67213284-1.25742983 1.67213283 1.25742983-1.67213283.72772747z" fill="#abdad6" stroke="#231815" stroke-miterlimit="10"/><path d="m19.29865339 31.16242516-2.74345929-10.71208557 2.74345929-2.0753887 2.80990992 2.25678845-2.80990992 10.53068582-2.74345929-10.71208557 2.74345929 10.71208557-2.74345929-10.71208557" fill="#abdad6" stroke="#231815" stroke-miterlimit="10"/><path d="m19.29865339 31.16242516 2.80990992-10.53068582-2.80990992-2.39169164-2.74345929 2.21029189" fill="none" stroke="#efefef" stroke-width=".25"/><path d="m19.29865339 18.2400477 1.67213283-.72772747-1.67213283-1.25742983" fill="none" stroke="#efefef" stroke-width=".25"/><path d="m19.29865339 18.2400477-1.67213284-.72772747 1.67213284-1.25742983 1.67213283 1.25742983z" fill="none" stroke="#efefef" stroke-width=".25"/><path d="m19.29865339 18.2400477-2.74345929 2.21029189z" fill="none" stroke="#efefef" stroke-width=".25"/><path d="m17.62652055 17.51232023 1.67213284-1.25742983 1.67213283 1.25742983-1.67213283.72772747z" fill="none" stroke="#efefef" stroke-width=".25"/><path d="m19.29865339 31.16242516-2.74345929-10.71208557 2.74345929-2.0753887 2.80990992 2.25678845-2.80990992 10.53068582-2.74345929-10.71208557 2.74345929 10.71208557-2.74345929-10.71208557" fill="none" stroke="#efefef" stroke-width=".25"/><path d="m21.06041319 34.09843059 7.71488648 7.69879629 3.47622069-1.23760756-.54243929-3.48105138" fill="#abdad6" stroke="#231815" stroke-miterlimit="10"/><path d="m32.25152036 40.55961932-.20583594 1.81197325 1.92503258-.8193946" fill="#abdad6" stroke="#231815" stroke-miterlimit="10"/><path d="m32.25152036 40.55961932 1.46629689-1.08424577.25289975 2.07682442-1.92503258.8193946z" fill="#abdad6" stroke="#231815" stroke-miterlimit="10"/><path d="m32.25152036 40.55961932-.54243929-3.48105138z" fill="#abdad6" stroke="#231815" stroke-miterlimit="10"/><path d="m33.71781725 39.47537355.25289975 2.07682442-1.92503258.8193946.20583594-1.81197325z" fill="#abdad6" stroke="#231815" stroke-miterlimit="10"/><path d="m21.0604132 34.09843059 10.64866787 2.98013735.4256097 3.41359979-3.3593911 1.30505915-7.71488647-7.69879629 10.64866787 2.98013735-10.64866787-2.98013735 10.64866787 2.98013735" fill="#abdad6" stroke="#231815" stroke-miterlimit="10"/><path d="m21.06041319 34.09843059 7.71488648 7.69879629 3.47622069-1.23760756-.54243929-3.48105138" fill="none" stroke="#efefef" stroke-width=".25"/><path d="m32.25152036 40.55961932-.20583594 1.81197325 1.92503258-.8193946" fill="none" stroke="#efefef" stroke-width=".25"/><path d="m32.25152036 40.55961932 1.46629689-1.08424577.25289975 2.07682442-1.92503258.8193946z" fill="none" stroke="#efefef" stroke-width=".25"/><path d="m32.25152036 40.55961932-.54243929-3.48105138z" fill="none" stroke="#efefef" stroke-width=".25"/><path d="m33.71781725 39.47537355.25289975 2.07682442-1.92503258.8193946.20583594-1.81197325z" fill="none" stroke="#efefef" stroke-width=".25"/><path d="m21.0604132 34.09843059 10.64866787 2.98013735.4256097 3.41359979-3.3593911 1.30505915-7.71488647-7.69879629 10.64866787 2.98013735-10.64866787-2.98013735 10.64866787 2.98013735" fill="none" stroke="#efefef" stroke-width=".25"/><path d="m17.636878 34.15615663-10.5247964 2.83188953-.66631076 3.6292992 3.28589858 1.27075949" fill="#abdad6" stroke="#231815" stroke-miterlimit="10"/><path d="m6.44577084 40.61734536-1.46629689-1.08424578-.25289975 2.07682442" fill="#abdad6" stroke="#231815" stroke-miterlimit="10"/><path d="m6.44577084 40.61734536.20583594 1.81197324-1.92503258-.81939459.25289975-2.07682443z" fill="#abdad6" stroke="#231815" stroke-miterlimit="10"/><path d="m6.44577084 40.61734536 3.28589857 1.27075949z" fill="#abdad6" stroke="#231815" stroke-miterlimit="10"/><path d="m6.65160678 42.4293186-1.92503258-.81939459.25289975-2.07682443 1.46629689 1.08424578z" fill="#abdad6" stroke="#231815" stroke-miterlimit="10"/><path d="m17.63687801 34.15615663-7.90520859 7.73194822-3.16906899-1.33821109.54948117-3.5618476 10.52479641-2.83188953-7.90520859 7.73194822 7.90520859-7.73194822-7.90520859 7.73194822" fill="#abdad6" stroke="#231815" stroke-miterlimit="10"/><path d="m17.636878 34.15615663-10.5247964 2.83188953-.66631076 3.6292992 3.28589858 1.27075949" fill="none" stroke="#efefef" stroke-width=".25"/><path d="m6.44577084 40.61734536-1.46629689-1.08424578-.25289975 2.07682442" fill="none" stroke="#efefef" stroke-width=".25"/><path d="m6.44577084 40.61734536.20583594 1.81197324-1.92503258-.81939459.25289975-2.07682443z" fill="none" stroke="#efefef" stroke-width=".25"/><path d="m6.44577084 40.61734536 3.28589857 1.27075949z" fill="none" stroke="#efefef" stroke-width=".25"/><path d="m6.65160678 42.4293186-1.92503258-.81939459.25289975-2.07682443 1.46629689 1.08424578z" fill="none" stroke="#efefef" stroke-width=".25"/><path d="m17.63687801 34.15615663-7.90520859 7.73194822-3.16906899-1.33821109.54948117-3.5618476 10.52479641-2.83188953-7.90520859 7.73194822 7.90520859-7.73194822-7.90520859 7.73194822" fill="none" stroke="#efefef" stroke-width=".25"/><path d="m17.58688579 22.09316384-7.71488648-7.69879629-3.47622068 1.23760756.54243929 3.48105138" fill="#abdad6" stroke="#231815" stroke-miterlimit="10"/><path d="m6.39577863 15.6319751.20583594-1.81197324-1.92503259.8193946" fill="#abdad6" stroke="#231815" stroke-miterlimit="10"/><path d="m6.39577863 15.63197511-1.46629689 1.08424577-.25289976-2.07682442 1.92503259-.8193946z" fill="#abdad6" stroke="#231815" stroke-miterlimit="10"/><path d="m6.39577863 15.63197511.54243929 3.48105138z" fill="#abdad6" stroke="#231815" stroke-miterlimit="10"/><path d="m4.92948174 16.71622088-.25289976-2.07682442 1.92503259-.8193946-.20583594 1.81197325z" fill="#abdad6" stroke="#231815" stroke-miterlimit="10"/><path d="m17.58688579 22.09316384-10.64866787-2.98013735-.4256097-3.41359979 3.35939109-1.30505915 7.71488648 7.69879629-10.64866787-2.98013735 10.64866787 2.98013735-10.64866787-2.98013735" fill="#abdad6" stroke="#231815" stroke-miterlimit="10"/><path d="m17.58688579 22.09316384-7.71488648-7.69879629-3.47622068 1.23760756.54243929 3.48105138" fill="none" stroke="#efefef" stroke-width=".25"/><path d="m6.39577863 15.6319751.20583594-1.81197324-1.92503259.8193946" fill="none" stroke="#efefef" stroke-width=".25"/><path d="m6.39577863 15.63197511-1.46629689 1.08424577-.25289976-2.07682442 1.92503259-.8193946z" fill="none" stroke="#efefef" stroke-width=".25"/><path d="m6.39577863 15.63197511.54243929 3.48105138z" fill="none" stroke="#efefef" stroke-width=".25"/><path d="m4.92948174 16.71622088-.25289976-2.07682442 1.92503259-.8193946-.20583594 1.81197325z" fill="none" stroke="#efefef" stroke-width=".25"/><path d="m17.58688579 22.09316384-10.64866787-2.98013735-.4256097-3.41359979 3.35939109-1.30505915 7.71488648 7.69879629-10.64866787-2.98013735 10.64866787 2.98013735-10.64866787-2.98013735" fill="none" stroke="#efefef" stroke-width=".25"/><path d="m21.01042098 22.0354378 10.52479641-2.83188953.66631075-3.6292992-3.28589857-1.27075949" fill="#abdad6" stroke="#231815" stroke-miterlimit="10"/><path d="m32.20152814 15.57424907 1.4662969 1.08424578.25289975-2.07682443" fill="#abdad6" stroke="#231815" stroke-miterlimit="10"/><path d="m32.20152814 15.57424907-.20583594-1.81197325 1.92503259.8193946-.25289975 2.07682443z" fill="#abdad6" stroke="#231815" stroke-miterlimit="10"/><path d="m32.20152814 15.57424907-3.28589857-1.27075949z" fill="#abdad6" stroke="#231815" stroke-miterlimit="10"/><path d="m31.9956922 13.76227582 1.92503259.8193946-.25289975 2.07682443-1.4662969-1.08424578z" fill="#abdad6" stroke="#231815" stroke-miterlimit="10"/><path d="m21.01042098 22.0354378 7.90520859-7.73194822 3.16906898 1.33821108-.54948116 3.56184761-10.52479641 2.83188953 7.90520859-7.73194822-7.90520859 7.73194822 7.90520859-7.73194822" fill="#abdad6" stroke="#231815" stroke-miterlimit="10"/><path d="m21.01042098 22.0354378 10.52479641-2.83188953.66631075-3.6292992-3.28589857-1.27075949" fill="none" stroke="#efefef" stroke-width=".25"/><path d="m32.20152814 15.57424907 1.4662969 1.08424578.25289975-2.07682443" fill="none" stroke="#efefef" stroke-width=".25"/><path d="m32.20152814 15.57424907-.20583594-1.81197325 1.92503259.8193946-.25289975 2.07682443z" fill="none" stroke="#efefef" stroke-width=".25"/><path d="m32.20152814 15.57424907-3.28589857-1.27075949z" fill="none" stroke="#efefef" stroke-width=".25"/><path d="m31.9956922 13.76227582 1.92503259.8193946-.25289975 2.07682443-1.4662969-1.08424578z" fill="none" stroke="#efefef" stroke-width=".25"/><path d="m21.01042098 22.0354378 7.90520859-7.73194822 3.16906898 1.33821108-.54948116 3.56184761-10.52479641 2.83188953 7.90520859-7.73194822-7.90520859 7.73194822 7.90520859-7.73194822" fill="none" stroke="#efefef" stroke-width=".25"/><path d="m19.3486456 25.02916926-2.80990993 10.53068583 2.80990993 2.39169164 2.74345929-2.21029189" fill="#abdad6" stroke="#231815" stroke-miterlimit="10"/><path d="m19.3486456 37.95154673-1.67213283.72772747 1.67213283 1.25742982" fill="#abdad6" stroke="#231815" stroke-miterlimit="10"/><path d="m19.3486456 37.95154673 1.67213283.72772747-1.67213283 1.25742982-1.67213283-1.25742982z" fill="#abdad6" stroke="#231815" stroke-miterlimit="10"/><path d="m19.3486456 37.95154673 2.74345929-2.21029189z" fill="#abdad6" stroke="#231815" stroke-miterlimit="10"/><path d="m21.02077843 38.6792742-1.67213283 1.25742982-1.67213283-1.25742982 1.67213283-.72772747z" fill="#abdad6" stroke="#231815" stroke-miterlimit="10"/><path d="m19.3486456 25.02916926 2.74345929 10.71208558-2.74345929 2.0753887-2.80990993-2.25678845 2.80990993-10.53068583 2.74345929 10.71208558-2.74345929-10.71208558 2.74345929 10.71208558" fill="#abdad6" stroke="#231815" stroke-miterlimit="10"/><path d="m19.3486456 25.02916926-2.80990993 10.53068583 2.80990993 2.39169164 2.74345929-2.21029189" fill="none" stroke="#efefef" stroke-width=".25"/><path d="m19.3486456 37.95154673-1.67213283.72772747 1.67213283 1.25742982" fill="none" stroke="#efefef" stroke-width=".25"/><path d="m19.3486456 37.95154673 1.67213283.72772747-1.67213283 1.25742982-1.67213283-1.25742982z" fill="none" stroke="#efefef" stroke-width=".25"/><path d="m19.3486456 37.95154673 2.74345929-2.21029189z" fill="none" stroke="#efefef" stroke-width=".25"/><path d="m21.02077843 38.6792742-1.67213283 1.25742982-1.67213283-1.25742982 1.67213283-.72772747z" fill="none" stroke="#efefef" stroke-width=".25"/><path d="m19.3486456 25.02916926 2.74345929 10.71208558-2.74345929 2.0753887-2.80990993-2.25678845 2.80990993-10.53068583 2.74345929 10.71208558-2.74345929-10.71208558 2.74345929 10.71208558" fill="none" stroke="#efefef" stroke-width=".25"/><path d="m17.58688579 22.09316384-7.71488648-7.69879629-3.47622068 1.23760756.54243929 3.48105138" fill="#abdad6" stroke="#231815" stroke-miterlimit="10"/><path d="m6.39577863 15.6319751.20583594-1.81197324-1.92503259.8193946" fill="#abdad6" stroke="#231815" stroke-miterlimit="10"/><path d="m6.39577863 15.63197511-1.46629689 1.08424577-.25289976-2.07682442 1.92503259-.8193946z" fill="#abdad6" stroke="#231815" stroke-miterlimit="10"/><path d="m6.39577863 15.63197511.54243929 3.48105138z" fill="#abdad6" stroke="#231815" stroke-miterlimit="10"/><path d="m4.92948174 16.71622088-.25289976-2.07682442 1.92503259-.8193946-.20583594 1.81197325z" fill="#abdad6" stroke="#231815" stroke-miterlimit="10"/><path d="m17.58688579 22.09316384-10.64866787-2.98013735-.4256097-3.41359979 3.35939109-1.30505915 7.71488648 7.69879629-10.64866787-2.98013735 10.64866787 2.98013735-10.64866787-2.98013735" fill="#abdad6" stroke="#231815" stroke-miterlimit="10"/><path d="m17.58688579 22.09316384-7.71488648-7.69879629-3.47622068 1.23760756.54243929 3.48105138" fill="none" stroke="#efefef" stroke-width=".25"/><path d="m6.39577863 15.6319751.20583594-1.81197324-1.92503259.8193946" fill="none" stroke="#efefef" stroke-width=".25"/><path d="m6.39577863 15.63197511-1.46629689 1.08424577-.25289976-2.07682442 1.92503259-.8193946z" fill="none" stroke="#efefef" stroke-width=".25"/><path d="m6.39577863 15.63197511.54243929 3.48105138z" fill="none" stroke="#efefef" stroke-width=".25"/><path d="m4.92948174 16.71622088-.25289976-2.07682442 1.92503259-.8193946-.20583594 1.81197325z" fill="none" stroke="#efefef" stroke-width=".25"/><path d="m17.58688579 22.09316384-10.64866787-2.98013735-.4256097-3.41359979 3.35939109-1.30505915 7.71488648 7.69879629-10.64866787-2.98013735 10.64866787 2.98013735-10.64866787-2.98013735" fill="none" stroke="#efefef" stroke-width=".25"/><path d="m28.00874789 16.01837292 2.80990992-10.53068583-2.80990993-2.39169164-2.74345928 2.2102919" fill="#abdad6" stroke="#231815" stroke-miterlimit="10"/><path d="m28.00874789 3.09599545 1.67213283-.72772747-1.67213283-1.25742982" fill="#abdad6" stroke="#231815" stroke-miterlimit="10"/><path d="m28.00874788 3.09599545-1.67213283-.72772747 1.67213283-1.25742982 1.67213284 1.25742982z" fill="#abdad6" stroke="#231815" stroke-miterlimit="10"/><path d="m28.00874788 3.09599545-2.74345929 2.21029189z" fill="#abdad6" stroke="#231815" stroke-miterlimit="10"/><path d="m26.33661505 2.36826798 1.67213283-1.25742982 1.67213284 1.25742982-1.67213284.72772747z" fill="#abdad6" stroke="#231815" stroke-miterlimit="10"/><path d="m28.00874788 16.01837292-2.74345928-10.71208557 2.74345928-2.07538871 2.80990993 2.25678845-2.80990993 10.53068583-2.74345928-10.71208557 2.74345928 10.71208557-2.74345928-10.71208557" fill="#abdad6" stroke="#231815" stroke-miterlimit="10"/><path d="m28.00874789 16.01837292 2.80990992-10.53068583-2.80990993-2.39169164-2.74345928 2.2102919" fill="none" stroke="#efefef" stroke-width=".25"/><path d="m28.00874789 3.09599545 1.67213283-.72772747-1.67213283-1.25742982" fill="none" stroke="#efefef" stroke-width=".25"/><path d="m28.00874788 3.09599545-1.67213283-.72772747 1.67213283-1.25742982 1.67213284 1.25742982z" fill="none" stroke="#efefef" stroke-width=".25"/><path d="m28.00874788 3.09599545-2.74345929 2.21029189z" fill="none" stroke="#efefef" stroke-width=".25"/><path d="m26.33661505 2.36826798 1.67213283-1.25742982 1.67213284 1.25742982-1.67213284.72772747z" fill="none" stroke="#efefef" stroke-width=".25"/><path d="m28.00874788 16.01837292-2.74345928-10.71208557 2.74345928-2.07538871 2.80990993 2.25678845-2.80990993 10.53068583-2.74345928-10.71208557 2.74345928 10.71208557-2.74345928-10.71208557" fill="none" stroke="#efefef" stroke-width=".25"/><path d="m29.77050769 18.95437834 7.71488648 7.69879629 3.47622069-1.23760755-.54243929-3.48105139" fill="#abdad6" stroke="#231815" stroke-miterlimit="10"/><path d="m40.96161485 25.41556708-.20583593 1.81197324 1.92503258-.8193946" fill="#abdad6" stroke="#231815" stroke-miterlimit="10"/><path d="m40.96161486 25.41556708 1.46629689-1.08424578.25289975 2.07682442-1.92503258.8193946z" fill="#abdad6" stroke="#231815" stroke-miterlimit="10"/><path d="m40.96161486 25.41556708-.54243929-3.48105138z" fill="#abdad6" stroke="#231815" stroke-miterlimit="10"/><path d="m42.42791175 24.3313213.25289975 2.07682442-1.92503258.8193946.20583594-1.81197324z" fill="#abdad6" stroke="#231815" stroke-miterlimit="10"/><path d="m29.77050769 18.95437834 10.64866788 2.98013735.4256097 3.41359979-3.3593911 1.30505915-7.71488648-7.69879629 10.64866788 2.98013735-10.64866788-2.98013735 10.64866788 2.98013735" fill="#abdad6" stroke="#231815" stroke-miterlimit="10"/><path d="m29.77050769 18.95437834 7.71488648 7.69879629 3.47622069-1.23760755-.54243929-3.48105139" fill="none" stroke="#efefef" stroke-width=".25"/><path d="m40.96161485 25.41556708-.20583593 1.81197324 1.92503258-.8193946" fill="none" stroke="#efefef" stroke-width=".25"/><path d="m40.96161486 25.41556708 1.46629689-1.08424578.25289975 2.07682442-1.92503258.8193946z" fill="none" stroke="#efefef" stroke-width=".25"/><path d="m40.96161486 25.41556708-.54243929-3.48105138z" fill="none" stroke="#efefef" stroke-width=".25"/><path d="m42.42791175 24.3313213.25289975 2.07682442-1.92503258.8193946.20583594-1.81197324z" fill="none" stroke="#efefef" stroke-width=".25"/><path d="m29.77050769 18.95437834 10.64866788 2.98013735.4256097 3.41359979-3.3593911 1.30505915-7.71488648-7.69879629 10.64866788 2.98013735-10.64866788-2.98013735 10.64866788 2.98013735" fill="none" stroke="#efefef" stroke-width=".25"/><path d="m26.3469725 19.01210438-10.5247964 2.83188953-.66631076 3.6292992 3.28589857 1.27075949" fill="#abdad6" stroke="#231815" stroke-miterlimit="10"/><path d="m15.15586534 25.47329311-1.46629689-1.08424577-.25289976 2.07682442" fill="#abdad6" stroke="#231815" stroke-miterlimit="10"/><path d="m15.15586534 25.47329311.20583594 1.81197325-1.92503259-.8193946.25289976-2.07682442z" fill="#abdad6" stroke="#231815" stroke-miterlimit="10"/><path d="m15.15586534 25.47329311 3.28589857 1.27075949z" fill="#abdad6" stroke="#231815" stroke-miterlimit="10"/><path d="m15.36170128 27.28526636-1.92503259-.8193946.25289976-2.07682442 1.46629689 1.08424577z" fill="#abdad6" stroke="#231815" stroke-miterlimit="10"/><path d="m26.3469725 19.01210438-7.90520859 7.73194822-3.16906898-1.33821108.54948117-3.56184761 10.5247964-2.83188953-7.90520859 7.73194822 7.90520859-7.73194822-7.90520859 7.73194822" fill="#abdad6" stroke="#231815" stroke-miterlimit="10"/><path d="m26.3469725 19.01210438-10.5247964 2.83188953-.66631076 3.6292992 3.28589857 1.27075949" fill="none" stroke="#efefef" stroke-width=".25"/><path d="m15.15586534 25.47329311-1.46629689-1.08424577-.25289976 2.07682442" fill="none" stroke="#efefef" stroke-width=".25"/><path d="m15.15586534 25.47329311.20583594 1.81197325-1.92503259-.8193946.25289976-2.07682442z" fill="none" stroke="#efefef" stroke-width=".25"/><path d="m15.15586534 25.47329311 3.28589857 1.27075949z" fill="none" stroke="#efefef" stroke-width=".25"/><path d="m15.36170128 27.28526636-1.92503259-.8193946.25289976-2.07682442 1.46629689 1.08424577z" fill="none" stroke="#efefef" stroke-width=".25"/><path d="m26.3469725 19.01210438-7.90520859 7.73194822-3.16906898-1.33821108.54948117-3.56184761 10.5247964-2.83188953-7.90520859 7.73194822 7.90520859-7.73194822-7.90520859 7.73194822" fill="none" stroke="#efefef" stroke-width=".25"/><path d="m28.00874789 16.01837292 2.80990992-10.53068583-2.80990993-2.39169164-2.74345928 2.2102919" fill="#abdad6" stroke="#231815" stroke-miterlimit="10"/><path d="m28.00874789 3.09599545 1.67213283-.72772747-1.67213283-1.25742982" fill="#abdad6" stroke="#231815" stroke-miterlimit="10"/><path d="m28.00874788 3.09599545-1.67213283-.72772747 1.67213283-1.25742982 1.67213284 1.25742982z" fill="#abdad6" stroke="#231815" stroke-miterlimit="10"/><path d="m28.00874788 3.09599545-2.74345929 2.21029189z" fill="#abdad6" stroke="#231815" stroke-miterlimit="10"/><path d="m26.33661505 2.36826798 1.67213283-1.25742982 1.67213284 1.25742982-1.67213284.72772747z" fill="#abdad6" stroke="#231815" stroke-miterlimit="10"/><path d="m28.00874788 16.01837292-2.74345928-10.71208557 2.74345928-2.07538871 2.80990993 2.25678845-2.80990993 10.53068583-2.74345928-10.71208557 2.74345928 10.71208557-2.74345928-10.71208557" fill="#abdad6" stroke="#231815" stroke-miterlimit="10"/><g fill="none"><path d="m28.00874789 16.01837292 2.80990992-10.53068583-2.80990993-2.39169164-2.74345928 2.2102919" stroke="#efefef" stroke-width=".25"/><path d="m28.00874789 3.09599545 1.67213283-.72772747-1.67213283-1.25742982" stroke="#efefef" stroke-width=".25"/><path d="m28.00874788 3.09599545-1.67213283-.72772747 1.67213283-1.25742982 1.67213284 1.25742982z" stroke="#efefef" stroke-width=".25"/><path d="m28.00874788 3.09599545-2.74345929 2.21029189z" stroke="#efefef" stroke-width=".25"/><path d="m26.33661505 2.36826798 1.67213283-1.25742982 1.67213284 1.25742982-1.67213284.72772747z" stroke="#efefef" stroke-width=".25"/><path d="m28.00874788 16.01837292-2.74345928-10.71208557 2.74345928-2.07538871 2.80990993 2.25678845-2.80990993 10.53068583-2.74345928-10.71208557 2.74345928 10.71208557-2.74345928-10.71208557" stroke="#efefef" stroke-width=".25"/><path d="m0 0h56.692913v56.692913h-56.692913z"/></g></svg>