<svg viewBox="0 0 56.69291339 56.69291339" xmlns="http://www.w3.org/2000/svg"><path d="m28.1692533 2.09178788-4.67302036 18.07867338 4.67302036 4.10596354 4.56250963-3.79454348" fill="#abdad6" stroke="#231815" stroke-miterlimit="10"/><path d="m28.1692533 24.2764248-2.7808403 1.24933432 2.7808403 2.1587068" fill="#abdad6" stroke="#231815" stroke-miterlimit="10"/><path d="m28.1692533 24.2764248 2.7808403 1.24933432-2.7808403 2.1587068-2.7808403-2.1587068z" fill="#abdad6" stroke="#231815" stroke-miterlimit="10"/><path d="m28.1692533 24.2764248 4.56250963-3.79454348z" fill="#abdad6" stroke="#231815" stroke-miterlimit="10"/><path d="m30.9500936 25.52575912-2.7808403 2.1587068-2.7808403-2.1587068 2.7808403-1.24933432z" fill="#abdad6" stroke="#231815" stroke-miterlimit="10"/><path d="m28.1692533 2.09178788 4.56250963 18.39009344-4.56250963 3.56294691-4.67302036-3.87436697 4.67302036-18.07867338 4.56250963 18.39009344-4.56250963-18.39009344 4.56250963 18.39009344" fill="#abdad6" stroke="#231815" stroke-miterlimit="10"/><path d="m28.1692533 2.09178788-4.67302036 18.07867338 4.67302036 4.10596354 4.56250963-3.79454348" fill="none" stroke="#efefef" stroke-width=".25"/><path d="m28.1692533 24.2764248-2.7808403 1.24933432 2.7808403 2.1587068" fill="none" stroke="#efefef" stroke-width=".25"/><path d="m28.1692533 24.2764248 2.7808403 1.24933432-2.7808403 2.1587068-2.7808403-2.1587068z" fill="none" stroke="#efefef" stroke-width=".25"/><path d="m28.1692533 24.2764248 4.56250963-3.79454348z" fill="none" stroke="#efefef" stroke-width=".25"/><path d="m30.9500936 25.52575912-2.7808403 2.1587068-2.7808403-2.1587068 2.7808403-1.24933432z" fill="none" stroke="#efefef" stroke-width=".25"/><path d="m28.1692533 2.09178788 4.56250963 18.39009344-4.56250963 3.56294691-4.67302036-3.87436697 4.67302036-18.07867338 4.56250963 18.39009344-4.56250963-18.39009344 4.56250963 18.39009344" fill="none" stroke="#efefef" stroke-width=".25"/><path d="m28.05859204 54.5430857 4.67302036-18.07867338-4.67302036-4.10596354-4.56250963 3.79454348" fill="#abdad6" stroke="#231815" stroke-miterlimit="10"/><path d="m28.05859204 32.35844878 2.7808403-1.24933433-2.7808403-2.1587068" fill="#abdad6" stroke="#231815" stroke-miterlimit="10"/><path d="m28.05859204 32.35844878-2.7808403-1.24933433 2.7808403-2.1587068 2.7808403 2.1587068z" fill="#abdad6" stroke="#231815" stroke-miterlimit="10"/><path d="m28.05859204 32.35844878-4.56250963 3.79454348z" fill="#abdad6" stroke="#231815" stroke-miterlimit="10"/><path d="m25.27775174 31.10911445 2.7808403-2.1587068 2.7808403 2.1587068-2.7808403 1.24933433z" fill="#abdad6" stroke="#231815" stroke-miterlimit="10"/><path d="m28.05859204 54.5430857-4.56250963-18.39009344 4.56250963-3.56294692 4.67302036 3.87436698-4.67302036 18.07867338-4.56250963-18.39009344 4.56250963 18.39009344-4.56250963-18.39009344" fill="#abdad6" stroke="#231815" stroke-miterlimit="10"/><path d="m28.05859204 54.5430857 4.67302036-18.07867338-4.67302036-4.10596354-4.56250963 3.79454348" fill="none" stroke="#efefef" stroke-width=".25"/><path d="m28.05859204 32.35844878 2.7808403-1.24933433-2.7808403-2.1587068" fill="none" stroke="#efefef" stroke-width=".25"/><path d="m28.05859204 32.35844878-2.7808403-1.24933433 2.7808403-2.1587068 2.7808403 2.1587068z" fill="none" stroke="#efefef" stroke-width=".25"/><path d="m28.05859204 32.35844878-4.56250963 3.79454348z" fill="none" stroke="#efefef" stroke-width=".25"/><path d="m25.27775174 31.10911445 2.7808403-2.1587068 2.7808403 2.1587068-2.7808403 1.24933433z" fill="none" stroke="#efefef" stroke-width=".25"/><path d="m28.05859204 54.5430857-4.56250963-18.39009344 4.56250963-3.56294692 4.67302036 3.87436698-4.67302036 18.07867338-4.56250963-18.39009344 4.56250963 18.39009344-4.56250963-18.39009344" fill="none" stroke="#efefef" stroke-width=".25"/><path d="m28.1692533 2.09178788-4.67302036 18.07867338 4.67302036 4.10596354 4.56250963-3.79454348" fill="#abdad6" stroke="#231815" stroke-miterlimit="10"/><path d="m28.1692533 24.2764248-2.7808403 1.24933432 2.7808403 2.1587068" fill="#abdad6" stroke="#231815" stroke-miterlimit="10"/><path d="m28.1692533 24.2764248 2.7808403 1.24933432-2.7808403 2.1587068-2.7808403-2.1587068z" fill="#abdad6" stroke="#231815" stroke-miterlimit="10"/><path d="m28.1692533 24.2764248 4.56250963-3.79454348z" fill="#abdad6" stroke="#231815" stroke-miterlimit="10"/><path d="m30.9500936 25.52575912-2.7808403 2.1587068-2.7808403-2.1587068 2.7808403-1.24933432z" fill="#abdad6" stroke="#231815" stroke-miterlimit="10"/><path d="m28.1692533 2.09178788 4.56250963 18.39009344-4.56250963 3.56294691-4.67302036-3.87436697 4.67302036-18.07867338 4.56250963 18.39009344-4.56250963-18.39009344 4.56250963 18.39009344" fill="#abdad6" stroke="#231815" stroke-miterlimit="10"/><path d="m28.1692533 2.09178788-4.67302036 18.07867338 4.67302036 4.10596354 4.56250963-3.79454348" fill="none" stroke="#efefef" stroke-width=".25"/><path d="m28.1692533 24.2764248-2.7808403 1.24933432 2.7808403 2.1587068" fill="none" stroke="#efefef" stroke-width=".25"/><path d="m28.1692533 24.2764248 2.7808403 1.24933432-2.7808403 2.1587068-2.7808403-2.1587068z" fill="none" stroke="#efefef" stroke-width=".25"/><path d="m28.1692533 24.2764248 4.56250963-3.79454348z" fill="none" stroke="#efefef" stroke-width=".25"/><path d="m30.9500936 25.52575912-2.7808403 2.1587068-2.7808403-2.1587068 2.7808403-1.24933432z" fill="none" stroke="#efefef" stroke-width=".25"/><path d="m28.1692533 2.09178788 4.56250963 18.39009344-4.56250963 3.56294691-4.67302036-3.87436697 4.67302036-18.07867338 4.56250963 18.39009344-4.56250963-18.39009344 4.56250963 18.39009344" fill="none" stroke="#efefef" stroke-width=".25"/><path d="m50.79833555 41.47817897-13.32008024-13.08629103-5.89237892 1.99397257 1.00491624 5.84852099" fill="#abdad6" stroke="#231815" stroke-miterlimit="10"/><path d="m31.5858764 30.38586051.30846488-3.0329455-3.25991508 1.32892494" fill="#abdad6" stroke="#231815" stroke-miterlimit="10"/><path d="m31.58587639 30.38586051-2.47237541 1.78361119-.47907478-3.48763175 3.25991508-1.32892494z" fill="#abdad6" stroke="#231815" stroke-miterlimit="10"/><path d="m31.58587639 30.38586051 1.00491624 5.84852098z" fill="#abdad6" stroke="#231815" stroke-miterlimit="10"/><path d="m29.11350098 32.1694717-.47907478-3.48763175 3.25991508-1.32892494-.30846489 3.0329455z" fill="#abdad6" stroke="#231815" stroke-miterlimit="10"/><path d="m50.79833554 41.47817898-18.20754291-5.24379748-.80434772-5.7327227 5.6918104-2.10977086 13.32008023 13.08629104-18.20754291-5.24379748 18.20754291 5.24379748-18.20754291-5.24379748" fill="#abdad6" stroke="#231815" stroke-miterlimit="10"/><path d="m50.79833555 41.47817897-13.32008024-13.08629103-5.89237892 1.99397257 1.00491624 5.84852099" fill="none" stroke="#efefef" stroke-width=".25"/><path d="m31.5858764 30.38586051.30846488-3.0329455-3.25991508 1.32892494" fill="none" stroke="#efefef" stroke-width=".25"/><path d="m31.58587639 30.38586051-2.47237541 1.78361119-.47907478-3.48763175 3.25991508-1.32892494z" fill="none" stroke="#efefef" stroke-width=".25"/><path d="m31.58587639 30.38586051 1.00491624 5.84852098z" fill="none" stroke="#efefef" stroke-width=".25"/><path d="m29.11350098 32.1694717-.47907478-3.48763175 3.25991508-1.32892494-.30846489 3.0329455z" fill="none" stroke="#efefef" stroke-width=".25"/><path d="m50.79833554 41.47817898-18.20754291-5.24379748-.80434772-5.7327227 5.6918104-2.10977086 13.32008023 13.08629104-18.20754291-5.24379748 18.20754291 5.24379748-18.20754291-5.24379748" fill="none" stroke="#efefef" stroke-width=".25"/><path d="m5.4295098 15.1566946 13.32008024 13.08629104 5.89237891-1.99397258-1.00491624-5.84852098" fill="#abdad6" stroke="#231815" stroke-miterlimit="10"/><path d="m24.64196895 26.24901306-.30846489 3.03294551 3.25991508-1.32892494" fill="#abdad6" stroke="#231815" stroke-miterlimit="10"/><path d="m24.64196895 26.24901306 2.47237541-1.78361118.47907478 3.48763174-3.25991508 1.32892495z" fill="#abdad6" stroke="#231815" stroke-miterlimit="10"/><path d="m24.64196895 26.24901306-1.00491624-5.84852098z" fill="#abdad6" stroke="#231815" stroke-miterlimit="10"/><path d="m27.11434436 24.46540188.47907478 3.48763174-3.25991508 1.32892495.30846489-3.03294551z" fill="#abdad6" stroke="#231815" stroke-miterlimit="10"/><path d="m5.4295098 15.1566946 18.20754291 5.24379748.80434773 5.7327227-5.6918104 2.10977086-13.32008024-13.08629104 18.20754291 5.24379748-18.20754291-5.24379748 18.20754291 5.24379748" fill="#abdad6" stroke="#231815" stroke-miterlimit="10"/><path d="m5.4295098 15.1566946 13.32008024 13.08629104 5.89237891-1.99397258-1.00491624-5.84852098" fill="none" stroke="#efefef" stroke-width=".25"/><path d="m24.64196895 26.24901306-.30846489 3.03294551 3.25991508-1.32892494" fill="none" stroke="#efefef" stroke-width=".25"/><path d="m24.64196895 26.24901306 2.47237541-1.78361118.47907478 3.48763174-3.25991508 1.32892495z" fill="none" stroke="#efefef" stroke-width=".25"/><path d="m24.64196895 26.24901306-1.00491624-5.84852098z" fill="none" stroke="#efefef" stroke-width=".25"/><path d="m27.11434436 24.46540188.47907478 3.48763174-3.25991508 1.32892495.30846489-3.03294551z" fill="none" stroke="#efefef" stroke-width=".25"/><path d="m5.4295098 15.1566946 18.20754291 5.24379748.80434773 5.7327227-5.6918104 2.10977086-13.32008024-13.08629104 18.20754291 5.24379748-18.20754291-5.24379748 18.20754291 5.24379748" fill="none" stroke="#efefef" stroke-width=".25"/><path d="m50.79833555 41.47817897-13.32008024-13.08629103-5.89237892 1.99397257 1.00491624 5.84852099" fill="#abdad6" stroke="#231815" stroke-miterlimit="10"/><path d="m31.5858764 30.38586051.30846488-3.0329455-3.25991508 1.32892494" fill="#abdad6" stroke="#231815" stroke-miterlimit="10"/><path d="m31.58587639 30.38586051-2.47237541 1.78361119-.47907478-3.48763175 3.25991508-1.32892494z" fill="#abdad6" stroke="#231815" stroke-miterlimit="10"/><path d="m31.58587639 30.38586051 1.00491624 5.84852098z" fill="#abdad6" stroke="#231815" stroke-miterlimit="10"/><path d="m29.11350098 32.1694717-.47907478-3.48763175 3.25991508-1.32892494-.30846489 3.0329455z" fill="#abdad6" stroke="#231815" stroke-miterlimit="10"/><path d="m50.79833554 41.47817898-18.20754291-5.24379748-.80434772-5.7327227 5.6918104-2.10977086 13.32008023 13.08629104-18.20754291-5.24379748 18.20754291 5.24379748-18.20754291-5.24379748" fill="#abdad6" stroke="#231815" stroke-miterlimit="10"/><path d="m50.79833555 41.47817897-13.32008024-13.08629103-5.89237892 1.99397257 1.00491624 5.84852099" fill="none" stroke="#efefef" stroke-width=".25"/><path d="m31.5858764 30.38586051.30846488-3.0329455-3.25991508 1.32892494" fill="none" stroke="#efefef" stroke-width=".25"/><path d="m31.58587639 30.38586051-2.47237541 1.78361119-.47907478-3.48763175 3.25991508-1.32892494z" fill="none" stroke="#efefef" stroke-width=".25"/><path d="m31.58587639 30.38586051 1.00491624 5.84852098z" fill="none" stroke="#efefef" stroke-width=".25"/><path d="m29.11350098 32.1694717-.47907478-3.48763175 3.25991508-1.32892494-.30846489 3.0329455z" fill="none" stroke="#efefef" stroke-width=".25"/><path d="m50.79833554 41.47817898-18.20754291-5.24379748-.80434772-5.7327227 5.6918104-2.10977086 13.32008023 13.08629104-18.20754291-5.24379748 18.20754291 5.24379748-18.20754291-5.24379748" fill="none" stroke="#efefef" stroke-width=".25"/><path d="m5.37417917 41.38234351 17.99310059-4.99238235 1.21935856-6.09993611-5.56742587-2.05397751" fill="#abdad6" stroke="#231815" stroke-miterlimit="10"/><path d="m24.58663832 30.29002505 2.47237541 1.78361118.47907478-3.48763174" fill="#abdad6" stroke="#231815" stroke-miterlimit="10"/><path d="m24.58663832 30.29002505-.30846489-3.03294551 3.25991508 1.32892495-.47907478 3.48763174z" fill="#abdad6" stroke="#231815" stroke-miterlimit="10"/><path d="m24.58663832 30.29002505-5.56742587-2.0539775z" fill="#abdad6" stroke="#231815" stroke-miterlimit="10"/><path d="m24.27817343 27.25707954 3.25991508 1.32892495-.47907478 3.48763174-2.47237541-1.78361118z" fill="#abdad6" stroke="#231815" stroke-miterlimit="10"/><path d="m5.37417917 41.38234351 13.64503328-13.14629597 5.36685736 2.16977579-1.01879005 5.98413783-17.99310059 4.99238235 13.64503328-13.14629597-13.64503328 13.14629597 13.64503328-13.14629597" fill="#abdad6" stroke="#231815" stroke-miterlimit="10"/><path d="m5.37417917 41.38234351 17.99310059-4.99238235 1.21935856-6.09993611-5.56742587-2.05397751" fill="none" stroke="#efefef" stroke-width=".25"/><path d="m24.58663832 30.29002505 2.47237541 1.78361118.47907478-3.48763174" fill="none" stroke="#efefef" stroke-width=".25"/><path d="m24.58663832 30.29002505-.30846489-3.03294551 3.25991508 1.32892495-.47907478 3.48763174z" fill="none" stroke="#efefef" stroke-width=".25"/><path d="m24.58663832 30.29002505-5.56742587-2.0539775z" fill="none" stroke="#efefef" stroke-width=".25"/><path d="m24.27817343 27.25707954 3.25991508 1.32892495-.47907478 3.48763174-2.47237541-1.78361118z" fill="none" stroke="#efefef" stroke-width=".25"/><path d="m5.37417917 41.38234351 13.64503328-13.14629597 5.36685736 2.16977579-1.01879005 5.98413783-17.99310059 4.99238235 13.64503328-13.14629597-13.64503328 13.14629597 13.64503328-13.14629597" fill="none" stroke="#efefef" stroke-width=".25"/><path d="m50.85366617 15.25253006-17.99310059 4.99238235-1.21935855 6.09993612 5.56742586 2.0539775" fill="#abdad6" stroke="#231815" stroke-miterlimit="10"/><path d="m31.64120702 26.34484852-2.47237541-1.78361118-.47907478 3.48763175" fill="#abdad6" stroke="#231815" stroke-miterlimit="10"/><path d="m31.64120703 26.34484853.30846488 3.0329455-3.25991507-1.32892494.47907477-3.48763175z" fill="#abdad6" stroke="#231815" stroke-miterlimit="10"/><path d="m31.64120703 26.34484853 5.56742587 2.0539775z" fill="#abdad6" stroke="#231815" stroke-miterlimit="10"/><path d="m31.94967191 29.37779403-3.25991507-1.32892494.47907477-3.48763175 2.47237542 1.78361119z" fill="#abdad6" stroke="#231815" stroke-miterlimit="10"/><path d="m50.85366618 15.25253006-13.64503329 13.14629597-5.36685735-2.16977579 1.01879004-5.98413783 17.9931006-4.99238235-13.64503329 13.14629597 13.64503329-13.14629597-13.64503329 13.14629597" fill="#abdad6" stroke="#231815" stroke-miterlimit="10"/><path d="m50.85366617 15.25253006-17.99310059 4.99238235-1.21935855 6.09993612 5.56742586 2.0539775" fill="none" stroke="#efefef" stroke-width=".25"/><path d="m31.64120702 26.34484852-2.47237541-1.78361118-.47907478 3.48763175" fill="none" stroke="#efefef" stroke-width=".25"/><path d="m31.64120703 26.34484853.30846488 3.0329455-3.25991507-1.32892494.47907477-3.48763175z" fill="none" stroke="#efefef" stroke-width=".25"/><path d="m31.64120703 26.34484853 5.56742587 2.0539775z" fill="none" stroke="#efefef" stroke-width=".25"/><path d="m31.94967191 29.37779403-3.25991507-1.32892494.47907477-3.48763175 2.47237542 1.78361119z" fill="none" stroke="#efefef" stroke-width=".25"/><path d="m50.85366618 15.25253006-13.64503329 13.14629597-5.36685735-2.16977579 1.01879004-5.98413783 17.9931006-4.99238235-13.64503329 13.14629597 13.64503329-13.14629597-13.64503329 13.14629597" fill="none" stroke="#efefef" stroke-width=".25"/><path d="m5.37417917 41.38234351 17.99310059-4.99238235 1.21935856-6.09993611-5.56742587-2.05397751" fill="#abdad6" stroke="#231815" stroke-miterlimit="10"/><path d="m24.58663832 30.29002505 2.47237541 1.78361118.47907478-3.48763174" fill="#abdad6" stroke="#231815" stroke-miterlimit="10"/><path d="m24.58663832 30.29002505-.30846489-3.03294551 3.25991508 1.32892495-.47907478 3.48763174z" fill="#abdad6" stroke="#231815" stroke-miterlimit="10"/><path d="m24.58663832 30.29002505-5.56742587-2.0539775z" fill="#abdad6" stroke="#231815" stroke-miterlimit="10"/><path d="m24.27817343 27.25707954 3.25991508 1.32892495-.47907478 3.48763174-2.47237541-1.78361118z" fill="#abdad6" stroke="#231815" stroke-miterlimit="10"/><path d="m5.37417917 41.38234351 13.64503328-13.14629597 5.36685736 2.16977579-1.01879005 5.98413783-17.99310059 4.99238235 13.64503328-13.14629597-13.64503328 13.14629597 13.64503328-13.14629597" fill="#abdad6" stroke="#231815" stroke-miterlimit="10"/><path d="m5.37417917 41.38234351 17.99310059-4.99238235 1.21935856-6.09993611-5.56742587-2.05397751" fill="none" stroke="#efefef" stroke-width=".25"/><path d="m24.58663832 30.29002505 2.47237541 1.78361118.47907478-3.48763174" fill="none" stroke="#efefef" stroke-width=".25"/><path d="m24.58663832 30.29002505-.30846489-3.03294551 3.25991508 1.32892495-.47907478 3.48763174z" fill="none" stroke="#efefef" stroke-width=".25"/><path d="m24.58663832 30.29002505-5.56742587-2.0539775z" fill="none" stroke="#efefef" stroke-width=".25"/><path d="m24.27817343 27.25707954 3.25991508 1.32892495-.47907478 3.48763174-2.47237541-1.78361118z" fill="none" stroke="#efefef" stroke-width=".25"/><path d="m5.37417917 41.38234351 13.64503328-13.14629597 5.36685736 2.16977579-1.01879005 5.98413783-17.99310059 4.99238235 13.64503328-13.14629597-13.64503328 13.14629597 13.64503328-13.14629597" fill="none" stroke="#efefef" stroke-width=".25"/><path d="m28.1692533 2.09178788-4.67302036 18.07867338 4.67302036 4.10596354 4.56250963-3.79454348" fill="#abdad6" stroke="#231815" stroke-miterlimit="10"/><path d="m28.1692533 24.2764248-2.7808403 1.24933432 2.7808403 2.1587068" fill="#abdad6" stroke="#231815" stroke-miterlimit="10"/><path d="m28.1692533 24.2764248 2.7808403 1.24933432-2.7808403 2.1587068-2.7808403-2.1587068z" fill="#abdad6" stroke="#231815" stroke-miterlimit="10"/><path d="m28.1692533 24.2764248 4.56250963-3.79454348z" fill="#abdad6" stroke="#231815" stroke-miterlimit="10"/><path d="m30.9500936 25.52575912-2.7808403 2.1587068-2.7808403-2.1587068 2.7808403-1.24933432z" fill="#abdad6" stroke="#231815" stroke-miterlimit="10"/><path d="m28.1692533 2.09178788 4.56250963 18.39009344-4.56250963 3.56294691-4.67302036-3.87436697 4.67302036-18.07867338 4.56250963 18.39009344-4.56250963-18.39009344 4.56250963 18.39009344" fill="#abdad6" stroke="#231815" stroke-miterlimit="10"/><path d="m28.1692533 2.09178788-4.67302036 18.07867338 4.67302036 4.10596354 4.56250963-3.79454348" fill="none" stroke="#efefef" stroke-width=".25"/><path d="m28.1692533 24.2764248-2.7808403 1.24933432 2.7808403 2.1587068" fill="none" stroke="#efefef" stroke-width=".25"/><path d="m28.1692533 24.2764248 2.7808403 1.24933432-2.7808403 2.1587068-2.7808403-2.1587068z" fill="none" stroke="#efefef" stroke-width=".25"/><path d="m28.1692533 24.2764248 4.56250963-3.79454348z" fill="none" stroke="#efefef" stroke-width=".25"/><path d="m30.9500936 25.52575912-2.7808403 2.1587068-2.7808403-2.1587068 2.7808403-1.24933432z" fill="none" stroke="#efefef" stroke-width=".25"/><path d="m28.1692533 2.09178788 4.56250963 18.39009344-4.56250963 3.56294691-4.67302036-3.87436697 4.67302036-18.07867338 4.56250963 18.39009344-4.56250963-18.39009344 4.56250963 18.39009344" fill="none" stroke="#efefef" stroke-width=".25"/><path d="m28.05859204 54.5430857 4.67302036-18.07867338-4.67302036-4.10596354-4.56250963 3.79454348" fill="#abdad6" stroke="#231815" stroke-miterlimit="10"/><path d="m28.05859204 32.35844878 2.7808403-1.24933433-2.7808403-2.1587068" fill="#abdad6" stroke="#231815" stroke-miterlimit="10"/><path d="m28.05859204 32.35844878-2.7808403-1.24933433 2.7808403-2.1587068 2.7808403 2.1587068z" fill="#abdad6" stroke="#231815" stroke-miterlimit="10"/><path d="m28.05859204 32.35844878-4.56250963 3.79454348z" fill="#abdad6" stroke="#231815" stroke-miterlimit="10"/><path d="m25.27775174 31.10911445 2.7808403-2.1587068 2.7808403 2.1587068-2.7808403 1.24933433z" fill="#abdad6" stroke="#231815" stroke-miterlimit="10"/><path d="m28.05859204 54.5430857-4.56250963-18.39009344 4.56250963-3.56294692 4.67302036 3.87436698-4.67302036 18.07867338-4.56250963-18.39009344 4.56250963 18.39009344-4.56250963-18.39009344" fill="#abdad6" stroke="#231815" stroke-miterlimit="10"/><path d="m28.05859204 54.5430857 4.67302036-18.07867338-4.67302036-4.10596354-4.56250963 3.79454348" fill="none" stroke="#efefef" stroke-width=".25"/><path d="m28.05859204 32.35844878 2.7808403-1.24933433-2.7808403-2.1587068" fill="none" stroke="#efefef" stroke-width=".25"/><path d="m28.05859204 32.35844878-2.7808403-1.24933433 2.7808403-2.1587068 2.7808403 2.1587068z" fill="none" stroke="#efefef" stroke-width=".25"/><path d="m28.05859204 32.35844878-4.56250963 3.79454348z" fill="none" stroke="#efefef" stroke-width=".25"/><path d="m25.27775174 31.10911445 2.7808403-2.1587068 2.7808403 2.1587068-2.7808403 1.24933433z" fill="none" stroke="#efefef" stroke-width=".25"/><path d="m28.05859204 54.5430857-4.56250963-18.39009344 4.56250963-3.56294692 4.67302036 3.87436698-4.67302036 18.07867338-4.56250963-18.39009344 4.56250963 18.39009344-4.56250963-18.39009344" fill="none" stroke="#efefef" stroke-width=".25"/><path d="m28.1692533 2.09178788-4.67302036 18.07867338 4.67302036 4.10596354 4.56250963-3.79454348" fill="#abdad6" stroke="#231815" stroke-miterlimit="10"/><path d="m28.1692533 24.2764248-2.7808403 1.24933432 2.7808403 2.1587068" fill="#abdad6" stroke="#231815" stroke-miterlimit="10"/><path d="m28.1692533 24.2764248 2.7808403 1.24933432-2.7808403 2.1587068-2.7808403-2.1587068z" fill="#abdad6" stroke="#231815" stroke-miterlimit="10"/><path d="m28.1692533 24.2764248 4.56250963-3.79454348z" fill="#abdad6" stroke="#231815" stroke-miterlimit="10"/><path d="m30.9500936 25.52575912-2.7808403 2.1587068-2.7808403-2.1587068 2.7808403-1.24933432z" fill="#abdad6" stroke="#231815" stroke-miterlimit="10"/><path d="m28.1692533 2.09178788 4.56250963 18.39009344-4.56250963 3.56294691-4.67302036-3.87436697 4.67302036-18.07867338 4.56250963 18.39009344-4.56250963-18.39009344 4.56250963 18.39009344" fill="#abdad6" stroke="#231815" stroke-miterlimit="10"/><g fill="none"><path d="m28.1692533 2.09178788-4.67302036 18.07867338 4.67302036 4.10596354 4.56250963-3.79454348" stroke="#efefef" stroke-width=".25"/><path d="m28.1692533 24.2764248-2.7808403 1.24933432 2.7808403 2.1587068" stroke="#efefef" stroke-width=".25"/><path d="m28.1692533 24.2764248 2.7808403 1.24933432-2.7808403 2.1587068-2.7808403-2.1587068z" stroke="#efefef" stroke-width=".25"/><path d="m28.1692533 24.2764248 4.56250963-3.79454348z" stroke="#efefef" stroke-width=".25"/><path d="m30.9500936 25.52575912-2.7808403 2.1587068-2.7808403-2.1587068 2.7808403-1.24933432z" stroke="#efefef" stroke-width=".25"/><path d="m28.1692533 2.09178788 4.56250963 18.39009344-4.56250963 3.56294691-4.67302036-3.87436697 4.67302036-18.07867338 4.56250963 18.39009344-4.56250963-18.39009344 4.56250963 18.39009344" stroke="#efefef" stroke-width=".25"/><path d="m0 0h56.692913v56.692913h-56.692913z"/></g></svg>