<svg viewBox="0 0 56.69291339 56.69291339" xmlns="http://www.w3.org/2000/svg"><g stroke-miterlimit="10"><path d="m20.79399456 15.66980754 5.860744 16.66536682 11.01327085-13.81270167-5.8910206-16.48627563z" fill="#f7f4a3" stroke="#b5b5b6" stroke-width=".5"/><path d="m23.87782653 16.12424667 3.4928229 11.9761937 7.23552038-10.16249547-3.51481524-11.84610526z" fill="#eae83f" stroke="#eeec6a" stroke-width="3"/><path d="m48.32305297 34.12446917-17.36300304-3.25713022 6.45551513 16.44412316 17.2230438 3.14136432z" fill="#f7f4a3" stroke="#b5b5b6" stroke-width=".5"/><path d="m46.38758115 36.56792643-12.11809944-2.96322349 5.18321905 11.34739219 12.01643572 2.87913335z" fill="#eae83f" stroke="#eeec6a" stroke-width="3"/><path d="m18.57631797 48.73800227 11.50225904-13.4082366-17.46878597-2.63142149-11.33202321 13.3449113z" fill="#f7f4a3" stroke="#b5b5b6" stroke-width=".5"/><path d="m17.42795782 45.84010588 8.62527654-9.01297021-12.41873943-1.18489673-8.50162048 8.96697192z" fill="#eae83f" stroke="#eeec6a" stroke-width="3"/><path d="m20.79399456 15.66980754 5.860744 16.66536682 11.01327085-13.81270167-5.8910206-16.48627563z" fill="#f7f4a3" stroke="#b5b5b6" stroke-width=".5"/><path d="m23.87782653 16.12424667 3.4928229 11.9761937 7.23552038-10.16249547-3.51481524-11.84610526z" fill="#eae83f" stroke="#eeec6a" stroke-width="3"/><path d="m48.32305297 34.12446917-17.36300304-3.25713022 6.45551513 16.44412316 17.2230438 3.14136432z" fill="#f7f4a3" stroke="#b5b5b6" stroke-width=".5"/><path d="m46.38758115 36.56792643-12.11809944-2.96322349 5.18321905 11.34739219 12.01643572 2.87913335z" fill="#eae83f" stroke="#eeec6a" stroke-width="3"/><path d="m18.57631797 48.73800227 11.50225904-13.4082366-17.46878597-2.63142149-11.33202321 13.3449113z" fill="#f7f4a3" stroke="#b5b5b6" stroke-width=".5"/><path d="m17.42795782 45.84010588 8.62527654-9.01297021-12.41873943-1.18489673-8.50162048 8.96697192z" fill="#eae83f" stroke="#eeec6a" stroke-width="3"/><path d="m20.79399456 15.66980754 5.860744 16.66536682 11.01327085-13.81270167-5.8910206-16.48627563z" fill="#f7f4a3" stroke="#b5b5b6" stroke-width=".5"/><path d="m23.87782653 16.12424667 3.4928229 11.9761937 7.23552038-10.16249547-3.51481524-11.84610526z" fill="#eae83f" stroke="#eeec6a" stroke-width="3"/><path d="m48.32305297 34.12446917-17.36300304-3.25713022 6.45551513 16.44412316 17.2230438 3.14136432z" fill="#f7f4a3" stroke="#b5b5b6" stroke-width=".5"/><path d="m46.38758115 36.56792643-12.11809944-2.96322349 5.18321905 11.34739219 12.01643572 2.87913335z" fill="#eae83f" stroke="#eeec6a" stroke-width="3"/><path d="m18.57631797 48.73800227 11.50225904-13.4082366-17.46878597-2.63142149-11.33202321 13.3449113z" fill="#f7f4a3" stroke="#b5b5b6" stroke-width=".5"/><path d="m17.42795782 45.84010588 8.62527654-9.01297021-12.41873943-1.18489673-8.50162048 8.96697192z" fill="#eae83f" stroke="#eeec6a" stroke-width="3"/><path d="m20.79399456 15.66980754 5.860744 16.66536682 11.01327085-13.81270167-5.8910206-16.48627563z" fill="#f7f4a3" stroke="#b5b5b6" stroke-width=".5"/><path d="m23.87782653 16.12424667 3.4928229 11.9761937 7.23552038-10.16249547-3.51481524-11.84610526z" fill="#eae83f" stroke="#eeec6a" stroke-width="3"/><path d="m48.32305297 34.12446917-17.36300304-3.25713022 6.45551513 16.44412316 17.2230438 3.14136432z" fill="#f7f4a3" stroke="#b5b5b6" stroke-width=".5"/><path d="m46.38758115 36.56792643-12.11809944-2.96322349 5.18321905 11.34739219 12.01643572 2.87913335z" fill="#eae83f" stroke="#eeec6a" stroke-width="3"/><path d="m18.57631797 48.73800227 11.50225904-13.4082366-17.46878597-2.63142149-11.33202321 13.3449113z" fill="#f7f4a3" stroke="#b5b5b6" stroke-width=".5"/><path d="m17.42795782 45.84010588 8.62527654-9.01297021-12.41873943-1.18489673-8.50162048 8.96697192z" fill="#eae83f" stroke="#eeec6a" stroke-width="3"/><path d="m20.79399456 15.66980754 5.860744 16.66536682 11.01327085-13.81270167-5.8910206-16.48627563z" fill="#f7f4a3" stroke="#b5b5b6" stroke-width=".5"/><path d="m23.87782653 16.12424667 3.4928229 11.9761937 7.23552038-10.16249547-3.51481524-11.84610526z" fill="#eae83f" stroke="#eeec6a" stroke-width="3"/><path d="m48.32305297 34.12446917-17.36300304-3.25713022 6.45551513 16.44412316 17.2230438 3.14136432z" fill="#f7f4a3" stroke="#b5b5b6" stroke-width=".5"/><path d="m46.38758115 36.56792643-12.11809944-2.96322349 5.18321905 11.34739219 12.01643572 2.87913335z" fill="#eae83f" stroke="#eeec6a" stroke-width="3"/><path d="m18.57631797 48.73800227 11.50225904-13.4082366-17.46878597-2.63142149-11.33202321 13.3449113z" fill="#f7f4a3" stroke="#b5b5b6" stroke-width=".5"/><path d="m17.42795782 45.84010588 8.62527654-9.01297021-12.41873943-1.18489673-8.50162048 8.96697192z" fill="#eae83f" stroke="#eeec6a" stroke-width="3"/><path d="m20.79399456 15.66980754 5.860744 16.66536682 11.01327085-13.81270167-5.8910206-16.48627563z" fill="#f7f4a3" stroke="#b5b5b6" stroke-width=".5"/><path d="m23.87782653 16.12424667 3.4928229 11.9761937 7.23552038-10.16249547-3.51481524-11.84610526z" fill="#eae83f" stroke="#eeec6a" stroke-width="3"/><path d="m48.32305297 34.12446917-17.36300304-3.25713022 6.45551513 16.44412316 17.2230438 3.14136432z" fill="#f7f4a3" stroke="#b5b5b6" stroke-width=".5"/><path d="m46.38758115 36.56792643-12.11809944-2.96322349 5.18321905 11.34739219 12.01643572 2.87913335z" fill="#eae83f" stroke="#eeec6a" stroke-width="3"/><path d="m18.57631797 48.73800227 11.50225904-13.4082366-17.46878597-2.63142149-11.33202321 13.3449113z" fill="#f7f4a3" stroke="#b5b5b6" stroke-width=".5"/><path d="m17.42795782 45.84010588 8.62527654-9.01297021-12.41873943-1.18489673-8.50162048 8.96697192z" fill="#eae83f" stroke="#eeec6a" stroke-width="3"/><path d="m20.79399456 15.66980754 5.860744 16.66536682 11.01327085-13.81270167-5.8910206-16.48627563z" fill="#f7f4a3" stroke="#b5b5b6" stroke-width=".5"/><path d="m23.87782653 16.12424667 3.4928229 11.9761937 7.23552038-10.16249547-3.51481524-11.84610526z" fill="#eae83f" stroke="#eeec6a" stroke-width="3"/><path d="m48.32305297 34.12446917-17.36300304-3.25713022 6.45551513 16.44412316 17.2230438 3.14136432z" fill="#f7f4a3" stroke="#b5b5b6" stroke-width=".5"/><path d="m46.38758115 36.56792643-12.11809944-2.96322349 5.18321905 11.34739219 12.01643572 2.87913335z" fill="#eae83f" stroke="#eeec6a" stroke-width="3"/><path d="m18.57631797 48.73800227 11.50225904-13.4082366-17.46878597-2.63142149-11.33202321 13.3449113z" fill="#f7f4a3" stroke="#b5b5b6" stroke-width=".5"/><path d="m17.42795782 45.84010588 8.62527654-9.01297021-12.41873943-1.18489673-8.50162048 8.96697192z" fill="#eae83f" stroke="#eeec6a" stroke-width="3"/><path d="m20.79399456 15.66980754 5.860744 16.66536682 11.01327085-13.81270167-5.8910206-16.48627563z" fill="#f7f4a3" stroke="#b5b5b6" stroke-width=".5"/><path d="m23.87782653 16.12424667 3.4928229 11.9761937 7.23552038-10.16249547-3.51481524-11.84610526z" fill="#eae83f" stroke="#eeec6a" stroke-width="3"/><path d="m48.32305297 34.12446917-17.36300304-3.25713022 6.45551513 16.44412316 17.2230438 3.14136432z" fill="#f7f4a3" stroke="#b5b5b6" stroke-width=".5"/><path d="m46.38758115 36.56792643-12.11809944-2.96322349 5.18321905 11.34739219 12.01643572 2.87913335z" fill="#eae83f" stroke="#eeec6a" stroke-width="3"/><path d="m18.57631797 48.73800227 11.50225904-13.4082366-17.46878597-2.63142149-11.33202321 13.3449113z" fill="#f7f4a3" stroke="#b5b5b6" stroke-width=".5"/><path d="m17.42795782 45.84010588 8.62527654-9.01297021-12.41873943-1.18489673-8.50162048 8.96697192z" fill="#eae83f" stroke="#eeec6a" stroke-width="3"/><path d="m20.79399456 15.66980754 5.860744 16.66536682 11.01327085-13.81270167-5.8910206-16.48627563z" fill="#f7f4a3" stroke="#b5b5b6" stroke-width=".5"/><path d="m23.87782653 16.12424667 3.4928229 11.9761937 7.23552038-10.16249547-3.51481524-11.84610526z" fill="#eae83f" stroke="#eeec6a" stroke-width="3"/><path d="m48.32305297 34.12446917-17.36300304-3.25713022 6.45551513 16.44412316 17.2230438 3.14136432z" fill="#f7f4a3" stroke="#b5b5b6" stroke-width=".5"/><path d="m46.38758115 36.56792643-12.11809944-2.96322349 5.18321905 11.34739219 12.01643572 2.87913335z" fill="#eae83f" stroke="#eeec6a" stroke-width="3"/><path d="m18.57631797 48.73800227 11.50225904-13.4082366-17.46878597-2.63142149-11.33202321 13.3449113z" fill="#f7f4a3" stroke="#b5b5b6" stroke-width=".5"/><path d="m17.42795782 45.84010588 8.62527654-9.01297021-12.41873943-1.18489673-8.50162048 8.96697192z" fill="#eae83f" stroke="#eeec6a" stroke-width="3"/><path d="m20.79399456 15.66980754 5.860744 16.66536682 11.01327085-13.81270167-5.8910206-16.48627563z" fill="#f7f4a3" stroke="#b5b5b6" stroke-width=".5"/><path d="m23.87782653 16.12424667 3.4928229 11.9761937 7.23552038-10.16249547-3.51481524-11.84610526z" fill="#eae83f" stroke="#eeec6a" stroke-width="3"/><path d="m48.32305297 34.12446917-17.36300304-3.25713022 6.45551513 16.44412316 17.2230438 3.14136432z" fill="#f7f4a3" stroke="#b5b5b6" stroke-width=".5"/><path d="m46.38758115 36.56792643-12.11809944-2.96322349 5.18321905 11.34739219 12.01643572 2.87913335z" fill="#eae83f" stroke="#eeec6a" stroke-width="3"/><path d="m18.57631797 48.73800227 11.50225904-13.4082366-17.46878597-2.63142149-11.33202321 13.3449113z" fill="#f7f4a3" stroke="#b5b5b6" stroke-width=".5"/><path d="m17.42795782 45.84010588 8.62527654-9.01297021-12.41873943-1.18489673-8.50162048 8.96697192z" fill="#eae83f" stroke="#eeec6a" stroke-width="3"/><path d="m20.79399456 15.66980754 5.860744 16.66536682 11.01327085-13.81270167-5.8910206-16.48627563z" fill="#f7f4a3" stroke="#b5b5b6" stroke-width=".5"/><path d="m23.87782653 16.12424667 3.4928229 11.9761937 7.23552038-10.16249547-3.51481524-11.84610526z" fill="#eae83f" stroke="#eeec6a" stroke-width="3"/><path d="m48.32305297 34.12446917-17.36300304-3.25713022 6.45551513 16.44412316 17.2230438 3.14136432z" fill="#f7f4a3" stroke="#b5b5b6" stroke-width=".5"/><path d="m46.38758115 36.56792643-12.11809944-2.96322349 5.18321905 11.34739219 12.01643572 2.87913335z" fill="#eae83f" stroke="#eeec6a" stroke-width="3"/><path d="m18.57631797 48.73800227 11.50225904-13.4082366-17.46878597-2.63142149-11.33202321 13.3449113z" fill="#f7f4a3" stroke="#b5b5b6" stroke-width=".5"/><path d="m17.42795782 45.84010588 8.62527654-9.01297021-12.41873943-1.18489673-8.50162048 8.96697192z" fill="#eae83f" stroke="#eeec6a" stroke-width="3"/><path d="m20.79399456 15.66980754 5.860744 16.66536682 11.01327085-13.81270167-5.8910206-16.48627563z" fill="#f7f4a3" stroke="#b5b5b6" stroke-width=".5"/><path d="m23.87782653 16.12424667 3.4928229 11.9761937 7.23552038-10.16249547-3.51481524-11.84610526z" fill="#eae83f" stroke="#eeec6a" stroke-width="3"/><path d="m48.32305297 34.12446917-17.36300304-3.25713022 6.45551513 16.44412316 17.2230438 3.14136432z" fill="#f7f4a3" stroke="#b5b5b6" stroke-width=".5"/><path d="m46.38758115 36.56792643-12.11809944-2.96322349 5.18321905 11.34739219 12.01643572 2.87913335z" fill="#eae83f" stroke="#eeec6a" stroke-width="3"/><path d="m18.57631797 48.73800227 11.50225904-13.4082366-17.46878597-2.63142149-11.33202321 13.3449113z" fill="#f7f4a3" stroke="#b5b5b6" stroke-width=".5"/><path d="m17.42795782 45.84010588 8.62527654-9.01297021-12.41873943-1.18489673-8.50162048 8.96697192z" fill="#eae83f" stroke="#eeec6a" stroke-width="3"/><path d="m20.79399456 15.66980754 5.860744 16.66536682 11.01327085-13.81270167-5.8910206-16.48627563z" fill="#f7f4a3" stroke="#b5b5b6" stroke-width=".5"/><path d="m23.87782653 16.12424667 3.4928229 11.9761937 7.23552038-10.16249547-3.51481524-11.84610526z" fill="#eae83f" stroke="#eeec6a" stroke-width="3"/><path d="m48.32305297 34.12446917-17.36300304-3.25713022 6.45551513 16.44412316 17.2230438 3.14136432z" fill="#f7f4a3" stroke="#b5b5b6" stroke-width=".5"/><path d="m46.38758115 36.56792643-12.11809944-2.96322349 5.18321905 11.34739219 12.01643572 2.87913335z" fill="#eae83f" stroke="#eeec6a" stroke-width="3"/><path d="m18.57631797 48.73800227 11.50225904-13.4082366-17.46878597-2.63142149-11.33202321 13.3449113z" fill="#f7f4a3" stroke="#b5b5b6" stroke-width=".5"/><path d="m17.42795782 45.84010588 8.62527654-9.01297021-12.41873943-1.18489673-8.50162048 8.96697192z" fill="#eae83f" stroke="#eeec6a" stroke-width="3"/><path d="m20.79399456 15.66980754 5.860744 16.66536682 11.01327085-13.81270167-5.8910206-16.48627563z" fill="#f7f4a3" stroke="#b5b5b6" stroke-width=".5"/><path d="m23.87782653 16.12424667 3.4928229 11.9761937 7.23552038-10.16249547-3.51481524-11.84610526z" fill="#eae83f" stroke="#eeec6a" stroke-width="3"/><path d="m48.32305297 34.12446917-17.36300304-3.25713022 6.45551513 16.44412316 17.2230438 3.14136432z" fill="#f7f4a3" stroke="#b5b5b6" stroke-width=".5"/><path d="m46.38758115 36.56792643-12.11809944-2.96322349 5.18321905 11.34739219 12.01643572 2.87913335z" fill="#eae83f" stroke="#eeec6a" stroke-width="3"/><path d="m18.57631797 48.73800227 11.50225904-13.4082366-17.46878597-2.63142149-11.33202321 13.3449113z" fill="#f7f4a3" stroke="#b5b5b6" stroke-width=".5"/><path d="m17.42795782 45.84010588 8.62527654-9.01297021-12.41873943-1.18489673-8.50162048 8.96697192z" fill="#eae83f" stroke="#eeec6a" stroke-width="3"/><path d="m20.79399456 15.66980754 5.860744 16.66536682 11.01327085-13.81270167-5.8910206-16.48627563z" fill="#f7f4a3" stroke="#b5b5b6" stroke-width=".5"/><path d="m23.87782653 16.12424667 3.4928229 11.9761937 7.23552038-10.16249547-3.51481524-11.84610526z" fill="#eae83f" stroke="#eeec6a" stroke-width="3"/><path d="m48.32305297 34.12446917-17.36300304-3.25713022 6.45551513 16.44412316 17.2230438 3.14136432z" fill="#f7f4a3" stroke="#b5b5b6" stroke-width=".5"/><path d="m46.38758115 36.56792643-12.11809944-2.96322349 5.18321905 11.34739219 12.01643572 2.87913335z" fill="#eae83f" stroke="#eeec6a" stroke-width="3"/><path d="m18.57631797 48.73800227 11.50225904-13.4082366-17.46878597-2.63142149-11.33202321 13.3449113z" fill="#f7f4a3" stroke="#b5b5b6" stroke-width=".5"/><path d="m17.42795782 45.84010588 8.62527654-9.01297021-12.41873943-1.18489673-8.50162048 8.96697192z" fill="#eae83f" stroke="#eeec6a" stroke-width="3"/><path d="m20.79399456 15.66980754 5.860744 16.66536682 11.01327085-13.81270167-5.8910206-16.48627563z" fill="#f7f4a3" stroke="#b5b5b6" stroke-width=".5"/><path d="m23.87782653 16.12424667 3.4928229 11.9761937 7.23552038-10.16249547-3.51481524-11.84610526z" fill="#eae83f" stroke="#eeec6a" stroke-width="3"/><path d="m48.32305297 34.12446917-17.36300304-3.25713022 6.45551513 16.44412316 17.2230438 3.14136432z" fill="#f7f4a3" stroke="#b5b5b6" stroke-width=".5"/><path d="m46.38758115 36.56792643-12.11809944-2.96322349 5.18321905 11.34739219 12.01643572 2.87913335z" fill="#eae83f" stroke="#eeec6a" stroke-width="3"/><path d="m18.57631797 48.73800227 11.50225904-13.4082366-17.46878597-2.63142149-11.33202321 13.3449113z" fill="#f7f4a3" stroke="#b5b5b6" stroke-width=".5"/><path d="m17.42795782 45.84010588 8.62527654-9.01297021-12.41873943-1.18489673-8.50162048 8.96697192z" fill="#eae83f" stroke="#eeec6a" stroke-width="3"/><path d="m20.79399456 15.66980754 5.860744 16.66536682 11.01327085-13.81270167-5.8910206-16.48627563z" fill="#f7f4a3" stroke="#b5b5b6" stroke-width=".5"/><path d="m23.87782653 16.12424667 3.4928229 11.9761937 7.23552038-10.16249547-3.51481524-11.84610526z" fill="#eae83f" stroke="#eeec6a" stroke-width="3"/><path d="m48.32305297 34.12446917-17.36300304-3.25713022 6.45551513 16.44412316 17.2230438 3.14136432z" fill="#f7f4a3" stroke="#b5b5b6" stroke-width=".5"/><path d="m46.38758115 36.56792643-12.11809944-2.96322349 5.18321905 11.34739219 12.01643572 2.87913335z" fill="#eae83f" stroke="#eeec6a" stroke-width="3"/><path d="m18.57631797 48.73800227 11.50225904-13.4082366-17.46878597-2.63142149-11.33202321 13.3449113z" fill="#f7f4a3" stroke="#b5b5b6" stroke-width=".5"/><path d="m17.42795782 45.84010588 8.62527654-9.01297021-12.41873943-1.18489673-8.50162048 8.96697192z" fill="#eae83f" stroke="#eeec6a" stroke-width="3"/><path d="m20.79399456 15.66980754 5.860744 16.66536682 11.01327085-13.81270167-5.8910206-16.48627563z" fill="#f7f4a3" stroke="#b5b5b6" stroke-width=".5"/><path d="m23.87782653 16.12424667 3.4928229 11.9761937 7.23552038-10.16249547-3.51481524-11.84610526z" fill="#eae83f" stroke="#eeec6a" stroke-width="3"/><path d="m48.32305297 34.12446917-17.36300304-3.25713022 6.45551513 16.44412316 17.2230438 3.14136432z" fill="#f7f4a3" stroke="#b5b5b6" stroke-width=".5"/><path d="m46.38758115 36.56792643-12.11809944-2.96322349 5.18321905 11.34739219 12.01643572 2.87913335z" fill="#eae83f" stroke="#eeec6a" stroke-width="3"/><path d="m18.57631797 48.73800227 11.50225904-13.4082366-17.46878597-2.63142149-11.33202321 13.3449113z" fill="#f7f4a3" stroke="#b5b5b6" stroke-width=".5"/><path d="m17.42795782 45.84010588 8.62527654-9.01297021-12.41873943-1.18489673-8.50162048 8.96697192z" fill="#eae83f" stroke="#eeec6a" stroke-width="3"/><path d="m20.79399456 15.66980754 5.860744 16.66536682 11.01327085-13.81270167-5.8910206-16.48627563z" fill="#f7f4a3" stroke="#b5b5b6" stroke-width=".5"/><path d="m23.87782653 16.12424667 3.4928229 11.9761937 7.23552038-10.16249547-3.51481524-11.84610526z" fill="#eae83f" stroke="#eeec6a" stroke-width="3"/><path d="m48.32305297 34.12446917-17.36300304-3.25713022 6.45551513 16.44412316 17.2230438 3.14136432z" fill="#f7f4a3" stroke="#b5b5b6" stroke-width=".5"/><path d="m46.38758115 36.56792643-12.11809944-2.96322349 5.18321905 11.34739219 12.01643572 2.87913335z" fill="#eae83f" stroke="#eeec6a" stroke-width="3"/><path d="m18.57631797 48.73800227 11.50225904-13.4082366-17.46878597-2.63142149-11.33202321 13.3449113z" fill="#f7f4a3" stroke="#b5b5b6" stroke-width=".5"/><path d="m17.42795782 45.84010588 8.62527654-9.01297021-12.41873943-1.18489673-8.50162048 8.96697192z" fill="#eae83f" stroke="#eeec6a" stroke-width="3"/><path d="m20.79399456 15.66980754 5.860744 16.66536682 11.01327085-13.81270167-5.8910206-16.48627563z" fill="#f7f4a3" stroke="#b5b5b6" stroke-width=".5"/><path d="m23.87782653 16.12424667 3.4928229 11.9761937 7.23552038-10.16249547-3.51481524-11.84610526z" fill="#eae83f" stroke="#eeec6a" stroke-width="3"/><path d="m48.32305297 34.12446917-17.36300304-3.25713022 6.45551513 16.44412316 17.2230438 3.14136432z" fill="#f7f4a3" stroke="#b5b5b6" stroke-width=".5"/><path d="m46.38758115 36.56792643-12.11809944-2.96322349 5.18321905 11.34739219 12.01643572 2.87913335z" fill="#eae83f" stroke="#eeec6a" stroke-width="3"/><path d="m18.57631797 48.73800227 11.50225904-13.4082366-17.46878597-2.63142149-11.33202321 13.3449113z" fill="#f7f4a3" stroke="#b5b5b6" stroke-width=".5"/><path d="m17.42795782 45.84010588 8.62527654-9.01297021-12.41873943-1.18489673-8.50162048 8.96697192z" fill="#eae83f" stroke="#eeec6a" stroke-width="3"/><path d="m20.79399456 15.66980754 5.860744 16.66536682 11.01327085-13.81270167-5.8910206-16.48627563z" fill="#f7f4a3" stroke="#b5b5b6" stroke-width=".5"/><path d="m23.87782653 16.12424667 3.4928229 11.9761937 7.23552038-10.16249547-3.51481524-11.84610526z" fill="#eae83f" stroke="#eeec6a" stroke-width="3"/><path d="m48.32305297 34.12446917-17.36300304-3.25713022 6.45551513 16.44412316 17.2230438 3.14136432z" fill="#f7f4a3" stroke="#b5b5b6" stroke-width=".5"/><path d="m46.38758115 36.56792643-12.11809944-2.96322349 5.18321905 11.34739219 12.01643572 2.87913335z" fill="#eae83f" stroke="#eeec6a" stroke-width="3"/><path d="m18.57631797 48.73800227 11.50225904-13.4082366-17.46878597-2.63142149-11.33202321 13.3449113z" fill="#f7f4a3" stroke="#b5b5b6" stroke-width=".5"/><path d="m17.42795782 45.84010588 8.62527654-9.01297021-12.41873943-1.18489673-8.50162048 8.96697192z" fill="#eae83f" stroke="#eeec6a" stroke-width="3"/><path d="m20.79399456 15.66980754 5.860744 16.66536682 11.01327085-13.81270167-5.8910206-16.48627563z" fill="#f7f4a3" stroke="#b5b5b6" stroke-width=".5"/><path d="m23.87782653 16.12424667 3.4928229 11.9761937 7.23552038-10.16249547-3.51481524-11.84610526z" fill="#eae83f" stroke="#eeec6a" stroke-width="3"/><path d="m48.32305297 34.12446917-17.36300304-3.25713022 6.45551513 16.44412316 17.2230438 3.14136432z" fill="#f7f4a3" stroke="#b5b5b6" stroke-width=".5"/><path d="m46.38758115 36.56792643-12.11809944-2.96322349 5.18321905 11.34739219 12.01643572 2.87913335z" fill="#eae83f" stroke="#eeec6a" stroke-width="3"/><path d="m18.57631797 48.73800227 11.50225904-13.4082366-17.46878597-2.63142149-11.33202321 13.3449113z" fill="#f7f4a3" stroke="#b5b5b6" stroke-width=".5"/><path d="m17.42795782 45.84010588 8.62527654-9.01297021-12.41873943-1.18489673-8.50162048 8.96697192z" fill="#eae83f" stroke="#eeec6a" stroke-width="3"/><path d="m20.79399456 15.66980754 5.860744 16.66536682 11.01327085-13.81270167-5.8910206-16.48627563z" fill="#f7f4a3" stroke="#b5b5b6" stroke-width=".5"/><path d="m23.87782653 16.12424667 3.4928229 11.9761937 7.23552038-10.16249547-3.51481524-11.84610526z" fill="#eae83f" stroke="#eeec6a" stroke-width="3"/><path d="m48.32305297 34.12446917-17.36300304-3.25713022 6.45551513 16.44412316 17.2230438 3.14136432z" fill="#f7f4a3" stroke="#b5b5b6" stroke-width=".5"/><path d="m46.38758115 36.56792643-12.11809944-2.96322349 5.18321905 11.34739219 12.01643572 2.87913335z" fill="#eae83f" stroke="#eeec6a" stroke-width="3"/><path d="m18.57631797 48.73800227 11.50225904-13.4082366-17.46878597-2.63142149-11.33202321 13.3449113z" fill="#f7f4a3" stroke="#b5b5b6" stroke-width=".5"/><path d="m17.42795782 45.84010588 8.62527654-9.01297021-12.41873943-1.18489673-8.50162048 8.96697192z" fill="#eae83f" stroke="#eeec6a" stroke-width="3"/><path d="m20.79399456 15.66980754 5.860744 16.66536682 11.01327085-13.81270167-5.8910206-16.48627563z" fill="#f7f4a3" stroke="#b5b5b6" stroke-width=".5"/><path d="m23.87782653 16.12424667 3.4928229 11.9761937 7.23552038-10.16249547-3.51481524-11.84610526z" fill="#eae83f" stroke="#eeec6a" stroke-width="3"/><path d="m48.32305297 34.12446917-17.36300304-3.25713022 6.45551513 16.44412316 17.2230438 3.14136432z" fill="#f7f4a3" stroke="#b5b5b6" stroke-width=".5"/><path d="m46.38758115 36.56792643-12.11809944-2.96322349 5.18321905 11.34739219 12.01643572 2.87913335z" fill="#eae83f" stroke="#eeec6a" stroke-width="3"/><path d="m18.57631797 48.73800227 11.50225904-13.4082366-17.46878597-2.63142149-11.33202321 13.3449113z" fill="#f7f4a3" stroke="#b5b5b6" stroke-width=".5"/><path d="m17.42795782 45.84010588 8.62527654-9.01297021-12.41873943-1.18489673-8.50162048 8.96697192z" fill="#eae83f" stroke="#eeec6a" stroke-width="3"/><path d="m20.79399456 15.66980754 5.860744 16.66536682 11.01327085-13.81270167-5.8910206-16.48627563z" fill="#f7f4a3" stroke="#b5b5b6" stroke-width=".5"/><path d="m23.87782653 16.12424667 3.4928229 11.9761937 7.23552038-10.16249547-3.51481524-11.84610526z" fill="#eae83f" stroke="#eeec6a" stroke-width="3"/><path d="m48.32305297 34.12446917-17.36300304-3.25713022 6.45551513 16.44412316 17.2230438 3.14136432z" fill="#f7f4a3" stroke="#b5b5b6" stroke-width=".5"/><path d="m46.38758115 36.56792643-12.11809944-2.96322349 5.18321905 11.34739219 12.01643572 2.87913335z" fill="#eae83f" stroke="#eeec6a" stroke-width="3"/><path d="m18.57631797 48.73800227 11.50225904-13.4082366-17.46878597-2.63142149-11.33202321 13.3449113z" fill="#f7f4a3" stroke="#b5b5b6" stroke-width=".5"/><path d="m17.42795782 45.84010588 8.62527654-9.01297021-12.41873943-1.18489673-8.50162048 8.96697192z" fill="#eae83f" stroke="#eeec6a" stroke-width="3"/><path d="m20.79399456 15.66980754 5.860744 16.66536682 11.01327085-13.81270167-5.8910206-16.48627563z" fill="#f7f4a3" stroke="#b5b5b6" stroke-width=".5"/><path d="m23.87782653 16.12424667 3.4928229 11.9761937 7.23552038-10.16249547-3.51481524-11.84610526z" fill="#eae83f" stroke="#eeec6a" stroke-width="3"/><path d="m48.32305297 34.12446917-17.36300304-3.25713022 6.45551513 16.44412316 17.2230438 3.14136432z" fill="#f7f4a3" stroke="#b5b5b6" stroke-width=".5"/><path d="m46.38758115 36.56792643-12.11809944-2.96322349 5.18321905 11.34739219 12.01643572 2.87913335z" fill="#eae83f" stroke="#eeec6a" stroke-width="3"/><path d="m18.57631797 48.73800227 11.50225904-13.4082366-17.46878597-2.63142149-11.33202321 13.3449113z" fill="#f7f4a3" stroke="#b5b5b6" stroke-width=".5"/><path d="m17.42795782 45.84010588 8.62527654-9.01297021-12.41873943-1.18489673-8.50162048 8.96697192z" fill="#eae83f" stroke="#eeec6a" stroke-width="3"/><path d="m20.79399456 15.66980754 5.860744 16.66536682 11.01327085-13.81270167-5.8910206-16.48627563z" fill="#f7f4a3" stroke="#b5b5b6" stroke-width=".5"/><path d="m23.87782653 16.12424667 3.4928229 11.9761937 7.23552038-10.16249547-3.51481524-11.84610526z" fill="#eae83f" stroke="#eeec6a" stroke-width="3"/><path d="m48.32305297 34.12446917-17.36300304-3.25713022 6.45551513 16.44412316 17.2230438 3.14136432z" fill="#f7f4a3" stroke="#b5b5b6" stroke-width=".5"/><path d="m46.38758115 36.56792643-12.11809944-2.96322349 5.18321905 11.34739219 12.01643572 2.87913335z" fill="#eae83f" stroke="#eeec6a" stroke-width="3"/><path d="m18.57631797 48.73800227 11.50225904-13.4082366-17.46878597-2.63142149-11.33202321 13.3449113z" fill="#f7f4a3" stroke="#b5b5b6" stroke-width=".5"/><path d="m17.42795782 45.84010588 8.62527654-9.01297021-12.41873943-1.18489673-8.50162048 8.96697192z" fill="#eae83f" stroke="#eeec6a" stroke-width="3"/><path d="m20.79399456 15.66980754 5.860744 16.66536682 11.01327085-13.81270167-5.8910206-16.48627563z" fill="#f7f4a3" stroke="#b5b5b6" stroke-width=".5"/><path d="m23.87782653 16.12424667 3.4928229 11.9761937 7.23552038-10.16249547-3.51481524-11.84610526z" fill="#eae83f" stroke="#eeec6a" stroke-width="3"/><path d="m48.32305297 34.12446917-17.36300304-3.25713022 6.45551513 16.44412316 17.2230438 3.14136432z" fill="#f7f4a3" stroke="#b5b5b6" stroke-width=".5"/><path d="m46.38758115 36.56792643-12.11809944-2.96322349 5.18321905 11.34739219 12.01643572 2.87913335z" fill="#eae83f" stroke="#eeec6a" stroke-width="3"/><path d="m18.57631797 48.73800227 11.50225904-13.4082366-17.46878597-2.63142149-11.33202321 13.3449113z" fill="#f7f4a3" stroke="#b5b5b6" stroke-width=".5"/><path d="m17.42795782 45.84010588 8.62527654-9.01297021-12.41873943-1.18489673-8.50162048 8.96697192z" fill="#eae83f" stroke="#eeec6a" stroke-width="3"/><path d="m20.79399456 15.66980754 5.860744 16.66536682 11.01327085-13.81270167-5.8910206-16.48627563z" fill="#f7f4a3" stroke="#b5b5b6" stroke-width=".5"/><path d="m23.87782653 16.12424667 3.4928229 11.9761937 7.23552038-10.16249547-3.51481524-11.84610526z" fill="#eae83f" stroke="#eeec6a" stroke-width="3"/><path d="m48.32305297 34.12446917-17.36300304-3.25713022 6.45551513 16.44412316 17.2230438 3.14136432z" fill="#f7f4a3" stroke="#b5b5b6" stroke-width=".5"/><path d="m46.38758115 36.56792643-12.11809944-2.96322349 5.18321905 11.34739219 12.01643572 2.87913335z" fill="#eae83f" stroke="#eeec6a" stroke-width="3"/><path d="m18.57631797 48.73800227 11.50225904-13.4082366-17.46878597-2.63142149-11.33202321 13.3449113z" fill="#f7f4a3" stroke="#b5b5b6" stroke-width=".5"/><path d="m17.42795782 45.84010588 8.62527654-9.01297021-12.41873943-1.18489673-8.50162048 8.96697192z" fill="#eae83f" stroke="#eeec6a" stroke-width="3"/><path d="m20.79399456 15.66980754 5.860744 16.66536682 11.01327085-13.81270167-5.8910206-16.48627563z" fill="#f7f4a3" stroke="#b5b5b6" stroke-width=".5"/><path d="m23.87782653 16.12424667 3.4928229 11.9761937 7.23552038-10.16249547-3.51481524-11.84610526z" fill="#eae83f" stroke="#eeec6a" stroke-width="3"/><path d="m48.32305297 34.12446917-17.36300304-3.25713022 6.45551513 16.44412316 17.2230438 3.14136432z" fill="#f7f4a3" stroke="#b5b5b6" stroke-width=".5"/><path d="m46.38758115 36.56792643-12.11809944-2.96322349 5.18321905 11.34739219 12.01643572 2.87913335z" fill="#eae83f" stroke="#eeec6a" stroke-width="3"/><path d="m18.57631797 48.73800227 11.50225904-13.4082366-17.46878597-2.63142149-11.33202321 13.3449113z" fill="#f7f4a3" stroke="#b5b5b6" stroke-width=".5"/><path d="m17.42795782 45.84010588 8.62527654-9.01297021-12.41873943-1.18489673-8.50162048 8.96697192z" fill="#eae83f" stroke="#eeec6a" stroke-width="3"/><path d="m20.79399456 15.66980754 5.860744 16.66536682 11.01327085-13.81270167-5.8910206-16.48627563z" fill="#f7f4a3" stroke="#b5b5b6" stroke-width=".5"/><path d="m23.87782653 16.12424667 3.4928229 11.9761937 7.23552038-10.16249547-3.51481524-11.84610526z" fill="#eae83f" stroke="#eeec6a" stroke-width="3"/><path d="m48.32305297 34.12446917-17.36300304-3.25713022 6.45551513 16.44412316 17.2230438 3.14136432z" fill="#f7f4a3" stroke="#b5b5b6" stroke-width=".5"/><path d="m46.38758115 36.56792643-12.11809944-2.96322349 5.18321905 11.34739219 12.01643572 2.87913335z" fill="#eae83f" stroke="#eeec6a" stroke-width="3"/><path d="m18.57631797 48.73800227 11.50225904-13.4082366-17.46878597-2.63142149-11.33202321 13.3449113z" fill="#f7f4a3" stroke="#b5b5b6" stroke-width=".5"/><path d="m17.42795782 45.84010588 8.62527654-9.01297021-12.41873943-1.18489673-8.50162048 8.96697192z" fill="#eae83f" stroke="#eeec6a" stroke-width="3"/><path d="m20.79399456 15.66980754 5.860744 16.66536682 11.01327085-13.81270167-5.8910206-16.48627563z" fill="#f7f4a3" stroke="#b5b5b6" stroke-width=".5"/><path d="m23.87782653 16.12424667 3.4928229 11.9761937 7.23552038-10.16249547-3.51481524-11.84610526z" fill="#eae83f" stroke="#eeec6a" stroke-width="3"/><path d="m48.32305297 34.12446917-17.36300304-3.25713022 6.45551513 16.44412316 17.2230438 3.14136432z" fill="#f7f4a3" stroke="#b5b5b6" stroke-width=".5"/><path d="m46.38758115 36.56792643-12.11809944-2.96322349 5.18321905 11.34739219 12.01643572 2.87913335z" fill="#eae83f" stroke="#eeec6a" stroke-width="3"/><path d="m18.57631797 48.73800227 11.50225904-13.4082366-17.46878597-2.63142149-11.33202321 13.3449113z" fill="#f7f4a3" stroke="#b5b5b6" stroke-width=".5"/><path d="m17.42795782 45.84010588 8.62527654-9.01297021-12.41873943-1.18489673-8.50162048 8.96697192z" fill="#eae83f" stroke="#eeec6a" stroke-width="3"/><path d="m20.79399456 15.66980754 5.860744 16.66536682 11.01327085-13.81270167-5.8910206-16.48627563z" fill="#f7f4a3" stroke="#b5b5b6" stroke-width=".5"/><path d="m23.87782653 16.12424667 3.4928229 11.9761937 7.23552038-10.16249547-3.51481524-11.84610526z" fill="#eae83f" stroke="#eeec6a" stroke-width="3"/><path d="m48.32305297 34.12446917-17.36300304-3.25713022 6.45551513 16.44412316 17.2230438 3.14136432z" fill="#f7f4a3" stroke="#b5b5b6" stroke-width=".5"/><path d="m46.38758115 36.56792643-12.11809944-2.96322349 5.18321905 11.34739219 12.01643572 2.87913335z" fill="#eae83f" stroke="#eeec6a" stroke-width="3"/><path d="m18.57631797 48.73800227 11.50225904-13.4082366-17.46878597-2.63142149-11.33202321 13.3449113z" fill="#f7f4a3" stroke="#b5b5b6" stroke-width=".5"/><path d="m17.42795782 45.84010588 8.62527654-9.01297021-12.41873943-1.18489673-8.50162048 8.96697192z" fill="#eae83f" stroke="#eeec6a" stroke-width="3"/><path d="m20.79399456 15.66980754 5.860744 16.66536682 11.01327085-13.81270167-5.8910206-16.48627563z" fill="#f7f4a3" stroke="#b5b5b6" stroke-width=".5"/><path d="m23.87782653 16.12424667 3.4928229 11.9761937 7.23552038-10.16249547-3.51481524-11.84610526z" fill="#eae83f" stroke="#eeec6a" stroke-width="3"/><path d="m48.32305297 34.12446917-17.36300304-3.25713022 6.45551513 16.44412316 17.2230438 3.14136432z" fill="#f7f4a3" stroke="#b5b5b6" stroke-width=".5"/><path d="m46.38758115 36.56792643-12.11809944-2.96322349 5.18321905 11.34739219 12.01643572 2.87913335z" fill="#eae83f" stroke="#eeec6a" stroke-width="3"/><path d="m18.57631797 48.73800227 11.50225904-13.4082366-17.46878597-2.63142149-11.33202321 13.3449113z" fill="#f7f4a3" stroke="#b5b5b6" stroke-width=".5"/><path d="m17.42795782 45.84010588 8.62527654-9.01297021-12.41873943-1.18489673-8.50162048 8.96697192z" fill="#eae83f" stroke="#eeec6a" stroke-width="3"/><path d="m20.79399456 15.66980754 5.860744 16.66536682 11.01327085-13.81270167-5.8910206-16.48627563z" fill="#f7f4a3" stroke="#b5b5b6" stroke-width=".5"/><path d="m23.87782653 16.12424667 3.4928229 11.9761937 7.23552038-10.16249547-3.51481524-11.84610526z" fill="#eae83f" stroke="#eeec6a" stroke-width="3"/><path d="m48.32305297 34.12446917-17.36300304-3.25713022 6.45551513 16.44412316 17.2230438 3.14136432z" fill="#f7f4a3" stroke="#b5b5b6" stroke-width=".5"/><path d="m46.38758115 36.56792643-12.11809944-2.96322349 5.18321905 11.34739219 12.01643572 2.87913335z" fill="#eae83f" stroke="#eeec6a" stroke-width="3"/><path d="m18.57631797 48.73800227 11.50225904-13.4082366-17.46878597-2.63142149-11.33202321 13.3449113z" fill="#f7f4a3" stroke="#b5b5b6" stroke-width=".5"/><path d="m17.42795782 45.84010588 8.62527654-9.01297021-12.41873943-1.18489673-8.50162048 8.96697192z" fill="#eae83f" stroke="#eeec6a" stroke-width="3"/><path d="m20.79399456 15.66980754 5.860744 16.66536682 11.01327085-13.81270167-5.8910206-16.48627563z" fill="#f7f4a3" stroke="#b5b5b6" stroke-width=".5"/><path d="m23.87782653 16.12424667 3.4928229 11.9761937 7.23552038-10.16249547-3.51481524-11.84610526z" fill="#eae83f" stroke="#eeec6a" stroke-width="3"/><path d="m48.32305297 34.12446917-17.36300304-3.25713022 6.45551513 16.44412316 17.2230438 3.14136432z" fill="#f7f4a3" stroke="#b5b5b6" stroke-width=".5"/><path d="m46.38758115 36.56792643-12.11809944-2.96322349 5.18321905 11.34739219 12.01643572 2.87913335z" fill="#eae83f" stroke="#eeec6a" stroke-width="3"/><path d="m18.57631797 48.73800227 11.50225904-13.4082366-17.46878597-2.63142149-11.33202321 13.3449113z" fill="#f7f4a3" stroke="#b5b5b6" stroke-width=".5"/><path d="m17.42795782 45.84010588 8.62527654-9.01297021-12.41873943-1.18489673-8.50162048 8.96697192z" fill="#eae83f" stroke="#eeec6a" stroke-width="3"/><path d="m20.79399456 15.66980754 5.860744 16.66536682 11.01327085-13.81270167-5.8910206-16.48627563z" fill="#f7f4a3" stroke="#b5b5b6" stroke-width=".5"/><path d="m23.87782653 16.12424667 3.4928229 11.9761937 7.23552038-10.16249547-3.51481524-11.84610526z" fill="#eae83f" stroke="#eeec6a" stroke-width="3"/><path d="m48.32305297 34.12446917-17.36300304-3.25713022 6.45551513 16.44412316 17.2230438 3.14136432z" fill="#f7f4a3" stroke="#b5b5b6" stroke-width=".5"/><path d="m46.38758115 36.56792643-12.11809944-2.96322349 5.18321905 11.34739219 12.01643572 2.87913335z" fill="#eae83f" stroke="#eeec6a" stroke-width="3"/><path d="m18.57631797 48.73800227 11.50225904-13.4082366-17.46878597-2.63142149-11.33202321 13.3449113z" fill="#f7f4a3" stroke="#b5b5b6" stroke-width=".5"/><path d="m17.42795782 45.84010588 8.62527654-9.01297021-12.41873943-1.18489673-8.50162048 8.96697192z" fill="#eae83f" stroke="#eeec6a" stroke-width="3"/><path d="m20.79399456 15.66980754 5.860744 16.66536682 11.01327085-13.81270167-5.8910206-16.48627563z" fill="#f7f4a3" stroke="#b5b5b6" stroke-width=".5"/><path d="m23.87782653 16.12424667 3.4928229 11.9761937 7.23552038-10.16249547-3.51481524-11.84610526z" fill="#eae83f" stroke="#eeec6a" stroke-width="3"/><path d="m48.32305297 34.12446917-17.36300304-3.25713022 6.45551513 16.44412316 17.2230438 3.14136432z" fill="#f7f4a3" stroke="#b5b5b6" stroke-width=".5"/><path d="m46.38758115 36.56792643-12.11809944-2.96322349 5.18321905 11.34739219 12.01643572 2.87913335z" fill="#eae83f" stroke="#eeec6a" stroke-width="3"/><path d="m18.57631797 48.73800227 11.50225904-13.4082366-17.46878597-2.63142149-11.33202321 13.3449113z" fill="#f7f4a3" stroke="#b5b5b6" stroke-width=".5"/><path d="m17.42795782 45.84010588 8.62527654-9.01297021-12.41873943-1.18489673-8.50162048 8.96697192z" fill="#eae83f" stroke="#eeec6a" stroke-width="3"/><path d="m20.79399456 15.66980754 5.860744 16.66536682 11.01327085-13.81270167-5.8910206-16.48627563z" fill="#f7f4a3" stroke="#b5b5b6" stroke-width=".5"/><path d="m23.87782653 16.12424667 3.4928229 11.9761937 7.23552038-10.16249547-3.51481524-11.84610526z" fill="#eae83f" stroke="#eeec6a" stroke-width="3"/><path d="m48.32305297 34.12446917-17.36300304-3.25713022 6.45551513 16.44412316 17.2230438 3.14136432z" fill="#f7f4a3" stroke="#b5b5b6" stroke-width=".5"/><path d="m46.38758115 36.56792643-12.11809944-2.96322349 5.18321905 11.34739219 12.01643572 2.87913335z" fill="#eae83f" stroke="#eeec6a" stroke-width="3"/><path d="m18.57631797 48.73800227 11.50225904-13.4082366-17.46878597-2.63142149-11.33202321 13.3449113z" fill="#f7f4a3" stroke="#b5b5b6" stroke-width=".5"/><path d="m17.42795782 45.84010588 8.62527654-9.01297021-12.41873943-1.18489673-8.50162048 8.96697192z" fill="#eae83f" stroke="#eeec6a" stroke-width="3"/><path d="m20.79399456 15.66980754 5.860744 16.66536682 11.01327085-13.81270167-5.8910206-16.48627563z" fill="#f7f4a3" stroke="#b5b5b6" stroke-width=".5"/><path d="m23.87782653 16.12424667 3.4928229 11.9761937 7.23552038-10.16249547-3.51481524-11.84610526z" fill="#eae83f" stroke="#eeec6a" stroke-width="3"/><path d="m48.32305297 34.12446917-17.36300304-3.25713022 6.45551513 16.44412316 17.2230438 3.14136432z" fill="#f7f4a3" stroke="#b5b5b6" stroke-width=".5"/><path d="m46.38758115 36.56792643-12.11809944-2.96322349 5.18321905 11.34739219 12.01643572 2.87913335z" fill="#eae83f" stroke="#eeec6a" stroke-width="3"/><path d="m18.57631797 48.73800227 11.50225904-13.4082366-17.46878597-2.63142149-11.33202321 13.3449113z" fill="#f7f4a3" stroke="#b5b5b6" stroke-width=".5"/><path d="m17.42795782 45.84010588 8.62527654-9.01297021-12.41873943-1.18489673-8.50162048 8.96697192z" fill="#eae83f" stroke="#eeec6a" stroke-width="3"/><path d="m20.79399456 15.66980754 5.860744 16.66536682 11.01327085-13.81270167-5.8910206-16.48627563z" fill="#f7f4a3" stroke="#b5b5b6" stroke-width=".5"/><path d="m23.87782653 16.12424667 3.4928229 11.9761937 7.23552038-10.16249547-3.51481524-11.84610526z" fill="#eae83f" stroke="#eeec6a" stroke-width="3"/><g fill="#fff" opacity=".2" stroke="#fff"><path d="m20.79399456 15.66980754 5.860744 16.66536682 11.01327085-13.81270167-5.8910206-16.48627563z" stroke-width=".5"/><path d="m23.87782653 16.12424667 3.4928229 11.9761937 7.23552038-10.16249547-3.51481524-11.84610526z" stroke-width="3"/><path d="m48.32305297 34.12446917-17.36300304-3.25713022 6.45551513 16.44412316 17.2230438 3.14136432z" stroke-width=".5"/><path d="m46.38758115 36.56792643-12.11809944-2.96322349 5.18321905 11.34739219 12.01643572 2.87913335z" stroke-width="3"/><path d="m18.57631797 48.73800227 11.50225904-13.4082366-17.46878597-2.63142149-11.33202321 13.3449113z" stroke-width=".5"/><path d="m17.42795782 45.84010588 8.62527654-9.01297021-12.41873943-1.18489673-8.50162048 8.96697192z" stroke-width="3"/><path d="m20.79399456 15.66980754 5.860744 16.66536682 11.01327085-13.81270167-5.8910206-16.48627563z" stroke-width=".5"/><path d="m23.87782653 16.12424667 3.4928229 11.9761937 7.23552038-10.16249547-3.51481524-11.84610526z" stroke-width="3"/><path d="m48.32305297 34.12446917-17.36300304-3.25713022 6.45551513 16.44412316 17.2230438 3.14136432z" stroke-width=".5"/><path d="m46.38758115 36.56792643-12.11809944-2.96322349 5.18321905 11.34739219 12.01643572 2.87913335z" stroke-width="3"/><path d="m18.57631797 48.73800227 11.50225904-13.4082366-17.46878597-2.63142149-11.33202321 13.3449113z" stroke-width=".5"/><path d="m17.42795782 45.84010588 8.62527654-9.01297021-12.41873943-1.18489673-8.50162048 8.96697192z" stroke-width="3"/><path d="m20.79399456 15.66980754 5.860744 16.66536682 11.01327085-13.81270167-5.8910206-16.48627563z" stroke-width=".5"/><path d="m23.87782653 16.12424667 3.4928229 11.9761937 7.23552038-10.16249547-3.51481524-11.84610526z" stroke-width="3"/><path d="m48.32305297 34.12446917-17.36300304-3.25713022 6.45551513 16.44412316 17.2230438 3.14136432z" stroke-width=".5"/><path d="m46.38758115 36.56792643-12.11809944-2.96322349 5.18321905 11.34739219 12.01643572 2.87913335z" stroke-width="3"/><path d="m18.57631797 48.73800227 11.50225904-13.4082366-17.46878597-2.63142149-11.33202321 13.3449113z" stroke-width=".5"/><path d="m17.42795782 45.84010588 8.62527654-9.01297021-12.41873943-1.18489673-8.50162048 8.96697192z" stroke-width="3"/><path d="m20.79399456 15.66980754 5.860744 16.66536682 11.01327085-13.81270167-5.8910206-16.48627563z" stroke-width=".5"/><path d="m23.87782653 16.12424667 3.4928229 11.9761937 7.23552038-10.16249547-3.51481524-11.84610526z" stroke-width="3"/><path d="m48.32305297 34.12446917-17.36300304-3.25713022 6.45551513 16.44412316 17.2230438 3.14136432z" stroke-width=".5"/><path d="m46.38758115 36.56792643-12.11809944-2.96322349 5.18321905 11.34739219 12.01643572 2.87913335z" stroke-width="3"/><path d="m18.57631797 48.73800227 11.50225904-13.4082366-17.46878597-2.63142149-11.33202321 13.3449113z" stroke-width=".5"/><path d="m17.42795782 45.84010588 8.62527654-9.01297021-12.41873943-1.18489673-8.50162048 8.96697192z" stroke-width="3"/><path d="m20.79399456 15.66980754 5.860744 16.66536682 11.01327085-13.81270167-5.8910206-16.48627563z" stroke-width=".5"/><path d="m23.87782653 16.12424667 3.4928229 11.9761937 7.23552038-10.16249547-3.51481524-11.84610526z" stroke-width="3"/><path d="m48.32305297 34.12446917-17.36300304-3.25713022 6.45551513 16.44412316 17.2230438 3.14136432z" stroke-width=".5"/><path d="m46.38758115 36.56792643-12.11809944-2.96322349 5.18321905 11.34739219 12.01643572 2.87913335z" stroke-width="3"/><path d="m18.57631797 48.73800227 11.50225904-13.4082366-17.46878597-2.63142149-11.33202321 13.3449113z" stroke-width=".5"/><path d="m17.42795782 45.84010588 8.62527654-9.01297021-12.41873943-1.18489673-8.50162048 8.96697192z" stroke-width="3"/><path d="m20.79399456 15.66980754 5.860744 16.66536682 11.01327085-13.81270167-5.8910206-16.48627563z" stroke-width=".5"/><path d="m23.87782653 16.12424667 3.4928229 11.9761937 7.23552038-10.16249547-3.51481524-11.84610526z" stroke-width="3"/><path d="m48.32305297 34.12446917-17.36300304-3.25713022 6.45551513 16.44412316 17.2230438 3.14136432z" stroke-width=".5"/><path d="m46.38758115 36.56792643-12.11809944-2.96322349 5.18321905 11.34739219 12.01643572 2.87913335z" stroke-width="3"/><path d="m18.57631797 48.73800227 11.50225904-13.4082366-17.46878597-2.63142149-11.33202321 13.3449113z" stroke-width=".5"/><path d="m17.42795782 45.84010588 8.62527654-9.01297021-12.41873943-1.18489673-8.50162048 8.96697192z" stroke-width="3"/><path d="m20.79399456 15.66980754 5.860744 16.66536682 11.01327085-13.81270167-5.8910206-16.48627563z" stroke-width=".5"/><path d="m23.87782653 16.12424667 3.4928229 11.9761937 7.23552038-10.16249547-3.51481524-11.84610526z" stroke-width="3"/><path d="m48.32305297 34.12446917-17.36300304-3.25713022 6.45551513 16.44412316 17.2230438 3.14136432z" stroke-width=".5"/><path d="m46.38758115 36.56792643-12.11809944-2.96322349 5.18321905 11.34739219 12.01643572 2.87913335z" stroke-width="3"/><path d="m18.57631797 48.73800227 11.50225904-13.4082366-17.46878597-2.63142149-11.33202321 13.3449113z" stroke-width=".5"/><path d="m17.42795782 45.84010588 8.62527654-9.01297021-12.41873943-1.18489673-8.50162048 8.96697192z" stroke-width="3"/><path d="m20.79399456 15.66980754 5.860744 16.66536682 11.01327085-13.81270167-5.8910206-16.48627563z" stroke-width=".5"/><path d="m23.87782653 16.12424667 3.4928229 11.9761937 7.23552038-10.16249547-3.51481524-11.84610526z" stroke-width="3"/><path d="m48.32305297 34.12446917-17.36300304-3.25713022 6.45551513 16.44412316 17.2230438 3.14136432z" stroke-width=".5"/><path d="m46.38758115 36.56792643-12.11809944-2.96322349 5.18321905 11.34739219 12.01643572 2.87913335z" stroke-width="3"/><path d="m18.57631797 48.73800227 11.50225904-13.4082366-17.46878597-2.63142149-11.33202321 13.3449113z" stroke-width=".5"/><path d="m17.42795782 45.84010588 8.62527654-9.01297021-12.41873943-1.18489673-8.50162048 8.96697192z" stroke-width="3"/><path d="m20.79399456 15.66980754 5.860744 16.66536682 11.01327085-13.81270167-5.8910206-16.48627563z" stroke-width=".5"/><path d="m23.87782653 16.12424667 3.4928229 11.9761937 7.23552038-10.16249547-3.51481524-11.84610526z" stroke-width="3"/><path d="m48.32305297 34.12446917-17.36300304-3.25713022 6.45551513 16.44412316 17.2230438 3.14136432z" stroke-width=".5"/><path d="m46.38758115 36.56792643-12.11809944-2.96322349 5.18321905 11.34739219 12.01643572 2.87913335z" stroke-width="3"/><path d="m18.57631797 48.73800227 11.50225904-13.4082366-17.46878597-2.63142149-11.33202321 13.3449113z" stroke-width=".5"/><path d="m17.42795782 45.84010588 8.62527654-9.01297021-12.41873943-1.18489673-8.50162048 8.96697192z" stroke-width="3"/><path d="m20.79399456 15.66980754 5.860744 16.66536682 11.01327085-13.81270167-5.8910206-16.48627563z" stroke-width=".5"/><path d="m23.87782653 16.12424667 3.4928229 11.9761937 7.23552038-10.16249547-3.51481524-11.84610526z" stroke-width="3"/><path d="m48.32305297 34.12446917-17.36300304-3.25713022 6.45551513 16.44412316 17.2230438 3.14136432z" stroke-width=".5"/><path d="m46.38758115 36.56792643-12.11809944-2.96322349 5.18321905 11.34739219 12.01643572 2.87913335z" stroke-width="3"/><path d="m18.57631797 48.73800227 11.50225904-13.4082366-17.46878597-2.63142149-11.33202321 13.3449113z" stroke-width=".5"/><path d="m17.42795782 45.84010588 8.62527654-9.01297021-12.41873943-1.18489673-8.50162048 8.96697192z" stroke-width="3"/><path d="m20.79399456 15.66980754 5.860744 16.66536682 11.01327085-13.81270167-5.8910206-16.48627563z" stroke-width=".5"/><path d="m23.87782653 16.12424667 3.4928229 11.9761937 7.23552038-10.16249547-3.51481524-11.84610526z" stroke-width="3"/><path d="m48.32305297 34.12446917-17.36300304-3.25713022 6.45551513 16.44412316 17.2230438 3.14136432z" stroke-width=".5"/><path d="m46.38758115 36.56792643-12.11809944-2.96322349 5.18321905 11.34739219 12.01643572 2.87913335z" stroke-width="3"/><path d="m18.57631797 48.73800227 11.50225904-13.4082366-17.46878597-2.63142149-11.33202321 13.3449113z" stroke-width=".5"/><path d="m17.42795782 45.84010588 8.62527654-9.01297021-12.41873943-1.18489673-8.50162048 8.96697192z" stroke-width="3"/><path d="m20.79399456 15.66980754 5.860744 16.66536682 11.01327085-13.81270167-5.8910206-16.48627563z" stroke-width=".5"/><path d="m23.87782653 16.12424667 3.4928229 11.9761937 7.23552038-10.16249547-3.51481524-11.84610526z" stroke-width="3"/><path d="m48.32305297 34.12446917-17.36300304-3.25713022 6.45551513 16.44412316 17.2230438 3.14136432z" stroke-width=".5"/><path d="m46.38758115 36.56792643-12.11809944-2.96322349 5.18321905 11.34739219 12.01643572 2.87913335z" stroke-width="3"/><path d="m18.57631797 48.73800227 11.50225904-13.4082366-17.46878597-2.63142149-11.33202321 13.3449113z" stroke-width=".5"/><path d="m17.42795782 45.84010588 8.62527654-9.01297021-12.41873943-1.18489673-8.50162048 8.96697192z" stroke-width="3"/><path d="m20.79399456 15.66980754 5.860744 16.66536682 11.01327085-13.81270167-5.8910206-16.48627563z" stroke-width=".5"/><path d="m23.87782653 16.12424667 3.4928229 11.9761937 7.23552038-10.16249547-3.51481524-11.84610526z" stroke-width="3"/><path d="m48.32305297 34.12446917-17.36300304-3.25713022 6.45551513 16.44412316 17.2230438 3.14136432z" stroke-width=".5"/><path d="m46.38758115 36.56792643-12.11809944-2.96322349 5.18321905 11.34739219 12.01643572 2.87913335z" stroke-width="3"/><path d="m18.57631797 48.73800227 11.50225904-13.4082366-17.46878597-2.63142149-11.33202321 13.3449113z" stroke-width=".5"/><path d="m17.42795782 45.84010588 8.62527654-9.01297021-12.41873943-1.18489673-8.50162048 8.96697192z" stroke-width="3"/><path d="m20.79399456 15.66980754 5.860744 16.66536682 11.01327085-13.81270167-5.8910206-16.48627563z" stroke-width=".5"/><path d="m23.87782653 16.12424667 3.4928229 11.9761937 7.23552038-10.16249547-3.51481524-11.84610526z" stroke-width="3"/><path d="m48.32305297 34.12446917-17.36300304-3.25713022 6.45551513 16.44412316 17.2230438 3.14136432z" stroke-width=".5"/><path d="m46.38758115 36.56792643-12.11809944-2.96322349 5.18321905 11.34739219 12.01643572 2.87913335z" stroke-width="3"/><path d="m18.57631797 48.73800227 11.50225904-13.4082366-17.46878597-2.63142149-11.33202321 13.3449113z" stroke-width=".5"/><path d="m17.42795782 45.84010588 8.62527654-9.01297021-12.41873943-1.18489673-8.50162048 8.96697192z" stroke-width="3"/><path d="m20.79399456 15.66980754 5.860744 16.66536682 11.01327085-13.81270167-5.8910206-16.48627563z" stroke-width=".5"/><path d="m23.87782653 16.12424667 3.4928229 11.9761937 7.23552038-10.16249547-3.51481524-11.84610526z" stroke-width="3"/><path d="m48.32305297 34.12446917-17.36300304-3.25713022 6.45551513 16.44412316 17.2230438 3.14136432z" stroke-width=".5"/><path d="m46.38758115 36.56792643-12.11809944-2.96322349 5.18321905 11.34739219 12.01643572 2.87913335z" stroke-width="3"/><path d="m18.57631797 48.73800227 11.50225904-13.4082366-17.46878597-2.63142149-11.33202321 13.3449113z" stroke-width=".5"/><path d="m17.42795782 45.84010588 8.62527654-9.01297021-12.41873943-1.18489673-8.50162048 8.96697192z" stroke-width="3"/><path d="m20.79399456 15.66980754 5.860744 16.66536682 11.01327085-13.81270167-5.8910206-16.48627563z" stroke-width=".5"/><path d="m23.87782653 16.12424667 3.4928229 11.9761937 7.23552038-10.16249547-3.51481524-11.84610526z" stroke-width="3"/><path d="m48.32305297 34.12446917-17.36300304-3.25713022 6.45551513 16.44412316 17.2230438 3.14136432z" stroke-width=".5"/><path d="m46.38758115 36.56792643-12.11809944-2.96322349 5.18321905 11.34739219 12.01643572 2.87913335z" stroke-width="3"/><path d="m18.57631797 48.73800227 11.50225904-13.4082366-17.46878597-2.63142149-11.33202321 13.3449113z" stroke-width=".5"/><path d="m17.42795782 45.84010588 8.62527654-9.01297021-12.41873943-1.18489673-8.50162048 8.96697192z" stroke-width="3"/><path d="m20.79399456 15.66980754 5.860744 16.66536682 11.01327085-13.81270167-5.8910206-16.48627563z" stroke-width=".5"/><path d="m23.87782653 16.12424667 3.4928229 11.9761937 7.23552038-10.16249547-3.51481524-11.84610526z" stroke-width="3"/><path d="m48.32305297 34.12446917-17.36300304-3.25713022 6.45551513 16.44412316 17.2230438 3.14136432z" stroke-width=".5"/><path d="m46.38758115 36.56792643-12.11809944-2.96322349 5.18321905 11.34739219 12.01643572 2.87913335z" stroke-width="3"/><path d="m18.57631797 48.73800227 11.50225904-13.4082366-17.46878597-2.63142149-11.33202321 13.3449113z" stroke-width=".5"/><path d="m17.42795782 45.84010588 8.62527654-9.01297021-12.41873943-1.18489673-8.50162048 8.96697192z" stroke-width="3"/><path d="m20.79399456 15.66980754 5.860744 16.66536682 11.01327085-13.81270167-5.8910206-16.48627563z" stroke-width=".5"/><path d="m23.87782653 16.12424667 3.4928229 11.9761937 7.23552038-10.16249547-3.51481524-11.84610526z" stroke-width="3"/><path d="m48.32305297 34.12446917-17.36300304-3.25713022 6.45551513 16.44412316 17.2230438 3.14136432z" stroke-width=".5"/><path d="m46.38758115 36.56792643-12.11809944-2.96322349 5.18321905 11.34739219 12.01643572 2.87913335z" stroke-width="3"/><path d="m18.57631797 48.73800227 11.50225904-13.4082366-17.46878597-2.63142149-11.33202321 13.3449113z" stroke-width=".5"/><path d="m17.42795782 45.84010588 8.62527654-9.01297021-12.41873943-1.18489673-8.50162048 8.96697192z" stroke-width="3"/><path d="m20.79399456 15.66980754 5.860744 16.66536682 11.01327085-13.81270167-5.8910206-16.48627563z" stroke-width=".5"/><path d="m23.87782653 16.12424667 3.4928229 11.9761937 7.23552038-10.16249547-3.51481524-11.84610526z" stroke-width="3"/><path d="m48.32305297 34.12446917-17.36300304-3.25713022 6.45551513 16.44412316 17.2230438 3.14136432z" stroke-width=".5"/><path d="m46.38758115 36.56792643-12.11809944-2.96322349 5.18321905 11.34739219 12.01643572 2.87913335z" stroke-width="3"/><path d="m18.57631797 48.73800227 11.50225904-13.4082366-17.46878597-2.63142149-11.33202321 13.3449113z" stroke-width=".5"/><path d="m17.42795782 45.84010588 8.62527654-9.01297021-12.41873943-1.18489673-8.50162048 8.96697192z" stroke-width="3"/><path d="m20.79399456 15.66980754 5.860744 16.66536682 11.01327085-13.81270167-5.8910206-16.48627563z" stroke-width=".5"/><path d="m23.87782653 16.12424667 3.4928229 11.9761937 7.23552038-10.16249547-3.51481524-11.84610526z" stroke-width="3"/><path d="m48.32305297 34.12446917-17.36300304-3.25713022 6.45551513 16.44412316 17.2230438 3.14136432z" stroke-width=".5"/><path d="m46.38758115 36.56792643-12.11809944-2.96322349 5.18321905 11.34739219 12.01643572 2.87913335z" stroke-width="3"/><path d="m18.57631797 48.73800227 11.50225904-13.4082366-17.46878597-2.63142149-11.33202321 13.3449113z" stroke-width=".5"/><path d="m17.42795782 45.84010588 8.62527654-9.01297021-12.41873943-1.18489673-8.50162048 8.96697192z" stroke-width="3"/><path d="m20.79399456 15.66980754 5.860744 16.66536682 11.01327085-13.81270167-5.8910206-16.48627563z" stroke-width=".5"/><path d="m23.87782653 16.12424667 3.4928229 11.9761937 7.23552038-10.16249547-3.51481524-11.84610526z" stroke-width="3"/><path d="m48.32305297 34.12446917-17.36300304-3.25713022 6.45551513 16.44412316 17.2230438 3.14136432z" stroke-width=".5"/><path d="m46.38758115 36.56792643-12.11809944-2.96322349 5.18321905 11.34739219 12.01643572 2.87913335z" stroke-width="3"/><path d="m18.57631797 48.73800227 11.50225904-13.4082366-17.46878597-2.63142149-11.33202321 13.3449113z" stroke-width=".5"/><path d="m17.42795782 45.84010588 8.62527654-9.01297021-12.41873943-1.18489673-8.50162048 8.96697192z" stroke-width="3"/><path d="m20.79399456 15.66980754 5.860744 16.66536682 11.01327085-13.81270167-5.8910206-16.48627563z" stroke-width=".5"/><path d="m23.87782653 16.12424667 3.4928229 11.9761937 7.23552038-10.16249547-3.51481524-11.84610526z" stroke-width="3"/><path d="m48.32305297 34.12446917-17.36300304-3.25713022 6.45551513 16.44412316 17.2230438 3.14136432z" stroke-width=".5"/><path d="m46.38758115 36.56792643-12.11809944-2.96322349 5.18321905 11.34739219 12.01643572 2.87913335z" stroke-width="3"/><path d="m18.57631797 48.73800227 11.50225904-13.4082366-17.46878597-2.63142149-11.33202321 13.3449113z" stroke-width=".5"/><path d="m17.42795782 45.84010588 8.62527654-9.01297021-12.41873943-1.18489673-8.50162048 8.96697192z" stroke-width="3"/><path d="m20.79399456 15.66980754 5.860744 16.66536682 11.01327085-13.81270167-5.8910206-16.48627563z" stroke-width=".5"/><path d="m23.87782653 16.12424667 3.4928229 11.9761937 7.23552038-10.16249547-3.51481524-11.84610526z" stroke-width="3"/><path d="m48.32305297 34.12446917-17.36300304-3.25713022 6.45551513 16.44412316 17.2230438 3.14136432z" stroke-width=".5"/><path d="m46.38758115 36.56792643-12.11809944-2.96322349 5.18321905 11.34739219 12.01643572 2.87913335z" stroke-width="3"/><path d="m18.57631797 48.73800227 11.50225904-13.4082366-17.46878597-2.63142149-11.33202321 13.3449113z" stroke-width=".5"/><path d="m17.42795782 45.84010588 8.62527654-9.01297021-12.41873943-1.18489673-8.50162048 8.96697192z" stroke-width="3"/><path d="m20.79399456 15.66980754 5.860744 16.66536682 11.01327085-13.81270167-5.8910206-16.48627563z" stroke-width=".5"/><path d="m23.87782653 16.12424667 3.4928229 11.9761937 7.23552038-10.16249547-3.51481524-11.84610526z" stroke-width="3"/><path d="m48.32305297 34.12446917-17.36300304-3.25713022 6.45551513 16.44412316 17.2230438 3.14136432z" stroke-width=".5"/><path d="m46.38758115 36.56792643-12.11809944-2.96322349 5.18321905 11.34739219 12.01643572 2.87913335z" stroke-width="3"/><path d="m18.57631797 48.73800227 11.50225904-13.4082366-17.46878597-2.63142149-11.33202321 13.3449113z" stroke-width=".5"/><path d="m17.42795782 45.84010588 8.62527654-9.01297021-12.41873943-1.18489673-8.50162048 8.96697192z" stroke-width="3"/><path d="m20.79399456 15.66980754 5.860744 16.66536682 11.01327085-13.81270167-5.8910206-16.48627563z" stroke-width=".5"/><path d="m23.87782653 16.12424667 3.4928229 11.9761937 7.23552038-10.16249547-3.51481524-11.84610526z" stroke-width="3"/><path d="m48.32305297 34.12446917-17.36300304-3.25713022 6.45551513 16.44412316 17.2230438 3.14136432z" stroke-width=".5"/><path d="m46.38758115 36.56792643-12.11809944-2.96322349 5.18321905 11.34739219 12.01643572 2.87913335z" stroke-width="3"/><path d="m18.57631797 48.73800227 11.50225904-13.4082366-17.46878597-2.63142149-11.33202321 13.3449113z" stroke-width=".5"/><path d="m17.42795782 45.84010588 8.62527654-9.01297021-12.41873943-1.18489673-8.50162048 8.96697192z" stroke-width="3"/><path d="m20.79399456 15.66980754 5.860744 16.66536682 11.01327085-13.81270167-5.8910206-16.48627563z" stroke-width=".5"/><path d="m23.87782653 16.12424667 3.4928229 11.9761937 7.23552038-10.16249547-3.51481524-11.84610526z" stroke-width="3"/><path d="m48.32305297 34.12446917-17.36300304-3.25713022 6.45551513 16.44412316 17.2230438 3.14136432z" stroke-width=".5"/><path d="m46.38758115 36.56792643-12.11809944-2.96322349 5.18321905 11.34739219 12.01643572 2.87913335z" stroke-width="3"/><path d="m18.57631797 48.73800227 11.50225904-13.4082366-17.46878597-2.63142149-11.33202321 13.3449113z" stroke-width=".5"/><path d="m17.42795782 45.84010588 8.62527654-9.01297021-12.41873943-1.18489673-8.50162048 8.96697192z" stroke-width="3"/><path d="m20.79399456 15.66980754 5.860744 16.66536682 11.01327085-13.81270167-5.8910206-16.48627563z" stroke-width=".5"/><path d="m23.87782653 16.12424667 3.4928229 11.9761937 7.23552038-10.16249547-3.51481524-11.84610526z" stroke-width="3"/><path d="m48.32305297 34.12446917-17.36300304-3.25713022 6.45551513 16.44412316 17.2230438 3.14136432z" stroke-width=".5"/><path d="m46.38758115 36.56792643-12.11809944-2.96322349 5.18321905 11.34739219 12.01643572 2.87913335z" stroke-width="3"/><path d="m18.57631797 48.73800227 11.50225904-13.4082366-17.46878597-2.63142149-11.33202321 13.3449113z" stroke-width=".5"/><path d="m17.42795782 45.84010588 8.62527654-9.01297021-12.41873943-1.18489673-8.50162048 8.96697192z" stroke-width="3"/><path d="m20.79399456 15.66980754 5.860744 16.66536682 11.01327085-13.81270167-5.8910206-16.48627563z" stroke-width=".5"/><path d="m23.87782653 16.12424667 3.4928229 11.9761937 7.23552038-10.16249547-3.51481524-11.84610526z" stroke-width="3"/><path d="m48.32305297 34.12446917-17.36300304-3.25713022 6.45551513 16.44412316 17.2230438 3.14136432z" stroke-width=".5"/><path d="m46.38758115 36.56792643-12.11809944-2.96322349 5.18321905 11.34739219 12.01643572 2.87913335z" stroke-width="3"/><path d="m18.57631797 48.73800227 11.50225904-13.4082366-17.46878597-2.63142149-11.33202321 13.3449113z" stroke-width=".5"/><path d="m17.42795782 45.84010588 8.62527654-9.01297021-12.41873943-1.18489673-8.50162048 8.96697192z" stroke-width="3"/><path d="m20.79399456 15.66980754 5.860744 16.66536682 11.01327085-13.81270167-5.8910206-16.48627563z" stroke-width=".5"/><path d="m23.87782653 16.12424667 3.4928229 11.9761937 7.23552038-10.16249547-3.51481524-11.84610526z" stroke-width="3"/><path d="m48.32305297 34.12446917-17.36300304-3.25713022 6.45551513 16.44412316 17.2230438 3.14136432z" stroke-width=".5"/><path d="m46.38758115 36.56792643-12.11809944-2.96322349 5.18321905 11.34739219 12.01643572 2.87913335z" stroke-width="3"/><path d="m18.57631797 48.73800227 11.50225904-13.4082366-17.46878597-2.63142149-11.33202321 13.3449113z" stroke-width=".5"/><path d="m17.42795782 45.84010588 8.62527654-9.01297021-12.41873943-1.18489673-8.50162048 8.96697192z" stroke-width="3"/><path d="m20.79399456 15.66980754 5.860744 16.66536682 11.01327085-13.81270167-5.8910206-16.48627563z" stroke-width=".5"/><path d="m23.87782653 16.12424667 3.4928229 11.9761937 7.23552038-10.16249547-3.51481524-11.84610526z" stroke-width="3"/><path d="m48.32305297 34.12446917-17.36300304-3.25713022 6.45551513 16.44412316 17.2230438 3.14136432z" stroke-width=".5"/><path d="m46.38758115 36.56792643-12.11809944-2.96322349 5.18321905 11.34739219 12.01643572 2.87913335z" stroke-width="3"/><path d="m18.57631797 48.73800227 11.50225904-13.4082366-17.46878597-2.63142149-11.33202321 13.3449113z" stroke-width=".5"/><path d="m17.42795782 45.84010588 8.62527654-9.01297021-12.41873943-1.18489673-8.50162048 8.96697192z" stroke-width="3"/><path d="m20.79399456 15.66980754 5.860744 16.66536682 11.01327085-13.81270167-5.8910206-16.48627563z" stroke-width=".5"/><path d="m23.87782653 16.12424667 3.4928229 11.9761937 7.23552038-10.16249547-3.51481524-11.84610526z" stroke-width="3"/><path d="m48.32305297 34.12446917-17.36300304-3.25713022 6.45551513 16.44412316 17.2230438 3.14136432z" stroke-width=".5"/><path d="m46.38758115 36.56792643-12.11809944-2.96322349 5.18321905 11.34739219 12.01643572 2.87913335z" stroke-width="3"/><path d="m18.57631797 48.73800227 11.50225904-13.4082366-17.46878597-2.63142149-11.33202321 13.3449113z" stroke-width=".5"/><path d="m17.42795782 45.84010588 8.62527654-9.01297021-12.41873943-1.18489673-8.50162048 8.96697192z" stroke-width="3"/><path d="m20.79399456 15.66980754 5.860744 16.66536682 11.01327085-13.81270167-5.8910206-16.48627563z" stroke-width=".5"/><path d="m23.87782653 16.12424667 3.4928229 11.9761937 7.23552038-10.16249547-3.51481524-11.84610526z" stroke-width="3"/><path d="m48.32305297 34.12446917-17.36300304-3.25713022 6.45551513 16.44412316 17.2230438 3.14136432z" stroke-width=".5"/><path d="m46.38758115 36.56792643-12.11809944-2.96322349 5.18321905 11.34739219 12.01643572 2.87913335z" stroke-width="3"/><path d="m18.57631797 48.73800227 11.50225904-13.4082366-17.46878597-2.63142149-11.33202321 13.3449113z" stroke-width=".5"/><path d="m17.42795782 45.84010588 8.62527654-9.01297021-12.41873943-1.18489673-8.50162048 8.96697192z" stroke-width="3"/><path d="m20.79399456 15.66980754 5.860744 16.66536682 11.01327085-13.81270167-5.8910206-16.48627563z" stroke-width=".5"/><path d="m23.87782653 16.12424667 3.4928229 11.9761937 7.23552038-10.16249547-3.51481524-11.84610526z" stroke-width="3"/><path d="m48.32305297 34.12446917-17.36300304-3.25713022 6.45551513 16.44412316 17.2230438 3.14136432z" stroke-width=".5"/><path d="m46.38758115 36.56792643-12.11809944-2.96322349 5.18321905 11.34739219 12.01643572 2.87913335z" stroke-width="3"/><path d="m18.57631797 48.73800227 11.50225904-13.4082366-17.46878597-2.63142149-11.33202321 13.3449113z" stroke-width=".5"/><path d="m17.42795782 45.84010588 8.62527654-9.01297021-12.41873943-1.18489673-8.50162048 8.96697192z" stroke-width="3"/><path d="m20.79399456 15.66980754 5.860744 16.66536682 11.01327085-13.81270167-5.8910206-16.48627563z" stroke-width=".5"/><path d="m23.87782653 16.12424667 3.4928229 11.9761937 7.23552038-10.16249547-3.51481524-11.84610526z" stroke-width="3"/><path d="m48.32305297 34.12446917-17.36300304-3.25713022 6.45551513 16.44412316 17.2230438 3.14136432z" stroke-width=".5"/><path d="m46.38758115 36.56792643-12.11809944-2.96322349 5.18321905 11.34739219 12.01643572 2.87913335z" stroke-width="3"/><path d="m18.57631797 48.73800227 11.50225904-13.4082366-17.46878597-2.63142149-11.33202321 13.3449113z" stroke-width=".5"/><path d="m17.42795782 45.84010588 8.62527654-9.01297021-12.41873943-1.18489673-8.50162048 8.96697192z" stroke-width="3"/><path d="m20.79399456 15.66980754 5.860744 16.66536682 11.01327085-13.81270167-5.8910206-16.48627563z" stroke-width=".5"/><path d="m23.87782653 16.12424667 3.4928229 11.9761937 7.23552038-10.16249547-3.51481524-11.84610526z" stroke-width="3"/><path d="m48.32305297 34.12446917-17.36300304-3.25713022 6.45551513 16.44412316 17.2230438 3.14136432z" stroke-width=".5"/><path d="m46.38758115 36.56792643-12.11809944-2.96322349 5.18321905 11.34739219 12.01643572 2.87913335z" stroke-width="3"/><path d="m18.57631797 48.73800227 11.50225904-13.4082366-17.46878597-2.63142149-11.33202321 13.3449113z" stroke-width=".5"/><path d="m17.42795782 45.84010588 8.62527654-9.01297021-12.41873943-1.18489673-8.50162048 8.96697192z" stroke-width="3"/><path d="m20.79399456 15.66980754 5.860744 16.66536682 11.01327085-13.81270167-5.8910206-16.48627563z" stroke-width=".5"/><path d="m23.87782653 16.12424667 3.4928229 11.9761937 7.23552038-10.16249547-3.51481524-11.84610526z" stroke-width="3"/><path d="m48.32305297 34.12446917-17.36300304-3.25713022 6.45551513 16.44412316 17.2230438 3.14136432z" stroke-width=".5"/><path d="m46.38758115 36.56792643-12.11809944-2.96322349 5.18321905 11.34739219 12.01643572 2.87913335z" stroke-width="3"/><path d="m18.57631797 48.73800227 11.50225904-13.4082366-17.46878597-2.63142149-11.33202321 13.3449113z" stroke-width=".5"/><path d="m17.42795782 45.84010588 8.62527654-9.01297021-12.41873943-1.18489673-8.50162048 8.96697192z" stroke-width="3"/><path d="m20.79399456 15.66980754 5.860744 16.66536682 11.01327085-13.81270167-5.8910206-16.48627563z" stroke-width=".5"/><path d="m23.87782653 16.12424667 3.4928229 11.9761937 7.23552038-10.16249547-3.51481524-11.84610526z" stroke-width="3"/><path d="m48.32305297 34.12446917-17.36300304-3.25713022 6.45551513 16.44412316 17.2230438 3.14136432z" stroke-width=".5"/><path d="m46.38758115 36.56792643-12.11809944-2.96322349 5.18321905 11.34739219 12.01643572 2.87913335z" stroke-width="3"/><path d="m18.57631797 48.73800227 11.50225904-13.4082366-17.46878597-2.63142149-11.33202321 13.3449113z" stroke-width=".5"/><path d="m17.42795782 45.84010588 8.62527654-9.01297021-12.41873943-1.18489673-8.50162048 8.96697192z" stroke-width="3"/><path d="m20.79399456 15.66980754 5.860744 16.66536682 11.01327085-13.81270167-5.8910206-16.48627563z" stroke-width=".5"/><path d="m23.87782653 16.12424667 3.4928229 11.9761937 7.23552038-10.16249547-3.51481524-11.84610526z" stroke-width="3"/><path d="m48.32305297 34.12446917-17.36300304-3.25713022 6.45551513 16.44412316 17.2230438 3.14136432z" stroke-width=".5"/><path d="m46.38758115 36.56792643-12.11809944-2.96322349 5.18321905 11.34739219 12.01643572 2.87913335z" stroke-width="3"/><path d="m18.57631797 48.73800227 11.50225904-13.4082366-17.46878597-2.63142149-11.33202321 13.3449113z" stroke-width=".5"/><path d="m17.42795782 45.84010588 8.62527654-9.01297021-12.41873943-1.18489673-8.50162048 8.96697192z" stroke-width="3"/><path d="m20.79399456 15.66980754 5.860744 16.66536682 11.01327085-13.81270167-5.8910206-16.48627563z" stroke-width=".5"/><path d="m23.87782653 16.12424667 3.4928229 11.9761937 7.23552038-10.16249547-3.51481524-11.84610526z" stroke-width="3"/><path d="m48.32305297 34.12446917-17.36300304-3.25713022 6.45551513 16.44412316 17.2230438 3.14136432z" stroke-width=".5"/><path d="m46.38758115 36.56792643-12.11809944-2.96322349 5.18321905 11.34739219 12.01643572 2.87913335z" stroke-width="3"/><path d="m18.57631797 48.73800227 11.50225904-13.4082366-17.46878597-2.63142149-11.33202321 13.3449113z" stroke-width=".5"/><path d="m17.42795782 45.84010588 8.62527654-9.01297021-12.41873943-1.18489673-8.50162048 8.96697192z" stroke-width="3"/><path d="m20.79399456 15.66980754 5.860744 16.66536682 11.01327085-13.81270167-5.8910206-16.48627563z" stroke-width=".5"/><path d="m23.87782653 16.12424667 3.4928229 11.9761937 7.23552038-10.16249547-3.51481524-11.84610526z" stroke-width="3"/><path d="m48.32305297 34.12446917-17.36300304-3.25713022 6.45551513 16.44412316 17.2230438 3.14136432z" stroke-width=".5"/><path d="m46.38758115 36.56792643-12.11809944-2.96322349 5.18321905 11.34739219 12.01643572 2.87913335z" stroke-width="3"/><path d="m18.57631797 48.73800227 11.50225904-13.4082366-17.46878597-2.63142149-11.33202321 13.3449113z" stroke-width=".5"/><path d="m17.42795782 45.84010588 8.62527654-9.01297021-12.41873943-1.18489673-8.50162048 8.96697192z" stroke-width="3"/><path d="m20.79399456 15.66980754 5.860744 16.66536682 11.01327085-13.81270167-5.8910206-16.48627563z" stroke-width=".5"/><path d="m23.87782653 16.12424667 3.4928229 11.9761937 7.23552038-10.16249547-3.51481524-11.84610526z" stroke-width="3"/></g></g><path d="m0 0h56.692913v56.692913h-56.692913z" fill="none"/></svg>