<svg viewBox="0 0 56.69291339 56.69291339" xmlns="http://www.w3.org/2000/svg"><g stroke-miterlimit="10"><path d="m27.48305927 19.28136005 15.4760759 17.55937238-22.41124061-3.95601569-15.25344746-17.4329465z" fill="#f7f4a3" stroke="#b5b5b6" stroke-width=".5"/><path d="m26.13927718 21.71267718 11.55565606 12.13862877-15.96496992-3.48973984-11.39394299-12.04679541z" fill="#eae83f" stroke="#eeec6a" stroke-width="2"/><g fill="#fff" opacity=".2" stroke="#fff"><path d="m27.48305927 19.28136005 15.4760759 17.55937238-22.41124061-3.95601569-15.25344746-17.4329465z" stroke-width=".5"/><path d="m26.13927718 21.71267718 11.55565606 12.13862877-15.96496992-3.48973984-11.39394299-12.04679541z" stroke-width="2"/></g><path d="m42.48229445 40.37115251 4.88608503 8.29473583-9.04876653-1.68337857-4.8042029-8.23610376z" fill="#f7f4a3" stroke="#b5b5b6" stroke-width=".5"/><path d="m41.69451212 41.55381645 3.73770827 5.72567629-6.38430284-1.52223621-3.67823064-5.68308706z" fill="#eae83f" stroke="#eeec6a"/><g fill="#fff" opacity=".2" stroke="#fff"><path d="m42.48229445 40.37115251 4.88608503 8.29473583-9.04876653-1.68337857-4.8042029-8.23610376z" stroke-width=".5"/><path d="m41.69451212 41.55381645 3.73770827 5.72567629-6.38430284-1.52223621-3.67823064-5.68308706z"/></g><path d="m48.43848043 27.21400782 6.49106955 7.01916754-9.26619614.27591971-6.39847878-6.97954376z" fill="#f7f4a3" stroke="#b5b5b6" stroke-width=".5"/><path d="m47.89948896 28.52808579 4.84068906 4.76815813-6.60508899-.13000882-4.77343289-4.73937617z" fill="#eae83f" stroke="#eeec6a"/><g fill="#fff" opacity=".2" stroke="#fff"><path d="m48.43848043 27.21400782 6.49106955 7.01916754-9.26619614.27591971-6.39847878-6.97954376z" stroke-width=".5"/><path d="m47.89948896 28.52808579 4.84068906 4.76815813-6.60508899-.13000882-4.77343289-4.73937617z"/></g><path d="m36.69348735 32.24138384-22.94490051 4.62298869 14.63163039-17.43069585 22.72409826-4.49339975z" fill="#f7f4a3" stroke="#b5b5b6" stroke-width=".5"/><path d="m35.259796 29.86197586-16.29018892 3.93817731 11.00468832-12.0811996 16.12980236-3.84404638z" fill="#eae83f" stroke="#eeec6a" stroke-width="2"/><g fill="#fff" opacity=".2" stroke="#fff"><path d="m36.69348735 32.24138384-22.94490051 4.62298869 14.63163039-17.43069585 22.72409826-4.49339975z" stroke-width=".5"/><path d="m35.259796 29.86197586-16.29018892 3.93817731 11.00468832-12.0811996 16.12980236-3.84404638z" stroke-width="2"/></g><path d="m10.92957373 34.68620632-9.62649447.08410584 5.98223188-6.9947724 9.53477653-.04250988z" fill="#f7f4a3" stroke="#b5b5b6" stroke-width=".5"/><path d="m10.29924787 33.41263484-6.82743525.37411216 4.51044665-4.76785034 6.76081308-.34389764z" fill="#eae83f" stroke="#eeec6a"/><g fill="#fff" opacity=".2" stroke="#fff"><path d="m10.92957373 34.68620632-9.62649447.08410584 5.98223188-6.9947724 9.53477653-.04250988z" stroke-width=".5"/><path d="m10.29924787 33.41263484-6.82743525.37411216 4.51044665-4.76785034 6.76081308-.34389764z"/></g><path d="m19.34590228 46.42298703-9.32431218 2.11184735 4.39414459-8.1627211 9.2437016-2.0514733z" fill="#f7f4a3" stroke="#b5b5b6" stroke-width=".5"/><path d="m18.47737311 45.29916774-6.54969059 1.80808063 3.41513543-5.65517045 6.4911366-1.76422606z" fill="#eae83f" stroke="#eeec6a"/><g fill="#fff" opacity=".2" stroke="#fff"><path d="m19.34590228 46.42298703-9.32431218 2.11184735 4.39414459-8.1627211 9.2437016-2.0514733z" stroke-width=".5"/><path d="m18.47737311 45.29916774-6.54969059 1.80808063 3.41513543-5.65517045 6.4911366-1.76422606z"/></g><path d="m20.86456347 33.73783664 7.46882461-22.18236107 7.77961022 21.38671154-7.4706508 21.92634625z" fill="#f7f4a3" stroke="#b5b5b6" stroke-width=".5"/><path d="m23.64203691 33.6859275 4.73453286-16.07680609 4.96028161 15.57093945-4.73585937 15.89084178z" fill="#eae83f" stroke="#eeec6a" stroke-width="2"/><g fill="#fff" opacity=".2" stroke="#fff"><path d="m20.86456347 33.73783664 7.46882461-22.18236107 7.77961022 21.38671154-7.4706508 21.92634625z" stroke-width=".5"/><path d="m23.64203691 33.6859275 4.73453286-16.07680609 4.96028161 15.57093945-4.73585937 15.89084178z" stroke-width="2"/></g><path d="m31.62924191 10.20322171 4.74040944-8.37884168 3.06653466 8.67815098-4.73057363 8.27861364z" fill="#f7f4a3" stroke="#b5b5b6" stroke-width=".5"/><path d="m33.0473501 10.29412924 3.08972698-6.09978845 1.87385619 6.29008655-3.08258244 6.0269847z" fill="#eae83f" stroke="#eeec6a"/><g fill="#fff" opacity=".2" stroke="#fff"><path d="m31.62924191 10.20322171 4.74040944-8.37884168 3.06653466 8.67815098-4.73057363 8.27861364z" stroke-width=".5"/><path d="m33.0473501 10.29412924 3.08972698-6.09978845 1.87385619 6.29008655-3.08258244 6.0269847z"/></g><path d="m17.25672738 11.62358569 2.83324263-9.1310149 4.87205155 7.88680139-2.84522281 9.03101706z" fill="#f7f4a3" stroke="#b5b5b6" stroke-width=".5"/><path d="m18.66424802 11.43332701 1.70900154-6.57623876 3.18995355 5.78517927-1.71770371 6.50360222z" fill="#eae83f" stroke="#eeec6a"/><g fill="#fff" opacity=".2" stroke="#fff"><path d="m17.25672738 11.62358569 2.83324263-9.1310149 4.87205155 7.88680139-2.84522281 9.03101706z" stroke-width=".5"/><path d="m18.66424802 11.43332701 1.70900154-6.57623876 3.18995355 5.78517927-1.71770371 6.50360222z"/></g></g><path d="m0 0h56.692913v56.692913h-56.692913z" fill="none"/></svg>