<svg viewBox="0 0 56.69291339 56.69291339" xmlns="http://www.w3.org/2000/svg"><g stroke-miterlimit="10"><path d="m37.31910447 13.83077674-9.58918503 6.20771018 9.6374587 6.13249683 9.47620797-6.20726822z" fill="#f7f4a3" stroke="#b5b5b6" stroke-width=".5"/><path d="m37.36892759 16.07782473-6.96758815 3.95021177 6.99828011 3.89557823 6.88552376-3.94989074z" fill="#eae83f" stroke="#eeec6a" stroke-width="3"/><g fill="#fff" opacity=".2" stroke="#fff"><path d="m37.31910447 13.83077674-9.58918503 6.20771018 9.6374587 6.13249683 9.47620797-6.20726822z" stroke-width=".5"/><path d="m37.36892759 16.07782473-6.96758815 3.95021177 6.99828011 3.89557823 6.88552376-3.94989074z" stroke-width="3"/></g><path d="m48.73979387 22.43148946-4.86700855 2.30721498 4.88491253 2.26906941 4.8097056-2.30699084z" fill="#f7f4a3" stroke="#b5b5b6" stroke-width=".5"/><path d="m48.76386619 23.26477051-3.53611339 1.46863384 3.54749657 1.44092564 3.49448961-1.46847104z" fill="#eae83f" stroke="#eeec6a"/><g fill="#fff" opacity=".2" stroke="#fff"><path d="m48.73979387 22.43148946-4.86700855 2.30721498 4.88491253 2.26906941 4.8097056-2.30699084z" stroke-width=".5"/><path d="m48.76386619 23.26477051-3.53611339 1.46863384 3.54749657 1.44092564 3.49448961-1.46847104z"/></g><path d="m40.72053103 37.33624384-6.20771018-9.58918503-6.13249683 9.6374587 6.20726822 9.47620797z" fill="#f7f4a3" stroke="#b5b5b6" stroke-width=".5"/><path d="m38.47348304 37.38606696-3.95021177-6.96758815-3.89557823 6.9982801 3.94989074 6.88552376z" fill="#eae83f" stroke="#eeec6a" stroke-width="3"/><g fill="#fff" opacity=".2" stroke="#fff"><path d="m40.72053103 37.33624384-6.20771018-9.58918503-6.13249683 9.6374587 6.20726822 9.47620797z" stroke-width=".5"/><path d="m38.47348304 37.38606696-3.95021177-6.96758815-3.89557823 6.9982801 3.94989074 6.88552376z" stroke-width="3"/></g><path d="m32.11981831 48.75693324-2.30721498-4.86700855-2.26906941 4.88491253 2.30699084 4.80970559z" fill="#f7f4a3" stroke="#b5b5b6" stroke-width=".5"/><path d="m31.28653726 48.78100556-1.46863384-3.53611339-1.44092564 3.54749657 1.46847104 3.49448961z" fill="#eae83f" stroke="#eeec6a"/><g fill="#fff" opacity=".2" stroke="#fff"><path d="m32.11981831 48.75693324-2.30721498-4.86700855-2.26906941 4.88491253 2.30699084 4.80970559z" stroke-width=".5"/><path d="m31.28653726 48.78100556-1.46863384-3.53611339-1.44092564 3.54749657 1.46847104 3.49448961z"/></g><path d="m17.21506393 40.7376704 9.58918503-6.20771018-9.6374587-6.13249683-9.47620797 6.20726821z" fill="#f7f4a3" stroke="#b5b5b6" stroke-width=".5"/><path d="m17.16524081 38.49062241 6.96758815-3.95021177-6.9982801-3.89557823-6.88552376 3.94989074z" fill="#eae83f" stroke="#eeec6a" stroke-width="3"/><g fill="#fff" opacity=".2" stroke="#fff"><path d="m17.21506393 40.7376704 9.58918503-6.20771018-9.6374587-6.13249683-9.47620797 6.20726821z" stroke-width=".5"/><path d="m17.16524081 38.49062241 6.96758815-3.95021177-6.9982801-3.89557823-6.88552376 3.94989074z" stroke-width="3"/></g><path d="m5.79437453 32.13695768 4.86700855-2.30721498-4.88491253-2.26906941-4.80970559 2.30699084z" fill="#f7f4a3" stroke="#b5b5b6" stroke-width=".5"/><path d="m5.77030221 31.30367663 3.53611339-1.46863385-3.54749657-1.44092563-3.49448961 1.46847104z" fill="#eae83f" stroke="#eeec6a"/><g fill="#fff" opacity=".2" stroke="#fff"><path d="m5.79437453 32.13695768 4.86700855-2.30721498-4.88491253-2.26906941-4.80970559 2.30699084z" stroke-width=".5"/><path d="m5.77030221 31.30367663 3.53611339-1.46863385-3.54749657-1.44092563-3.49448961 1.46847104z"/></g><path d="m13.81363737 17.2322033 6.20771018 9.58918503 6.13249683-9.6374587-6.20726822-9.47620797z" fill="#f7f4a3" stroke="#b5b5b6" stroke-width=".5"/><path d="m16.06068536 17.18238018 3.95021177 6.96758815 3.89557823-6.99828011-3.94989074-6.88552376z" fill="#eae83f" stroke="#eeec6a" stroke-width="3"/><g fill="#fff" opacity=".2" stroke="#fff"><path d="m13.81363737 17.2322033 6.20771018 9.58918503 6.13249683-9.6374587-6.20726822-9.47620797z" stroke-width=".5"/><path d="m16.06068536 17.18238018 3.95021177 6.96758815 3.89557823-6.99828011-3.94989074-6.88552376z" stroke-width="3"/></g><path d="m22.41435009 5.8115139 2.30721498 4.86700855 2.26906941-4.88491253-2.30699084-4.8097056z" fill="#f7f4a3" stroke="#b5b5b6" stroke-width=".5"/><path d="m23.24763114 5.78744158 1.46863385 3.53611339 1.44092563-3.54749657-1.46847104-3.49448962z" fill="#eae83f" stroke="#eeec6a"/><g fill="#fff" opacity=".2" stroke="#fff"><path d="m22.41435009 5.8115139 2.30721498 4.86700855 2.26906941-4.88491253-2.30699084-4.8097056z" stroke-width=".5"/><path d="m23.24763114 5.78744158 1.46863385 3.53611339 1.44092563-3.54749657-1.46847104-3.49448962z"/></g></g><path d="m0 0h56.692913v56.692913h-56.692913z" fill="none"/></svg>