<svg viewBox="0 0 54.14315699 51.26557155" xmlns="http://www.w3.org/2000/svg" xmlns:xlink="http://www.w3.org/1999/xlink"><linearGradient id="a" gradientUnits="userSpaceOnUse" x1="14.326888" x2="59.884178" y1="4.714003" y2="29.16988"><stop offset=".15722782692" stop-color="#e83b32"/><stop offset=".70114518716" stop-color="#b12727"/><stop offset=".99808303467" stop-color="#981e23"/></linearGradient><linearGradient id="b" x1="4.894012" x2="50.451302" xlink:href="#a" y1="22.285906" y2="46.741783"/><g stroke="#f1905b" stroke-miterlimit="10" stroke-width=".5"><path d="m53.85424579 17.2985269c.56933594-10.26055908-5.19500733-17.04388428-11.65496826-17.04852295-11.74310303-.00842285-16.07958984 13.45123291-16.07958984 13.45123291s-4.69897461-14.63781738-16.38891602-11.90509033c-8.72827149 2.04040527-10.43896485 8.14056396-9.05133057 14.79388428.1184082.56774902.2635498 1.14007568.42468262 1.71374512l22.89099121 2.75012207 29.85913086-3.75537109z" fill="url(#a)"/><path d="m6.96087421 30.16089262 40.46740723-2.99194336-40.46740723 2.99194336c.86810303 1.21697998 1.78875732 2.39550781 2.74914551 3.52911377l37.48144531-3.52850342c.98614502-.98724365 1.91149902-1.98498535 2.73449707-2.99255371l-45.98382568-1.85900879c.88586426 1.67730713 1.90875244 3.29473877 3.01873779 4.85095215z" fill="#fff"/><path d="m30.16479266 50.68201079c-2.39556885-5.66235352 9.2678833-12.75323486 17.02667236-20.52050781l-37.48144531 3.52850342c8.72741699 10.30108643 20.45477295 16.99200439 20.45477295 16.99200439z" fill="url(#b)"/><g fill="#fff"><path d="m39.96771014 22.97284331h.00018311l-15.97277832-1.91894531h-.00012207.00012207l-22.89099121-2.75012208c.52606201 1.87304688 1.26257324 3.76525879 2.13299561 5.60186768.22387695.47241211.45996094.94030762.70501709 1.40429688l45.98382568 1.85900879c.74645996-.91387939 1.41149902-1.83544922 1.96582031-2.76361084l-11.92388916-1.43249512z"/><path d="m53.85424579 17.2985269-29.85913086 3.75537109 15.97277832 1.91894531 13.37097168-1.8458252c.09655762-.34967041.17578125-.70007324.23181152-1.05114746.15234375-.95465088.23345947-1.87445068.28356934-2.77734375z"/><path d="m51.89178241 24.40533842c.64764404-1.08441162 1.14318848-2.17779541 1.44708252-3.27832031l-13.37097168 1.8458252 11.92388916 1.43249512z"/></g><path d="m26.11968768 13.70123686-2.77347823 3.59729004 3.72536905 3.36844549" fill="none"/><path d="m27.54163625 32.01133794-1.81961687 2.87225338 3.34773218 1.72786177-2.90408326 4.75161987 3.76801415 2.91576674-2.86210395 1.61987041 3.09321416 4.78330068" fill="none"/></g></svg>