<svg viewBox="0 0 56.69291338 56.69291339" xmlns="http://www.w3.org/2000/svg" xmlns:xlink="http://www.w3.org/1999/xlink"><linearGradient id="a" gradientTransform="matrix(-.5 .8660254 -.8660254 -.5 66.264402 17.960969)" gradientUnits="userSpaceOnUse" x1="3.233766" x2="28.513189" y1="32.007016" y2="32.007016"><stop offset=".42309452831" stop-color="#ea5445"/><stop offset=".48528608602" stop-color="#e83e32"/><stop offset=".55653000584" stop-color="#e72c24"/><stop offset=".63331084473" stop-color="#e7221b"/><stop offset=".72474318336" stop-color="#e71f19"/></linearGradient><linearGradient id="b" gradientTransform="matrix(-.5 -.8660254 .8660254 -.5 17.577546 66.36714)" x1="3.233766" x2="28.513189" xlink:href="#a" y1="32.007016" y2="32.007016"/><linearGradient id="c" x1="3.233766" x2="28.513189" xlink:href="#a" y1="32.007016" y2="32.007016"/><g stroke="#fff" stroke-miterlimit="10" stroke-width=".5"><path d="m27.76367554 17.58817454-.1990467-.33802479-.62104955 1.01194565z" fill="#c3181f"/><path d="m32.81982089 14.92968135 5.83295725 3.89219179c.12022658-.71419216.41234499-1.68426685 1.20511587-2.53472453 2.96877124-3.18488389 9.87698287-2.90249214 9.87698287-2.90249214s-2.23565051-2.28599494-4.12555833-2.96083694c-4.51083282-1.61076162-9.42438673.28159099-12.78949766 4.50586182z" fill="#c3181f"/><path d="m39.61923502 19.65648629c.11816476-.12675793.25222117-.23896856.38220263-.35498947-.01056062-.0006003-.02123356-.0017924-.03173363-.00232237l-.350469.35731183z" fill="#c3181f"/><path d="m39.97353384 19.29529638.03375762.00076267c3.13732358-2.79314864 9.48891118-2.54203869 9.48891118-2.54203869s-2.23565051-2.28599494-4.12555833-2.96083694l-5.39711047 5.50211295z" fill="#c3181f"/><path d="m39.44403407 19.28341382c.17434591.00115144.34966754.00655579.52566995.01576064.01050007.00052996.021173.00172207.03173363.00232237 5.3822429.2948544 11.40126967 4.20249541 11.40126967 4.20249541s-.26279928-2.52339974-1.52938737-3.98649656l-9.86602849-.22143661-.03375762-.00076267-.52949977-.01188256z" fill="#c3181f"/><path d="m27.56462884 17.25014975-3.28924066-5.58582891c-.52994448.85870152-1.89872381 3.35595437-1.99626601 7.18536299-.02813113 1.10319965.0552811 2.1419446.19335867 3.08675094l4.47109846-3.67433936.62104955-1.01194565z" fill="#c3181f"/><path d="m35.20321314 4.80384674c-1.6424022.31753424-3.90781872.94433214-6.12806265 2.26452639-.43732565.26005457-.83641713.52782877-1.20694722.7972726l2.53534449 4.7588121 4.79966537-7.82061109z" fill="#c3181f"/><path d="m23.04587408 24.61306188 1.04482166-1.70241095c-.53689754.02280439-1.02149062.04484558-1.43776852.06459588.12026019.60081313.2562072 1.15382874.39294686 1.63781507z" fill="#c3181f"/><path d="m29.07515049 7.06837313-6.45360304-6.61990107c5.57540988 6.19021038 6.45360305 6.61990107 6.45360305 6.61990107z" fill="#c3181f"/><path d="m18.42877483 8.73578638 5.63755252 3.28064053s-.52807017-.30985999-5.63755252-3.28064053z" fill="#c3181f"/><path d="m22.65292723 22.97524681c.4162779-.0197503.90087098-.04179149 1.43776852-.06459588 3.52113373-.14973851 9.22436193-.32860544 11.76423335-.05389677l-5.45138133-10.23229632-2.53534449-4.7588121-.66263849-1.24377995-3.28857117 4.43386893.35839456.60858613 3.28924066 5.58582891.19904671.33802479-.82009626.67392086-4.47109846 3.67433936-1.35878843 1.11662515s.59096561-.03278941 1.53923483-.07781311z" fill="url(#a)"/><path d="m37.15075858 33.2109301.39226141-.0033671-.56584587-1.04381752z" fill="#c3181f"/><path d="m36.92500855 38.91892702-6.28721559 3.10539326c.55839526.46121535 1.25244538 1.19923466 1.5925779 2.31102322 1.27380474 4.16347326-2.42485951 10.00496415-2.42485951 10.00496415s3.09755495-.79313267 4.62693917-2.09241985c3.65037689-3.10111501 4.46832841-8.30255382 2.49255803-13.32896079z" fill="#c3181f"/><path d="m29.43176833 42.44398992c.05069321.16571265.08084226.33791423.11632858.50849192.00580019-.00884562.01216904-.0174926.01787804-.02632094z" fill="#c3181f"/><path d="m29.56741855 42.93141665-.0175393.02885362c.85027589 4.11357624-2.54298551 9.48865748-2.54298551 9.48865748s3.09755495-.79313267 4.62693917-2.09241985z" fill="#c3181f"/><path d="m29.84245904 42.47879768c-.08817014.15041226-.18051125.29954307-.27648409.44736321-.005709.00882834-.01207785.01747532-.01787804.02632094-2.94647285 4.51373188-9.34010262 7.77254147-9.34010262 7.77254147s2.31672792 1.03410901 4.21710098.66875997l5.12478397-8.43351301.0175393-.02885362.27504049-.45261897z" fill="#c3181f"/><path d="m37.54301999 33.207563 6.48209007-.05565152c-.4786851-.88829614-1.95697983-3.32232024-5.22457388-5.32149857-.94133336-.5759621-1.88261898-1.02309746-2.76988406-1.37592195l.946522 5.70925453z" fill="#c3181f"/><path d="m44.50254243 46.04592255c.54620838-1.58112915 1.13609374-3.85643635 1.10289394-6.43932112-.00655104-.50876241-.03890456-.98827287-.08698471-1.44388325l-5.38892442-.18373331 4.37301519 8.06693769z" fill="#c3181f"/><path d="m33.42592842 25.61275052.9519203 1.75604758c.24869959-.47636911.4719079-.90705962.66294258-1.277442-.58044953-.19625819-1.1273486-.35503243-1.61486289-.47860558z" fill="#c3181f"/><path d="m45.60543637 39.60660143 8.95980402-2.27903365c-8.14858438 1.73334141-8.95980402 2.27903365-8.95980402 2.27903365z" fill="#c3181f"/><path d="m49.48460197 29.55286303-5.6598943 3.24194343s.53238171-.30239219 5.6598943-3.24194343z" fill="#c3181f"/><path d="m35.0407913 26.0913561c-.19103469.37038239-.41424299.8010729-.66294258 1.277442-1.63088951 3.12426052-4.32760031 8.15283449-5.8354407 10.21507333l11.58711922.39511344 5.38892442.18373331 1.40846428.04802821-2.19555754-5.06492064-.70624833.00608572-6.48209007.05565152-.39226141.00336711-.17358446-1.04718462-.946522-5.70925453-.28763153-1.73505788s-.26708634.52818594-.70222929 1.37192302z" fill="url(#b)"/><path d="m18.92751387 33.5290047-.1932147.3413919 1.18689541.03187186z" fill="#c3181f"/><path d="m14.09711855 30.47950099.45425834-6.99758505c-.67862184.2529768-1.66479037.48503219-2.79769377.2237013-4.24257598-.97858937-7.45212336-7.10247201-7.45212336-7.10247201s-.86190443 3.07912761-.50138084 5.05325679c.86045593 4.71187662 4.95605832 8.02096283 10.29693963 8.82309897z" fill="#c3181f"/><path d="m14.79094464 22.22763314c-.16885797-.03895472-.33306343-.09894566-.49853121-.15350245.00476044.00944592.00906451.019285.01385559.02864331z" fill="#c3181f"/><path d="m14.3009956 22.10139632-.01621831-.02961629c-3.98759947-1.3204276-6.94592567-6.94661879-6.94592567-6.94661879s-.86190443 3.07912761-.50138084 5.05325679l7.46352483 1.9229783z" fill="#c3181f"/><path d="m14.55545488 22.56589785c-.08617577-.15156371-.16915629-.30609886-.24918586-.46312385-.00479107-.00935831-.00909515-.01919739-.01385559-.02864331-2.43577005-4.80858628-2.06116705-11.97503687-2.06116705-11.97503687s-2.05392863 1.48929072-2.68771361 3.31773659l4.74124452 8.65494961.01621831.02961629.25445928.46450153z" fill="#c3181f"/><path d="m18.73429917 33.8703966-3.19284941 5.64148043c1.00862957.02959462 3.85570364-.03363413 7.22083989-1.86386441.96946449-.52723755 1.82733788-1.11884713 2.57652539-1.71082899l-5.41762046-2.03491517-1.18689542-.03187186z" fill="#c3181f"/><path d="m4.13619243 33.47834005c1.09619382 1.26359491 2.77172498 2.91210421 5.0251687 4.17479473.44387669.24870784.87532169.4604441 1.29393193.64661066l2.85357993-4.57507879z" fill="#c3181f"/><path d="m27.37014549 34.10229695-1.99674197-.05363663c.28819795.45356472.54958272.86221403.77482594 1.21284612.46018934-.40455494.8711414-.79879632 1.22191603-1.15920949z" fill="#c3181f"/><path d="m9.16136113 37.65313478-2.50620098 8.89893472c2.5731745-7.92355178 2.50620098-8.89893472 2.50620098-8.89893472z" fill="#c3181f"/><path d="m15.92857119 46.03945994.02234178-6.52258397s-.00431154.61225218-.02234178 6.52258397z" fill="#c3181f"/><path d="m26.14822946 35.26150644c-.22524321-.35063209-.48662798-.7592814-.77482594-1.21284612-1.89024422-2.97452201-4.89676163-7.82422905-5.92879265-10.16117655l-6.13573788 9.83718288-2.85357993 4.57507879-.74582579 1.19575174 5.48412871.63105171.34785377-.61467186 3.19284941-5.64148043.1932147-.3413919.99368071.37326376 5.41762046 2.03491517 1.64641996.61843273s-.32387927-.49539652-.83700554-1.29410991z" fill="url(#c)"/></g><path d="m0 0h56.692913v56.692913h-56.692913z" fill="none"/></svg>