<svg viewBox="0 0 56.69291338 56.69291339" xmlns="http://www.w3.org/2000/svg" xmlns:xlink="http://www.w3.org/1999/xlink"><linearGradient id="a" gradientTransform="matrix(-.29399017 .05093594 .01918141 .11577035 31.202414 29.076448)" gradientUnits="userSpaceOnUse" x1="-1.552827" x2="23.726596" y1="-37.422957" y2="-37.422957"><stop offset=".42309452831" stop-color="#ea5445"/><stop offset=".48528608602" stop-color="#e83e32"/><stop offset=".55653000584" stop-color="#e72c24"/><stop offset=".63331084473" stop-color="#e7221b"/><stop offset=".72474318336" stop-color="#e71f19"/></linearGradient><linearGradient id="b" gradientTransform="matrix(-.1911069 -.22913499 -.09066936 .07449676 28.932536 31.486662)" x1="-1.552827" x2="23.726596" xlink:href="#a" y1="-37.422957" y2="-37.422957"/><linearGradient id="c" gradientTransform="matrix(.10288327 -.28007092 -.10985077 -.04127359 25.710291 30.725997)" x1="-1.552827" x2="23.726596" xlink:href="#a" y1="-37.422957" y2="-37.422957"/><linearGradient id="d" gradientTransform="matrix(.29399017 -.05093594 -.01918141 -.11577035 24.757923 27.555118)" x1="-1.552827" x2="23.726596" xlink:href="#a" y1="-37.422957" y2="-37.422957"/><linearGradient id="e" gradientTransform="matrix(.1911069 .22913499 .09066936 -.07449676 27.027801 25.144905)" x1="-1.552827" x2="23.726596" xlink:href="#a" y1="-37.422957" y2="-37.422957"/><linearGradient id="f" gradientTransform="matrix(-.10288327 .28007092 .10985077 .04127359 30.250046 25.90557)" x1="-1.552827" x2="23.726596" xlink:href="#a" y1="-37.422957" y2="-37.422957"/><linearGradient id="g" gradientTransform="matrix(.58798034 -.10187188 -.03836282 -.23154071 21.535678 26.794454)" x1="-1.552827" x2="23.726596" xlink:href="#a" y1="-37.422957" y2="-37.422957"/><linearGradient id="h" gradientTransform="matrix(.3822138 .45826997 .18133873 -.14899353 26.075434 21.974026)" x1="-1.552827" x2="23.726596" xlink:href="#a" y1="-37.422957" y2="-37.422957"/><linearGradient id="i" gradientTransform="matrix(-.20576654 .56014185 .21970155 .08254718 32.519924 23.495356)" x1="-1.552827" x2="23.726596" xlink:href="#a" y1="-37.422957" y2="-37.422957"/><linearGradient id="j" gradientTransform="matrix(-.58798034 .10187188 .03836282 .23154071 34.424659 29.837113)" x1="-1.552827" x2="23.726596" xlink:href="#a" y1="-37.422957" y2="-37.422957"/><linearGradient id="k" gradientTransform="matrix(-.3822138 -.45826997 -.18133873 .14899353 29.884903 34.65754)" x1="-1.552827" x2="23.726596" xlink:href="#a" y1="-37.422957" y2="-37.422957"/><linearGradient id="l" gradientTransform="matrix(.20576654 -.56014185 -.21970155 -.08254718 23.440413 33.136211)" x1="-1.552827" x2="23.726596" xlink:href="#a" y1="-37.422957" y2="-37.422957"/><linearGradient id="m" gradientTransform="matrix(-1.17596068 .20374375 .07672564 .46308142 40.869149 31.358442)" x1="-1.552827" x2="23.726596" xlink:href="#a" y1="-37.422957" y2="-37.422957"/><linearGradient id="n" gradientTransform="matrix(-.76442761 -.91653994 -.36267746 .29798706 31.789638 40.999297)" x1="-1.552827" x2="23.726596" xlink:href="#a" y1="-37.422957" y2="-37.422957"/><linearGradient id="o" gradientTransform="matrix(.41153307 -1.1202837 -.43940309 -.16509436 18.900658 37.956638)" x1="-1.552827" x2="23.726596" xlink:href="#a" y1="-37.422957" y2="-37.422957"/><linearGradient id="p" gradientTransform="matrix(1.17596068 -.20374375 -.07672564 -.46308142 15.091188 25.273124)" x1="-1.552827" x2="23.726596" xlink:href="#a" y1="-37.422957" y2="-37.422957"/><linearGradient id="q" gradientTransform="matrix(.76442761 .91653994 .36267746 -.29798706 24.170699 15.632269)" x1="-1.552827" x2="23.726596" xlink:href="#a" y1="-37.422957" y2="-37.422957"/><linearGradient id="r" gradientTransform="matrix(-.41153307 1.1202837 .43940309 .16509436 37.059679 18.674929)" x1="-1.552827" x2="23.726596" xlink:href="#a" y1="-37.422957" y2="-37.422957"/><g stroke="#fff" stroke-miterlimit="10" stroke-width=".5"><path d="m25.34498908 24.11161046.0633516.02968149-.34832424.06414545z" fill="#c3181f"/><path d="m26.46655592 26.49664077.65390601.51326176c-.16835434.11596525-.40226041.29621668-.62912711.54897168-.84959112.94652936-1.06560834 2.12845844-1.06560834 2.12845844s-.43241117-.09136521-.51009493-.33543541c-.18542671-.58254044.44732834-1.70088439 1.55092436-2.85525646z" fill="#d82317"/><path d="m26.34432354 22.59254663c.04889538-.01311074.09601946-.02841987.14361888-.04316419-.00121834.00133603-.00229496.00269434-.00352399.00402179z" fill="#c3181f"/><path d="m27.48751696 23.96307895.00419994-.00425478c1.14698738-.35597849 1.90878793-1.15800977 1.90878793-1.15800977s.31245344.31256978.24432962.55947903l-2.1573175.60278552z" fill="#b04122"/><path d="m22.74180181 27.38032669c.02242763-.02193603.04385888-.04405331.06437483-.06630853.00122902-.00132745.00230565-.00268576.00352399-.00402179.62385699-.68075997.37626477-1.49134174.37626477-1.49134174s.63240152.06779693.85380024.24719433l-1.22786515 1.24348633-.00419994.00425478-.06589873.06673663z" fill="#ea5a59"/><path d="m28.14799052 24.39667649 1.04687788.49048541c-.29595951.05480167-1.13418412.19250005-2.15860749.15202001-.29512619-.0116579-.55868044-.03645216-.79028925-.06682554l1.55369462-.51153443z" fill="#c3181f"/><path d="m29.56415899 23.96632658c-.29803268.20212249-.75900163.47831575-1.39727175.73927915-.12572482.05140227-.248504.09789111-.36800036.14076598l-.9266809-.38430872 2.69195302-.49573641z" fill="#c3181f"/><path d="m22.87393493 24.60801407.58599368-.10791546c-.07602736.06718898-.14503344.12781234-.20452711.17987811-.14305108-.02339529-.27142905-.04810453-.38146657-.07196265z" fill="#c3181f"/><path d="m28.2952486 24.09161431.90749255.90257713c-.90847289-.78624534-.90749255-.90257713-.90749255-.90257713z" fill="#c3181f"/><path d="m26.4666169 25.40719634-.13168061-.75398386s.01301141.07066104.13168061.75398386z" fill="#c3181f"/><path d="m24.26690308 26.20882748c.05949367-.05206578.12849976-.11268913.20452711-.17987811.4986577-.44064283 1.28952004-1.15523492 1.54810107-1.47835163l1.99253765.82632458.9266809.38430872.24220165.10044327-1.60017547.35239632-.11405586-.05344252-1.04687788-.49048541-.0633516-.02968149-.28497264.09382694-1.55369462.51153443-.47216887.15545812s.08571492-.07384933.22124855-.19245323z" fill="url(#a)"/><path d="m30.3034992 23.93156451.00597088.06970484-.22971371-.26958492z" fill="#c3181f"/><path d="m28.79878579 26.09538504-.11754472.82293009c-.18460602-.08781651-.45766137-.20025939-.78998697-.27035422-1.24451403-.26250281-2.37610325.14138533-2.37610325.14138533s-.13708099-.42016166.03544812-.60947287c.41178146-.45185446 1.69667326-.46304449 3.24818681-.08448834z" fill="#d82317"/><path d="m32.1187143 24.03748162c.03580192.03578927.07262206.06894535.10919072.10279551-.00176621-.00038709-.00348085-.00064033-.00524497-.00104097l-.10394576-.10175454z" fill="#c3181f"/><path d="m31.50339521 25.71278233.00578472.00150987c.88178011.81533096 1.95725984 1.07405395 1.95725984 1.07405395s-.11446666.4268775-.36235824.49133517z" fill="#b04122"/><path d="m26.17111428 23.31149632c.03021097.00845488.06008072.01595625.08961228.02259597.00176412.00040064.00347876.00065387.00524497.00104097.90148393.19989602 1.47967222-.41981602 1.47967222-.41981602s.25748689.58157425.21282355.86300986l-1.69082332-.44161925-.00578472-.00150987z" fill="#ea5a59"/><path d="m31.4581255 26.50156798.09866612 1.15186554c-.1954394-.22890762-.73380199-.88598223-1.21095694-1.79339891-.13746706-.26141572-.24777172-.50205753-.33727201-.71782333l1.21984912 1.08977179z" fill="#c3181f"/><path d="m32.53890369 27.51283089c-.32405955-.15704262-.79373441-.41815682-1.3388704-.84043326-.10737808-.08317975-.20902819-.16626523-.3059071-.24831467l-.13051933-.99468356 1.77529684 2.0834315z" fill="#c3181f"/><path d="m28.63807399 22.03977065.38645437.45352769c-.09620104-.03224713-.18320545-.06169647-.25804257-.08718662-.05126462-.13558351-.09405478-.25911671-.1284118-.36634107z" fill="#c3181f"/><path d="m31.79594614 26.47656612-.32790845 1.23720017c.22667199-1.17988327.32790845-1.23720017.32790845-1.23720017z" fill="#c3181f"/><path d="m29.74230283 25.55071563.58712887-.49103069s-.05468855.04659873-.58712887.49103069z" fill="#c3181f"/><path d="m27.948213 24.04652316c.07483712.02549014.16184153.05493949.25804257.08718662.63093673.21152882 1.64522281.53913966 2.05434061.60151904l.28065074 2.13875051.13051933.99468356.03411441.25997442-1.1052719-1.20959444-.01074535-.12549653-.09866612-1.15186554-.00597088-.06970484-.22374283-.19988007-1.21984912-1.08977179-.37071512-.33118118s.10681285.03730663.27729366.09538025z" fill="url(#b)"/><path d="m32.93867864 28.13573726-.05738072.04002336.11861053-.33373037z" fill="#c3181f"/><path d="m30.31239838 27.91452749-.77145073.30966833c-.01625168-.20378176-.05540096-.49647607-.16085986-.81932589-.39492291-1.20903217-1.31049491-1.98707311-1.31049491-1.98707311s.29533018-.32879645.54554305-.27403746c.59720817.13068597 1.24934492 1.2378399 1.69726245 2.77076813z" fill="#d82317"/><path d="m33.75455928 29.76071821c-.01309345.04890001-.0233974.09736523-.03442816.14595969-.00054787-.00172313-.00118589-.00333467-.00172098-.00506276l.03614914-.14089694z" fill="#c3181f"/><path d="m31.99604676 30.0654866.00158478.00576465c-.26520727 1.17130946.04847191 2.23206372.04847191 2.23206372s-.42692009.11430772-.60668786-.06814385z" fill="#b04122"/><path d="m31.40948098 24.24695285c.00778335.03039091.01622184.06000956.02523746.0889045.0005351.00172809.00117311.00333963.00172098.00506276.27762693.88065599 1.10340745 1.07152573 1.10340745 1.07152573s-.37491463.51377732-.64097669.61581554l-.46295817-1.68510558-.00158478-.00576465-.02484625-.09043829z" fill="#ea5a59"/><path d="m31.29030349 30.4206747-.94821176.66138013c.10052011-.28370929.40038213-1.07848228.94765055-1.94541893.15765913-.24975783.31090871-.46560537.45301724-.65099779l-.33384549 1.60130622-.11861053.33373036z" fill="#c3181f"/><path d="m30.95491321 31.86228753c-.02602687-.35916511-.03473277-.89647257.05840135-1.57971241.01834674-.13458202.03947582-.26415633.06209327-.38908066l.79616157-.61037484-.91665618 2.57916791z" fill="#c3181f"/><path d="m33.74430757 25.74753979-.19953931.56144314c-.02017369-.09943611-.03817201-.18950881-.05351546-.26706473.09178646-.11218822.17737427-.21101219.25305477-.29437841z" fill="#c3181f"/><path d="m31.48086606 30.70073504-1.235401.33462304c1.13514489-.39363793 1.235401-.33462304 1.235401-.33462304z" fill="#c3181f"/><path d="m31.25585444 28.45930251.71880948.26295317s-.06769996-.02406231-.71880948-.26295317z" fill="#c3181f"/><path d="m31.66147842 26.1534789c.01534345.07755592.03334177.16762862.05351546.26706473.13227904.65217165.35570277 1.69437458.50623953 2.07987067l-1.7118869 1.31242593-.79616157.61037484-.20808725.15953115.49490357-1.56199077.10331051-.07205401.94821176-.66138013.05738072-.04002335.06122981-.29370701.33384549-1.60130622.10145375-.4866393s.02109793.11115596.05604511.28783348z" fill="url(#c)"/><path d="m30.61534795 32.51995598-.0633516-.02968149.34832423-.06414545z" fill="#c3181f"/><path d="m29.4937811 30.13492567-.65390601-.51326176c.16835434-.11596525.40226041-.29621668.62912711-.54897168.84959112-.94652936 1.06560834-2.12845844 1.06560834-2.12845844s.43241117.09136521.51009493.33543541c.18542671.58254044-.44732834 1.70088439-1.55092436 2.85525646z" fill="#d82317"/><path d="m29.61601349 34.03901981c-.04889538.01311074-.09601946.02841987-.14361888.04316419.00121834-.00133603.00229496-.00269434.00352399-.00402179z" fill="#c3181f"/><path d="m28.47282006 32.66848749-.00419994.00425478c-1.14698738.35597849-1.90878793 1.15800977-1.90878793 1.15800977s-.31245344-.31256978-.24432962-.55947903l2.1573175-.60278552z" fill="#b04122"/><path d="m33.21853521 29.25123975c-.02242763.02193603-.04385888.04405331-.06437483.06630853-.00122902.00132745-.00230565.00268576-.00352399.00402179-.62385699.68075997-.37626477 1.49134174-.37626477 1.49134174s-.63240152-.06779693-.85380024-.24719433l1.22786515-1.24348633.00419994-.00425478.06589873-.06673663z" fill="#ea5a59"/><path d="m27.81234651 32.23488994-1.04687788-.49048541c.29595951-.05480167 1.13418412-.19250005 2.15860749-.15202001.29512619.0116579.55868044.03645216.79028925.06682554l-1.55369462.51153443z" fill="#c3181f"/><path d="m26.39617804 32.66523985c.29803268-.20212249.75900163-.47831575 1.39727175-.73927915.12572482-.05140227.248504-.09789111.36800036-.14076598l.9266809.38430872-2.69195302.49573641z" fill="#c3181f"/><path d="m33.08640209 32.02355236-.58599368.10791546c.07602736-.06718898.14503344-.12781234.20452711-.17987811.14305108.02339529.27142905.04810453.38146657.07196265z" fill="#c3181f"/><path d="m27.66508842 32.53995213-.90749255-.90257713c.90847289.78624534.90749255.90257713.90749255.90257713z" fill="#c3181f"/><path d="m29.49372012 31.2243701.13168061.75398386s-.01301141-.07066104-.13168061-.75398386z" fill="#c3181f"/><path d="m31.69343394 30.42273896c-.05949367.05206578-.12849976.11268913-.20452711.17987811-.4986577.44064283-1.28952004 1.15523492-1.54810107 1.47835163l-1.99253765-.82632458-.9266809-.38430872-.24220165-.10044327 1.60017547-.35239632.11405586.05344252 1.04687788.49048541.0633516.02968149.28497264-.09382694 1.55369462-.51153443.47216887-.15545812s-.08571492.07384933-.22124855.19245323z" fill="url(#d)"/><path d="m25.65683782 32.70000193-.00597088-.06970484.22971371.26958492z" fill="#c3181f"/><path d="m27.16155123 30.5361814.11754472-.82293009c.18460602.08781651.45766137.20025939.78998697.27035422 1.24451403.26250281 2.37610325-.14138533 2.37610325-.14138533s.13708099.42016166-.03544812.60947287c-.41178146.45185446-1.69667326.46304449-3.24818681.08448834z" fill="#d82317"/><path d="m23.84162272 32.59408482c-.03580192-.03578927-.07262206-.06894535-.10919072-.10279551.00176621.00038709.00348085.00064033.00524497.00104097l.10394576.10175454z" fill="#c3181f"/><path d="m24.45694181 30.91878411-.00578472-.00150987c-.88178011-.81533096-1.95725984-1.07405395-1.95725984-1.07405395s.11446666-.4268775.36235824-.49133517z" fill="#b04122"/><path d="m29.78922274 33.32007012c-.03021097-.00845488-.06008072-.01595625-.08961228-.02259597-.00176412-.00040064-.00347876-.00065387-.00524497-.00104097-.90148393-.19989602-1.47967222.41981602-1.47967222.41981602s-.25748689-.58157425-.21282355-.86300986l1.69082332.44161925.00578472.00150987z" fill="#ea5a59"/><path d="m24.50221152 30.12999846-.09866612-1.15186554c.1954394.22890762.73380199.88598223 1.21095694 1.79339891.13746706.26141572.24777172.50205753.33727201.71782333l-1.21984912-1.08977179z" fill="#c3181f"/><path d="m23.42143334 29.11873555c.32405955.15704262.79373441.41815682 1.3388704.84043326.10737808.08317975.20902819.16626523.3059071.24831467l.13051933.99468356-1.77529684-2.0834315z" fill="#c3181f"/><path d="m27.32226303 34.59179579-.38645437-.45352769c.09620104.03224713.18320545.06169647.25804257.08718662.05126462.13558351.09405478.25911671.1284118.36634107z" fill="#c3181f"/><path d="m24.16439088 30.15500032.32790845-1.23720017c-.22667199 1.17988327-.32790845 1.23720017-.32790845 1.23720017z" fill="#c3181f"/><path d="m26.21803419 31.0808508-.58712887.49103069s.05468855-.04659873.58712887-.49103069z" fill="#c3181f"/><path d="m28.01212403 32.58504328c-.07483712-.02549014-.16184153-.05493949-.25804257-.08718662-.63093673-.21152882-1.64522281-.53913966-2.05434061-.60151904l-.28065074-2.13875051-.13051933-.99468356-.03411441-.25997442 1.1052719 1.20959444.01074535.12549653.09866612 1.15186554.00597088.06970484.22374283.19988007 1.21984912 1.08977179.37071512.33118118s-.10681285-.03730663-.27729366-.09538025z" fill="url(#e)"/><path d="m23.02165838 28.49582917.05738073-.04002335-.11861053.33373037z" fill="#c3181f"/><path d="m25.64793864 28.71703895.77145073-.30966833c.01625168.20378176.05540096.49647607.16085986.81932589.39492291 1.20903217 1.31049491 1.98707311 1.31049491 1.98707311s-.29533018.32879645-.54554305.27403746c-.59720817-.13068597-1.24934492-1.2378399-1.69726245-2.77076813z" fill="#d82317"/><path d="m22.20577775 26.87084823c.01309345-.04890001.0233974-.09736523.03442816-.14595969.00054787.00172313.00118589.00333467.00172098.00506276l-.03614914.14089694z" fill="#c3181f"/><path d="m23.96429026 26.56607984-.00158478-.00576465c.26520727-1.17130946-.04847191-2.23206372-.04847191-2.23206372s.42692009-.11430772.60668786.06814385z" fill="#b04122"/><path d="m24.55085604 32.38461359c-.00778335-.03039091-.01622184-.06000956-.02523746-.0889045-.0005351-.00172809-.00117311-.00333963-.00172098-.00506276-.27762693-.88065599-1.10340745-1.07152573-1.10340745-1.07152573s.37491463-.51377732.64097669-.61581554l.46295817 1.68510558.00158478.00576465.02484625.09043829z" fill="#ea5a59"/><path d="m24.67003353 26.21089174.94821176-.66138013c-.10052011.28370929-.40038213 1.07848228-.94765055 1.94541893-.15765913.24975783-.31090871.46560537-.45301724.65099779l.33384549-1.60130622.11861053-.33373036z" fill="#c3181f"/><path d="m25.00542381 24.76927891c.02602687.35916511.03473277.89647257-.05840135 1.57971241-.01834674.13458202-.03947582.26415633-.06209327.38908066l-.79616157.61037484.91665618-2.57916791z" fill="#c3181f"/><path d="m22.21602945 30.88402665.19953931-.56144314c.02017369.09943611.03817201.18950881.05351546.26706473-.09178646.11218822-.17737427.21101219-.25305477.29437841z" fill="#c3181f"/><path d="m24.47947097 25.9308314 1.235401-.33462304c-1.13514489.39363793-1.235401.33462304-1.235401.33462304z" fill="#c3181f"/><path d="m24.70448258 28.17226393-.71880948-.26295317s.06769996.02406231.71880948.26295317z" fill="#c3181f"/><path d="m24.2988586 30.47808754c-.01534345-.07755592-.03334177-.16762862-.05351546-.26706473-.13227904-.65217165-.35570277-1.69437458-.50623953-2.07987067l1.7118869-1.31242593.79616157-.61037484.20808725-.15953115-.49490357 1.56199077-.10331051.07205401-.94821176.66138013-.05738072.04002335-.06122981.29370701-.33384549 1.60130622-.10145375.4866393s-.02109793-.11115596-.05604511-.28783348z" fill="url(#f)"/><path d="m33.25052738 36.72412874-.1267032-.05936298.69664847-.1282909z" fill="#c3181f"/><path d="m31.0073937 31.95406812-1.30781202-1.02652352c.33670868-.2319305.80452082-.59243335 1.25825421-1.09794335 1.69918224-1.89305871 2.13121667-4.25691687 2.13121667-4.25691687s.86482234.18273042 1.02018985.67087082c.37085342 1.16508087-.89465667 3.40176877-3.10184872 5.71051293z" fill="#d82317"/><path d="m31.25185846 39.7622564c-.09779075.02622148-.19203892.05683975-.28723776.08632838.00243667-.00267207.00458993-.00538868.00704797-.00804359z" fill="#c3181f"/><path d="m28.96547161 37.02119176-.00839989.00850957c-2.29397477.71195699-3.81757586 2.31601953-3.81757586 2.31601953s-.62490687-.62513957-.48865925-1.11895805l4.31463499-1.20557104z" fill="#b04122"/><path d="m38.45690192 30.18669628c-.04485525.04387206-.08771776.08810662-.12874965.13261706-.00245804.0026549-.0046113.00537152-.00704797.00804359-1.24771398 1.36151995-.75252955 2.98268349-.75252955 2.98268349s-1.26480304-.13559386-1.70760048-.49438865l2.45573031-2.48697265.00839989-.00850957.13179747-.13347326z" fill="#ea5a59"/><path d="m27.6445245 36.15399667-2.09375576-.98097082c.59191903-.10960335 2.26836823-.3850001 4.31721497-.30404003.59025237.02331579 1.11736088.07290432 1.58057849.13365108l-3.10738923 1.02306887-.69664848.1282909z" fill="#c3181f"/><path d="m24.81218756 37.01469649c.59606535-.40424498 1.51800327-.9566315 2.79454351-1.4785583.25144963-.10280454.49700801-.19578222.73600073-.28153197l1.8533618.76861744-5.38390604.99147282z" fill="#c3181f"/><path d="m38.19263567 35.73132151-1.17198736.21583091c.15205471-.13437796.29006688-.25562467.40905422-.35975622.28610215.04679059.54285809.09620906.76293314.14392531z" fill="#c3181f"/><path d="m27.35000834 36.76412104-1.81498511-1.80515426c1.81694578 1.57249068 1.81498511 1.80515426 1.81498511 1.80515426z" fill="#c3181f"/><path d="m31.00727174 34.13295698.26336122 1.50796772s-.02602282-.14132208-.26336122-1.50796772z" fill="#c3181f"/><path d="m35.40669937 32.52969471c-.11898735.10413155-.25699951.22537826-.40905422.35975622-.99731539.88128566-2.57904009 2.31046984-3.09620215 2.95670327l-3.98507529-1.65264917-1.8533618-.76861744-.48440331-.20088653 3.20035094-.70479265.22811172.10688504 2.09375576.98097082.1267032.05936298.56994527-.18765388 3.10738923-1.02306887.94433775-.31091624s-.17142984.14769865-.4424971.38490645z" fill="url(#g)"/><path d="m23.33350713 37.08422065-.01194176-.13940969.45942742.53916983z" fill="#c3181f"/><path d="m26.34293396 32.75657958.23508944-1.64586019c.36921205.17563302.91532274.40051879 1.57997394.54070844 2.48902805.52500563 4.75220649-.28277066 4.75220649-.28277066s.27416198.84032332-.07089625 1.21894574c-.82356292.90370892-3.39334651.92608898-6.49637363.16897667z" fill="#d82317"/><path d="m19.70307693 36.87238642c-.07160385-.07157854-.14524412-.13789071-.21838145-.20559101.00353242.00077418.0069617.00128065.01048994.00208193z" fill="#c3181f"/><path d="m20.93371511 33.521785-.01156944-.00301973c-1.76356022-1.63066193-3.91451968-2.14810791-3.91451968-2.14810791s.22893331-.85375501.72471648-.98267035l3.20137265 3.13379799z" fill="#b04122"/><path d="m31.59827698 38.32435703c-.06042194-.01690976-.12016145-.0319125-.17922457-.04519194-.00352824-.00080128-.00695752-.00130775-.01048994-.00208193-1.80296785-.39979203-2.95934445.83963204-2.95934445.83963204s-.51497379-1.1631485-.42564711-1.72601973l3.38164665.8832385.01156944.00301973.18148997.04740332z" fill="#ea5a59"/><path d="m21.02425454 31.9442137-.19733223-2.30373109c.3908788.45781524 1.46760398 1.77196447 2.42191387 3.58679783.27493412.52283145.49554345 1.00411506.67454402 1.43564667l-2.43969825-2.17954358z" fill="#c3181f"/><path d="m18.86269816 29.92168787c.6481191.31408524 1.58746882.83631364 2.67774081 1.68086652.21475616.1663595.41805638.33253045.6118142.49662935l.26103867 1.98936713-3.55059367-4.16686299z" fill="#c3181f"/><path d="m26.66435755 40.86780836-.77290874-.90705537c.19240208.06449426.3664109.12339295.51608514.17437324.10252924.27116702.18810956.51823343.2568236.73268214z" fill="#c3181f"/><path d="m20.34861325 31.99421741.65581689-2.47440034c-.45334399 2.35976655-.65581689 2.47440034-.65581689 2.47440034z" fill="#c3181f"/><path d="m24.45589987 33.84591839-1.17425774.98206137s.1093771-.09319746 1.17425774-.98206137z" fill="#c3181f"/><path d="m28.04407954 36.85430335c-.14967424-.05098029-.32368306-.10987897-.51608514-.17437324-1.26187347-.42305763-3.29044562-1.07827931-4.10868121-1.20303808l-.56130148-4.27750102-.26103867-1.98936713-.06822881-.51994884 2.21054381 2.41918889.0214907.25099307.19733223 2.30373109.01194175.13940968.44748566.39976015 2.43969825 2.17954358.74143024.66236235s-.2136257-.07461327-.55458732-.1907605z" fill="url(#h)"/><path d="m18.06314826 28.67587513.11476144-.0800467-.23722106.66746072z" fill="#c3181f"/><path d="m23.31570877 29.11829468 1.54290145-.61933667c.03250336.40756352.11080193.99295214.32171973 1.63865179.78984582 2.41806434 2.62098982 3.97414622 2.62098982 3.97414622s-.59066035.6575929-1.0910861.54807492c-1.19441634-.26137195-2.49868984-2.47567979-3.39452491-5.54153625z" fill="#d82317"/><path d="m16.43138698 25.42591324c.02618691-.09780002.04679479-.19473045.06885631-.29191939.00109574.00344625.00237177.00666934.00344196.01012552l-.07229828.28179387z" fill="#c3181f"/><path d="m19.94841202 24.81637646-.00316956-.0115293c.53041455-2.34261892-.09694382-4.46412744-.09694382-4.46412744s.85384018-.22861544 1.21337572.13628771z" fill="#b04122"/><path d="m21.12154357 36.45344397c-.01556669-.06078181-.03244369-.12001911-.05047491-.177809-.00107019-.00345618-.00234622-.00667926-.00344196-.01012552-.55525387-1.76131198-2.2068149-2.14305145-2.2068149-2.14305145s.74982925-1.02755463 1.28195338-1.23163107l.92591634 3.37021116.00316956.0115293.0496925.18087658z" fill="#ea5a59"/><path d="m21.35989855 24.10600025 1.89642353-1.32276027c-.20104023.56741859-.80076425 2.15696457-1.8953011 3.89083785-.31531825.49951566-.62181743.93121075-.90603448 1.30199559l.66769099-3.20261245.23722106-.66746073z" fill="#c3181f"/><path d="m22.03067911 21.2227746c.05205375.71833023.06946555 1.79294515-.1168027 3.15942482-.03669347.26916404-.07895163.52831267-.12418653.77816131l-1.59232313 1.22074968 1.83331237-5.15833582z" fill="#c3181f"/><path d="m16.45189039 33.45227007.39907863-1.12288629c.04034737.19887222.07634402.37901762.10703092.53412946-.18357291.22437644-.35474853.42202437-.50610955.58875683z" fill="#c3181f"/><path d="m20.97877342 23.54587959 2.470802-.66924608c-2.27028977.78727586-2.470802.66924608-2.470802.66924608z" fill="#c3181f"/><path d="m21.42879665 28.02874463-1.43761897-.52590635s.13539992.04812462 1.43761897.52590635z" fill="#c3181f"/><path d="m20.61754869 32.64039186c-.0306869-.15511184-.06668354-.33525724-.10703092-.53412946-.26455808-1.3043433-.71140554-3.38874916-1.01247906-4.15974135l3.42377381-2.62485186 1.59232313-1.22074968.41617449-.3190623-.98980713 3.12398154-.20662102.14410803-1.89642353 1.32276027-.11476145.0800467-.12245961.58741402-.66769099 3.20261245-.20290751.9732786s-.04219587-.22231192-.11209022-.57566696z" fill="url(#i)"/><path d="m22.70980964 19.9074377.1267032.05936298-.69664847.1282909z" fill="#c3181f"/><path d="m24.95294333 24.67749832 1.30781202 1.02652352c-.33670868.2319305-.80452082.59243335-1.25825421 1.09794335-1.69918224 1.89305871-2.13121667 4.25691687-2.13121667 4.25691687s-.86482234-.18273042-1.02018985-.67087082c-.37085342-1.16508087.89465667-3.40176877 3.10184872-5.71051293z" fill="#d82317"/><path d="m24.70847856 16.86931004c.09779075-.02622148.19203892-.05683975.28723776-.08632838-.00243667.00267207-.00458993.00538868-.00704797.00804359z" fill="#c3181f"/><path d="m26.99486542 19.61037468.00839989-.00850957c2.29397477-.71195699 3.81757586-2.31601953 3.81757586-2.31601953s.62490687.62513957.48865925 1.11895805l-4.31463499 1.20557104z" fill="#b04122"/><path d="m17.50343511 26.44487016c.04485525-.04387206.08771776-.08810662.12874965-.13261706.00245804-.0026549.0046113-.00537152.00704797-.00804359 1.24771398-1.36151995.75252955-2.98268349.75252955-2.98268349s1.26480304.13559386 1.70760048.49438865l-2.45573031 2.48697265-.00839989.00850957-.13179747.13347326z" fill="#ea5a59"/><path d="m28.31581252 20.47756977 2.09375576.98097082c-.59191903.10960335-2.26836823.3850001-4.31721497.30404003-.59025237-.02331579-1.11736088-.07290432-1.58057849-.13365108l3.10738923-1.02306887.69664848-.1282909z" fill="#c3181f"/><path d="m31.14814946 19.61686995c-.59606535.40424498-1.51800327.9566315-2.79454351 1.4785583-.25144963.10280454-.49700801.19578222-.73600073.28153197l-1.8533618-.76861744 5.38390604-.99147282z" fill="#c3181f"/><path d="m17.76770135 20.90024493 1.17198736-.21583091c-.15205471.13437796-.29006688.25562467-.40905422.35975622-.28610215-.04679059-.54285809-.09620906-.76293314-.14392531z" fill="#c3181f"/><path d="m28.61032869 19.86744539 1.81498511 1.80515426c-1.81694578-1.57249068-1.81498511-1.80515426-1.81498511-1.80515426z" fill="#c3181f"/><path d="m24.95306529 22.49860946-.26336122-1.50796772s.02602282.14132208.26336122 1.50796772z" fill="#c3181f"/><path d="m20.55363766 24.10187173c.11898735-.10413155.25699951-.22537826.40905422-.35975622.99731539-.88128566 2.57904009-2.31046984 3.09620215-2.95670327l3.98507529 1.65264917 1.8533618.76861744.48440331.20088653-3.20035094.70479265-.22811172-.10688504-2.09375576-.98097082-.1267032-.05936298-.56994527.18765388-3.10738923 1.02306887-.94433775.31091624s.17142984-.14769865.4424971-.38490645z" fill="url(#j)"/><path d="m32.6268299 19.54734579.01194175.13940968-.45942741-.53916982z" fill="#c3181f"/><path d="m29.61740307 23.87498686-.23508944 1.64586019c-.36921205-.17563302-.91532274-.40051879-1.57997394-.54070844-2.48902805-.52500563-4.75220649.28277066-4.75220649.28277066s-.27416198-.84032332.07089625-1.21894574c.82356292-.90370892 3.39334651-.92608898 6.49637363-.16897667z" fill="#d82317"/><path d="m36.25726009 19.75918002c.07160385.07157854.14524412.13789071.21838145.20559101-.00353242-.00077418-.0069617-.00128065-.01048994-.00208193z" fill="#c3181f"/><path d="m35.02662191 23.10978144.01156944.00301973c1.76356022 1.63066193 3.91451968 2.14810791 3.91451968 2.14810791s-.22893331.85375501-.72471648.98267035l-3.20137265-3.13379799z" fill="#b04122"/><path d="m24.36206005 18.30720941c.06042194.01690976.12016145.0319125.17922457.04519194.00352824.00080128.00695752.00130775.01048994.00208193 1.80296785.39979203 2.95934445-.83963204 2.95934445-.83963204s.51497379 1.1631485.42564711 1.72601973l-3.38164665-.8832385-.01156944-.00301973-.18148997-.04740332z" fill="#ea5a59"/><path d="m34.93608249 24.68735273.19733223 2.30373109c-.3908788-.45781524-1.46760398-1.77196447-2.42191387-3.58679783-.27493412-.52283145-.49554345-1.00411506-.67454402-1.43564667l2.43969825 2.17954358z" fill="#c3181f"/><path d="m37.09763886 26.70987856c-.6481191-.31408524-1.58746882-.83631364-2.67774081-1.68086652-.21475616-.1663595-.41805638-.33253045-.6118142-.49662935l-.26103867-1.98936713 3.55059367 4.16686299z" fill="#c3181f"/><path d="m29.29597947 15.76375808.77290874.90705537c-.19240208-.06449426-.3664109-.12339295-.51608514-.17437324-.10252924-.27116702-.18810956-.51823343-.2568236-.73268214z" fill="#c3181f"/><path d="m35.61172378 24.63734903-.65581689 2.47440034c.45334399-2.35976655.65581689-2.47440034.65581689-2.47440034z" fill="#c3181f"/><path d="m31.50443715 22.78564805 1.17425774-.98206137s-.1093771.09319746-1.17425774.98206137z" fill="#c3181f"/><path d="m27.91625748 19.77726309c.14967424.05098029.32368306.10987897.51608514.17437324 1.26187347.42305763 3.29044562 1.07827931 4.10868121 1.20303808l.56130148 4.27750102.26103867 1.98936713.06822881.51994884-2.21054381-2.41918889-.0214907-.25099307-.19733223-2.30373109-.01194175-.13940968-.44748566-.39976015-2.43969825-2.17954358-.74143024-.66236235s.2136257.07461327.55458732.1907605z" fill="url(#k)"/><path d="m37.89718877 27.95569131-.11476145.0800467.23722106-.66746072z" fill="#c3181f"/><path d="m32.64462825 27.51327176-1.54290145.61933667c-.03250336-.40756352-.11080193-.99295214-.32171973-1.63865179-.78984582-2.41806434-2.62098982-3.97414622-2.62098982-3.97414622s.59066035-.6575929 1.0910861-.54807492c1.19441634.26137195 2.49868984 2.47567979 3.39452491 5.54153625z" fill="#d82317"/><path d="m39.52895004 31.2056532c-.02618691.09780002-.04679479.19473045-.06885631.29191939-.00109574-.00344625-.00237177-.00666934-.00344196-.01012552l.07229828-.28179387z" fill="#c3181f"/><path d="m36.01192501 31.81518998.00316956.0115293c-.53041455 2.34261892.09694382 4.46412744.09694382 4.46412744s-.85384018.22861544-1.21337572-.13628771z" fill="#b04122"/><path d="m34.83879345 20.17812247c.01556669.06078181.03244369.12001911.05047491.177809.00107019.00345618.00234622.00667926.00344196.01012552.55525387 1.76131198 2.2068149 2.14305145 2.2068149 2.14305145s-.74982925 1.02755463-1.28195338 1.23163107l-.92591634-3.37021116-.00316956-.0115293-.0496925-.18087658z" fill="#ea5a59"/><path d="m34.60043847 32.52556618-1.89642353 1.32276027c.20104023-.56741859.80076425-2.15696457 1.8953011-3.89083785.31531825-.49951566.62181743-.93121075.90603448-1.30199559l-.66769099 3.20261245-.23722106.66746073z" fill="#c3181f"/><path d="m33.92965792 35.40879183c-.05205375-.71833023-.06946555-1.79294515.1168027-3.15942482.03669347-.26916404.07895163-.52831267.12418653-.77816131l1.59232313-1.22074968-1.83331237 5.15833582z" fill="#c3181f"/><path d="m39.50844664 23.17929637-.39907863 1.12288629c-.04034737-.19887222-.07634402-.37901762-.10703092-.53412946.18357291-.22437644.35474853-.42202437.50610955-.58875683z" fill="#c3181f"/><path d="m34.9815636 33.08568685-2.470802.66924608c2.27028977-.78727586 2.470802-.66924608 2.470802-.66924608z" fill="#c3181f"/><path d="m34.53154038 28.6028218 1.43761897.52590635s-.13539992-.04812462-1.43761897-.52590635z" fill="#c3181f"/><path d="m35.34278834 23.99117458c.0306869.15511184.06668354.33525724.10703092.53412946.26455808 1.3043433.71140554 3.38874916 1.01247906 4.15974135l-3.42377381 2.62485186-1.59232313 1.22074968-.41617449.3190623.98980713-3.12398154.20662102-.14410803 1.89642353-1.32276027.11476145-.0800467.12245961-.58741402.66769099-3.20261245.20290751-.9732786s.04219587.22231192.11209022.57566696z" fill="url(#l)"/><path d="m17.43945077 11.49909219.25340641.11872595-1.39329695.2565818z" fill="#c3181f"/><path d="m21.92571814 21.03921342 2.61562403 2.05304704c-.67341737.463861-1.60904163 1.18486671-2.51650843 2.19588671-3.39836448 3.78611742-4.26243335 8.51383375-4.26243335 8.51383375s-1.72964467-.36546084-2.0403797-1.34174163c-.74170685-2.33016174 1.78931334-6.80353755 6.20369744-11.42102586z" fill="#d82317"/><path d="m21.43678861 5.42283686c.19558151-.05244296.38407783-.11367949.57447553-.17265675-.00487334.00534414-.00917986.01077736-.01409595.01608717z" fill="#c3181f"/><path d="m26.00956232 10.90496614.01679977-.01701913c4.58794953-1.42391397 7.63515172-4.63203906 7.63515172-4.63203906s1.24981374 1.25027914.97731849 2.23791611l-8.62926998 2.41114209z" fill="#b04122"/><path d="m7.0267017 24.5739571c.0897105-.08774411.17543551-.17621323.2574993-.26523411.00491609-.00530981.00922261-.01074303.01409595-.01608717 2.49542796-2.72303989 1.5050591-5.96536698 1.5050591-5.96536698s2.52960608.27118773 3.41520097.98877731l-4.91146061 4.97394531-.01679977.01701913-.26359493.26694652z" fill="#ea5a59"/><path d="m28.65145653 12.63935632 4.18751152 1.96194164c-1.18383805.21920669-4.53673647.7700002-8.63442995.60808005-1.18050475-.04663158-2.23472175-.14580864-3.16115699-.26730216l6.21477846-2.04613774 1.39329695-.2565818z" fill="#c3181f"/><path d="m34.31613041 10.91795668c-1.1921307.80848997-3.03600654 1.913263-5.58908702 2.95711661-.50289926.20560908-.99401602.39156443-1.47200146.56306393l-3.70672361-1.53723489 10.76781208-1.98294565z" fill="#c3181f"/><path d="m7.55523419 13.48470664 2.34397473-.43166183c-.30410942.26875593-.58013375.51124935-.81810844.71951245-.5722043-.09358117-1.08571619-.19241811-1.52586629-.28785062z" fill="#c3181f"/><path d="m29.24048886 11.41910757 3.62997021 3.61030852c-3.63389157-3.14498137-3.62997021-3.61030852-3.62997021-3.61030852z" fill="#c3181f"/><path d="m21.92596206 16.68143571-.52672245-3.01593544s.05204563.28264416.52672245 3.01593544z" fill="#c3181f"/><path d="m13.1271068 19.88796025c.23797469-.2082631.51399902-.45075652.81810844-.71951245 1.99463079-1.76257133 5.15808018-4.62093969 6.1924043-5.91340653l7.97015058 3.30529833 3.70672361 1.53723489.96880662.40177307-6.40070187 1.4095853-.45622345-.21377008-4.18751152-1.96194164-.25340641-.11872596-1.13989055.37530775-6.21477846 2.04613774-1.88867549.62183249s.34285967-.2953973.8849942-.76981291z" fill="url(#m)"/><path d="m37.27349128 10.77890837.02388351.27881936-.91885483-1.07833966z" fill="#c3181f"/><path d="m31.25463762 19.43419049-.47017888 3.29172038c-.7384241-.35126605-1.83064549-.80103758-3.15994788-1.08141687-4.97805611-1.05001126-9.50441298.56554131-9.50441298.56554131s-.54832396-1.68064664.14179249-2.43789147c1.64712584-1.80741784 6.78669302-1.85217797 12.99274725-.33795335z" fill="#d82317"/><path d="m44.53435167 11.20257682c.14320769.14315707.29048824.27578141.4367629.41118202-.00706483-.00154837-.0139234-.00256131-.02097987-.00416386l-.41578302-.40701816z" fill="#c3181f"/><path d="m42.07307531 17.90377966.02313889.00603946c3.52712044 3.26132386 7.82903936 4.29621582 7.82903936 4.29621582s-.45786662 1.70751002-1.44943296 1.96534069z" fill="#b04122"/><path d="m20.74395158 8.2986356c.12084388.03381952.24032289.06382499.35844913.09038388.00705647.00160255.01391504.00261549.02097987.00416386 3.6059357.79958406 5.91868889-1.67926408 5.91868889-1.67926408s1.02994758 2.32629699.85129422 3.45203945l-6.7632933-1.76647701-.02313889-.00603946-.36297993-.09480665z" fill="#ea5a59"/><path d="m41.89199646 21.05892225.39466446 4.60746217c-.78175759-.91563048-2.93520797-3.54392893-4.84382775-7.17359566-.54986824-1.04566289-.99108689-2.00823013-1.34908803-2.87129334l4.87939649 4.35908716.91885483 1.07833966z" fill="#c3181f"/><path d="m46.21510922 25.10397391c-1.2962382-.62817049-3.17493764-1.67262729-5.35548161-3.36173304-.42951232-.332719-.83611276-.66506091-1.2236284-.99325869l-.52207734-3.97873425z" fill="#c3181f"/><path d="m30.61179043 3.21173293 1.54581748 1.81411075c-.38480417-.12898852-.7328218-.24678589-1.03217028-.34874647-.20505848-.54233405-.37621912-1.03646686-.5136472-1.46536428z" fill="#c3181f"/><path d="m43.24327904 20.95891483-1.31163379 4.94880068c.90668798-4.7195331 1.31163379-4.94880068 1.31163379-4.94880068z" fill="#c3181f"/><path d="m35.02870579 17.25551288 2.34851548-1.96412274s-.21875421.18639492-2.34851548 1.96412274z" fill="#c3181f"/><path d="m27.85234645 11.23874297c.29934848.10196058.64736611.21975795 1.03217028.34874647 2.52374694.84611527 6.58089125 2.15655862 8.21736243 2.40607617l1.12260297 8.55500204.52207734 3.97873425.13645763 1.03989767-4.42108761-4.83837778-.0429814-.50198614-.39466446-4.60746217-.02388351-.27881936-.89497132-.79952029-4.87939649-4.35908716-1.48286048-1.32472471s.4272514.14922653 1.10917463.38152101z" fill="url(#n)"/><path d="m47.81420902 27.5955994-.22952289.1600934.47444212-1.33492145z" fill="#c3181f"/><path d="m37.30908799 26.71076029-3.08580291 1.23867334c-.06500673-.81512705-.22160385-1.98590428-.64343946-3.27730358-1.57969163-4.83612868-5.24197964-7.94829243-5.24197964-7.94829243s1.18132071-1.3151858 2.18217219-1.09614984c2.38883269.5227439 4.99737968 4.95135958 6.78904981 11.08307251z" fill="#d82317"/><path d="m51.07773157 34.09552318c-.05237382.19560004-.09358959.38946091-.13771263.58383878-.00219149-.00689251-.00474354-.01333867-.00688393-.02025103l.14459655-.56358774z" fill="#c3181f"/><path d="m44.0436815 35.31459674.00633912.0230586c-1.06082909 4.68523783.19388764 8.92825488.19388764 8.92825488s-1.70768037.45723088-2.42675145-.27257541l2.22652469-8.67873806z" fill="#b04122"/><path d="m41.69741839 12.04046172c.03113338.12156363.06488738.24003823.10094983.355618.00214038.00691236.00469244.01335853.00688393.02025103 1.11050774 3.52262396 4.4136298 4.2861029 4.4136298 4.2861029s-1.4996585 2.05510926-2.56390675 2.46326215l-1.85183269-6.74042231-.00633912-.0230586z" fill="#ea5a59"/><path d="m41.22070844 36.73534915-3.79284706 2.64552054c.40208046-1.13483717 1.6015285-4.31392913 3.7906022-7.78167571.63063651-.99903131 1.24363486-1.86242149 1.81206895-2.60399118l-1.33538197 6.4052249z" fill="#c3181f"/><path d="m39.87914732 42.50180045c-.1041075-1.43666045-.1389311-3.58589029.2336054-6.31884964.07338694-.53832808.15790326-1.05662534.24837306-1.55632262l3.18464627-2.44149936-3.66662474 10.31667163z" fill="#c3181f"/><path d="m51.03672476 18.04280951-.79815725 2.24577258c-.08069475-.39774445-.15268805-.75803524-.21406184-1.06825892.36714582-.44875287.70949707-.84404874 1.01221909-1.17751366z" fill="#c3181f"/><path d="m41.98295869 37.85559048-4.941604 1.33849216c4.54057954-1.57455173 4.941604-1.33849216 4.941604-1.33849216z" fill="#c3181f"/><path d="m41.08291224 28.88986039 2.87523793 1.0518127s-.27079984-.09624924-2.87523793-1.0518127z" fill="#c3181f"/><path d="m42.70540816 19.66656594c.06137379.31022368.13336709.67051447.21406184 1.06825892.52911615 2.60868659 1.42281107 6.77749831 2.02495813 8.3194827l-6.84754761 5.24970371-3.18464627 2.44149936-.83234899.63812461 1.97961426-6.24796307.41324204-.28821605 3.79284706-2.64552054.2295229-.16009341.24491922-1.17482805 1.33538197-6.4052249.40581501-1.9465572s.08439173.44462384.22418043 1.15133391z" fill="url(#o)"/><path d="m38.52088625 45.13247425-.2534064-.11872595 1.39329695-.2565818z" fill="#c3181f"/><path d="m34.03461888 35.59235302-2.61562403-2.05304704c.67341737-.463861 1.60904163-1.18486671 2.51650843-2.19588671 3.39836448-3.78611742 4.26243335-8.51383375 4.26243335-8.51383375s1.72964467.36546084 2.0403797 1.34174163c.74170685 2.33016174-1.78931334 6.80353755-6.20369744 11.42102586z" fill="#d82317"/><path d="m34.52354841 51.20872957c-.19558151.05244296-.38407783.11367949-.57447553.17265675.00487334-.00534414.00917986-.01077736.01409595-.01608717z" fill="#c3181f"/><path d="m29.9507747 45.7266003-.01679977.01701913c-4.58794953 1.42391397-7.63515172 4.63203906-7.63515172 4.63203906s-1.24981374-1.25027914-.97731849-2.23791611l8.62926998-2.41114209z" fill="#b04122"/><path d="m48.93363532 32.05760934c-.0897105.08774411-.17543551.17621323-.2574993.26523411-.00491609.00530981-.00922261.01074303-.01409595.01608717-2.49542796 2.72303989-1.5050591 5.96536698-1.5050591 5.96536698s-2.52960608-.27118773-3.41520097-.98877731l4.91146061-4.97394531.01679977-.01701913.26359493-.26694652z" fill="#ea5a59"/><path d="m27.30888049 43.99221012-4.18751152-1.96194164c1.18383805-.21920669 4.53673647-.7700002 8.63442995-.60808005 1.18050475.04663158 2.23472175.14580864 3.16115699.26730216l-6.21477846 2.04613774-1.39329695.2565818z" fill="#c3181f"/><path d="m21.64420662 45.71360976c1.1921307-.80848997 3.03600654-1.913263 5.58908702-2.95711661.50289926-.20560908.99401602-.39156443 1.47200146-.56306393l3.70672361 1.53723489-10.76781208 1.98294565z" fill="#c3181f"/><path d="m48.40510284 43.1468598-2.34397473.43166183c.30410942-.26875593.58013375-.51124935.81810844-.71951245.5722043.09358117 1.08571619.19241811 1.52586629.28785062z" fill="#c3181f"/><path d="m26.71984816 45.21245887-3.62997021-3.61030852c3.63389157 3.14498137 3.62997021 3.61030852 3.62997021 3.61030852z" fill="#c3181f"/><path d="m34.03437496 39.95013073.52672245 3.01593544s-.05204563-.28264416-.52672245-3.01593544z" fill="#c3181f"/><path d="m42.83323022 36.74360619c-.23797469.2082631-.51399902.45075652-.81810844.71951245-1.99463079 1.76257133-5.15808018 4.62093969-6.1924043 5.91340653l-7.97015058-3.30529833-3.70672361-1.53723489-.96880662-.40177307 6.40070187-1.4095853.45622345.21377008 4.18751152 1.96194164.25340641.11872596 1.13989055-.37530775 6.21477846-2.04613774 1.88867549-.62183249s-.34285967.2953973-.8849942.76981291z" fill="url(#p)"/><path d="m18.68684574 45.85265807-.02388351-.27881936.91885483 1.07833966z" fill="#c3181f"/><path d="m24.7056994 37.19737594.47017888-3.29172038c.7384241.35126605 1.83064549.80103758 3.15994788 1.08141687 4.97805611 1.05001126 9.50441298-.56554131 9.50441298-.56554131s.54832396 1.68064664-.14179249 2.43789147c-1.64712584 1.80741784-6.78669302 1.85217797-12.99274725.33795335z" fill="#d82317"/><path d="m11.42598535 45.42898962c-.14320769-.14315707-.29048824-.27578141-.4367629-.41118202.00706483.00154837.0139234.00256131.02097987.00416386l.41578302.40701816z" fill="#c3181f"/><path d="m13.88726171 38.72778678-.02313889-.00603946c-3.52712044-3.26132386-7.82903936-4.29621582-7.82903936-4.29621582s.45786662-1.70751002 1.44943296-1.96534069z" fill="#b04122"/><path d="m35.21638544 48.33293083c-.12084388-.03381952-.24032289-.06382499-.35844913-.09038388-.00705647-.00160255-.01391504-.00261549-.02097987-.00416386-3.6059357-.79958406-5.91868889 1.67926408-5.91868889 1.67926408s-1.02994758-2.32629699-.85129422-3.45203945l6.7632933 1.76647701.02313889.00603946.36297993.09480665z" fill="#ea5a59"/><path d="m14.06834056 35.57264419-.39466446-4.60746217c.78175759.91563048 2.93520797 3.54392893 4.84382775 7.17359566.54986824 1.04566289.99108689 2.00823013 1.34908803 2.87129334l-4.87939649-4.35908716-.91885483-1.07833966z" fill="#c3181f"/><path d="m9.74522781 31.52759253c1.2962382.62817049 3.17493764 1.67262729 5.35548161 3.36173304.42951232.332719.83611276.66506091 1.2236284.99325869l.52207734 3.97873425z" fill="#c3181f"/><path d="m25.34854659 53.41983351-1.54581748-1.81411075c.38480417.12898852.7328218.24678589 1.03217028.34874647.20505848.54233405.37621912 1.03646686.5136472 1.46536428z" fill="#c3181f"/><path d="m12.71705798 35.67265161 1.31163379-4.94880068c-.90668798 4.7195331-1.31163379 4.94880068-1.31163379 4.94880068z" fill="#c3181f"/><path d="m20.93163123 39.37605356-2.34851548 1.96412274s.21875421-.18639492 2.34851548-1.96412274z" fill="#c3181f"/><path d="m28.10799058 45.39282347c-.29934848-.10196058-.64736611-.21975795-1.03217028-.34874647-2.52374694-.84611527-6.58089125-2.15655862-8.21736243-2.40607617l-1.12260297-8.55500204-.52207734-3.97873425-.13645763-1.03989767 4.42108761 4.83837778.0429814.50198614.39466446 4.60746217.02388351.27881936.89497132.79952029 4.87939649 4.35908716 1.48286048 1.32472471s-.4272514-.14922653-1.10917463-.38152101z" fill="url(#q)"/><path d="m8.146128 29.03596704.2295229-.16009341-.47444213 1.33492146z" fill="#c3181f"/><path d="m18.65124903 29.92080615 3.08580291-1.23867334c.06500673.81512705.22160385 1.98590428.64343946 3.27730358 1.57969163 4.83612868 5.24197964 7.94829243 5.24197964 7.94829243s-1.18132071 1.3151858-2.18217219 1.09614984c-2.38883269-.5227439-4.99737968-4.95135958-6.78904981-11.08307251z" fill="#d82317"/><path d="m4.88260545 22.53604326c.05237382-.19560004.09358959-.38946091.13771263-.58383878.00219149.00689251.00474354.01333867.00688393.02025103l-.14459655.56358774z" fill="#c3181f"/><path d="m11.91665552 21.3169697-.00633912-.0230586c1.06082909-4.68523783-.19388764-8.92825488-.19388764-8.92825488s1.70768037-.45723088 2.42675145.27257541l-2.22652469 8.67873806z" fill="#b04122"/><path d="m14.26291863 44.59110471c-.03113338-.12156363-.06488738-.24003823-.10094983-.355618-.00214038-.00691236-.00469244-.01335853-.00688393-.02025103-1.11050774-3.52262396-4.4136298-4.2861029-4.4136298-4.2861029s1.4996585-2.05510926 2.56390675-2.46326215l1.85183269 6.74042231.00633912.0230586z" fill="#ea5a59"/><path d="m14.73962858 19.89621729 3.79284706-2.64552054c-.40208046 1.13483717-1.6015285 4.31392913-3.7906022 7.78167571-.63063651.99903131-1.24363486 1.86242149-1.81206895 2.60399118l1.33538197-6.4052249z" fill="#c3181f"/><path d="m16.0811897 14.12976599c.1041075 1.43666045.1389311 3.58589029-.2336054 6.31884964-.07338694.53832808-.15790326 1.05662534-.24837306 1.55632262l-3.18464627 2.44149936 3.66662474-10.31667163z" fill="#c3181f"/><path d="m4.92361226 38.58875693.79815725-2.24577258c.08069475.39774445.15268805.75803524.21406184 1.06825892-.36714582.44875287-.70949707.84404874-1.01221909 1.17751366z" fill="#c3181f"/><path d="m13.97737833 18.77597595 4.941604-1.33849216c-4.54057954 1.57455173-4.941604 1.33849216-4.941604 1.33849216z" fill="#c3181f"/><path d="m14.87742478 27.74170605-2.87523793-1.0518127s.27079984.09624924 2.87523793 1.0518127z" fill="#c3181f"/><path d="m13.25492886 36.9650005c-.06137379-.31022368-.13336709-.67051447-.21406184-1.06825892-.52911615-2.60868659-1.42281107-6.77749831-2.02495813-8.3194827l6.84754761-5.24970371 3.18464627-2.44149936.83234899-.63812461-1.97961426 6.24796307-.41324204.28821605-3.79284706 2.64552054-.2295229.16009341-.24491922 1.17482805-1.33538197 6.4052249-.40581501 1.9465572s-.08439173-.44462384-.22418043-1.15133391z" fill="url(#r)"/></g><path d="m0 0h56.692913v56.692913h-56.692913z" fill="none"/></svg>