<svg viewBox="0 0 56.69291338 56.69291339" xmlns="http://www.w3.org/2000/svg" xmlns:xlink="http://www.w3.org/1999/xlink"><linearGradient id="a" gradientTransform="matrix(.23359978 -1.04629618 -.69903796 -.15815072 31.590255 16.505878)" gradientUnits="userSpaceOnUse" x1="-11.068003" x2="14.21142" y1="7.005827" y2="7.005827"><stop offset=".42309452831" stop-color="#ea5445"/><stop offset=".48528608602" stop-color="#e83e32"/><stop offset=".55653000584" stop-color="#e72c24"/><stop offset=".63331084473" stop-color="#e7221b"/><stop offset=".72474318336" stop-color="#e71f19"/></linearGradient><linearGradient id="b" gradientTransform="matrix(1.04629618 .23359978 .15815072 -.69903796 46.456202 31.019298)" x1="-16.299478" x2="8.979945" xlink:href="#a" y1="3.961675" y2="3.961675"/><linearGradient id="c" gradientTransform="matrix(-.23359978 1.04629618 .69903796 .15815072 31.942782 45.885245)" x1="-14.249529" x2="11.029894" xlink:href="#a" y1="-3.87229" y2="-3.87229"/><linearGradient id="d" gradientTransform="matrix(-1.04629618 -.23359978 -.15815072 .69903796 17.076835 31.371825)" x1="-9.018054" x2="16.261368" xlink:href="#a" y1="-.828139" y2="-.828139"/><g stroke="#fff" stroke-miterlimit="10" stroke-width=".5"><path d="m26.70956135 10.31729888-.28378081.14816844.25497888-1.24688471z" fill="#c3181f"/><path d="m27.71290089 15.85360428 4.99769221.63138438c-.3353663.67003098-.72795058 1.66515561-.80991637 2.89183778-.30699372 4.59375567 3.22408311 8.92038931 3.22408311 8.92038931s-2.35376776.41484106-3.64954076-.27458336c-3.09277829-1.64547845-4.44922331-6.45402597-3.76231819-12.16902811z" fill="#c3181f"/><path d="m33.64334736 16.43269557c-.01221436.18283617-.00863677.36413133-.00915274.54588782-.00549102-.00647471-.01136348-.0125341-.0167861-.01902701l.02593884-.52686082z" fill="#c3181f"/><path d="m33.6171397 16.96529182.01691432.021653c-.00847337 4.38103668 3.23338347 8.3661083 3.23338347 8.3661083s-2.35376776.41484106-3.64954076-.27458336z" fill="#c3181f"/><path d="m33.35187713 16.62559079c.08581814.11413529.17445985.22539734.26553139.33396559.00542262.0064929.01129508.0125523.0167861.01902701 2.79238897 3.3090183 7.88951713 4.05045197 7.88951713 4.05045197s-1.52086803 1.91348528-2.94707313 2.28744205l-4.94258459-6.32953258-.01691432-.021653-.26526257-.33970103z" fill="#c3181f"/><path d="m26.42578054 10.46546732-4.68945789 2.44846193c.21492789-1.06000568.92420307-4.02888874 2.98969862-7.2603657.59502576-.93096399 1.20898235-1.73499017 1.79781018-2.42523984l.15692797 5.9902589-.25497887 1.2468847z" fill="#c3181f"/><path d="m23.28972836 25.80141468c-.62723016-1.34678185-1.38819702-3.36059665-1.74446165-5.91806164-.07016672-.50375981-.11739295-.98866531-.14974317-1.45609798l3.86474939-2.26213776-1.97054456 9.63629737z" fill="#c3181f"/><path d="m28.28100524 1.39313908-.42894446 2.09766616c-.24973597-.37327201-.47433793-.71138608-.6668263-1.00250991.39029939-.41751369.76188739-.78514171 1.09577076-1.09515625z" fill="#c3181f"/><path d="m21.54526671 19.88335304-6.80614115 1.21485554c6.13995646-1.4391872 6.80614115-1.21485554 6.80614115-1.21485554z" fill="#c3181f"/><path d="m17.26372592 11.4765436 4.5647528 1.00817526s-.42899469-.09231698-4.5647528-1.00817526z" fill="#c3181f"/><path d="m27.18523448 2.48829533c.19248837.29112383.41709033.6292379.6668263 1.00250991 1.63774314 2.44817812 4.32555063 6.36087048 5.71808341 7.81027054l-8.30987127 4.86404152-3.86474939 2.26213776-1.0101006.59124567.83996219-5.83782421.51093752-.26674728 4.68945789-2.44846193.28378081-.14816843-.02880194-1.09871627-.15692797-5.9902589-.0477046-1.8204485s.27064285.41722096.70910764 1.08042012z" fill="url(#a)"/><path d="m46.68967393 27.04451064-.14816843-.28378081 1.2468847.25497887z" fill="#c3181f"/><path d="m41.15336854 28.04785018-.63138438 4.99769221c-.67003098-.3353663-1.66515561-.72795058-2.89183778-.80991637-4.59375567-.30699372-8.92038931 3.22408311-8.92038931 3.22408311s-.41484106-2.35376776.27458336-3.64954076c1.64547845-3.09277829 6.45402597-4.44922331 12.16902811-3.76231819z" fill="#c3181f"/><path d="m40.57427725 33.97829664c-.18283617-.01221436-.36413133-.00863677-.54588782-.00915274.00647471-.00549102.0125341-.01136348.01902701-.0167861l.52686082.02593884z" fill="#c3181f"/><path d="m40.041681 33.95208899-.021653.01691432c-4.38103668-.00847337-8.3661083 3.23338347-8.3661083 3.23338347s-.41484106-2.35376776.27458336-3.64954076z" fill="#c3181f"/><path d="m40.38138202 33.68682642c-.11413529.08581814-.22539734.17445985-.33396559.26553139-.0064929.00542262-.0125523.01129508-.01902701.0167861-3.3090183 2.79238897-4.05045197 7.88951713-4.05045197 7.88951713s-1.91348528-1.52086803-2.28744205-2.94707313l6.32953258-4.94258459.021653-.01691432.33970103-.26526257z" fill="#c3181f"/><path d="m46.5415055 26.76072983-2.44846193-4.68945789c1.06000568.21492789 4.02888874.92420307 7.2603657 2.98969862.93096399.59502576 1.73499017 1.20898235 2.42523984 1.79781018l-5.9902589.15692797-1.2468847-.25497887z" fill="#c3181f"/><path d="m31.20555814 23.62467765c1.34678185-.62723016 3.36059665-1.38819702 5.91806164-1.74446165.50375981-.07016672.98866531-.11739295 1.45609798-.14974317l2.26213776 3.86474939-9.63629737-1.97054456z" fill="#c3181f"/><path d="m55.61383374 28.61595453-2.09766616-.42894446c.37327201-.24973597.71138608-.47433793 1.00250991-.6668263.41751369.39029939.78514171.76188739 1.09515625 1.09577076z" fill="#c3181f"/><path d="m37.12361978 21.880216-1.21485554-6.80614115c1.4391872 6.13995646 1.21485554 6.80614115 1.21485554 6.80614115z" fill="#c3181f"/><path d="m45.53042921 17.59867521-1.00817526 4.5647528s.09231698-.42899469 1.00817526-4.5647528z" fill="#c3181f"/><path d="m54.51867749 27.52018377c-.29112383.19248837-.6292379.41709033-1.00250991.6668263-2.44817812 1.63774314-6.36087048 4.32555063-7.81027054 5.71808341l-4.86404152-8.30987127-2.26213776-3.86474939-.59124567-1.0101006 5.83782421.83996219.26674728.51093752 2.44846193 4.68945789.14816843.28378081 1.09871627-.02880194 5.9902589-.15692797 1.8204485-.0477046s-.41722096.27064285-1.08042012.70910764z" fill="url(#b)"/><path d="m29.96246218 47.02462322.28378081-.14816843-.25497887 1.2468847z" fill="#c3181f"/><path d="m28.95912264 41.48831782-4.99769221-.63138438c.3353663-.67003098.72795058-1.66515561.80991637-2.89183778.30699372-4.59375567-3.22408311-8.92038931-3.22408311-8.92038931s2.35376776-.41484106 3.64954076.27458336c3.09277829 1.64547845 4.44922331 6.45402597 3.76231819 12.16902811z" fill="#c3181f"/><path d="m23.02867618 40.90922654c.01221436-.18283617.00863677-.36413133.00915274-.54588782.00549102.00647471.01136348.0125341.0167861.01902701l-.02593884.52686082z" fill="#c3181f"/><path d="m23.05488383 40.37663028-.01691432-.021653c.00847337-4.38103668-3.23338347-8.3661083-3.23338347-8.3661083s2.35376776-.41484106 3.64954076.27458336z" fill="#c3181f"/><path d="m23.3201464 40.71633131c-.08581814-.11413529-.17445985-.22539734-.26553139-.33396559-.00542262-.0064929-.01129508-.0125523-.0167861-.01902701-2.79238897-3.3090183-7.88951713-4.05045197-7.88951713-4.05045197s1.52086803-1.91348528 2.94707313-2.28744205l4.94258459 6.32953258.01691432.021653.26526257.33970103z" fill="#c3181f"/><path d="m30.24624299 46.87645479 4.68945789-2.44846193c-.21492789 1.06000568-.92420307 4.02888874-2.98969862 7.2603657-.59502576.93096399-1.20898235 1.73499017-1.79781018 2.42523984l-.15692797-5.9902589.25497887-1.2468847z" fill="#c3181f"/><path d="m33.38229517 31.54050743c.62723016 1.34678185 1.38819702 3.36059665 1.74446165 5.91806164.07016672.50375981.11739295.98866531.14974317 1.45609798l-3.86474939 2.26213776 1.97054456-9.63629737z" fill="#c3181f"/><path d="m28.39101829 55.94878303.42894446-2.09766616c.24973597.37327201.47433793.71138608.6668263 1.00250991-.39029939.41751369-.76188739.78514171-1.09577076 1.09515625z" fill="#c3181f"/><path d="m35.12675682 37.45856906 6.80614115-1.21485554c-6.13995646 1.4391872-6.80614115 1.21485554-6.80614115 1.21485554z" fill="#c3181f"/><path d="m39.40829761 45.8653785-4.5647528-1.00817526s.42899469.09231698 4.5647528 1.00817526z" fill="#c3181f"/><path d="m29.48678905 54.85362677c-.19248837-.29112383-.41709033-.6292379-.6668263-1.00250991-1.63774314-2.44817812-4.32555063-6.36087048-5.71808341-7.81027054l8.30987127-4.86404152 3.86474939-2.26213776 1.0101006-.59124567-.83996219 5.83782421-.51093752.26674728-4.68945789 2.44846193-.28378081.14816843.02880194 1.09871627.15692797 5.9902589.0477046 1.8204485s-.27064285-.41722096-.70910764-1.08042012z" fill="url(#c)"/><path d="m9.9823496 30.29741146.14816843.28378082-1.2468847-.25497888z" fill="#c3181f"/><path d="m15.51865499 29.29407192.63138438-4.99769221c.67003098.3353663 1.66515561.72795058 2.89183778.80991637 4.59375567.30699372 8.92038931-3.22408311 8.92038931-3.22408311s.41484106 2.35376776-.27458336 3.64954076c-1.64547845 3.09277829-6.45402597 4.44922331-12.16902811 3.76231819z" fill="#c3181f"/><path d="m16.09774628 23.36362546c.18283617.01221436.36413133.00863677.54588782.00915274-.00647471.00549102-.0125341.01136348-.01902701.0167861l-.52686082-.02593884z" fill="#c3181f"/><path d="m16.63034254 23.38983312.021653-.01691432c4.38103668.00847337 8.3661083-3.23338347 8.3661083-3.23338347s.41484106 2.35376776-.27458336 3.64954076z" fill="#c3181f"/><path d="m16.29064151 23.65509569c.11413529-.08581814.22539734-.17445985.33396559-.26553139.0064929-.00542262.0125523-.01129508.01902701-.0167861 3.3090183-2.79238897 4.05045197-7.88951713 4.05045197-7.88951713s1.91348528 1.52086803 2.28744205 2.94707313l-6.32953258 4.94258459-.021653.01691432-.33970103.26526257z" fill="#c3181f"/><path d="m10.13051803 30.58119228 2.44846193 4.68945789c-1.06000568-.21492789-4.02888874-.92420307-7.2603657-2.98969862-.93096399-.59502576-1.73499017-1.20898235-2.42523984-1.79781018l5.9902589-.15692797 1.2468847.25497887z" fill="#c3181f"/><path d="m25.46646539 33.71724446c-1.34678185.62723016-3.36059665 1.38819702-5.91806164 1.74446165-.50375981.07016672-.98866531.11739295-1.45609798.14974317l-2.26213776-3.86474939 9.63629737 1.97054456z" fill="#c3181f"/><path d="m1.05818979 28.72596758 2.09766616.42894446c-.37327201.24973597-.71138608.47433793-1.00250991.6668263-.41751369-.39029939-.78514171-.76188739-1.09515625-1.09577076z" fill="#c3181f"/><path d="m19.54840376 35.46170611 1.21485554 6.80614115c-1.4391872-6.13995646-1.21485554-6.80614115-1.21485554-6.80614115z" fill="#c3181f"/><path d="m11.14159432 39.7432469 1.00817526-4.5647528s-.09231698.42899469-1.00817526 4.5647528z" fill="#c3181f"/><path d="m2.15334604 29.82173833c.29112383-.19248837.6292379-.41709033 1.00250991-.6668263 2.44817812-1.63774314 6.36087048-4.32555063 7.81027054-5.71808341l4.86404152 8.30987127 2.26213776 3.86474939.59124567 1.0101006-5.83782421-.83996219-.26674728-.51093752-2.44846193-4.68945789-.14816843-.28378081-1.09871627.02880194-5.9902589.15692797-1.8204485.0477046s.41722096-.27064285 1.08042012-.70910764z" fill="url(#d)"/></g><path d="m0 0h56.692913v56.692913h-56.692913z" fill="none"/></svg>