<svg viewBox="0 0 44.20175352 50.68379951" xmlns="http://www.w3.org/2000/svg"><path d="m43.77925209 19.86016822c.77269551-2.0435218.45535918-4.33636853-.70551874-5.09486132-1.16072751-.75881528-3.03836826.12428678-4.17269191 1.96236367l-4.17382412 6.76438499c-1.134136 1.83800991-1.7176646 1.57558996-1.29670227-.58331675l2.54754972-13.06116547c.42102479-2.1588394-.52610851-4.26339807-2.10484502-4.67665825-1.57901306-.41325902-3.28508125.99762053-3.79152159 3.13539552l-3.28648867 13.87012541c-.50654023 2.13764039-.95211724 2.08202929-.9904101-.12359251l-.31208536-18.03755948c-.03816766-2.20575608-1.49292349-4.01266759-3.2322364-4.01528195-1.73941336-.00223801-3.20931101 1.79992716-3.26688546 4.00501557l-.45239898 17.3568908c-.05758669 2.20483292-.58439011 2.27934776-1.17075177.16530159l-3.53091278-12.7310992c-.58623844-2.11390974-2.39694585-3.50835811-4.02397766-3.09838344-1.6272694.4099609-2.56402575 2.49987682-2.08234372 4.64438369l4.12697812 18.36423605c.48160709 2.14442609-.44859112 2.78959871-2.06716853 1.43396185l-3.69497239-3.09426653c-1.61860213-1.3559058-3.99154067-1.13359747-5.27285293.49344978-1.28156266 1.62731583-1.04378811 4.1186627.52832685 5.53622172l3.7690255 3.39886306c1.5721171 1.41755673 4.52804897 7.07563595 6.58147107 9.26722379 7.07022815 7.54581693 18.45081595 4.60029608 20.91623862 3.0957729 4.75764188-2.90363753 5.78416625-11.97507401 5.78416625-11.97507401.24770579-2.18999982 1.08273262-5.65339521 1.85554055-7.69679585l3.51929171-9.30553562z"/></svg>