<svg viewBox="0 0 56.69291339 56.69291339" xmlns="http://www.w3.org/2000/svg"><path d="m52.1003726 18.5145002-17.95984067 3.28370731 6.13614639 10.6281173z" fill="#fcf9e3" stroke="#e3dfb6" stroke-miterlimit="10" stroke-width=".5"/><path d="m49.24100236 20.16535838-13.03552142 2.5443155 4.31431885 7.47261945z" fill="#fffddd"/><path d="m47.11577626 21.39235824-9.48007157 1.81938896 3.16439872 5.48089936z" fill="#fffde8"/><path d="m45.62336103 22.25400457-6.92181113 1.32929668 2.30970087 4.00051927z" fill="#fffffc"/><g fill="#fcf9e3" stroke="#e3dfb6" stroke-miterlimit="10" stroke-width=".5"><path d="m39.53924636 31.1490552.98055343-.96676187-4.31431885-7.47261945"/><path d="m50.93978871 19.88004967-1.69878635.28530871-13.03552142 2.5443155-.67315391-1.16593677"/><path d="m49.241002 20.165358-8.721202 10.016935"/><path d="m43.54881674 31.70004622 9.06370965-1.96637856-2.82892103-4.89983497z"/></g><path d="m45.01755008 30.85207264 6.58224429-1.50354756-1.98901177-3.44506944z" fill="#fffddd"/><path d="m46.1091857 30.22181651 4.78622579-1.07877186-1.45886906-2.52683533z" fill="#fffde8"/><path d="m46.87577408 29.77922651 3.49465099-.7880763-1.0648314-1.8443421z" fill="#fffffc"/><path d="m50.12358042 25.42268678-.51279782.48076886 1.98901177 3.44506944" fill="#fcf9e3" stroke="#e3dfb6" stroke-miterlimit="10" stroke-width=".5"/><path d="m44.1608078 31.02607609.85674228-.17400345 6.58224429-1.50354756.31034123.53752678" fill="#fcf9e3" stroke="#e3dfb6" stroke-miterlimit="10" stroke-width=".5"/><path d="m45.01755 30.852073 4.593233-4.948617" fill="#fcf9e3" stroke="#e3dfb6" stroke-miterlimit="10" stroke-width=".5"/><path d="m22.92044412 16.02876671 4.86415867-1.55693538-1.08373374-1.8770819z" fill="#fcf9e3" stroke="#e3dfb6" stroke-miterlimit="10" stroke-width=".5"/><path d="m23.75036794 15.54960997 3.53839873-1.16304576-.76197219-1.31977455z" fill="#fffddd"/><path d="m24.36720858 15.19347686 2.57177391-.83947604-.55887938-.96800747z" fill="#fffde8"/><path d="m24.80037772 14.94338655 1.87780699-.61311866-.40792716-.70655057z" fill="#fffffc"/><path d="m26.83111038 12.82033404-.3043159.24645562.76197219 1.31977455" fill="#fcf9e3" stroke="#e3dfb6" stroke-miterlimit="10" stroke-width=".5"/><path d="m23.29152106 15.69169227.45884688-.1420823 3.53839873-1.16304576.11888889.20592159" fill="#fcf9e3" stroke="#e3dfb6" stroke-miterlimit="10" stroke-width=".5"/><path d="m23.750368 15.54961 2.776426-2.48282" fill="#fcf9e3" stroke="#e3dfb6" stroke-miterlimit="10" stroke-width=".5"/><path d="m27.20052591 26.34028969 7.13473489-.79311988-2.88050548-4.98918185z" fill="#fcf9e3" stroke="#e3dfb6" stroke-miterlimit="10" stroke-width=".5"/><path d="m28.29392418 25.7090159 5.17243123-.6477118-2.02528074-3.50788914z" fill="#fffddd"/><path d="m29.10659213 25.23982185 3.76281306-.45718691-1.48547106-2.57291134z" fill="#fffde8"/><path d="m29.67727871 24.91033579 2.74735966-.33420679-1.08424826-1.87797307z" fill="#fffffc"/><path d="m31.80092972 21.15757961-.35985505.39583535 2.02528074 3.50788914" fill="#fcf9e3" stroke="#e3dfb6" stroke-miterlimit="10" stroke-width=".5"/><path d="m27.61811029 25.7727136.67581389-.0636977 5.17243123-.6477118.31600021.54732841" fill="#fcf9e3" stroke="#e3dfb6" stroke-miterlimit="10" stroke-width=".5"/><path d="m28.293924 25.709016 3.147151-4.155601" fill="#fcf9e3" stroke="#e3dfb6" stroke-miterlimit="10" stroke-width=".5"/><path d="m48.18948459 44.61433489-11.82369429-13.91182461-6.13614638 10.6281173z" fill="#fcf9e3" stroke="#e3dfb6" stroke-miterlimit="10" stroke-width=".5"/><path d="m45.33011435 42.96347672-8.72120257-10.01693496-4.31431885 7.47261946z" fill="#fffddd"/><path d="m43.20488825 41.73647685-6.31567285-7.30028832-3.16439872 5.48089936z" fill="#fffde8"/><path d="m41.71247302 40.87483052-4.61211026-5.32981594-2.30970088 4.00051926z" fill="#fffffc"/><path d="m30.96707587 40.05335797 1.32751706.36580325 4.31431885-7.47261946" fill="#fcf9e3" stroke="#e3dfb6" stroke-miterlimit="10" stroke-width=".5"/><path d="m46.42659211 44.2920145-1.09647776-1.32853778-8.72120257-10.01693496.6731539-1.16593676" fill="#fcf9e3" stroke="#e3dfb6" stroke-miterlimit="10" stroke-width=".5"/><path d="m45.330114 42.963477-13.035521-2.544316" fill="#fcf9e3" stroke="#e3dfb6" stroke-miterlimit="10" stroke-width=".5"/><path d="m32.49468884 43.80124329 6.23478862 6.86621353 2.82892103-4.89983497z" fill="#fcf9e3" stroke="#e3dfb6" stroke-miterlimit="10" stroke-width=".5"/><path d="m33.96342218 44.64921688 4.59323252 4.94861699 1.98901177-3.44506944z" fill="#fffddd"/><path d="m35.0550578 45.279473 3.32735673 3.60560719 1.45886906-2.52683533z" fill="#fffde8"/><path d="m35.82164618 45.72206301 2.42981959 2.63241839 1.0648314-1.8443421z" fill="#fffffc"/><path d="m41.21842343 46.35647594-.67275696-.20371151-1.98901177 3.44506944" fill="#fcf9e3" stroke="#e3dfb6" stroke-miterlimit="10" stroke-width=".5"/><path d="m33.38435963 43.99425803.57906255.65495885 4.59323252 4.94861699-.31034123.53752678" fill="#fcf9e3" stroke="#e3dfb6" stroke-miterlimit="10" stroke-width=".5"/><path d="m33.963422 44.649217 6.582244 1.503547" fill="#fcf9e3" stroke="#e3dfb6" stroke-miterlimit="10" stroke-width=".5"/><path d="m35.7522287 18.10090881 3.78042492 3.43401728 1.08373374-1.8770819z" fill="#fcf9e3" stroke="#e3dfb6" stroke-miterlimit="10" stroke-width=".5"/><path d="m36.58215252 18.58006555 2.77642653 2.48282031.7619722-1.31977455z" fill="#fffddd"/><path d="m37.19899315 18.93619866 2.01289454 1.80748351.55887937-.96800747z" fill="#fffde8"/><path d="m37.63216229 19.18628898 1.46987983 1.31966922.40792716-.70655056z" fill="#fffffc"/><path d="m40.48614603 19.8834288-.36559478-.14031749-.7619722 1.31977455" fill="#fcf9e3" stroke="#e3dfb6" stroke-miterlimit="10" stroke-width=".5"/><path d="m36.22968219 18.25373364.35247033.32633191 2.77642653 2.48282031-.11888888.20592159" fill="#fcf9e3" stroke="#e3dfb6" stroke-miterlimit="10" stroke-width=".5"/><path d="m36.582153 18.580066 3.538398 1.163045" fill="#fcf9e3" stroke="#e3dfb6" stroke-miterlimit="10" stroke-width=".5"/><path d="m28.96222874 26.96332985 4.25422941 5.78230173 2.88050549-4.98918185z" fill="#fcf9e3" stroke="#e3dfb6" stroke-miterlimit="10" stroke-width=".5"/><path d="m30.05562701 27.59460364 3.14715049 4.15560095 2.02528074-3.50788915z" fill="#fffddd"/><path d="m30.86829496 28.0637977 2.277342 3.03009825 1.48547106-2.57291135z" fill="#fffde8"/><path d="m31.43898154 28.39328375 1.6631114 2.21217986 1.08424826-1.87797307z" fill="#fffffc"/><path d="m35.75078924 28.35604138-.522731-.11372594-2.02528074 3.50788915" fill="#fcf9e3" stroke="#e3dfb6" stroke-miterlimit="10" stroke-width=".5"/><path d="m29.66255625 27.04118049.39307076.55342315 3.14715049 4.15560095-.3160002.5473284" fill="#fcf9e3" stroke="#e3dfb6" stroke-miterlimit="10" stroke-width=".5"/><path d="m30.055627 27.594604 5.172431.647711" fill="#fcf9e3" stroke="#e3dfb6" stroke-miterlimit="10" stroke-width=".5"/><path d="m23.6309207 54.27732387 6.13614639-17.19553192h-12.27229277z" fill="#fcf9e3" stroke="#e3dfb6" stroke-miterlimit="10" stroke-width=".5"/><path d="m23.6309207 50.97560752 4.31431886-12.56125046h-8.62863771z" fill="#fffddd"/><path d="m23.6309207 48.52160779 3.16439872-9.11967729h-6.32879744z" fill="#fffde8"/><path d="m23.6309207 46.79831513 2.30970088-6.65911263h-4.61940175z" fill="#fffffc"/><path d="m18.96963823 37.08179195.34696362 1.33256511h8.62863771" fill="#fcf9e3" stroke="#e3dfb6" stroke-miterlimit="10" stroke-width=".5"/><path d="m23.02861211 52.58945401.60230859-1.61384649 4.31431886-12.56125046h1.3463078" fill="#fcf9e3" stroke="#e3dfb6" stroke-miterlimit="10" stroke-width=".5"/><path d="m23.630921 50.975608-4.314319-12.561251" fill="#fcf9e3" stroke="#e3dfb6" stroke-miterlimit="10" stroke-width=".5"/><path d="m16.48768081 40.27868624-2.82892103 8.8325921h5.65784207z" fill="#fcf9e3" stroke="#e3dfb6" stroke-miterlimit="10" stroke-width=".5"/><path d="m16.48768081 41.97463342-1.98901176 6.45216455h3.97802353z" fill="#fffddd"/><path d="m16.48768081 43.23514566-1.45886905 4.68437906h2.91773811z" fill="#fffde8"/><path d="m16.48768081 44.12032568-1.0648314 3.42049468h2.12966281z" fill="#fffffc"/><path d="m18.63665172 49.11127834-.15995914-.68448037h-3.97802353" fill="#fcf9e3" stroke="#e3dfb6" stroke-miterlimit="10" stroke-width=".5"/><path d="m16.76536054 41.14567112-.27767973.8289623-1.98901176 6.45216455h-.62068247" fill="#fcf9e3" stroke="#e3dfb6" stroke-miterlimit="10" stroke-width=".5"/><path d="m16.487681 41.974633 1.989012 6.452165" fill="#fcf9e3" stroke="#e3dfb6" stroke-miterlimit="10" stroke-width=".5"/><path d="m40.37359329 30.24963127-1.08373374 4.99095266h2.16746748z" fill="#fcf9e3" stroke="#e3dfb6" stroke-miterlimit="10" stroke-width=".5"/><path d="m40.37359329 31.20794475-.76197219 3.64586607h1.52394438z" fill="#fffddd"/><path d="m40.37359329 31.92021097-.55887938 2.64695956h1.11775876z" fill="#fffde8"/><path d="m40.37359329 32.42039161-.40792716 1.93278789h.81585432z" fill="#fffffc"/><path d="m41.19684436 35.24058393-.06127888-.38677311h-1.52394438" fill="#fcf9e3" stroke="#e3dfb6" stroke-miterlimit="10" stroke-width=".5"/><path d="m40.47996985 30.73953055-.10637656.4684142-.76197219 3.64586607h-.23777777" fill="#fcf9e3" stroke="#e3dfb6" stroke-miterlimit="10" stroke-width=".5"/><path d="m40.373593 31.207945.761972 3.645866" fill="#fcf9e3" stroke="#e3dfb6" stroke-miterlimit="10" stroke-width=".5"/><path d="m29.30351155 28.80052934-2.88050549 6.57542161h5.76101097z" fill="#fcf9e3" stroke="#e3dfb6" stroke-miterlimit="10" stroke-width=".5"/><path d="m29.30351155 30.06307691-2.02528075 4.80331275h4.05056149z" fill="#fffddd"/><path d="m29.30351155 31.00146503-1.48547106 3.48728515h2.97094211z" fill="#fffde8"/><path d="m29.30351155 31.66043713-1.08424826 2.54638666h2.16849652z" fill="#fffffc"/><path d="m31.49166823 35.37595095-.16287594-.50956129h-4.05056149" fill="#fcf9e3" stroke="#e3dfb6" stroke-miterlimit="10" stroke-width=".5"/><path d="m29.58625467 29.44595607-.28274312.61712084-2.02528075 4.80331275h-.6320004" fill="#fcf9e3" stroke="#e3dfb6" stroke-miterlimit="10" stroke-width=".5"/><path d="m29.303512 30.063077 2.02528 4.803313" fill="#fcf9e3" stroke="#e3dfb6" stroke-miterlimit="10" stroke-width=".5"/><path d="m2.98324483 37.84047816 17.95984067-3.28370731-6.13614639-10.62811731z" fill="#fcf9e3" stroke="#e3dfb6" stroke-miterlimit="10" stroke-width=".5"/><path d="m5.84261507 36.18961998 13.03552142-2.5443155-4.31431885-7.47261946z" fill="#fffddd"/><path d="m7.96784117 34.96262012 9.48007157-1.81938897-3.16439872-5.48089936z" fill="#fffde8"/><path d="m9.4602564 34.10097378 6.92181113-1.32929667-2.30970087-4.00051927z" fill="#fffffc"/><path d="m15.54437107 25.20592316-.98055343.96676186 4.31431885 7.47261946" fill="#fcf9e3" stroke="#e3dfb6" stroke-miterlimit="10" stroke-width=".5"/><path d="m4.14382872 36.47492868 1.69878635-.2853087 13.03552142-2.5443155.6731539 1.16593676" fill="#fcf9e3" stroke="#e3dfb6" stroke-miterlimit="10" stroke-width=".5"/><path d="m5.842615 36.18962 8.721203-10.016935" fill="#fcf9e3" stroke="#e3dfb6" stroke-miterlimit="10" stroke-width=".5"/><path d="m11.53480069 24.65493213-9.06370965 1.96637857 2.82892103 4.89983496z" fill="#fcf9e3" stroke="#e3dfb6" stroke-miterlimit="10" stroke-width=".5"/><path d="m10.06606735 25.50290572-6.58224429 1.50354756 1.98901177 3.44506943z" fill="#fffddd"/><path d="m8.97443173 26.13316184-4.78622579 1.07877186 1.45886905 2.52683533z" fill="#fffde8"/><path d="m8.20784335 26.57575185-3.49465099.78807629 1.0648314 1.8443421z" fill="#fffffc"/><path d="m4.96003701 30.93229157.51279782-.48076886-1.98901177-3.44506943" fill="#fcf9e3" stroke="#e3dfb6" stroke-miterlimit="10" stroke-width=".5"/><path d="m10.92280963 25.32890226-.85674228.17400346-6.58224429 1.50354756-.31034123-.53752679" fill="#fcf9e3" stroke="#e3dfb6" stroke-miterlimit="10" stroke-width=".5"/><path d="m10.066067 25.502906-4.593232 4.948617" fill="#fcf9e3" stroke="#e3dfb6" stroke-miterlimit="10" stroke-width=".5"/><path d="m32.16317331 40.32621164-4.86415867 1.55693538 1.08373374 1.8770819z" fill="#fcf9e3" stroke="#e3dfb6" stroke-miterlimit="10" stroke-width=".5"/><path d="m31.33324949 40.80536838-3.53839873 1.16304576.76197219 1.31977455z" fill="#fffddd"/><path d="m30.71640885 41.16150149-2.57177391.83947604.55887938.96800748z" fill="#fffde8"/><path d="m30.28323971 41.41159181-1.87780699.61311866.40792716.70655057z" fill="#fffffc"/><path d="m28.25250705 43.53464432.3043159-.24645563-.76197219-1.31977455" fill="#fcf9e3" stroke="#e3dfb6" stroke-miterlimit="10" stroke-width=".5"/><path d="m31.79209637 40.66328608-.45884688.1420823-3.53839873 1.16304576-.11888889-.20592159" fill="#fcf9e3" stroke="#e3dfb6" stroke-miterlimit="10" stroke-width=".5"/><path d="m31.333249 40.805368-2.776426 2.482821" fill="#fcf9e3" stroke="#e3dfb6" stroke-miterlimit="10" stroke-width=".5"/><path d="m27.88309152 30.01468866-7.1347349.79311989 2.88050549 4.98918184z" fill="#fcf9e3" stroke="#e3dfb6" stroke-miterlimit="10" stroke-width=".5"/><path d="m26.78969325 30.64596245-5.17243123.6477118 2.02528074 3.50788915z" fill="#fffddd"/><path d="m25.9770253 31.11515651-3.76281306.4571869 1.48547106 2.57291135z" fill="#fffde8"/><path d="m25.40633872 31.44464256-2.74735966.33420679 1.08424826 1.87797308z" fill="#fffffc"/><path d="m23.28268771 35.19739875.35985505-.39583535-2.02528074-3.50788915" fill="#fcf9e3" stroke="#e3dfb6" stroke-miterlimit="10" stroke-width=".5"/><path d="m27.46550714 30.58226476-.67581389.06369769-5.17243123.6477118-.31600021-.54732841" fill="#fcf9e3" stroke="#e3dfb6" stroke-miterlimit="10" stroke-width=".5"/><path d="m26.789693 30.645962-3.14715 4.155601" fill="#fcf9e3" stroke="#e3dfb6" stroke-miterlimit="10" stroke-width=".5"/><path d="m6.89413284 11.74064346 11.82369428 13.91182461 6.13614639-10.6281173z" fill="#fcf9e3" stroke="#e3dfb6" stroke-miterlimit="10" stroke-width=".5"/><path d="m9.75350308 13.39150164 8.72120257 10.01693495 4.31431885-7.47261945z" fill="#fffddd"/><path d="m11.87872918 14.6185015 6.31567285 7.30028833 3.16439872-5.48089936z" fill="#fffde8"/><path d="m13.37114441 15.48014783 4.61211026 5.32981595 2.30970087-4.00051927z" fill="#fffffc"/><path d="m24.11654155 16.30162039-1.32751705-.36580325-4.31431885 7.47261945" fill="#fcf9e3" stroke="#e3dfb6" stroke-miterlimit="10" stroke-width=".5"/><path d="m8.65702532 12.06296385 1.09647776 1.32853779 8.72120257 10.01693495-.6731539 1.16593677" fill="#fcf9e3" stroke="#e3dfb6" stroke-miterlimit="10" stroke-width=".5"/><path d="m9.753503 13.391502 13.035522 2.544315" fill="#fcf9e3" stroke="#e3dfb6" stroke-miterlimit="10" stroke-width=".5"/><path d="m22.58892859 12.55373507-6.23478862-6.86621353-2.82892103 4.89983496z" fill="#fcf9e3" stroke="#e3dfb6" stroke-miterlimit="10" stroke-width=".5"/><path d="m21.12019525 11.70576148-4.59323252-4.94861699-1.98901177 3.44506943z" fill="#fffddd"/><path d="m20.02855963 11.07550536-3.32735674-3.6056072-1.45886905 2.52683534z" fill="#fffde8"/><path d="m19.26197125 10.63291535-2.42981959-2.63241839-1.0648314 1.8443421z" fill="#fffffc"/><path d="m13.865194 9.99850241.67275696.20371151 1.98901177-3.44506943" fill="#fcf9e3" stroke="#e3dfb6" stroke-miterlimit="10" stroke-width=".5"/><path d="m21.6992578 12.36072033-.57906255-.65495885-4.59323252-4.94861699.31034123-.53752679" fill="#fcf9e3" stroke="#e3dfb6" stroke-miterlimit="10" stroke-width=".5"/><path d="m21.120195 11.705761-6.582244-1.503547" fill="#fcf9e3" stroke="#e3dfb6" stroke-miterlimit="10" stroke-width=".5"/><path d="m19.33138873 38.25406955-3.78042492-3.43401729-1.08373374 1.87708191z" fill="#fcf9e3" stroke="#e3dfb6" stroke-miterlimit="10" stroke-width=".5"/><path d="m18.50146491 37.77491281-2.77642653-2.48282031-.7619722 1.31977455z" fill="#fffddd"/><path d="m17.88462428 37.4187797-2.01289454-1.80748352-.55887937.96800748z" fill="#fffde8"/><path d="m17.45145514 37.16868938-1.46987983-1.31966923-.40792716.70655057z" fill="#fffffc"/><path d="m14.5974714 36.47154956.36559478.14031749.7619722-1.31977455" fill="#fcf9e3" stroke="#e3dfb6" stroke-miterlimit="10" stroke-width=".5"/><path d="m18.85393523 38.10124471-.35247032-.3263319-2.77642653-2.48282031.11888888-.20592159" fill="#fcf9e3" stroke="#e3dfb6" stroke-miterlimit="10" stroke-width=".5"/><path d="m18.501465 37.774913-3.538399-1.163046" fill="#fcf9e3" stroke="#e3dfb6" stroke-miterlimit="10" stroke-width=".5"/><path d="m26.12138869 29.3916485-4.25422941-5.78230173-2.88050549 4.98918185z" fill="#fcf9e3" stroke="#e3dfb6" stroke-miterlimit="10" stroke-width=".5"/><path d="m25.02799042 28.76037472-3.14715049-4.15560095-2.02528074 3.50788915z" fill="#fffddd"/><path d="m24.21532247 28.29118066-2.277342-3.03009825-1.48547106 2.57291135z" fill="#fffde8"/><path d="m23.64463589 27.96169461-1.6631114-2.21217987-1.08424826 1.87797307z" fill="#fffffc"/><path d="m19.33282819 27.99893697.522731.11372595 2.02528074-3.50788915" fill="#fcf9e3" stroke="#e3dfb6" stroke-miterlimit="10" stroke-width=".5"/><path d="m25.42106118 29.31379786-.39307076-.55342314-3.14715049-4.15560095.3160002-.54732841" fill="#fcf9e3" stroke="#e3dfb6" stroke-miterlimit="10" stroke-width=".5"/><path d="m25.02799 28.760375-5.172431-.647712" fill="#fcf9e3" stroke="#e3dfb6" stroke-miterlimit="10" stroke-width=".5"/><path d="m31.45269673 2.07765448-6.13614639 17.19553193h12.27229277z" fill="#fcf9e3" stroke="#e3dfb6" stroke-miterlimit="10" stroke-width=".5"/><path d="m31.45269673 5.37937084-4.31431886 12.56125045h8.62863771z" fill="#fffddd"/><path d="m31.45269673 7.83337056-3.16439873 9.11967729h6.32879745z" fill="#fffde8"/><path d="m31.45269673 9.55666323-2.30970088 6.65911262h4.61940175z" fill="#fffffc"/><path d="m36.1139792 19.27318641-.34696362-1.33256512h-8.62863771" fill="#fcf9e3" stroke="#e3dfb6" stroke-miterlimit="10" stroke-width=".5"/><path d="m32.05500532 3.76552435-.60230859 1.61384649-4.31431886 12.56125045h-1.34630781" fill="#fcf9e3" stroke="#e3dfb6" stroke-miterlimit="10" stroke-width=".5"/><path d="m31.452697 5.379371 4.314319 12.56125" fill="#fcf9e3" stroke="#e3dfb6" stroke-miterlimit="10" stroke-width=".5"/><path d="m38.59593661 16.07629211 2.82892104-8.83259209h-5.65784207z" fill="#fcf9e3" stroke="#e3dfb6" stroke-miterlimit="10" stroke-width=".5"/><path d="m38.59593661 14.38034494 1.98901177-6.45216455h-3.97802353z" fill="#fffddd"/><path d="m38.59593661 13.11983269 1.45886906-4.68437905h-2.91773811z" fill="#fffde8"/><path d="m38.59593661 12.23465268 1.06483141-3.42049468h-2.12966281z" fill="#fffffc"/><path d="m36.44696571 7.24370002.15995914.68448037h3.97802353" fill="#fcf9e3" stroke="#e3dfb6" stroke-miterlimit="10" stroke-width=".5"/><path d="m38.31825689 15.20930724.27767972-.8289623 1.98901177-6.45216455h.62068247" fill="#fcf9e3" stroke="#e3dfb6" stroke-miterlimit="10" stroke-width=".5"/><path d="m38.595937 14.380345-1.989012-6.452165" fill="#fcf9e3" stroke="#e3dfb6" stroke-miterlimit="10" stroke-width=".5"/><path d="m14.71002414 26.10534708 1.08373374-4.99095266h-2.16746748z" fill="#fcf9e3" stroke="#e3dfb6" stroke-miterlimit="10" stroke-width=".5"/><path d="m14.71002414 25.1470336.76197219-3.64586607h-1.52394438z" fill="#fffddd"/><path d="m14.71002414 24.43476738.55887938-2.64695956h-1.11775876z" fill="#fffde8"/><path d="m14.71002414 23.93458675.40792716-1.93278789h-.81585432z" fill="#fffffc"/><path d="m13.88677307 21.11439442.06127888.38677311h1.52394438" fill="#fcf9e3" stroke="#e3dfb6" stroke-miterlimit="10" stroke-width=".5"/><path d="m14.60364758 25.61544781.10637656-.46841421.76197219-3.64586607h.23777777" fill="#fcf9e3" stroke="#e3dfb6" stroke-miterlimit="10" stroke-width=".5"/><path d="m14.710024 25.147034-.761972-3.645866" fill="#fcf9e3" stroke="#e3dfb6" stroke-miterlimit="10" stroke-width=".5"/><path d="m25.78010588 27.55444902 2.88050549-6.57542162h-5.76101097z" fill="#fcf9e3" stroke="#e3dfb6" stroke-miterlimit="10" stroke-width=".5"/><path d="m25.78010588 26.29190144 2.02528075-4.80331274h-4.05056149z" fill="#fffddd"/><path d="m25.78010588 25.35351333 1.48547106-3.48728516h-2.97094212z" fill="#fffde8"/><path d="m25.78010588 24.69454122 1.08424826-2.54638665h-2.16849652z" fill="#fffffc"/><path d="m23.5919492 20.9790274.16287594.5095613h4.05056149" fill="#fcf9e3" stroke="#e3dfb6" stroke-miterlimit="10" stroke-width=".5"/><path d="m25.49736276 26.90902228.28274312-.61712084 2.02528075-4.80331274h.6320004" fill="#fcf9e3" stroke="#e3dfb6" stroke-miterlimit="10" stroke-width=".5"/><path d="m25.780106 26.291901-2.025281-4.803312" fill="#fcf9e3" stroke="#e3dfb6" stroke-miterlimit="10" stroke-width=".5"/><path d="m0 0h56.692913v56.692913h-56.692913z" fill="none"/></svg>