<svg viewBox="0 0 56.69291339 56.69291339" xmlns="http://www.w3.org/2000/svg"><path d="m27.60304757 52.18476709 22.24977901-34.58906979h-44.49955801z" fill="#fcf9e3" stroke="#e3dfb6" stroke-miterlimit="10" stroke-width=".5"/><path d="m27.60304757 45.54331524 15.64379907-25.26714327h-31.28759813z" fill="#fffddd"/><path d="m27.60304757 40.60705806 11.47416763-18.34436734h-22.94833526z" fill="#fffde8"/><path d="m27.60304757 37.14062908 8.37501762-13.39490469h-16.75003523z" fill="#fffffc"/><g fill="#fcf9e3" stroke="#e3dfb6" stroke-miterlimit="10" stroke-width=".5"><path d="m10.70115208 17.5956973 1.25809643 2.68047467h31.28759813"/><path d="m25.41906561 48.7895916 2.18398196-3.24627636 15.64379907-25.26714327h4.88173672"/><path d="m27.603048 45.543315-15.643799-25.267143"/><path d="m27.60304795 17.7792537-10.2577194 17.76689117h20.5154388z"/></g><path d="m27.60304795 21.19067682-7.21219303 12.97862554h14.42438607z" fill="#fffddd"/><path d="m27.60304795 23.72621607-5.28988588 9.42269856h10.57977177z" fill="#fffde8"/><path d="m27.60304795 25.50676891-3.86109815 6.88037624h7.72219631z" fill="#fffffc"/><path d="m35.39525574 35.54614487-.58001475-1.37684251h-14.42438607" fill="#fcf9e3" stroke="#e3dfb6" stroke-miterlimit="10" stroke-width=".5"/><path d="m28.60991971 19.52320674-1.00687176 1.66747008-7.21219303 12.97862554h-2.25060597" fill="#fcf9e3" stroke="#e3dfb6" stroke-miterlimit="10" stroke-width=".5"/><path d="m27.603048 21.190677 7.212193 12.978625" fill="#fcf9e3" stroke="#e3dfb6" stroke-miterlimit="10" stroke-width=".5"/><path d="m27.60304757 2.8120016-6.05744821 11.01340482h12.11489643z" fill="#fcf9e3" stroke="#e3dfb6" stroke-miterlimit="10" stroke-width=".5"/><path d="m27.60304757 4.92668691-4.25898624 8.04523739h8.51797249z" fill="#fffddd"/><path d="m27.60304757 6.49842616-3.12381422 5.8409765h6.24762845z" fill="#fffde8"/><path d="m27.60304757 7.6021617-2.28007817 4.26503254h4.56015635z" fill="#fffffc"/><path d="m32.20454751 13.82540642-.34251369-.85348212h-8.51797249" fill="#fcf9e3" stroke="#e3dfb6" stroke-miterlimit="10" stroke-width=".5"/><path d="m28.19763135 3.89304952-.59458378 1.03363739-4.25898624 8.04523739h-1.32904095" fill="#fcf9e3" stroke="#e3dfb6" stroke-miterlimit="10" stroke-width=".5"/><path d="m27.603048 4.926687 4.258986 8.045237" fill="#fcf9e3" stroke="#e3dfb6" stroke-miterlimit="10" stroke-width=".5"/><path d="m45.4870214 33.14891463-6.05744821 11.01340483h12.11489642z" fill="#fcf9e3" stroke="#e3dfb6" stroke-miterlimit="10" stroke-width=".5"/><path d="m45.4870214 35.26359994-4.25898624 8.04523739h8.51797248z" fill="#fffddd"/><path d="m45.4870214 36.83533919-3.12381423 5.8409765h6.24762846z" fill="#fffde8"/><path d="m45.4870214 37.93907474-2.28007817 4.26503253h4.56015634z" fill="#fffffc"/><path d="m50.08852134 44.16231946-.3425137-.85348213h-8.51797248" fill="#fcf9e3" stroke="#e3dfb6" stroke-miterlimit="10" stroke-width=".5"/><path d="m46.08160518 34.22996256-.59458378 1.03363738-4.25898624 8.04523739h-1.32904095" fill="#fcf9e3" stroke="#e3dfb6" stroke-miterlimit="10" stroke-width=".5"/><path d="m45.487021 35.2636 4.258987 8.045237" fill="#fcf9e3" stroke="#e3dfb6" stroke-miterlimit="10" stroke-width=".5"/><path d="m10.07143173 33.77951623-6.05744821 11.01340482h12.11489642z" fill="#fcf9e3" stroke="#e3dfb6" stroke-miterlimit="10" stroke-width=".5"/><path d="m10.07143173 35.89420154-4.25898624 8.04523739h8.51797248z" fill="#fffddd"/><path d="m10.07143173 37.46594079-3.12381422 5.8409765h6.24762845z" fill="#fffde8"/><path d="m10.07143173 38.56967633-2.28007817 4.26503254h4.56015635z" fill="#fffffc"/><path d="m14.67293167 44.79292105-.3425137-.85348212h-8.51797248" fill="#fcf9e3" stroke="#e3dfb6" stroke-miterlimit="10" stroke-width=".5"/><path d="m10.66601551 34.86056415-.59458378 1.03363739-4.25898624 8.04523739h-1.32904095" fill="#fcf9e3" stroke="#e3dfb6" stroke-miterlimit="10" stroke-width=".5"/><path d="m10.071432 35.894202 4.258986 8.045237" fill="#fcf9e3" stroke="#e3dfb6" stroke-miterlimit="10" stroke-width=".5"/><path d="m0 0h56.692913v56.692913h-56.692913z" fill="none"/></svg>