<svg viewBox="0 0 56.69291339 56.69291339" xmlns="http://www.w3.org/2000/svg"><path d="m53.65684307 31.91133969-17.19553192-6.13614638v12.27229277z" fill="#fcf9e3" stroke="#e3dfb6" stroke-miterlimit="10" stroke-width=".5"/><path d="m50.35512672 31.91133969-12.56125046-4.31431885v8.62863771z" fill="#fffddd"/><path d="m47.90112699 31.91133969-9.11967729-3.16439872v6.32879745z" fill="#fffde8"/><path d="m46.17783433 31.91133969-6.65911263-2.30970087v4.61940175z" fill="#fffffc"/><g fill="#fcf9e3" stroke="#e3dfb6" stroke-miterlimit="10" stroke-width=".5"><path d="m36.46131115 36.57262217 1.33256511-.34696362v-8.62863771"/><path d="m51.96897321 32.51364829-1.61384649-.6023086-12.56125046-4.31431885v-1.34630781"/><path d="m50.355127 31.91134-12.561251 4.314319"/><path d="m37.796943 21.61305608 8.83259209 2.82892103v-5.65784207z"/></g><path d="m39.49289017 21.61305608 6.45216455 1.98901176v-3.97802353z" fill="#fffddd"/><path d="m40.75340242 21.61305608 4.68437905 1.45886906v-2.91773812z" fill="#fffde8"/><path d="m41.63858243 21.61305608 3.42049468 1.0648314v-2.12966281z" fill="#fffffc"/><path d="m46.62953509 19.46408517-.68448037.15995914v3.97802353" fill="#fcf9e3" stroke="#e3dfb6" stroke-miterlimit="10" stroke-width=".5"/><path d="m38.66392787 21.33537635.8289623.27767973 6.45216455 1.98901176v.62068247" fill="#fcf9e3" stroke="#e3dfb6" stroke-miterlimit="10" stroke-width=".5"/><path d="m39.49289 21.613056 6.452165-1.989012" fill="#fcf9e3" stroke="#e3dfb6" stroke-miterlimit="10" stroke-width=".5"/><path d="m46.13860613 26.59844438 4.99095266 1.08373374v-2.16746748z" fill="#fcf9e3" stroke="#e3dfb6" stroke-miterlimit="10" stroke-width=".5"/><path d="m47.09691961 26.59844438 3.64586607.76197219v-1.52394438z" fill="#fffddd"/><path d="m47.80918582 26.59844438 2.64695956.55887938v-1.11775875z" fill="#fffde8"/><path d="m48.30936646 26.59844438 1.93278789.40792716v-.81585432z" fill="#fffffc"/><path d="m51.12955879 25.77519331-.38677311.06127888v1.52394438" fill="#fcf9e3" stroke="#e3dfb6" stroke-miterlimit="10" stroke-width=".5"/><path d="m46.6285054 26.49206782.46841421.10637656 3.64586607.76197219v.23777777" fill="#fcf9e3" stroke="#e3dfb6" stroke-miterlimit="10" stroke-width=".5"/><path d="m47.09692 26.598444 3.645866-.761972" fill="#fcf9e3" stroke="#e3dfb6" stroke-miterlimit="10" stroke-width=".5"/><path d="m28.18004854 26.23874885 6.57542161 2.88050548v-5.76101096z" fill="#fcf9e3" stroke="#e3dfb6" stroke-miterlimit="10" stroke-width=".5"/><path d="m29.44259611 26.23874885 4.80331275 2.02528075v-4.05056149z" fill="#fffddd"/><path d="m30.38098423 26.23874885 3.48728515 1.48547106v-2.97094212z" fill="#fffde8"/><path d="m31.03995633 26.23874885 2.54638666 1.08424826v-2.16849652z" fill="#fffffc"/><path d="m34.75547015 24.05059217-.50956129.16287594v4.05056149" fill="#fcf9e3" stroke="#e3dfb6" stroke-miterlimit="10" stroke-width=".5"/><path d="m28.82547527 25.95600573.61712084.28274312 4.80331275 2.02528075v.6320004" fill="#fcf9e3" stroke="#e3dfb6" stroke-miterlimit="10" stroke-width=".5"/><path d="m29.442596 26.238749 4.803313-2.025281" fill="#fcf9e3" stroke="#e3dfb6" stroke-miterlimit="10" stroke-width=".5"/><path d="m24.06751512 54.52168113 6.13614638-17.19553193h-12.27229277z" fill="#fcf9e3" stroke="#e3dfb6" stroke-miterlimit="10" stroke-width=".5"/><path d="m24.06751512 51.21996477 4.31431885-12.56125045h-8.62863771z" fill="#fffddd"/><path d="m24.06751512 48.76596505 3.16439872-9.11967729h-6.32879745z" fill="#fffde8"/><path d="m24.06751512 47.04267238 2.30970087-6.65911262h-4.61940175z" fill="#fffffc"/><path d="m19.40623264 37.3261492.34696362 1.33256512h8.62863771" fill="#fcf9e3" stroke="#e3dfb6" stroke-miterlimit="10" stroke-width=".5"/><path d="m23.46520653 52.83381126.60230859-1.61384649 4.31431885-12.56125045h1.34630781" fill="#fcf9e3" stroke="#e3dfb6" stroke-miterlimit="10" stroke-width=".5"/><path d="m24.067515 51.219965-4.314319-12.561251" fill="#fcf9e3" stroke="#e3dfb6" stroke-miterlimit="10" stroke-width=".5"/><path d="m34.36579873 38.66178105-2.82892103 8.83259209h5.65784207z" fill="#fcf9e3" stroke="#e3dfb6" stroke-miterlimit="10" stroke-width=".5"/><path d="m34.36579873 40.35772822-1.98901176 6.45216455h3.97802353z" fill="#fffddd"/><path d="m34.36579873 41.61824047-1.45886906 4.68437905h2.91773812z" fill="#fffde8"/><path d="m34.36579873 42.50342048-1.0648314 3.42049469h2.12966281z" fill="#fffffc"/><path d="m36.51476964 47.49437314-.15995914-.68448037h-3.97802353" fill="#fcf9e3" stroke="#e3dfb6" stroke-miterlimit="10" stroke-width=".5"/><path d="m34.64347846 39.52876592-.27767973.8289623-1.98901176 6.45216455h-.62068247" fill="#fcf9e3" stroke="#e3dfb6" stroke-miterlimit="10" stroke-width=".5"/><path d="m34.365799 40.357728 1.989011 6.452165" fill="#fcf9e3" stroke="#e3dfb6" stroke-miterlimit="10" stroke-width=".5"/><path d="m29.38041043 47.00344418-1.08373374 4.99095266h2.16746748z" fill="#fcf9e3" stroke="#e3dfb6" stroke-miterlimit="10" stroke-width=".5"/><path d="m29.38041043 47.96175766-.76197219 3.64586607h1.52394438z" fill="#fffddd"/><path d="m29.38041043 48.67402388-.55887938 2.64695956h1.11775875z" fill="#fffde8"/><path d="m29.38041043 49.17420452-.40792716 1.93278788h.81585432z" fill="#fffffc"/><path d="m30.2036615 51.99439684-.06127888-.38677311h-1.52394438" fill="#fcf9e3" stroke="#e3dfb6" stroke-miterlimit="10" stroke-width=".5"/><path d="m29.48678699 47.49334346-.10637656.4684142-.76197219 3.64586607h-.23777777" fill="#fcf9e3" stroke="#e3dfb6" stroke-miterlimit="10" stroke-width=".5"/><path d="m29.38041 47.961758.761973 3.645866" fill="#fcf9e3" stroke="#e3dfb6" stroke-miterlimit="10" stroke-width=".5"/><path d="m29.74010596 29.04488659-2.88050548 6.57542162h5.76101096z" fill="#fcf9e3" stroke="#e3dfb6" stroke-miterlimit="10" stroke-width=".5"/><path d="m29.74010596 30.30743417-2.02528075 4.80331274h4.05056149z" fill="#fffddd"/><path d="m29.74010596 31.24582228-1.48547106 3.48728515h2.97094212z" fill="#fffde8"/><path d="m29.74010596 31.90479439-1.08424826 2.54638665h2.16849652z" fill="#fffffc"/><path d="m31.92826264 35.62030821-.16287594-.5095613h-4.05056149" fill="#fcf9e3" stroke="#e3dfb6" stroke-miterlimit="10" stroke-width=".5"/><path d="m30.02284908 29.69031333-.28274312.61712084-2.02528075 4.80331274h-.6320004" fill="#fcf9e3" stroke="#e3dfb6" stroke-miterlimit="10" stroke-width=".5"/><path d="m29.740106 30.307434 2.025281 4.803313" fill="#fcf9e3" stroke="#e3dfb6" stroke-miterlimit="10" stroke-width=".5"/><path d="m1.45717368 24.93235317 17.19553193 6.13614639v-12.27229278z" fill="#fcf9e3" stroke="#e3dfb6" stroke-miterlimit="10" stroke-width=".5"/><path d="m4.75889004 24.93235317 12.56125045 4.31431885v-8.6286377z" fill="#fffddd"/><path d="m7.21288976 24.93235317 9.11967729 3.16439872v-6.32879744z" fill="#fffde8"/><path d="m8.93618243 24.93235317 6.65911262 2.30970088v-4.61940176z" fill="#fffffc"/><path d="m18.65270561 20.27107069-1.33256512.34696363v8.6286377" fill="#fcf9e3" stroke="#e3dfb6" stroke-miterlimit="10" stroke-width=".5"/><path d="m3.14504355 24.33004458 1.61384649.60230859 12.56125045 4.31431885v1.34630781" fill="#fcf9e3" stroke="#e3dfb6" stroke-miterlimit="10" stroke-width=".5"/><path d="m4.75889 24.932353 12.56125-4.314319" fill="#fcf9e3" stroke="#e3dfb6" stroke-miterlimit="10" stroke-width=".5"/><path d="m17.31707376 35.23063679-8.83259209-2.82892104v5.65784207z" fill="#fcf9e3" stroke="#e3dfb6" stroke-miterlimit="10" stroke-width=".5"/><path d="m15.62112659 35.23063679-6.45216455-1.98901177v3.97802353z" fill="#fffddd"/><path d="m14.36061434 35.23063679-4.68437905-1.45886906v2.91773812z" fill="#fffde8"/><path d="m13.47543433 35.23063679-3.42049469-1.06483141v2.12966281z" fill="#fffffc"/><path d="m8.48448167 37.37960769.68448037-.15995914v-3.97802353" fill="#fcf9e3" stroke="#e3dfb6" stroke-miterlimit="10" stroke-width=".5"/><path d="m16.45008889 35.50831651-.8289623-.27767972-6.45216455-1.98901177v-.62068246" fill="#fcf9e3" stroke="#e3dfb6" stroke-miterlimit="10" stroke-width=".5"/><path d="m15.621127 35.230637-6.452165 1.989012" fill="#fcf9e3" stroke="#e3dfb6" stroke-miterlimit="10" stroke-width=".5"/><path d="m8.97541063 30.24524848-4.99095266-1.08373374v2.16746748z" fill="#fcf9e3" stroke="#e3dfb6" stroke-miterlimit="10" stroke-width=".5"/><path d="m8.01709715 30.24524848-3.64586607-.76197219v1.52394439z" fill="#fffddd"/><path d="m7.30483093 30.24524848-2.64695956-.55887937v1.11775875z" fill="#fffde8"/><path d="m6.80465029 30.24524848-1.93278788-.40792716v.81585432z" fill="#fffffc"/><path d="m3.98445797 31.06849956.38677311-.06127888v-1.52394439" fill="#fcf9e3" stroke="#e3dfb6" stroke-miterlimit="10" stroke-width=".5"/><path d="m8.48551135 30.35162504-.4684142-.10637656-3.64586607-.76197219v-.23777777" fill="#fcf9e3" stroke="#e3dfb6" stroke-miterlimit="10" stroke-width=".5"/><path d="m8.017097 30.245248-3.645866.761973" fill="#fcf9e3" stroke="#e3dfb6" stroke-miterlimit="10" stroke-width=".5"/><path d="m26.93396822 30.60494401-6.57542162-2.88050548v5.76101096z" fill="#fcf9e3" stroke="#e3dfb6" stroke-miterlimit="10" stroke-width=".5"/><path d="m25.67142064 30.60494401-4.80331274-2.02528074v4.05056149z" fill="#fffddd"/><path d="m24.73303253 30.60494401-3.48728515-1.48547106v2.97094212z" fill="#fffde8"/><path d="m24.07406042 30.60494401-2.54638665-1.08424826v2.16849652z" fill="#fffffc"/><path d="m20.3585466 32.7931007.5095613-.16287594v-4.05056149" fill="#fcf9e3" stroke="#e3dfb6" stroke-miterlimit="10" stroke-width=".5"/><path d="m26.28854148 30.88768714-.61712084-.28274313-4.80331274-2.02528074v-.63200041" fill="#fcf9e3" stroke="#e3dfb6" stroke-miterlimit="10" stroke-width=".5"/><path d="m25.671421 30.604944-4.803313 2.025281" fill="#fcf9e3" stroke="#e3dfb6" stroke-miterlimit="10" stroke-width=".5"/><path d="m31.04650164 2.32201174-6.13614639 17.19553192h12.27229278z" fill="#fcf9e3" stroke="#e3dfb6" stroke-miterlimit="10" stroke-width=".5"/><path d="m31.04650164 5.62372809-4.31431885 12.56125046h8.6286377z" fill="#fffddd"/><path d="m31.04650164 8.07772782-3.16439872 9.11967729h6.32879744z" fill="#fffde8"/><path d="m31.04650164 9.80102048-2.30970088 6.65911263h4.61940176z" fill="#fffffc"/><path d="m35.70778412 19.51754366-.34696363-1.33256511h-8.6286377" fill="#fcf9e3" stroke="#e3dfb6" stroke-miterlimit="10" stroke-width=".5"/><path d="m31.64881023 4.0098816-.60230859 1.61384649-4.31431885 12.56125046h-1.34630781" fill="#fcf9e3" stroke="#e3dfb6" stroke-miterlimit="10" stroke-width=".5"/><path d="m31.046502 5.623728 4.314318 12.561251" fill="#fcf9e3" stroke="#e3dfb6" stroke-miterlimit="10" stroke-width=".5"/><path d="m20.74821802 18.18191181 2.82892104-8.83259209h-5.65784207z" fill="#fcf9e3" stroke="#e3dfb6" stroke-miterlimit="10" stroke-width=".5"/><path d="m20.74821802 16.48596464 1.98901177-6.45216455h-3.97802353z" fill="#fffddd"/><path d="m20.74821802 15.22545239 1.45886906-4.68437905h-2.91773812z" fill="#fffde8"/><path d="m20.74821802 14.34027238 1.06483141-3.42049468h-2.12966281z" fill="#fffffc"/><path d="m18.59924712 9.34931972.15995914.68448037h3.97802353" fill="#fcf9e3" stroke="#e3dfb6" stroke-miterlimit="10" stroke-width=".5"/><path d="m20.4705383 17.31492694.27767972-.8289623 1.98901177-6.45216455h.62068246" fill="#fcf9e3" stroke="#e3dfb6" stroke-miterlimit="10" stroke-width=".5"/><path d="m20.748218 16.485965-1.989012-6.452165" fill="#fcf9e3" stroke="#e3dfb6" stroke-miterlimit="10" stroke-width=".5"/><path d="m25.73360633 9.84024868 1.08373374-4.99095266h-2.16746748z" fill="#fcf9e3" stroke="#e3dfb6" stroke-miterlimit="10" stroke-width=".5"/><path d="m25.73360633 8.8819352.76197219-3.64586607h-1.52394439z" fill="#fffddd"/><path d="m25.73360633 8.16966899.55887937-2.64695956h-1.11775875z" fill="#fffde8"/><path d="m25.73360633 7.66948835.40792716-1.93278789h-.81585432z" fill="#fffffc"/><path d="m24.91035525 4.84929602.06127888.38677311h1.52394439" fill="#fcf9e3" stroke="#e3dfb6" stroke-miterlimit="10" stroke-width=".5"/><path d="m25.62722977 9.35034941.10637656-.46841421.76197219-3.64586607h.23777777" fill="#fcf9e3" stroke="#e3dfb6" stroke-miterlimit="10" stroke-width=".5"/><path d="m25.733606 8.881935-.761972-3.645866" fill="#fcf9e3" stroke="#e3dfb6" stroke-miterlimit="10" stroke-width=".5"/><path d="m25.3739108 27.79880627 2.88050548-6.57542161h-5.76101096z" fill="#fcf9e3" stroke="#e3dfb6" stroke-miterlimit="10" stroke-width=".5"/><path d="m25.3739108 26.5362587 2.02528074-4.80331275h-4.05056149z" fill="#fffddd"/><path d="m25.3739108 25.59787058 1.48547106-3.48728515h-2.97094212z" fill="#fffde8"/><path d="m25.3739108 24.93889848 1.08424826-2.54638666h-2.16849652z" fill="#fffffc"/><path d="m23.18575411 21.22338466.16287594.50956129h4.05056149" fill="#fcf9e3" stroke="#e3dfb6" stroke-miterlimit="10" stroke-width=".5"/><path d="m25.09116767 27.15337954.28274313-.61712084 2.02528074-4.80331275h.63200041" fill="#fcf9e3" stroke="#e3dfb6" stroke-miterlimit="10" stroke-width=".5"/><path d="m25.373911 26.536259-2.025281-4.803313" fill="#fcf9e3" stroke="#e3dfb6" stroke-miterlimit="10" stroke-width=".5"/><path d="m42.39359271 35.02791589-3.92963836 10.03937596h7.85927673z" fill="#fcf9e3" stroke="#e3dfb6" stroke-miterlimit="10" stroke-width=".5"/><path d="m42.39359271 36.95557779-2.7629251 7.33371415h5.52585021z" fill="#fffddd"/><path d="m42.39359271 38.38831194-2.02650684 5.32439877h4.05301368z" fill="#fffde8"/><path d="m42.39359271 39.39443278-1.47915134 3.88783176h2.95830269z" fill="#fffffc"/><path d="m45.37871616 45.06729185-.22219834-.77799991h-5.52585021" fill="#fcf9e3" stroke="#e3dfb6" stroke-miterlimit="10" stroke-width=".5"/><path d="m42.77931606 36.01335561-.38572335.94222218-2.7629251 7.33371415h-.86218654" fill="#fcf9e3" stroke="#e3dfb6" stroke-miterlimit="10" stroke-width=".5"/><path d="m42.393593 36.955578 2.762925 7.333714" fill="#fcf9e3" stroke="#e3dfb6" stroke-miterlimit="10" stroke-width=".5"/><path d="m0 0h56.692913v56.692913h-56.692913z" fill="none"/></svg>