<svg viewBox="0 0 52.42374243 53.71861472" xmlns="http://www.w3.org/2000/svg"><path d="m34.93281991 24.85081968c-.30208614-.00666842-.60468828-.04802277-.90249171-.12304884-.03046919-.32857818-.07456051-.65839876-.13149996-.98350328-.16302693-.92830498-.45174894-1.77636072-.85889058-2.52043474-.58830561-1.07437635-1.41747518-1.93455188-2.46684335-2.55978603l-.18113538-12.34332235c-.01687565-1.14866712.41849062-2.22502118 1.22547546-3.03050552.80749519-.80447013 1.89388562-1.24745102 3.05914506-1.24745102.03451971 0 .06930031.0005071.10404931.00149596l1.39856416.03268287c1.18845317.02748505 2.27812013.50857482 3.06822929 1.3549064.79111534.84658514 1.18618282 1.95488676 1.11286069 3.12064329l-.87602144 13.91539613c-.01764685.28129071-.06222534.56577618-.13253194.84534273-.5139773 2.0507041-2.33204105 3.53882678-4.32342573 3.53882678l-.09548389-.00124241z"/><path d="m26.88080133 17.58497974c-.09548389-.00372722-.17685545-.00519782-.24212815-.00545137-.76237472-.09880926-4.42406951-.54252545-8.77156615-.55167868l-1.17155451-12.34382945c-.11047339-1.16276462.2491714-2.28270428 1.0125781-3.15304725.7632777-.87036832 1.83733597-1.38464807 3.02439597-1.4487714l1.39337847-.07553317c.08214555-.00443716.16579006-.00666842.24806203-.00666842 2.35897571 0 4.23774564 1.82116338 4.27732474 4.14646441l.22950951 13.43851533z"/><path d="m3.30185422 6.17389243c-.18629807-1.15386494.09927641-2.29411413.80398928-3.21075571.70442908-.91664158 1.74270346-1.49803657 2.9232104-1.63743952l1.38558702-.16318614c.17876462-.02104483.35801942-.03144046.53237233-.03144046 2.24272324 0 4.07185497 1.66642053 4.2547733 3.87658355l1.00414167 12.12841158c-3.70238058.23942926-6.66578657.88345161-8.8242229 1.91672717z"/><path d="m21.26146758 53.71861472c-4.31509249 0-8.92084196-1.53046588-13.68920557-4.54882626-4.49878481-2.84799871-7.01939428-6.6824926-7.49155061-11.39696445-.60203093-6.00751154 2.29323863-11.83598993 4.38617007-14.28781347.21364552-.25007845.42037677-.47094769.61475222-.6556604.0323762-.03070516.0675151-.06141032.1022928-.09211548.24628186-.21914509.52114955-.42018655.82700459-.60690233 1.8073548-1.103332 4.75149087-1.78031613 8.75066879-2.01206276.29251214-.01708941.58551687-.03144046.87880539-.04333206l.19550848-.00742908c.29904181-.01064919.59736122-.01858537.89490666-.02477204l.17837762-.00322011c.31039358-.00494427.62194813-.00765727.93195472-.00765727h.0449685c3.3420908 0 6.55657736.27657464 8.45046579.53557812.06929741.00966034.139601.0140975.21013679.0140975.0198914 0 .08565428-.00124241.08565428-.00124241.03753825 0 .10784184.00101421.20358372.00669378.22724184.0138693.58577726.05349949 1.00326449.1654174l.10807403.0299445c.19576648.05646605.38673425.12530545.56813041.20403338.0849061.03689183.16805783.07700378.2494294.11861168.06955541.03590298.13707265.07304836.20309353.11217145.22824802.13443333.44088736.29168635.63288711.46820932.6633821.61037599 1.0972262 1.47453229 1.28870996 2.56822931.04256915.24214226.07559248.48258573.10002459.73464188.04458151.45165237.05064438.87604789.01839503 1.26182743-.1695542 2.02643917-1.40083175 3.27191248-3.76486692 3.8074906-2.03624998.46128735-8.98949439.56577618-11.49689452.56701858-.62798521 0-1.20052733.3899885-1.42438944.97039463-.22334612.57913837-.05580428 1.24448446.41710024 1.65650664.10054058.08739941 2.44767433 2.17251054 1.47490483 5.13838562-.72548146 2.21214073-3.03332259 4.34134456-3.05661952 4.36261759-.61640124.56207432-.6534493 1.51266653-.08227455 2.11928995.28797383.3058092.69637964.48111513 1.12054894.48111513.38521208 0 .75357709-.14188776 1.03662322-.39888818.14777944-.13519398 1.46520423-1.36063668 2.58714633-3.05228564.59155634-.89214845 1.02919297-1.76398738 1.30068092-2.59148004.76970177-2.34733471.26730844-4.33069538-.41560387-5.71557164 3.36856107-.06016792 7.47328726-.21640672 9.22457927-.613089 1.96999691-.446201 3.5068721-1.30860779 4.56756623-2.56348789.66766482-.79037263 1.12924336-1.72362188 1.37462224-2.77943822.33082677.05522365.66312411.08691766.99217361.09460029.05291184.0014706.10784184.00197771.16351422.00197771 2.21186706 0 4.31034539-1.05011141 5.7313293-2.83909903.21718005.38950675.47089216.75819687.75785981 1.1018614 1.12545084 1.34600673 2.6736778 2.20547231 4.3596998 2.41990133.16075658.02053772.33761203.03466057.54067976.04333206.11413691.00545137.20358372.00966034.29251454.00966034 1.19598662 0 2.36101387-.31770079 3.40506734-.92358891.42352431 6.30857931-.79867459 13.06584444-3.23551314 17.77983454-1.51344926 2.92748729-3.38618212 4.80760154-5.41562103 5.43727284-1.20633222.37414149-2.77091605.56379847-4.65045997.56379847-2.96567635 0-5.69856396-.48233218-5.72575661-.48704825-.0899628-.01632876-.18366652-.02500024-.27664785-.02500024-.36885521 0-.72535246.13146677-1.00349668.36967897-.02899862.02451849-3.07277 2.53278273-8.5449693 2.53278273z"/><path d="m46.70886483 25.58746463c-.08237775 0-.16501349-.00347366-.24790723-.00892503-.06955541-.00494427-.14009119-.01113094-.20987879-.01980242-.88332269-.1126532-1.71778116-.55266753-2.34764974-1.23804424-.72359809-.78763427-1.12519284-1.84692427-1.10153472-2.90692422.00178016-.07923503.0050567-.15897717.01160977-.23920106l.84150173-10.41495714c.15242647-1.88726441 1.70795156-3.31078202 3.61796467-3.31078202.16377512 0 .33082677.01064919.49584026.03169401l1.40259214.17852604c1.02191754.12999617 1.9175691.64255175 2.52274757 1.44281292.60494627.80028652.84555225 1.79147243.67723642 2.79056916l-1.7356602 10.2948495c-.01813704.10550303-.04055679.209003-.06624978.31199587-.14034919.56009661-.3938066 1.07660761-.75334492 1.5349284-.76237474.97285409-1.92386748 1.55326022-3.10726718 1.55326022z"/></svg>