<svg viewBox="0 0 51.30576503 51.75430907" xmlns="http://www.w3.org/2000/svg"><path d="m36.4856396 3.22750421c.74782371.94489229.99067197 2.18920399.64931219 3.32864386l-4.76693692 15.91792504-3.37919686 5.38900129c-.21982182-.05066973-.43419328-.08500394-.63966014-.10220839-.2867971-.04015969-3.03361276-.40867744-6.28947681-.4285065-3.15272196-.019236-5.71279086.29531718-7.61876128.93573435l-2.00405145-24.23201577c-.16238016-1.96514997 1.30496117-3.76121807 3.27110547-4.00369698l.04871967-.00590699c1.23944066-.15289035 2.49340311.36423072 3.27308767 1.34937991.40185586.50775404.65707891 1.11425363.7381602 1.75411652l2.25324503 17.80532383c.09649221.76302605.26314796 1.29867672.49532875 1.59204243.23681084.29921589.50255323.30240028.63991164.27759148.43862506-.07879858.82605181-.62187828 1.1842081-1.66013412l5.79951486-16.81248199c.64643179-1.87269355 2.69764202-2.91179374 4.57250098-2.31620334l.04844879.0152338c.67972552.21592683 1.27610313.62955118 1.72442321 1.19601381l.00011692.00014773z"/><path d="m40.54378802 22.99370416c.28771339.36368631.48090493.8002739.55822852 1.26272421.1276954.7633947-.06176925 1.53598276-.53351424 2.17556697l-5.97939721 8.10920965c-.51733186.70174141-1.31754224 1.17815859-2.16568952 1.31044859.39384785-.87687942.57013319-1.90914299.52446221-3.07682747-.00936838-.23426984-.03140086-.47010617-.06558833-.70098712-.13822507-.93403636-.48028874-1.7512745-1.01675521-2.4291121-.20541833-.25955074-.43982713-.4987615-.6990796-.71334682l3.88713505-6.19910088c.59803312-.95368987 1.65130459-1.47193865 2.74860017-1.35251902.45785069.04980012.88766732.20757332 1.27771267.46926165l.81256838.54517669c.25009815.16768548.46919.3693839.65125865.59943179l.00005846.00007387z"/><path d="m44.00801199 39.35394037c-1.11612383 3.82579948-5.00402948 10.91750464-8.77356522 11.82539714-3.34319129.8050208-7.12159499-.12933693-7.15832318-.13905644-.24716166-.08253654-.53366211-.07723162-.79321606.01906014-.07576462.02359602-8.82837652 2.70786862-14.26251215-2.63498947-.25848699-.25418354-.50303111-.52636011-.72687547-.80919255-1.96144713-2.47833312-2.21144292-5.54182297-2.07580638-7.67550061.24980481-3.9324084 1.91924484-7.50643863 3.32270322-8.56252867.25410321-.19111167.56205062-.36903638.91524502-.52884778 3.59606923-1.62721404 11.01179945-1.04343771 13.56565895-.68127211.02995379.00417615.05547736.00681732.08060479.00883484.01584553.00106194.36239225.02807596.78834955.20288674.26355837.10805553.50211071.25074965.70904793.42416365.11456739.09591381.21988918.2022442.31308547.31593713l.02770678.03426948c.19102476.24136414.33730995.52598111.43496818.84579977.08400496.27579057.13314326.57985464.14592858.90394317.04274472 1.08839628-.16832067 1.93215017-.62738184 2.50764552-.17211483.21563715-.38394697.40078849-.62934371.54999359-.24687236.14989519-.53685067.26951654-.86213827.35563467-.22844184.06031961-.47750171.10542172-.73993164.13390747-1.68033174.18312041-6.87354886.75922367-7.79641563.86167618l-.14031346.01553498c-.23657978.0261534-.46063421.12236372-.648157.27812103-.14874409.12343958-.26758675.27955115-.34349485.45159288-.1205877.27292523-.13570481.58040989-.04258454.86577884.04219522.12905931.10241723.24602438.17903905.34763917.01365105.01829486 1.43044726 1.95033577 1.00667031 3.76860145-.32708723 1.40231263-1.82324617 2.08110688-1.83832683 2.08790565-.15593059.06643792-.29695511.16580631-.41585232.29374863-.32494558.34927136-.41925158.85619986-.24052248 1.29134939.04251545.10333339.09888422.19964069.16762123.28649147.33266287.42032711.91468872.56676203 1.41540634.35620502.04623193-.01942249 1.14612329-.48870728 2.07660798-1.52878916.26767505-.29898362.49898708-.62045989.68763897-.95514969.23369226-.41495786.40598538-.85671122.51242079-1.31313467.35434459-1.51991571-.01453606-2.97308636-.45472661-4.02354121 1.94807181-.21603831 4.91349137-.54423321 6.105732-.67409214.94840899-.10326567 1.78864603-.36139888 2.50004911-.76757406.30718827.09267048.62240466.15688905.93904607.19132992.55787543.06061223 1.11840819.03594139 1.6719598-.07360275-.01932557.17425376-.0300538.34942914-.0320381.52411095-.01263589 1.16015435.36131118 2.28021432 1.05296627 3.15413628.21368396.26999455.4578044.51667482.72541043.73307411.70834604.57221158 1.57470791.92823808 2.50540856 1.02952378.74781213.08133903 1.49214667.00125465 2.21246262-.23782984.89275481-.29620559 1.69310366-.82581687 2.31446401-1.53166228l2.22532371-2.52752962z"/><path d="m46.22127212 30.20774614c.2936693.37105784.46853272.81834325.50546735 1.29331778.0515298.6620178-.16844677 1.30861303-.61919931 1.82067775l-6.13955862 6.97343735c-.14527865.16509041-.31059856.31356841-.49155922.44169919-.56319495.39883018-1.2467397.57782246-1.92499647.50412992-.47134757-.05140318-.90608054-.22843815-1.25734873-.51207398-.13395803-.10825701-.25628365-.23185553-.36344132-.36725169-.54875482-.69336421-.68921553-1.6742379-.36644288-2.55991473.09691716-.2664539.23212073-.5155255.40202711-.74057034l5.59616741-7.41266165c.53571978-.70962442 1.37222134-1.07721506 2.23756429-.98322729.46009333.05023307.89704967.23324745 1.26370643.5297098l.77088311.62297438c.14403778.11646863.27420654.24757646.3866724.38967964l.00005846.00007387z"/><path d="m0 1.950722h51.305765v49.448739h-51.305765z" fill="none"/></svg>