<svg viewBox="0 0 56.69291339 56.69291339" xmlns="http://www.w3.org/2000/svg"><ellipse cx="17.709416" cy="23.468652" fill="#d3d3d4" rx="2.120099" ry="15.013972" transform="matrix(.75326914 -.6577124 .6577124 .75326914 -11.066164 17.438143)"/><ellipse cx="17.709416" cy="23.468652" fill="#dcdddd" rx="1.298059" ry="12.22726" transform="matrix(.75326913 -.65771241 .65771241 .75326913 -11.066164 17.438144)"/><ellipse cx="31.11177" cy="36.89129" fill="#d3d3d4" rx=".627816" ry="1.34667" transform="matrix(.75326884 -.65771275 .65771275 .75326884 -16.587629 29.564839)"/><ellipse cx="31.11177" cy="36.89129" fill="#dcdddd" rx=".384389" ry="1.096717" transform="matrix(.75326883 -.65771276 .65771276 .75326883 -16.587629 29.56484)"/><ellipse cx="34.698378" cy="38.863091" fill="#d3d3d4" rx=".627816" ry="1.34667" transform="matrix(.75326884 -.65771275 .65771275 .75326884 -16.999579 32.410301)"/><ellipse cx="34.698378" cy="38.863091" fill="#dcdddd" rx=".384389" ry="1.096717" transform="matrix(.75326883 -.65771276 .65771276 .75326883 -16.999579 32.410302)"/><ellipse cx="40.695618" cy="35.781147" fill="#d3d3d4" rx="4.935505" ry="9.275417" transform="matrix(.75326876 -.65771283 .65771283 .75326876 -13.49284 35.594357)"/><ellipse cx="40.695618" cy="35.781147" fill="#dcdddd" rx="3.021828" ry="7.553826" transform="matrix(.75326876 -.65771283 .65771283 .75326876 -13.49284 35.594357)"/><ellipse cx="35.689514" cy="22.843447" fill="#d3d3d4" rx="15.013972" ry="2.120099" transform="matrix(.98120641 -.19296107 .19296107 .98120641 -3.737162 7.315997)"/><ellipse cx="35.689514" cy="22.843447" fill="#dcdddd" rx="12.22726" ry="1.298059" transform="matrix(.98120641 -.19296109 .19296109 .98120641 -3.737162 7.315998)"/><ellipse cx="17.363992" cy="27.738907" fill="#d3d3d4" rx="1.34667" ry=".627816" transform="matrix(.98120632 -.19296153 .19296153 .98120632 -5.026209 3.871898)"/><ellipse cx="17.363992" cy="27.738907" fill="#dcdddd" rx="1.096717" ry=".384389" transform="matrix(.98120632 -.19296154 .19296154 .98120632 -5.026209 3.871899)"/><ellipse cx="13.863058" cy="29.8591" fill="#d3d3d4" rx="1.34667" ry=".627816" transform="matrix(.98120632 -.19296153 .19296153 .98120632 -5.50112 3.236199)"/><ellipse cx="13.863058" cy="29.8591" fill="#dcdddd" rx="1.096717" ry=".384389" transform="matrix(.98120632 -.19296154 .19296154 .98120632 -5.50112 3.2362)"/><ellipse cx="13.53348" cy="36.593834" fill="#d3d3d4" rx="9.275417" ry="4.935505" transform="matrix(.9812063 -.19296164 .19296164 .9812063 -6.806862 3.299176)"/><ellipse cx="13.53348" cy="36.593834" fill="#dcdddd" rx="7.553826" ry="3.021828" transform="matrix(.9812063 -.19296164 .19296164 .9812063 -6.806862 3.299176)"/><ellipse cx="27.240909" cy="38.727271" fill="#d3d3d4" rx="15.013972" ry="2.120099" transform="matrix(.32349401 -.94623022 .94623022 .32349401 -18.216276 51.975402)"/><ellipse cx="27.240909" cy="38.727271" fill="#dcdddd" rx="12.22726" ry="1.298059" transform="matrix(.323494 -.94623022 .94623022 .323494 -18.216276 51.975403)"/><ellipse cx="32.164078" cy="20.409173" fill="#d3d3d4" rx="1.34667" ry=".627816" transform="matrix(.32349357 -.94623037 .94623037 .32349357 2.447426 44.241564)"/><ellipse cx="32.164078" cy="20.409173" fill="#dcdddd" rx="1.096717" ry=".384389" transform="matrix(.32349356 -.94623037 .94623037 .32349356 2.447426 44.241564)"/><ellipse cx="32.078403" cy="16.317179" fill="#d3d3d4" rx="1.34667" ry=".627816" transform="matrix(.32349357 -.94623037 .94623037 .32349357 6.261435 41.392236)"/><ellipse cx="32.078403" cy="16.317179" fill="#dcdddd" rx="1.096717" ry=".384389" transform="matrix(.32349356 -.94623037 .94623037 .32349356 6.261436 41.392236)"/><ellipse cx="26.410742" cy="12.664389" fill="#d3d3d4" rx="9.275417" ry="4.935505" transform="matrix(.32349347 -.9462304 .9462304 .32349347 5.88361 33.558189)"/><ellipse cx="26.410742" cy="12.664389" fill="#dcdddd" rx="7.553826" ry="3.021828" transform="matrix(.32349347 -.9462304 .9462304 .32349347 5.883609 33.558189)"/><path d="m0 0h56.692913v56.692913h-56.692913z" fill="none"/></svg>