<svg viewBox="0 0 56.69291339 56.69291339" xmlns="http://www.w3.org/2000/svg"><ellipse cx="42.963272" cy="35.963942" fill="#d3d3d4" rx="5.395703" ry="16.75728" transform="matrix(.88503986 -.46551525 .46551525 .88503986 -11.8027 24.134478)"/><ellipse cx="42.963272" cy="35.963942" fill="#dcdddd" rx="3.30359" ry="13.646996" transform="matrix(.88503986 -.46551524 .46551524 .88503986 -11.802699 24.134477)"/><ellipse cx="18.284191" cy="36.610186" fill="#d3d3d4" rx="5.395703" ry="16.75728" transform="matrix(.05680478 -.9983853 .9983853 .05680478 -19.30551 52.78522)"/><ellipse cx="18.284191" cy="36.610186" fill="#dcdddd" rx="3.30359" ry="13.646996" transform="matrix(.05680479 -.9983853 .9983853 .05680479 -19.30551 52.78522)"/><ellipse cx="30.440918" cy="15.123245" fill="#d3d3d4" rx="16.75728" ry="5.395703" transform="matrix(.56289765 -.82652661 .82652661 .56289765 .806032 31.770634)"/><ellipse cx="30.440918" cy="15.123245" fill="#dcdddd" rx="13.646996" ry="3.30359" transform="matrix(.56289765 -.82652661 .82652661 .56289765 .806032 31.770634)"/><path d="m0 0h56.692913v56.692913h-56.692913z" fill="none"/></svg>