<svg viewBox="0 0 56.69291339 56.69291339" xmlns="http://www.w3.org/2000/svg"><ellipse cx="29.041461" cy="13.991203" fill="#d3d3d4" rx="5.172987" ry="9.553133" transform="matrix(.85486966 -.51884281 .51884281 .85486966 -3.044438 17.098501)"/><ellipse cx="29.041461" cy="13.991203" fill="#dcdddd" rx="3.167229" ry="7.779996" transform="matrix(.85486961 -.51884289 .51884289 .85486961 -3.044438 17.098504)"/><ellipse cx="33.134456" cy="24.446694" fill="#d3d3d4" rx="1.531855" ry=".856863" transform="matrix(.85486865 -.51884447 .51884447 .85486865 -7.875184 20.739611)"/><ellipse cx="33.134456" cy="24.446694" fill="#dcdddd" rx=".937898" ry=".697822" transform="matrix(.85486766 -.5188461 .5188461 .85486766 -7.875191 20.739689)"/><ellipse cx="31.473343" cy="28.316164" fill="#d3d3d4" rx="1.531855" ry=".856863" transform="matrix(.85486865 -.51884447 .51884447 .85486865 -10.123917 20.439333)"/><ellipse cx="31.473343" cy="28.316164" fill="#dcdddd" rx=".937898" ry=".697822" transform="matrix(.85486766 -.5188461 .5188461 .85486766 -10.123932 20.439412)"/><ellipse cx="42.565133" cy="30.108087" fill="#d3d3d4" rx="9.553133" ry="5.172987" transform="matrix(.83624155 -.54836127 .54836127 .83624155 -9.539708 28.271524)"/><ellipse cx="42.565133" cy="30.108087" fill="#dcdddd" rx="7.779996" ry="3.167229" transform="matrix(.8362415 -.54836134 .54836134 .8362415 -9.539709 28.271529)"/><ellipse cx="32.258854" cy="34.56348" fill="#d3d3d4" rx=".856863" ry="1.531855" transform="matrix(.83624048 -.54836289 .54836289 .83624048 -13.670635 23.349658)"/><ellipse cx="32.258854" cy="34.56348" fill="#dcdddd" rx=".697822" ry=".937898" transform="matrix(.83623943 -.54836449 .54836449 .83623943 -13.670657 23.349745)"/><ellipse cx="28.33377" cy="33.038421" fill="#d3d3d4" rx=".856863" ry="1.531855" transform="matrix(.83624048 -.54836289 .54836289 .83624048 -13.47712 20.947544)"/><ellipse cx="28.33377" cy="33.038421" fill="#dcdddd" rx=".697822" ry=".937898" transform="matrix(.83623943 -.54836449 .54836449 .83623943 -13.477143 20.947624)"/><ellipse cx="26.930036" cy="44.185992" fill="#d3d3d4" rx="5.172987" ry="9.553133" transform="matrix(.8165946 -.57721163 .57721163 .8165946 -20.565554 23.64828)"/><ellipse cx="26.930036" cy="44.185992" fill="#dcdddd" rx="3.167229" ry="7.779996" transform="matrix(.81659455 -.5772117 .5772117 .81659455 -20.565556 23.648284)"/><ellipse cx="22.117673" cy="34.041482" fill="#d3d3d4" rx="1.531855" ry=".856863" transform="matrix(.81659348 -.57721321 .57721321 .81659348 -15.592668 19.010043)"/><ellipse cx="22.117673" cy="34.041482" fill="#dcdddd" rx=".937898" ry=".697822" transform="matrix(.81659237 -.57721477 .57721477 .81659237 -15.592697 19.010115)"/><ellipse cx="23.50482" cy="30.065565" fill="#d3d3d4" rx="1.531855" ry=".856863" transform="matrix(.81659348 -.57721321 .57721321 .81659348 -13.043304 19.081513)"/><ellipse cx="23.50482" cy="30.065565" fill="#dcdddd" rx=".937898" ry=".697822" transform="matrix(.81659237 -.57721477 .57721477 .81659237 -13.043325 19.081583)"/><ellipse cx="12.31505" cy="29.051731" fill="#d3d3d4" rx="9.553133" ry="5.172987" transform="matrix(.79595276 -.60535875 .60535875 .79595276 -15.073867 13.382949)"/><ellipse cx="12.31505" cy="29.051731" fill="#dcdddd" rx="7.779996" ry="3.167229" transform="matrix(.7959527 -.60535882 .60535882 .7959527 -15.073869 13.382951)"/><ellipse cx="22.285431" cy="23.888261" fill="#d3d3d4" rx=".856863" ry="1.531855" transform="matrix(.79595158 -.60536029 .60536029 .79595158 -9.913698 18.365077)"/><ellipse cx="22.285431" cy="23.888261" fill="#dcdddd" rx=".697822" ry=".937898" transform="matrix(.79595042 -.60536181 .60536181 .79595042 -9.913708 18.365138)"/><ellipse cx="26.307337" cy="25.135806" fill="#d3d3d4" rx=".856863" ry="1.531855" transform="matrix(.79595158 -.60536029 .60536029 .79595158 -9.848248 21.054339)"/><ellipse cx="26.307337" cy="25.135806" fill="#dcdddd" rx=".697822" ry=".937898" transform="matrix(.79595042 -.60536181 .60536181 .79595042 -9.848256 21.054408)"/><path d="m0 0h56.692913v56.692913h-56.692913z" fill="none"/></svg>