<svg viewBox="0 0 39.00812914 43.85232929" xmlns="http://www.w3.org/2000/svg"><g stroke-miterlimit="10"><path d="m11.69239204 43.29104137c-1.61574936 1.11026764-10.73752785-13.23210335-10.73752785-13.23210335s5.23423576.3748455 8.24295044-1.84381866c6.38104439-4.7054615 1.30151749-24.29501009 1.30151749-24.29501009s8.48430382 15.8359191 16.05206108 19.52277613c4.22993505 2.06073811 11.71366501-7.80911064 11.71366501-7.80911064s1.2007637 22.53363609-1.73535538 22.6681118c-1.87213135.08574677-3.31867218-8.32603836-6.07375336-8.13448906-1.34625626.09359932-1.46450806 2.13434792-2.92841721 2.49457741-3.76758957.92710114-9.15139389-11.07258797-11.17136765-10.30368805-1.58716202.60415077.80506134 8.36712265-2.27765656 10.19522858-1.25177002.74232101-2.30949593-.1443367-3.25379562.65076065-2.34970856 1.97845078 2.0746212 9.25741196.8676796 10.08676529z" fill="#e83632" stroke="#f1905b"/><path d="m23.08067672 41.98952388-6.94143105-3.90455627 4.33839417-5.42299271s8.2954216 6.39205551 5.53145599 7.26681137c-3.239151 1.02514648-3.3556633 1.82554245-2.92841911 2.06073761z" fill="#f9cb8a" stroke="#f8dd8a"/></g></svg>